G04 ================== begin FILE IDENTIFICATION RECORD ==================*
G04 Layout Name:  E:/Project/FPMemory/ElectronicDesign/PCB/output/FPMemory.brd*
G04 Film Name:    BOTTOM*
G04 File Format:  Gerber RS274X*
G04 File Origin:  Cadence Allegro 17.2-S045*
G04 Origin Date:  Sat Oct 20 17:30:39 2018*
G04 *
G04 Layer:  ETCH/BOTTOM*
G04 Layer:  PIN/BOTTOM*
G04 Layer:  VIA CLASS/BOTTOM*
G04 *
G04 Offset:    (0.00 0.00)*
G04 Mirror:    No*
G04 Mode:      Positive*
G04 Rotation:  0*
G04 FullContactRelief:  No*
G04 UndefLineWidth:     6.00*
G04 ================== end FILE IDENTIFICATION RECORD ====================*
%FSLAX25Y25*MOIN*%
%IR0*IPPOS*OFA0.00000B0.00000*MIA0B0*SFA1.00000B1.00000*%
%ADD15C,.05*%
%ADD13C,.016*%
%ADD10R,.05X.05*%
%ADD12C,.07087*%
%ADD14R,.07087X.07087*%
%ADD16R,.02362X.06299*%
%ADD17R,.05709X.04528*%
%ADD11R,.04528X.05709*%
%ADD18C,.01*%
%ADD19C,.03604*%
G75*
%LPD*%
G75*
G36*
G01X-47502Y-42622D02*
Y-46500D01*
G03X-46500Y-47502I1002J0D01*
G01X-41500D01*
G03X-40498Y-46500I0J1002D01*
G01Y-41500D01*
G03X-41500Y-40498I-1002J0D01*
G01X-45378D01*
X-47954Y-37922D01*
Y-34566D01*
G02X-47273Y-34282I400J0D01*
G03X-45309Y-34661I1266J1282D01*
G02X-44754Y-35029I155J-369D01*
G01Y-35854D01*
G03X-43752Y-36856I1002J0D01*
G01X-39224D01*
G03X-38222Y-35854I0J1002D01*
G01Y-30146D01*
G03X-39224Y-29144I-1002J0D01*
G01X-43752D01*
G03X-44754Y-30146I0J-1002D01*
G01Y-30971D01*
G02X-45309Y-31339I-400J1D01*
G03X-47273Y-31718I-698J-1661D01*
G02X-47954Y-31434I-281J284D01*
G01Y207D01*
X-46991Y1170D01*
G02X-46308Y888I283J-283D01*
G01Y-3376D01*
G03X-46072Y-4023I1001J-1D01*
G02X-46127Y-4594I-305J-259D01*
G03X-46159Y-7379I1127J-1406D01*
G02X-46100Y-7930I-258J-306D01*
G03X-46308Y-8542I793J-611D01*
G01Y-14252D01*
G03X-45307Y-15252I1001J1D01*
G01X-40779D01*
G03X-39778Y-14252I0J1001D01*
G01Y-8540D01*
G03X-40779Y-7540I-1001J-1D01*
G01X-43116D01*
G02X-43458Y-6933I0J400D01*
G03X-43327Y-6668I-1544J928D01*
G01X-43276Y-6542D01*
X-27284D01*
X-27009Y-6267D01*
X-26953Y-6254D01*
G03X-28890Y-3540I-412J1754D01*
G01X-32692D01*
Y2334D01*
G03X-33693Y3334I-1001J-1D01*
G01X-34456D01*
Y4154D01*
G02X-34314Y4496I141J142D01*
G01X-32449D01*
X-28692Y8253D01*
Y13871D01*
X-28044Y14518D01*
X-20724D01*
G03X-19867Y14223I996J1502D01*
G02X-19682Y14024I-15J-199D01*
G01Y8220D01*
G03X-19186Y7356I1001J0D01*
G03X-19248Y6283I1686J-636D01*
G02X-19636Y5786I-388J-97D01*
G01X-20021D01*
X-21682Y4124D01*
Y-9894D01*
X-32692D01*
Y-8540D01*
G03X-33693Y-7540I-1001J-1D01*
G01X-38221D01*
G03X-39222Y-8540I0J-1001D01*
G01Y-14251D01*
G03X-38596Y-15179I1001J0D01*
G02X-38463Y-15833I-150J-371D01*
G01X-38744Y-16114D01*
X-42711D01*
G03X-45460Y-18031I-996J-1501D01*
G02X-45695Y-18492I-389J-92D01*
G03X-46308Y-19414I388J-923D01*
G01Y-25126D01*
G03X-45307Y-26126I1001J1D01*
G01X-40779D01*
G03X-39778Y-25126I0J1001D01*
G01Y-19416D01*
G03X-39781Y-19333I-1001J5D01*
G01X-39782Y-19325D01*
Y-19116D01*
X-39218D01*
Y-19325D01*
X-39219Y-19333D01*
G03X-39222Y-19416I998J-78D01*
G01Y-25126D01*
G03X-38221Y-26126I1001J1D01*
G01X-33693D01*
G03X-32692Y-25126I0J1001D01*
G01Y-23772D01*
X-30228D01*
Y-27685D01*
G03X-30528Y-28681I1501J-995D01*
G03X-26926I1801J0D01*
G03X-27226Y-27685I-1801J1D01*
G01Y-22849D01*
X-23644Y-19267D01*
X-23588Y-19254D01*
G03X-22198Y-17500I-412J1754D01*
G03X-24000Y-15698I-1802J0D01*
G03X-25754Y-17088I0J-1802D01*
G01X-25767Y-17144D01*
X-29392Y-20768D01*
X-32692D01*
Y-19414D01*
G03X-33693Y-18414I-1001J-1D01*
G01X-35832D01*
G02X-36115Y-17731I0J400D01*
G01X-34456Y-16072D01*
Y-15252D01*
X-33693D01*
G03X-32692Y-14252I0J1001D01*
G01Y-12898D01*
X-19103D01*
G02X-18812Y-13572I0J-400D01*
G03X-19002Y-15803I1312J-1235D01*
G01Y-17519D01*
X-19115Y-17574D01*
G03X-19682Y-18476I434J-902D01*
G01Y-24776D01*
G03X-19115Y-25678I1001J0D01*
G01X-19002Y-25733D01*
Y-27500D01*
G03X-18576Y-28548I1502J0D01*
G02X-18727Y-29203I-286J-279D01*
G03X-19390Y-30145I339J-943D01*
G01Y-35854D01*
G03X-18388Y-36856I1002J0D01*
G01X-13860D01*
G03X-12858Y-35854I0J1002D01*
G01Y-30146D01*
G03X-13197Y-29395I-1002J0D01*
G02X-13214Y-28813I266J299D01*
G01X-10998Y-26597D01*
Y-25733D01*
X-10885Y-25678D01*
G03X-10318Y-24776I-434J902D01*
G01Y-18476D01*
G03X-11319Y-17475I-1001J0D01*
G01X-13681D01*
G03X-14682Y-18476I0J-1001D01*
G01Y-24777D01*
G03X-14400Y-25473I1001J1D01*
G01X-14263Y-25614D01*
X-14647Y-25998D01*
X-15185D01*
G02X-15508Y-25364I1J400D01*
G03X-15318Y-24776I-812J587D01*
G01Y-18476D01*
G03X-15885Y-17574I-1001J0D01*
G01X-15998Y-17519D01*
Y-15803D01*
G03X-16188Y-13572I-1502J996D01*
G02X-15897Y-12898I291J274D01*
G01X-9420D01*
G02X-9071Y-13493I0J-400D01*
G03X-9002Y-15372I1571J-883D01*
G01Y-17519D01*
X-9115Y-17574D01*
G03X-9682Y-18476I434J-902D01*
G01Y-24776D01*
G03X-8681Y-25777I1001J0D01*
G01X-6319D01*
G03X-5318Y-24776I0J1001D01*
G01Y-18476D01*
G03X-5885Y-17574I-1001J0D01*
G01X-5998Y-17519D01*
Y-15372D01*
G03X-5700Y-14285I-1502J996D01*
G02X-5018Y-13981I399J21D01*
G01X-4002Y-14998D01*
Y-17519D01*
X-4115Y-17574D01*
G03X-4682Y-18476I434J-902D01*
G01Y-24776D01*
G03X-4413Y-25459I1001J0D01*
G02X-4422Y-26015I-292J-273D01*
G01X-6430Y-28023D01*
Y-29144D01*
X-7192D01*
G03X-8194Y-30146I0J-1002D01*
G01Y-35854D01*
G03X-7192Y-36856I1002J0D01*
G01X-2664D01*
G03X-1662Y-35854I0J1002D01*
G01Y-30145D01*
G03X-1915Y-29480I-1002J-1D01*
G02X-1617Y-28814I299J266D01*
G01X-1153D01*
G02X-855Y-29480I-1J-400D01*
G03X-1108Y-30145I749J-666D01*
G01Y-35854D01*
G03X-106Y-36856I1002J0D01*
G01X4422D01*
G03X5424Y-35854I0J1002D01*
G01Y-30145D01*
G03X5171Y-29480I-1002J-1D01*
G02X5469Y-28814I299J266D01*
G01X7455D01*
X9002Y-27268D01*
Y-25733D01*
X9115Y-25678D01*
G03X9682Y-24776I-434J902D01*
G01Y-19447D01*
G02X10024Y-19305I200J1D01*
G01X10318Y-19599D01*
Y-24776D01*
G03X11319Y-25777I1001J0D01*
G01X13681D01*
G03X14682Y-24776I0J1001D01*
G01Y-19033D01*
G02X15365Y-18751I400J-1D01*
G01X15612Y-18998D01*
Y-29144D01*
X11086D01*
G03X10084Y-30146I0J-1002D01*
G01Y-35854D01*
G03X11086Y-36856I1002J0D01*
G01X15614D01*
G03X16616Y-35854I0J1002D01*
G01Y-34142D01*
G02X16957Y-34000I200J0D01*
G01X17170Y-34214D01*
Y-35854D01*
G03X18172Y-36856I1002J0D01*
G01X18934D01*
Y-37410D01*
X23026Y-41502D01*
X24652D01*
G03X27400Y-39576I996J1502D01*
G02X27788Y-39082I389J94D01*
G01X39220D01*
G02X39553Y-39703I-1J-400D01*
G03X39523Y-41649I1502J-996D01*
G01X39554Y-41697D01*
Y-42375D01*
X39486Y-42443D01*
X39219D01*
X39168Y-42319D01*
G03X36630Y-44578I-1668J-681D01*
G02X36740Y-45189I-193J-350D01*
G01X35431Y-46498D01*
X8503D01*
G02X8165Y-45883I-1J400D01*
G03X8714Y-44000I-2952J1882D01*
G03X1712I-3501J0D01*
G03X2261Y-45883I3501J-1D01*
G02X1923Y-46498I-337J-215D01*
G01X-1340D01*
G02X-1678Y-45883I-1J400D01*
G03X-8077Y-43383I-2952J1884D01*
G02X-8754Y-43595I-394J71D01*
G01X-8970Y-43378D01*
Y-41578D01*
X-12550Y-37998D01*
X-27637D01*
X-27837Y-38198D01*
X-31942D01*
G03X-34691Y-40116I-996J-1502D01*
G02X-34986Y-40597I-389J-92D01*
G03X-31395Y-41847I829J-3403D01*
G02X-31079Y-41202I316J245D01*
G01X-27393D01*
G02X-27077Y-41847I0J-400D01*
G03X-21703Y-41668I2762J-2153D01*
G02X-21405Y-41002I299J266D01*
G01X-17382D01*
G02X-17084Y-41668I-1J-400D01*
G03X-13411Y-47337I2612J-2332D01*
G01X-13295Y-47301D01*
X-10098Y-50497D01*
G02X-10381Y-51180I-283J-283D01*
G01X-61023D01*
Y-26542D01*
G02X-60340Y-26259I400J0D01*
G01X-58597Y-28003D01*
X-58652Y-28128D01*
G03X-51612Y-33485I4152J-1848D01*
G02X-50958Y-33794I254J-309D01*
G01Y-39166D01*
X-47502Y-42622D01*
G37*
G36*
G01X-4278Y48354D02*
X-3722D01*
Y42646D01*
G03X-2721Y41644I1001J-1D01*
G01X334D01*
G02X728Y41172I1J-400D01*
G03X698Y40845I1772J-327D01*
G03X998Y39849I1803J0D01*
G01Y36737D01*
X885Y36682D01*
G03X318Y35780I434J-902D01*
G01Y29480D01*
G03X1319Y28479I1001J0D01*
G01X2232D01*
G02X2515Y27796I0J-400D01*
G01X-3587Y21694D01*
X-23631D01*
G03X-24627Y21995I-997J-1501D01*
G03Y18391I0J-1802D01*
G03X-23631Y18692I-1J1802D01*
G01X-2343D01*
X6682Y27717D01*
Y28479D01*
X8681D01*
G03X8782Y28484I1J1002D01*
G01X8792Y28485D01*
X9002D01*
Y25611D01*
G03X9205Y25263I400J0D01*
G02X9290Y24632I-198J-348D01*
G01X998Y16341D01*
Y15477D01*
X885Y15422D01*
G03X318Y14520I434J-902D01*
G01Y8220D01*
G03X565Y7562I1001J0D01*
G02X264Y6898I-301J-264D01*
G01X-998D01*
Y7263D01*
X-885Y7318D01*
G03X-318Y8220I-434J902D01*
G01Y14520D01*
G03X-1319Y15521I-1001J0D01*
G01X-3681D01*
G03X-4682Y14520I0J-1001D01*
G01Y8220D01*
G03X-4115Y7318I1001J0D01*
G01X-4002Y7263D01*
Y6898D01*
X-5264D01*
G02X-5565Y7562I0J400D01*
G03X-5318Y8220I-754J658D01*
G01Y14520D01*
G03X-5885Y15422I-1001J0D01*
G01X-5998Y15477D01*
Y16341D01*
X-7179Y17522D01*
X-18732D01*
G03X-20724I-996J-1503D01*
G01X-29288D01*
X-31694Y15115D01*
Y9497D01*
X-32009Y9183D01*
G02X-32692Y9466I-283J283D01*
G01Y13206D01*
G03X-33693Y14208I-1001J1D01*
G01X-34456D01*
Y15028D01*
X-35936Y16508D01*
X-39206D01*
G03X-40202Y16809I-997J-1501D01*
G03X-42004Y15007I0J-1802D01*
G03X-41974Y14680I1802J0D01*
G02X-42368Y14208I-393J-72D01*
G01X-45307D01*
G03X-45873Y14033I0J-1003D01*
G02X-46498Y14363I-225J330D01*
G01Y17004D01*
G03X-46342Y17295I-1503J993D01*
G02X-45783Y17490I368J-156D01*
G03X-45307Y17370I475J882D01*
G01X-40779D01*
G03X-39778Y18372I0J1001D01*
G01Y24080D01*
X-39222D01*
Y18372D01*
G03X-38221Y17370I1001J-1D01*
G01X-33693D01*
G03X-32692Y18372I0J1001D01*
G01Y24080D01*
X-30883D01*
X-30747Y23944D01*
X-9378D01*
X-5998Y27323D01*
Y28523D01*
X-5885Y28578D01*
G03X-5318Y29480I-434J902D01*
G01Y35780D01*
G03X-5772Y36618I-1001J0D01*
G02X-5846Y36865I110J167D01*
G03X-5698Y37580I-1653J715D01*
G03X-9302I-1802J0D01*
G03X-9154Y36865I1801J0D01*
G02X-9228Y36618I-184J-80D01*
G03X-9682Y35780I547J-838D01*
G01Y29480D01*
G03X-9379Y28763I1001J1D01*
G02X-9375Y28193I-279J-287D01*
G01X-10622Y26946D01*
X-15745D01*
G02X-16028Y27629I0J400D01*
G01X-15998Y27659D01*
Y28523D01*
X-15885Y28578D01*
G03X-15318Y29480I-434J902D01*
G01Y35778D01*
X-14682D01*
Y29480D01*
G03X-13681Y28479I1001J0D01*
G01X-11319D01*
G03X-10318Y29480I0J1001D01*
G01Y35780D01*
G03X-10885Y36682I-1001J0D01*
G01X-10998Y36737D01*
Y37601D01*
X-12179Y38782D01*
X-20255D01*
X-22537Y41063D01*
G02X-22404Y41717I283J283D01*
G03X-21778Y42646I-375J928D01*
G01Y48354D01*
X-21222D01*
Y42646D01*
G03X-20221Y41644I1001J-1D01*
G01X-15693D01*
G03X-15445Y41675I1J1002D01*
G02X-15217Y41571I49J-194D01*
G03X-13607Y40578I1610J809D01*
G03X-11805Y42380I0J1802D01*
G03X-12106Y43376I-1802J-1D01*
G01Y48354D01*
X-10808D01*
Y42646D01*
G03X-9807Y41644I1001J-1D01*
G01X-5279D01*
G03X-4278Y42646I0J1001D01*
G01Y48354D01*
G37*
G36*
G01X-39778Y45828D02*
X-39222D01*
Y40120D01*
G03X-38221Y39118I1001J-1D01*
G01X-33693D01*
G03X-32692Y40120I0J1001D01*
G01Y44238D01*
G02X-32009Y44521I400J0D01*
G01X-31694Y44207D01*
Y39536D01*
X-30495Y38337D01*
X-30482Y38281D01*
G03X-28728Y36891I1754J412D01*
G03X-26926Y38693I0J1802D01*
G03X-28316Y40447I-1802J0D01*
G01X-28372Y40460D01*
X-28692Y40780D01*
Y41648D01*
G02X-28011Y41933I400J0D01*
G03X-27307Y41644I704J713D01*
G01X-26544D01*
Y40824D01*
X-21499Y35778D01*
X-19682D01*
Y29480D01*
Y29246D01*
X-21331D01*
G03X-22327Y29547I-997J-1501D01*
G03X-24129Y27745I0J-1802D01*
G03X-24099Y27419I1802J1D01*
G02X-24493Y26946I-394J-73D01*
G01X-25727D01*
G02X-26121Y27419I0J400D01*
G03X-26091Y27745I-1772J327D01*
G03X-27893Y29547I-1802J0D01*
G03X-28889Y29246I1J-1802D01*
G01X-32692D01*
Y34954D01*
G03X-33693Y35956I-1001J1D01*
G01X-38221D01*
G03X-39222Y34954I0J-1001D01*
G01Y29246D01*
X-39778D01*
Y34954D01*
G03X-40129Y35716I-1001J1D01*
G02X-40165Y36289I260J304D01*
G03X-39698Y37500I-1335J1210D01*
G03X-40197Y38745I-1803J0D01*
G02X-40157Y39335I289J277D01*
G03X-39778Y40120I-622J784D01*
G01Y45828D01*
G37*
G36*
G01X-112Y3896D02*
X112D01*
G02X456Y3292I0J-400D01*
G03X318Y2784I863J-507D01*
G01Y-3516D01*
G03X885Y-4418I1001J0D01*
G01X998Y-4473D01*
Y-5998D01*
X7192Y-12192D01*
G02X6909Y-12874I-283J-282D01*
G01X-1878D01*
X-4858Y-9894D01*
X-5768D01*
G02X-6082Y-9248I1J400D01*
G03X-5698Y-8135I-1418J1112D01*
G03X-5998Y-7139I-1803J0D01*
G01Y-4473D01*
X-5885Y-4418D01*
G03X-5318Y-3516I-434J902D01*
G01Y2784D01*
G03X-5456Y3292I-1001J1D01*
G02X-5112Y3896I344J204D01*
G01X-4888D01*
G02X-4544Y3292I0J-400D01*
G03X-4682Y2784I863J-507D01*
G01Y-3516D01*
G03X-3681Y-4517I1001J0D01*
G01X-1319D01*
G03X-318Y-3516I0J1001D01*
G01Y2784D01*
G03X-456Y3292I-1001J1D01*
G02X-112Y3896I344J204D01*
G37*
G36*
G01X33356Y-1034D02*
X38144D01*
Y-5561D01*
G03X39146Y-6562I1001J0D01*
G01X44854D01*
G03X45783Y-5936I1J1001D01*
G02X46437Y-5803I371J-150D01*
G01X46854Y-6220D01*
Y-23953D01*
X50903Y-28003D01*
X50848Y-28128D01*
G03X50455Y-29976I4152J-1849D01*
G03X51703Y-33104I4544J0D01*
G02X51413Y-33780I-290J-276D01*
G01X50160D01*
G02X49814Y-33179I0J400D01*
G03X50057Y-32276I-1559J904D01*
G03X48255Y-30474I-1802J0D01*
G03X47259Y-30774I0J-1803D01*
G01X43502D01*
Y-29428D01*
X44854D01*
G03X45856Y-28427I1J1001D01*
G01Y-23899D01*
G03X44854Y-22898I-1001J0D01*
G01X39146D01*
G03X38582Y-23071I-1J-1001D01*
G02X37956Y-22741I-226J330D01*
G01Y-22129D01*
X37252Y-21424D01*
Y-17521D01*
X37461Y-17311D01*
G02X38144Y-17594I283J-283D01*
G01Y-21341D01*
G03X39146Y-22342I1001J0D01*
G01X44854D01*
G03X45856Y-21341I1J1001D01*
G01Y-16813D01*
G03X44854Y-15812I-1001J0D01*
G01X40181D01*
G02X39822Y-15236I0J400D01*
G03X40004Y-14447I-1619J789D01*
G03X39974Y-14121I-1802J-1D01*
G02X40368Y-13648I394J73D01*
G01X44854D01*
G03X45856Y-12647I1J1001D01*
G01Y-8119D01*
G03X44854Y-7118I-1001J0D01*
G01X39146D01*
G03X38144Y-8119I-1J-1001D01*
G01Y-12637D01*
X37970Y-12660D01*
G03X36448Y-14035I232J-1787D01*
G01X36435Y-14091D01*
X34248Y-16277D01*
Y-22668D01*
X34954Y-23373D01*
Y-24215D01*
G02X34481Y-24609I-400J0D01*
G03X34155Y-24579I-327J-1772D01*
G03X33828Y-24609I0J-1802D01*
G02X33356Y-24215I-72J393D01*
G01Y-23899D01*
G03X32354Y-22898I-1001J0D01*
G01X26646D01*
G03X26471Y-22913I-2J-1001D01*
G02X26002Y-22519I-69J394D01*
G01Y-22257D01*
X26240D01*
X26275Y-22272D01*
G03X26646Y-22342I368J931D01*
G01X32354D01*
G03X33356Y-21341I1J1001D01*
G01Y-16813D01*
G03X32354Y-15812I-1001J0D01*
G01X26646D01*
G03X25644Y-16813I-1J-1001D01*
G01Y-20495D01*
G02X24961Y-20778I-400J0D01*
G01X15058Y-10874D01*
X10122D01*
X5881Y-6633D01*
G02Y-6068I283J282D01*
G03X5943Y-5988I-283J283D01*
G02X6570Y-5908I345J-203D01*
G01X7179Y-6518D01*
X14622D01*
X15837Y-5302D01*
X15893Y-5289D01*
G03X16055Y-5243I-411J1754D01*
G02X16315Y-5473I64J-190D01*
G03X16278Y-5835I1765J-363D01*
G03X18080Y-7637I1802J0D01*
G03X19834Y-6247I0J1802D01*
G01X19847Y-6191D01*
X21240Y-4798D01*
X25644D01*
Y-5561D01*
G03X26646Y-6562I1001J0D01*
G01X32354D01*
G03X33356Y-5561I1J1001D01*
G01Y-1034D01*
G37*
G36*
G01X13222Y48354D02*
X13778D01*
Y42646D01*
G03X14779Y41644I1001J-1D01*
G01X15542D01*
Y37841D01*
G03X15241Y36845I1501J-997D01*
G03X18845I1802J0D01*
G03X18544Y37841I-1802J-1D01*
G01Y41644D01*
X19498D01*
Y34348D01*
X19876Y33971D01*
X19889Y33915D01*
G03X21643Y32525I1754J412D01*
G03X21943Y32550I1J1802D01*
G02X22293Y31873I67J-394D01*
G01X13641Y23222D01*
X13485D01*
X13437Y23252D01*
G03X13115Y23409I-947J-1533D01*
G02X12971Y24067I139J375D01*
G01X16982Y28078D01*
Y30812D01*
G03X17283Y31808I-1501J997D01*
G03X15481Y33610I-1802J0D01*
G03X15155Y33580I1J-1802D01*
G02X14682Y33974I-73J394D01*
G01Y35780D01*
G03X13681Y36781I-1001J0D01*
G01X11319D01*
G03X10331Y35945I0J-1002D01*
G01X10303Y35778D01*
X9697D01*
X9669Y35945D01*
G03X8681Y36781I-988J-166D01*
G01X6682D01*
Y41384D01*
G02X7257Y41744I400J0D01*
G03X7693Y41644I436J900D01*
G01X12221D01*
G03X13222Y42646I0J1001D01*
G01Y48354D01*
G37*
G36*
G01X33356Y46498D02*
X38144D01*
Y41779D01*
G03X39146Y40778I1001J0D01*
G01X44854D01*
G03X45386Y40930I2J1001D01*
G02X45998Y40591I212J-339D01*
G01Y40409D01*
G02X45386Y40070I-400J0D01*
G03X44854Y40222I-530J-849D01*
G01X39146D01*
G03X38144Y39221I-1J-1001D01*
G01Y34693D01*
G03X39146Y33692I1001J0D01*
G01X44854D01*
G03X45856Y34693I1J1001D01*
G01Y35456D01*
X46676D01*
X47316Y36095D01*
G02X47998Y35812I282J-283D01*
G01Y32331D01*
X46437Y30769D01*
G02X45783Y30902I-283J283D01*
G03X44854Y31528I-928J-375D01*
G01X39146D01*
G03X38144Y30527I-1J-1001D01*
G01Y25999D01*
G03X39146Y24998I1001J0D01*
G01X44854D01*
G03X45856Y25999I1J1001D01*
G01Y26762D01*
X46676D01*
X50782Y30867D01*
G02X51383Y30827I283J-282D01*
G03X55000Y29034I3617J2752D01*
G03X57888Y30070I-1J4545D01*
G02X58542Y29761I254J-309D01*
G01Y26781D01*
X51456D01*
G03X50455Y25780I1J-1001D01*
G01Y18692D01*
G03X51456Y17691I1001J1D01*
G01X58542D01*
Y16212D01*
G02X57888Y15903I-400J0D01*
G03X55000Y16939I-2889J-3509D01*
G03X50455Y12394I0J-4545D01*
G03X52087Y8905I4546J0D01*
G02X51830Y8198I-257J-307D01*
G01X46973D01*
X46197Y7423D01*
G02X45856Y7564I-141J141D01*
G01Y7721D01*
G03X44854Y8722I-1001J0D01*
G01X39146D01*
G03X38144Y7721I-1J-1001D01*
G01Y3193D01*
G03X38336Y2604I1001J1D01*
G02X38012Y1968I-323J-236D01*
G01X33529D01*
G02X33194Y2587I0J400D01*
G03X33356Y3133I-839J546D01*
G01Y7661D01*
G03X32354Y8662I-1001J0D01*
G01X26646D01*
G03X25644Y7661I-1J-1001D01*
G01Y6898D01*
X22966D01*
G02X22572Y7371I0J400D01*
G03X22602Y7697I-1772J327D01*
G03X22302Y8693I-1803J0D01*
G01Y23641D01*
X24961Y26301D01*
G02X25644Y26018I283J-283D01*
G01Y25999D01*
G03X26646Y24998I1001J0D01*
G01X32354D01*
G03X33356Y25999I1J1001D01*
G01Y30527D01*
G03X32354Y31528I-1001J0D01*
G01X27161D01*
G02X26878Y32211I0J400D01*
G01X28358Y33692D01*
X32354D01*
G03X33356Y34693I1J1001D01*
G01Y39221D01*
G03X32354Y40222I-1001J0D01*
G01X26646D01*
G03X25644Y39221I-1J-1001D01*
G01Y35224D01*
X24097Y33677D01*
G02X23420Y34027I-283J283D01*
G03X23445Y34327I-1777J299D01*
G03X22502Y35911I-1802J0D01*
G01Y45131D01*
X23869Y46498D01*
X25644D01*
Y41779D01*
G03X26646Y40778I1001J0D01*
G01X32354D01*
G03X33356Y41779I1J1001D01*
G01Y46498D01*
G37*
G36*
G01X57541Y-36782D02*
X60340Y-33983D01*
G02X61023Y-34266I283J-283D01*
G01Y-51180D01*
X39064D01*
G02X38781Y-50497I0J400D01*
G01X45156Y-44122D01*
Y-38577D01*
G03X45457Y-37581I-1501J997D01*
G03X45427Y-37255I-1802J-1D01*
G02X45821Y-36782I394J73D01*
G01X57541D01*
G37*
%LPC*%
G75*
G36*
G01X-26476Y-35854D02*
Y-30146D01*
G02X-25474Y-29144I1002J0D01*
G01X-20946D01*
G02X-19944Y-30146I0J-1002D01*
G01Y-35854D01*
G02X-20946Y-36856I-1002J0D01*
G01X-25474D01*
G02X-26476Y-35854I0J1002D01*
G37*
G36*
G01X-37668D02*
Y-30146D01*
G02X-36666Y-29144I1002J0D01*
G01X-32138D01*
G02X-31136Y-30146I0J-1002D01*
G01Y-35854D01*
G02X-32138Y-36856I-1002J0D01*
G01X-36666D01*
G02X-37668Y-35854I0J1002D01*
G37*
G36*
G01X-4682Y29480D02*
Y35780D01*
G02X-3681Y36781I1001J0D01*
G01X-1319D01*
G02X-318Y35780I0J-1001D01*
G01Y29480D01*
G02X-1319Y28479I-1001J0D01*
G01X-3681D01*
G02X-4682Y29480I0J1001D01*
G37*
G36*
G01X25644Y-12647D02*
Y-8119D01*
G02X26646Y-7118I1001J0D01*
G01X32354D01*
G02X33356Y-8119I1J-1001D01*
G01Y-12647D01*
G02X32354Y-13648I-1001J0D01*
G01X26646D01*
G02X25644Y-12647I-1J1001D01*
G37*
G36*
G01X38144Y10279D02*
Y14807D01*
G02X39146Y15808I1001J0D01*
G01X44854D01*
G02X45856Y14807I1J-1001D01*
G01Y10279D01*
G02X44854Y9278I-1001J0D01*
G01X39146D01*
G02X38144Y10279I-1J1001D01*
G37*
G36*
G01Y18913D02*
Y23441D01*
G02X39146Y24442I1001J0D01*
G01X44854D01*
G02X45856Y23441I1J-1001D01*
G01Y18913D01*
G02X44854Y17912I-1001J0D01*
G01X39146D01*
G02X38144Y18913I-1J1001D01*
G37*
G36*
G01X25644D02*
Y23441D01*
G02X26646Y24442I1001J0D01*
G01X32354D01*
G02X33356Y23441I1J-1001D01*
G01Y18913D01*
G02X32354Y17912I-1001J0D01*
G01X26646D01*
G02X25644Y18913I-1J1001D01*
G37*
G36*
G01Y10219D02*
Y14747D01*
G02X26646Y15748I1001J0D01*
G01X32354D01*
G02X33356Y14747I1J-1001D01*
G01Y10219D01*
G02X32354Y9218I-1001J0D01*
G01X26646D01*
G02X25644Y10219I-1J1001D01*
G37*
G54D19*
X57500Y-43000D03*
%LPD*%
G75*
G54D10*
X-44000Y-44000D03*
G54D11*
X-41488Y-33000D03*
X-43043Y-22270D03*
Y-11396D03*
Y-522D03*
Y21226D03*
Y10352D03*
Y32100D03*
Y42974D03*
X-34402Y-33000D03*
X-35957Y-22270D03*
Y-11396D03*
Y-522D03*
Y21226D03*
Y10352D03*
Y32100D03*
Y42974D03*
X-25043Y45500D03*
X-23210Y-33000D03*
X-16124D03*
X-17957Y45500D03*
X-4928Y-33000D03*
X2158D03*
X-457Y45500D03*
X-7543D03*
X13350Y-33000D03*
X20436D03*
X9957Y45500D03*
X17043D03*
G54D12*
X-54500Y-29976D03*
Y-8791D03*
Y12394D03*
Y33579D03*
X55000Y-29976D03*
Y-8842D03*
Y12394D03*
Y33579D03*
G54D13*
X-46007Y-33000D03*
X-43707Y-17615D03*
X-45000Y-6000D03*
X-56800Y6395D03*
X-48000Y18000D03*
X-47107Y45721D03*
X-28727Y-28681D03*
X-32938Y-39700D03*
X-30638Y-32981D03*
X-27365Y-4500D03*
X-40202Y15007D03*
X-27893Y27745D03*
X-41500Y37500D03*
X-28728Y38693D03*
X-17500Y-14807D03*
X-24000Y-17500D03*
X-17500Y6720D03*
X-12500Y-5835D03*
X-24627Y20193D03*
X-23893Y12493D03*
X-17428Y23145D03*
X-25228D03*
X-19728Y16020D03*
X-22327Y27745D03*
X-23228Y34700D03*
X-13607Y42380D03*
X-11307Y39880D03*
X-7500Y-14376D03*
X2500Y-16676D03*
X-200Y-10907D03*
X-7500Y-8135D03*
Y37580D03*
X2500Y40845D03*
X21000Y-14500D03*
X7500Y-16676D03*
X18080Y-5835D03*
X15481Y-3535D03*
X20800Y7697D03*
X12487Y21720D03*
X17043Y36845D03*
X15481Y31808D03*
X9957Y40845D03*
X25648Y-40000D03*
X24500Y-32981D03*
X36455D03*
X34155Y-26381D03*
X36455Y-30381D03*
X24500Y-37079D03*
X22380Y467D03*
X24846Y16547D03*
X21643Y34327D03*
X23500Y45000D03*
X37500Y-43000D03*
X41055Y-40699D03*
X48255Y-32276D03*
X41055Y-37581D03*
X43655D03*
X38202Y-14447D03*
X57500Y-43000D03*
X60044Y49793D03*
G54D14*
X-54500Y-20134D03*
Y1051D03*
Y22236D03*
Y43421D03*
X55000Y-20134D03*
Y1000D03*
Y22236D03*
Y43421D03*
G54D15*
X-24315Y-44000D03*
X-34157D03*
X-14472D03*
X5213D03*
X-4630D03*
G54D16*
X-17500Y-21626D03*
X-12500D03*
X-17500Y-366D03*
X-12500D03*
X-17500Y11370D03*
X-12500D03*
X-17500Y32630D03*
X-12500D03*
X-7500Y-21626D03*
X-2500D03*
X2500D03*
X-7500Y-366D03*
X-2500D03*
X2500D03*
X-7500Y11370D03*
X-2500D03*
X2500D03*
X-7500Y32630D03*
X-2500D03*
X2500D03*
X7500Y-21626D03*
X12500D03*
X7500Y-366D03*
X12500D03*
X7500Y11370D03*
X12500D03*
X7500Y32630D03*
X12500D03*
G54D17*
X29500Y-26163D03*
Y-10383D03*
Y-19077D03*
Y5397D03*
Y-3297D03*
Y12483D03*
Y21177D03*
Y36957D03*
Y28263D03*
Y44043D03*
X42000Y-26163D03*
Y-19077D03*
Y-10383D03*
Y-3297D03*
Y5457D03*
Y21177D03*
Y12543D03*
Y28263D03*
Y36957D03*
Y44043D03*
G54D18*
G01X-54500Y-29976D02*
X-59544Y-24932D01*
Y26498D01*
X-58135Y27907D01*
X-50932D01*
X-48606Y25581D01*
X-30261D01*
X-30125Y25445D01*
X-10000D01*
X-7500Y27945D01*
Y32630D01*
G01X-44000Y-44000D02*
X-49456Y-38544D01*
Y829D01*
X-46452Y3833D01*
X-36258D01*
X-35957Y3532D01*
Y-522D01*
G01X-41488Y-33000D02*
X-46007D01*
G01X-46807Y-22270D02*
Y-25863D01*
X-45035Y-27635D01*
X-34975D01*
X-34402Y-28208D01*
G01X-35957Y-11396D02*
Y-15450D01*
X-38122Y-17615D01*
X-43707D01*
G01X-43043Y-22270D02*
X-46807D01*
G01X-43043Y-11396D02*
X-46807D01*
G01D02*
X-47456Y-10747D01*
Y-2113D01*
X-46456Y-1113D01*
G01X-46807Y-22270D02*
Y-11396D01*
G01X-43043D02*
Y-10805D01*
X-39279Y-7041D01*
G01X-45000Y-6000D02*
X-44041Y-5041D01*
X-27906D01*
X-27365Y-4500D01*
G01X-46456Y-1113D02*
X-43634D01*
X-43043Y-522D01*
G01X-19728Y16020D02*
X-28666D01*
X-30193Y14493D01*
Y8875D01*
X-33071Y5997D01*
X-46608D01*
X-47333Y6722D01*
X-56473D01*
X-56800Y6395D01*
G01X-48000Y18000D02*
Y20000D01*
X-46774Y21226D01*
X-43043D01*
G01Y10352D02*
X-46507D01*
X-48000Y11845D01*
Y18000D01*
G01X-43043Y42974D02*
X-46507D01*
X-46807Y42674D01*
Y28527D01*
X-46025Y27745D01*
X-27893D01*
G01X-43043Y32100D02*
Y35957D01*
X-41500Y37500D01*
G01X-54500Y33579D02*
X-49456Y38623D01*
Y47355D01*
X-46956Y49855D01*
X-13607D01*
G01X-28728Y38693D02*
X-30193Y40158D01*
Y44829D01*
X-32693Y47329D01*
X-46307D01*
X-47107Y46529D01*
Y45721D01*
G01X-32938Y-39700D02*
X-27215D01*
X-27015Y-39500D01*
X-13172D01*
X-10472Y-42200D01*
Y-44000D01*
X-6472Y-48000D01*
X36055D01*
X41055Y-43000D01*
Y-40699D01*
G01X-28728Y-22270D02*
X-28727Y-22271D01*
Y-28681D01*
G01X-30638Y-32981D02*
X-26264Y-37355D01*
G01X-34402Y-33000D02*
Y-37308D01*
G01Y-28208D02*
Y-33000D01*
G01Y-37308D02*
X-34355Y-37355D01*
X-26264D01*
G01X-26676Y-33000D02*
X-23210D01*
G01X-20181Y-11396D02*
X-35957D01*
G01Y-22270D02*
X-28728D01*
G01D02*
Y-22228D01*
X-24000Y-17500D01*
G01X-39279Y-7041D02*
X-26653D01*
X-23893Y-4281D01*
Y12493D01*
G01X-35957Y10352D02*
Y14406D01*
X-36558Y15007D01*
X-40202D01*
G01X-25228Y23145D02*
X-30274D01*
X-32193Y21226D01*
G01D02*
X-35957D01*
G01X-23228Y34700D02*
X-30193D01*
G01D02*
Y32100D01*
G01D02*
X-35957D01*
G01X-32193Y42974D02*
Y36700D01*
X-30193Y34700D01*
G01X-35957Y42974D02*
X-32193D01*
G01X-14472Y-44000D02*
X-8472Y-50000D01*
X37155D01*
X43655Y-43500D01*
Y-37581D01*
G01X-16124Y-33000D02*
Y-27500D01*
G01D02*
X-17500D01*
Y-21626D01*
G01X-16124Y-27500D02*
X-14025D01*
X-12500Y-25975D01*
Y-21626D01*
G01X2158Y-37401D02*
X68D01*
X-1031Y-38500D01*
X-8229D01*
X-9328Y-37401D01*
X-23454D01*
X-23500Y-37355D01*
G01D02*
X-23210Y-37065D01*
G01X-26264Y-37355D02*
X-23500D01*
G01X-23210Y-37065D02*
Y-33000D01*
G01D02*
Y-28943D01*
G01X-17500Y-14807D02*
Y-21626D01*
G01X-2500Y5397D02*
X-15004D01*
X-16117Y4284D01*
X-19399D01*
X-20181Y3502D01*
Y-11396D01*
G01D02*
X-5480D01*
X-2500Y-14376D01*
G01X-17500Y11370D02*
Y6720D01*
G01D02*
X-17150D01*
X-12500Y11370D01*
G01Y-366D02*
Y-5835D01*
G01D02*
X-16380D01*
X-17500Y-4715D01*
Y-366D01*
G01X-24627Y20193D02*
X-2965D01*
X5181Y28339D01*
Y30658D01*
G01X-7500Y11370D02*
Y15719D01*
X-7801Y16020D01*
X-19728D01*
G01X-17500Y37280D02*
X-20877D01*
X-25043Y41446D01*
Y45500D01*
G01X-17500Y37280D02*
Y32630D01*
G01X-22327Y27745D02*
X-18036D01*
X-17500Y28281D01*
Y32630D01*
G01X-12500D02*
Y36979D01*
X-12801Y37280D01*
X-17500D01*
G01X-17428Y23145D02*
X-25228D01*
G01X-13607Y49855D02*
Y42380D01*
G01Y49855D02*
X22273D01*
X22418Y50000D01*
X46209D01*
X49500Y46709D01*
Y31709D01*
X46054Y28263D01*
X42000D01*
G01X-11307Y39880D02*
X-5000D01*
X-2500Y37380D01*
G01X-11307Y39880D02*
X-17175D01*
X-17957Y40662D01*
G01X-11307Y39880D02*
Y45500D01*
G01X-17957Y40662D02*
Y45500D01*
G01X-11307D02*
X-7543D01*
G01X5213Y-37368D02*
Y-44000D01*
G01X1511D02*
X5213D01*
G01D02*
X8915D01*
G01X2158Y-33000D02*
Y-37401D01*
G01D02*
X5180D01*
X5213Y-37368D01*
G01D02*
X8000D01*
X9132Y-38500D01*
X11700D01*
G01X-4928Y-33000D02*
Y-28645D01*
X-3596Y-27313D01*
X6833D01*
X7500Y-26646D01*
Y-21626D01*
G01X-7500D02*
Y-14376D01*
G01X20436Y-33356D02*
X18436D01*
X17114Y-32034D01*
Y-18376D01*
X13114Y-14376D01*
X-2500D01*
G01Y-21626D02*
Y-14376D01*
G01X2500Y-21626D02*
Y-16676D01*
G01X-200Y-10907D02*
Y-8135D01*
X-2500Y-5835D01*
G01X2500Y-366D02*
Y-5376D01*
X9500Y-12376D01*
X14436D01*
X24500Y-22440D01*
Y-32981D01*
G01X-7500Y-366D02*
Y-8135D01*
G01X-2500Y11370D02*
Y5397D01*
G01X29500D02*
X-2500D01*
G01Y-5835D02*
Y-366D01*
G01X2500Y11370D02*
Y15719D01*
X15481Y28700D01*
Y31808D01*
G01X2500Y32630D02*
Y40845D01*
G01X-7500Y37580D02*
Y32630D01*
G01X5181Y30658D02*
Y43937D01*
X3618Y45500D01*
X-457D01*
G01X5181Y30658D02*
X7181D01*
X7500Y30977D01*
Y32630D01*
G01X-2500Y37380D02*
Y32630D01*
G01X20436Y-33000D02*
Y-33356D01*
G01X25648Y-40000D02*
X23648D01*
X20436Y-36788D01*
Y-33356D01*
G01X11700Y-38500D02*
X13350Y-36850D01*
Y-33000D01*
G01D02*
Y-28943D01*
G01X9884Y-33000D02*
X13350D01*
G01X7500Y-21626D02*
Y-16676D01*
G01D02*
X9518D01*
X12500Y-19658D01*
Y-21626D01*
G01X29500Y-3297D02*
X20618D01*
X18080Y-5835D01*
G01X12500Y-5016D02*
X14000D01*
X15481Y-3535D01*
G01X12500Y-366D02*
Y-5016D01*
G01X7500Y-366D02*
Y-4715D01*
X7801Y-5016D01*
X12500D01*
G01X29500Y28263D02*
X24800D01*
X20800Y24263D01*
Y7697D01*
G01X12487Y16020D02*
X12500D01*
Y11370D01*
G01X29500Y36957D02*
X14263Y21720D01*
X12487D01*
G01D02*
Y16020D01*
G01X7500Y11370D02*
Y15719D01*
X7801Y16020D01*
X12487D01*
G01X17043Y45500D02*
Y36845D01*
G01X12500Y32630D02*
X7500D01*
G01X42000Y36957D02*
X46054D01*
X47500Y38403D01*
Y45880D01*
X45380Y48000D01*
X23247D01*
X21000Y45753D01*
Y34970D01*
X21643Y34327D01*
G01X9957Y45500D02*
Y40845D01*
G01X36455Y-32981D02*
X41295D01*
X42000Y-32276D01*
G01X55000Y-8842D02*
X60044Y-13886D01*
Y-32156D01*
X56919Y-35281D01*
X35281D01*
X34000Y-34000D01*
G01D02*
X33873D01*
X29500Y-29627D01*
Y-26163D01*
G01X34000Y-34000D02*
X34155Y-33845D01*
Y-26381D01*
G01X36455Y-30381D02*
Y-22751D01*
X35750Y-22046D01*
Y-16899D01*
X38202Y-14447D01*
G01X24500Y-37079D02*
X25002Y-37581D01*
X41055D01*
G01X29500Y-10383D02*
X42000D01*
G01X29500D02*
Y-15000D01*
G01D02*
Y-19077D01*
G01Y-15000D02*
X29000Y-14500D01*
X21000D01*
G01X25443Y-19077D02*
X29500D01*
G01D02*
X33557D01*
G01X22380Y467D02*
X41700D01*
X42000Y167D01*
Y-3297D01*
G01X29500Y21177D02*
Y16547D01*
G01D02*
X37645D01*
G01X29500Y12483D02*
Y16547D01*
G01D02*
X24846D01*
G01X25443Y21177D02*
X29500D01*
G01D02*
X33557D01*
G01X25443Y12483D02*
X29500D01*
G01D02*
X33557D01*
G01X37645Y16547D02*
X35750Y18442D01*
Y42148D01*
G01X29500Y44043D02*
X37645D01*
G01X23500Y45000D02*
X23693Y45193D01*
G01D02*
X28350D01*
X29500Y44043D01*
G01X35750Y42148D02*
X37645Y44043D01*
G01X42000Y-32276D02*
X48255D01*
G01X42000Y-26163D02*
Y-32276D01*
G01Y-3297D02*
X46054D01*
X48355Y-5598D01*
Y-23331D01*
X55000Y-29976D01*
G01X42000Y-19077D02*
Y-10383D01*
G01X37943Y-19077D02*
X42000D01*
G01D02*
X46057D01*
G01X42000Y5457D02*
X46355D01*
X47595Y6697D01*
X56520D01*
X60044Y10221D01*
Y49793D01*
G01X42000Y12543D02*
Y16547D01*
G01D02*
Y21177D01*
G01Y16547D02*
X37645D01*
G01X37943Y12543D02*
X42000D01*
G01D02*
X46057D01*
G01X37943Y21177D02*
X42000D01*
G01D02*
X46057D01*
G01X37645Y44043D02*
X42000D01*
G01X57500Y-45002D02*
Y-43000D01*
G01D02*
Y-40998D01*
G01X55498Y-43000D02*
X57500D01*
G01D02*
X59502D01*
M02*
