G04 ================== begin FILE IDENTIFICATION RECORD ==================*
G04 Layout Name:  E:/Project/FPMemory/ElectronicDesign/PCB/output/FPMemory.brd*
G04 Film Name:    DRILL_DRAWING*
G04 File Format:  Gerber RS274X*
G04 File Origin:  Cadence Allegro 17.2-S045*
G04 Origin Date:  Sat Oct 20 17:30:39 2018*
G04 *
G04 Layer:  MANUFACTURING/NCLEGEND-1-2*
G04 Layer:  BOARD GEOMETRY/DESIGN_OUTLINE*
G04 *
G04 Offset:    (0.00 0.00)*
G04 Mirror:    No*
G04 Mode:      Positive*
G04 Rotation:  0*
G04 FullContactRelief:  No*
G04 UndefLineWidth:     6.00*
G04 ================== end FILE IDENTIFICATION RECORD ====================*
%FSLAX25Y25*MOIN*%
%IR0*IPPOS*OFA0.00000B0.00000*MIA0B0*SFA1.00000B1.00000*%
%AMMACRO12*
1,1,.006,.004,0.0*
20,1,.006,.004,0.0,.002,.003464,0.0*
1,1,.006,.002,.003464*
20,1,.006,.002,.003464,-.002,.003464,0.0*
1,1,.006,-.002,.003464*
20,1,.006,-.002,.003464,-.004,0.0,0.0*
1,1,.006,-.004,0.0*
20,1,.006,-.004,0.0,-.002,-.003464,0.0*
1,1,.006,-.002,-.003464*
20,1,.006,-.002,-.003464,.002,-.003464,0.0*
1,1,.006,.002,-.003464*
20,1,.006,.002,-.003464,.004,0.0,0.0*
1,1,.006,.004,0.0*
1,1,.006,0.0,.002*
20,1,.006,0.0,.002,0.0,-.002,0.0*
1,1,.006,0.0,-.002*
1,1,.006,-.00153,.002*
20,1,.006,-.00153,.002,.00153,.002,0.0*
1,1,.006,.00153,.002*
%
%ADD12MACRO12*%
%AMMACRO11*
1,1,.006,.019685,0.0*
20,1,.006,.019685,0.0,.009843,.017048,0.0*
1,1,.006,.009843,.017048*
20,1,.006,.009843,.017048,-.009842,.017048,0.0*
1,1,.006,-.009842,.017048*
20,1,.006,-.009842,.017048,-.019685,0.0,0.0*
1,1,.006,-.019685,0.0*
20,1,.006,-.019685,0.0,-.009843,-.017048,0.0*
1,1,.006,-.009843,-.017048*
20,1,.006,-.009843,-.017048,.009842,-.017048,0.0*
1,1,.006,.009842,-.017048*
20,1,.006,.009842,-.017048,.019685,0.0,0.0*
1,1,.006,.019685,0.0*
1,1,.006,-.0082,-.00984*
20,1,.006,-.0082,-.00984,0.0,.00984,0.0*
1,1,.006,0.0,.00984*
20,1,.006,0.0,.00984,.0082,-.00984,0.0*
1,1,.006,.0082,-.00984*
1,1,.006,.00525,-.00295*
20,1,.006,.00525,-.00295,-.00525,-.00295,0.0*
1,1,.006,-.00525,-.00295*
%
%ADD11MACRO11*%
%AMMACRO10*
1,1,.006,.01181,.01181*
20,1,.006,.01181,.01181,.01181,-.01181,0.0*
1,1,.006,.01181,-.01181*
20,1,.006,.01181,-.01181,-.01181,-.01181,0.0*
1,1,.006,-.01181,-.01181*
20,1,.006,-.01181,-.01181,-.01181,.01181,0.0*
1,1,.006,-.01181,.01181*
20,1,.006,-.01181,.01181,.01181,.01181,0.0*
1,1,.006,.01181,.01181*
1,1,.006,-.00413,-.00433*
20,1,.006,-.00413,-.00433,-.00255,-.00531,0.0*
1,1,.006,-.00255,-.00531*
20,1,.006,-.00255,-.00531,-.00078,-.0059,0.0*
1,1,.006,-.00078,-.0059*
20,1,.006,-.00078,-.0059,.00079,-.0059,0.0*
1,1,.006,.00079,-.0059*
20,1,.006,.00079,-.0059,.00237,-.00531,0.0*
1,1,.006,.00237,-.00531*
20,1,.006,.00237,-.00531,.00355,-.00433,0.0*
1,1,.006,.00355,-.00433*
20,1,.006,.00355,-.00433,.00414,-.00295,0.0*
1,1,.006,.00414,-.00295*
20,1,.006,.00414,-.00295,.00374,-.00157,0.0*
1,1,.006,.00374,-.00157*
20,1,.006,.00374,-.00157,.00276,-.00039,0.0*
1,1,.006,.00276,-.00039*
20,1,.006,.00276,-.00039,.00099,.0004,0.0*
1,1,.006,.00099,.0004*
20,1,.006,.00099,.0004,-.00137,.00079,0.0*
1,1,.006,-.00137,.00079*
20,1,.006,-.00137,.00079,-.00275,.00158,0.0*
1,1,.006,-.00275,.00158*
20,1,.006,-.00275,.00158,-.00334,.00296,0.0*
1,1,.006,-.00334,.00296*
20,1,.006,-.00334,.00296,-.00295,.00434,0.0*
1,1,.006,-.00295,.00434*
20,1,.006,-.00295,.00434,-.00196,.00532,0.0*
1,1,.006,-.00196,.00532*
20,1,.006,-.00196,.00532,-.00059,.00591,0.0*
1,1,.006,-.00059,.00591*
20,1,.006,-.00059,.00591,.00079,.00591,0.0*
1,1,.006,.00079,.00591*
20,1,.006,.00079,.00591,.00217,.00552,0.0*
1,1,.006,.00217,.00552*
20,1,.006,.00217,.00552,.00335,.00453,0.0*
1,1,.006,.00335,.00453*
%
%ADD10MACRO10*%
%ADD13C,.006*%
G75*
%LPD*%
G75*
G54D10*
X-44000Y-44000D03*
X-24315D03*
X-34157D03*
X-21050Y-183500D03*
X-14472Y-44000D03*
X5213D03*
X-4630D03*
G54D11*
X-54500Y-29976D03*
Y-20134D03*
Y-8791D03*
Y1051D03*
Y12394D03*
Y22236D03*
Y33579D03*
Y43421D03*
X-21050Y-208500D03*
X55000Y-29976D03*
Y-20134D03*
Y-8842D03*
Y1000D03*
Y12394D03*
Y22236D03*
Y33579D03*
Y43421D03*
G54D12*
X-46007Y-33000D03*
X-43707Y-17615D03*
X-45000Y-6000D03*
X-56800Y6395D03*
X-48000Y18000D03*
X-47107Y45721D03*
X-28727Y-28681D03*
X-32938Y-39700D03*
X-30638Y-32981D03*
X-27365Y-4500D03*
X-40202Y15007D03*
X-27893Y27745D03*
X-41500Y37500D03*
X-28728Y38693D03*
X-21050Y-158500D03*
X-17500Y-14807D03*
X-24000Y-17500D03*
X-17500Y6720D03*
X-12500Y-5835D03*
X-24627Y20193D03*
X-23893Y12493D03*
X-17428Y23145D03*
X-25228D03*
X-19728Y16020D03*
X-22327Y27745D03*
X-23228Y34700D03*
X-13607Y42380D03*
X-11307Y39880D03*
X-7500Y-14376D03*
X2500Y-16676D03*
X-200Y-10907D03*
X-7500Y-8135D03*
Y37580D03*
X2500Y40845D03*
X21000Y-14500D03*
X7500Y-16676D03*
X18080Y-5835D03*
X15481Y-3535D03*
X20800Y7697D03*
X12487Y21720D03*
X17043Y36845D03*
X15481Y31808D03*
X9957Y40845D03*
X25648Y-40000D03*
X24500Y-32981D03*
X36455D03*
X34155Y-26381D03*
X36455Y-30381D03*
X24500Y-37079D03*
X22380Y467D03*
X24846Y16547D03*
X21643Y34327D03*
X23500Y45000D03*
X37500Y-43000D03*
X41055Y-40699D03*
X48255Y-32276D03*
X41055Y-37581D03*
X43655D03*
X38202Y-14447D03*
X57500Y-43000D03*
X60044Y49793D03*
G54D13*
G01X-66000Y-221000D02*
Y-71000D01*
X430000D01*
Y-221000D01*
X-66000D01*
G01Y-196000D02*
X430000D01*
G01X-66000Y-171000D02*
X430000D01*
G01X-66000Y-146000D02*
X430000D01*
G01X-66000Y-121000D02*
X430000D01*
G01X-66000Y-96000D02*
X430000D01*
G01X-62992Y-53150D02*
Y53150D01*
X62992D01*
Y-53150D01*
X-62992D01*
G01X-54995Y-139750D02*
Y-127250D01*
X-49105D01*
G01X-51275Y-133292D02*
X-54995D01*
G01X-41510Y-127250D02*
X-37790D01*
G01X-39650D02*
Y-139750D01*
G01X-41510D02*
X-37790D01*
G01X-26320Y-133500D02*
X-23220D01*
Y-137250D01*
X-24150Y-138500D01*
X-25235Y-139333D01*
X-26785Y-139750D01*
X-28335Y-139333D01*
X-29420Y-138500D01*
X-30350Y-137250D01*
X-30970Y-135792D01*
X-31280Y-134125D01*
Y-132667D01*
X-30970Y-131417D01*
X-30350Y-129958D01*
X-29420Y-128708D01*
X-28490Y-127875D01*
X-27250Y-127250D01*
X-26165D01*
X-24925Y-127667D01*
X-23995Y-128500D01*
G01X-18260Y-127250D02*
Y-136208D01*
X-17640Y-138084D01*
X-16400Y-139333D01*
X-14850Y-139750D01*
X-13300Y-139333D01*
X-12060Y-138084D01*
X-11440Y-136208D01*
Y-127250D01*
G01X-5550Y-139750D02*
Y-127250D01*
X-1675D01*
X-435Y-127875D01*
X340Y-128708D01*
X650Y-130375D01*
X340Y-132042D01*
X-590Y-133083D01*
X-1675Y-133708D01*
X-5550D01*
G01X-1675D02*
X650Y-139750D01*
G01X13050D02*
X6850D01*
Y-127250D01*
X13050D01*
G01X10570Y-133292D02*
X6850D01*
G01X23900Y-121000D02*
Y-221000D01*
G01X23590Y-89750D02*
Y-77250D01*
X26690D01*
X27930Y-77875D01*
X28860Y-78708D01*
X29635Y-79958D01*
X30255Y-81417D01*
X30410Y-83500D01*
X30255Y-85583D01*
X29635Y-87042D01*
X28860Y-88292D01*
X27930Y-89125D01*
X26690Y-89750D01*
X23590D01*
G01X36300D02*
Y-77250D01*
X40175D01*
X41415Y-77875D01*
X42190Y-78708D01*
X42500Y-80375D01*
X42190Y-82042D01*
X41260Y-83083D01*
X40175Y-83708D01*
X36300D01*
G01X40175D02*
X42500Y-89750D01*
G01X49940Y-77250D02*
X53660D01*
G01X51800D02*
Y-89750D01*
G01X49940D02*
X53660D01*
G01X61100Y-77250D02*
Y-89750D01*
X67300D01*
G01X73500Y-77250D02*
Y-89750D01*
X79700D01*
G01X104810Y-78292D02*
X103880Y-77667D01*
X102795Y-77250D01*
X101555D01*
X100160Y-77875D01*
X99075Y-78917D01*
X98300Y-80167D01*
X97680Y-82250D01*
X97525Y-84125D01*
X97835Y-86000D01*
X98300Y-87250D01*
X99230Y-88500D01*
X100315Y-89333D01*
X101400Y-89750D01*
X102485D01*
X103570Y-89333D01*
X104500Y-88709D01*
X105275Y-87875D01*
G01X110545Y-89750D02*
Y-77250D01*
G01X117055D02*
Y-89750D01*
G01Y-83500D02*
X110545D01*
G01X122325Y-89750D02*
X126200Y-77250D01*
X130075Y-89750D01*
G01X128680Y-85375D02*
X123720D01*
G01X135500Y-89750D02*
Y-77250D01*
X139375D01*
X140615Y-77875D01*
X141390Y-78708D01*
X141700Y-80375D01*
X141390Y-82042D01*
X140460Y-83083D01*
X139375Y-83708D01*
X135500D01*
G01X139375D02*
X141700Y-89750D01*
G01X151000Y-77250D02*
Y-89750D01*
G01X147435Y-77250D02*
X154565D01*
G01X163400Y-90167D02*
X163090Y-89958D01*
Y-89542D01*
X163400Y-89333D01*
X163710Y-89542D01*
Y-89958D01*
X163400Y-90167D01*
G01Y-84542D02*
X163090Y-84333D01*
Y-83917D01*
X163400Y-83708D01*
X163710Y-83917D01*
Y-84333D01*
X163400Y-84542D01*
G01X188200Y-77250D02*
Y-89750D01*
G01X184635Y-77250D02*
X191765D01*
G01X200600Y-89750D02*
X199360Y-89542D01*
X198275Y-88709D01*
X197345Y-87458D01*
X196725Y-86000D01*
X196415Y-84333D01*
Y-82667D01*
X196725Y-81000D01*
X197345Y-79542D01*
X198275Y-78292D01*
X199360Y-77458D01*
X200600Y-77250D01*
X201840Y-77458D01*
X202925Y-78292D01*
X203855Y-79542D01*
X204475Y-81000D01*
X204785Y-82667D01*
Y-84333D01*
X204475Y-86000D01*
X203855Y-87458D01*
X202925Y-88709D01*
X201840Y-89542D01*
X200600Y-89750D01*
G01X209900D02*
Y-77250D01*
X213620D01*
X214860Y-77875D01*
X215790Y-79333D01*
X216100Y-81000D01*
X215790Y-82667D01*
X215015Y-83917D01*
X213620Y-84542D01*
X209900D01*
G01X237800Y-77250D02*
Y-89750D01*
G01X235630Y-81417D02*
X239970D01*
G01X250200Y-89750D02*
X249270Y-89542D01*
X248340Y-88709D01*
X247720Y-87250D01*
X247410Y-85583D01*
X247720Y-83917D01*
X248340Y-82458D01*
X249270Y-81625D01*
X250200Y-81417D01*
X251130Y-81625D01*
X252060Y-82458D01*
X252680Y-83917D01*
X252835Y-85583D01*
X252680Y-87250D01*
X252060Y-88709D01*
X251130Y-89542D01*
X250200Y-89750D01*
G01X276240Y-83083D02*
X276860Y-82458D01*
X277325Y-81417D01*
X277635Y-79958D01*
X277325Y-78708D01*
X276705Y-77875D01*
X275620Y-77250D01*
X271435D01*
Y-89750D01*
X276550D01*
X277635Y-88917D01*
X278255Y-87667D01*
X278565Y-86208D01*
X278255Y-84750D01*
X277325Y-83500D01*
X276240Y-83083D01*
X271435D01*
G01X287400Y-89750D02*
X286160Y-89542D01*
X285075Y-88709D01*
X284145Y-87458D01*
X283525Y-86000D01*
X283215Y-84333D01*
Y-82667D01*
X283525Y-81000D01*
X284145Y-79542D01*
X285075Y-78292D01*
X286160Y-77458D01*
X287400Y-77250D01*
X288640Y-77458D01*
X289725Y-78292D01*
X290655Y-79542D01*
X291275Y-81000D01*
X291585Y-82667D01*
Y-84333D01*
X291275Y-86000D01*
X290655Y-87458D01*
X289725Y-88709D01*
X288640Y-89542D01*
X287400Y-89750D01*
G01X299800Y-77250D02*
Y-89750D01*
G01X296235Y-77250D02*
X303365D01*
G01X312200D02*
Y-89750D01*
G01X308635Y-77250D02*
X315765D01*
G01X324600Y-89750D02*
X323360Y-89542D01*
X322275Y-88709D01*
X321345Y-87458D01*
X320725Y-86000D01*
X320415Y-84333D01*
Y-82667D01*
X320725Y-81000D01*
X321345Y-79542D01*
X322275Y-78292D01*
X323360Y-77458D01*
X324600Y-77250D01*
X325840Y-77458D01*
X326925Y-78292D01*
X327855Y-79542D01*
X328475Y-81000D01*
X328785Y-82667D01*
Y-84333D01*
X328475Y-86000D01*
X327855Y-87458D01*
X326925Y-88709D01*
X325840Y-89542D01*
X324600Y-89750D01*
G01X332970D02*
Y-77250D01*
X337000Y-87667D01*
X341030Y-77250D01*
Y-89750D01*
G01X47305Y-139750D02*
Y-127250D01*
X53195D01*
G01X51025Y-133292D02*
X47305D01*
G01X60790Y-127250D02*
X64510D01*
G01X62650D02*
Y-139750D01*
G01X60790D02*
X64510D01*
G01X71485D02*
Y-127250D01*
X78615Y-139750D01*
Y-127250D01*
G01X85590D02*
X89310D01*
G01X87450D02*
Y-139750D01*
G01X85590D02*
X89310D01*
G01X96595Y-138084D02*
X97835Y-139125D01*
X99230Y-139750D01*
X100470D01*
X101710Y-139125D01*
X102640Y-138084D01*
X103105Y-136625D01*
X102795Y-135167D01*
X102020Y-133917D01*
X100625Y-133083D01*
X98765Y-132667D01*
X97680Y-131833D01*
X97215Y-130375D01*
X97525Y-128917D01*
X98300Y-127875D01*
X99385Y-127250D01*
X100470D01*
X101555Y-127667D01*
X102485Y-128708D01*
G01X108995Y-139750D02*
Y-127250D01*
G01X115505D02*
Y-139750D01*
G01Y-133500D02*
X108995D01*
G01X127750Y-139750D02*
X121550D01*
Y-127250D01*
X127750D01*
G01X125270Y-133292D02*
X121550D01*
G01X133640Y-139750D02*
Y-127250D01*
X136740D01*
X137980Y-127875D01*
X138910Y-128708D01*
X139685Y-129958D01*
X140305Y-131417D01*
X140460Y-133500D01*
X140305Y-135583D01*
X139685Y-137042D01*
X138910Y-138292D01*
X137980Y-139125D01*
X136740Y-139750D01*
X133640D01*
G01X144800Y-143917D02*
X154100D01*
G01X158595Y-138084D02*
X159835Y-139125D01*
X161230Y-139750D01*
X162470D01*
X163710Y-139125D01*
X164640Y-138084D01*
X165105Y-136625D01*
X164795Y-135167D01*
X164020Y-133917D01*
X162625Y-133083D01*
X160765Y-132667D01*
X159680Y-131833D01*
X159215Y-130375D01*
X159525Y-128917D01*
X160300Y-127875D01*
X161385Y-127250D01*
X162470D01*
X163555Y-127667D01*
X164485Y-128708D01*
G01X172390Y-127250D02*
X176110D01*
G01X174250D02*
Y-139750D01*
G01X172390D02*
X176110D01*
G01X183705Y-127250D02*
X189595D01*
X183705Y-139750D01*
X189595D01*
G01X202150D02*
X195950D01*
Y-127250D01*
X202150D01*
G01X199670Y-133292D02*
X195950D01*
G01X54125Y-114750D02*
X58000Y-102250D01*
X61875Y-114750D01*
G01X60480Y-110375D02*
X55520D01*
G01X67300Y-102250D02*
Y-114750D01*
X73500D01*
G01X79700Y-102250D02*
Y-114750D01*
X85900D01*
G01X104190Y-102250D02*
Y-111208D01*
X104810Y-113084D01*
X106050Y-114333D01*
X107600Y-114750D01*
X109150Y-114333D01*
X110390Y-113084D01*
X111010Y-111208D01*
Y-102250D01*
G01X116435Y-114750D02*
Y-102250D01*
X123565Y-114750D01*
Y-102250D01*
G01X130540D02*
X134260D01*
G01X132400D02*
Y-114750D01*
G01X130540D02*
X134260D01*
G01X144800Y-102250D02*
Y-114750D01*
G01X141235Y-102250D02*
X148365D01*
G01X153945Y-113084D02*
X155185Y-114125D01*
X156580Y-114750D01*
X157820D01*
X159060Y-114125D01*
X159990Y-113084D01*
X160455Y-111625D01*
X160145Y-110167D01*
X159370Y-108917D01*
X157975Y-108083D01*
X156115Y-107667D01*
X155030Y-106833D01*
X154565Y-105375D01*
X154875Y-103917D01*
X155650Y-102875D01*
X156735Y-102250D01*
X157820D01*
X158905Y-102667D01*
X159835Y-103708D01*
G01X178125Y-114750D02*
X182000Y-102250D01*
X185875Y-114750D01*
G01X184480Y-110375D02*
X179520D01*
G01X191300Y-114750D02*
Y-102250D01*
X195175D01*
X196415Y-102875D01*
X197190Y-103708D01*
X197500Y-105375D01*
X197190Y-107042D01*
X196260Y-108083D01*
X195175Y-108708D01*
X191300D01*
G01X195175D02*
X197500Y-114750D01*
G01X209900D02*
X203700D01*
Y-102250D01*
X209900D01*
G01X207420Y-108292D02*
X203700D01*
G01X229740Y-102250D02*
X233460D01*
G01X231600D02*
Y-114750D01*
G01X229740D02*
X233460D01*
G01X240435D02*
Y-102250D01*
X247565Y-114750D01*
Y-102250D01*
G01X264770Y-114750D02*
Y-102250D01*
X268800Y-112667D01*
X272830Y-102250D01*
Y-114750D01*
G01X279340Y-102250D02*
X283060D01*
G01X281200D02*
Y-114750D01*
G01X279340D02*
X283060D01*
G01X290500Y-102250D02*
Y-114750D01*
X296700D01*
G01X302745Y-113084D02*
X303985Y-114125D01*
X305380Y-114750D01*
X306620D01*
X307860Y-114125D01*
X308790Y-113084D01*
X309255Y-111625D01*
X308945Y-110167D01*
X308170Y-108917D01*
X306775Y-108083D01*
X304915Y-107667D01*
X303830Y-106833D01*
X303365Y-105375D01*
X303675Y-103917D01*
X304450Y-102875D01*
X305535Y-102250D01*
X306620D01*
X307705Y-102667D01*
X308635Y-103708D01*
G01X96440Y-212250D02*
X97370Y-213709D01*
X98610Y-214542D01*
X100005Y-214750D01*
X101245Y-214542D01*
X102485Y-213500D01*
X103260Y-212250D01*
X103415Y-211000D01*
X103105Y-209542D01*
X102020Y-208500D01*
X100935Y-208083D01*
X99540D01*
G01X100935D02*
X101865Y-207458D01*
X102640Y-206417D01*
X102950Y-205167D01*
X102640Y-203917D01*
X101865Y-202875D01*
X100470Y-202250D01*
X99075Y-202458D01*
X97680Y-203292D01*
G01X109615Y-213292D02*
X110700Y-214333D01*
X111940Y-214750D01*
X113180Y-214333D01*
X114265Y-213084D01*
X115040Y-211208D01*
X115350Y-209333D01*
Y-207042D01*
X115040Y-205167D01*
X114265Y-203500D01*
X113335Y-202667D01*
X112250Y-202250D01*
X111010Y-202667D01*
X110080Y-203500D01*
X109460Y-204750D01*
X109150Y-206417D01*
X109460Y-207875D01*
X110235Y-209333D01*
X111165Y-210167D01*
X112250Y-210375D01*
X113490Y-209959D01*
X114420Y-208917D01*
X115350Y-207042D01*
G01X124650Y-215167D02*
X124340Y-214958D01*
Y-214542D01*
X124650Y-214333D01*
X124960Y-214542D01*
Y-214958D01*
X124650Y-215167D01*
G01X133640Y-212250D02*
X134570Y-213709D01*
X135810Y-214542D01*
X137205Y-214750D01*
X138445Y-214542D01*
X139685Y-213500D01*
X140460Y-212250D01*
X140615Y-211000D01*
X140305Y-209542D01*
X139220Y-208500D01*
X138135Y-208083D01*
X136740D01*
G01X138135D02*
X139065Y-207458D01*
X139840Y-206417D01*
X140150Y-205167D01*
X139840Y-203917D01*
X139065Y-202875D01*
X137670Y-202250D01*
X136275Y-202458D01*
X134880Y-203292D01*
G01X149140Y-214750D02*
X149450Y-212042D01*
X149915Y-209750D01*
X150535Y-207667D01*
X151310Y-205375D01*
X152550Y-202250D01*
X146350D01*
G01X96440Y-187250D02*
X97370Y-188709D01*
X98610Y-189542D01*
X100005Y-189750D01*
X101245Y-189542D01*
X102485Y-188500D01*
X103260Y-187250D01*
X103415Y-186000D01*
X103105Y-184542D01*
X102020Y-183500D01*
X100935Y-183083D01*
X99540D01*
G01X100935D02*
X101865Y-182458D01*
X102640Y-181417D01*
X102950Y-180167D01*
X102640Y-178917D01*
X101865Y-177875D01*
X100470Y-177250D01*
X99075Y-177458D01*
X97680Y-178292D01*
G01X108840Y-187250D02*
X109770Y-188709D01*
X111010Y-189542D01*
X112405Y-189750D01*
X113645Y-189542D01*
X114885Y-188500D01*
X115660Y-187250D01*
X115815Y-186000D01*
X115505Y-184542D01*
X114420Y-183500D01*
X113335Y-183083D01*
X111940D01*
G01X113335D02*
X114265Y-182458D01*
X115040Y-181417D01*
X115350Y-180167D01*
X115040Y-178917D01*
X114265Y-177875D01*
X112870Y-177250D01*
X111475Y-177458D01*
X110080Y-178292D01*
G01X124650Y-190167D02*
X124340Y-189958D01*
Y-189542D01*
X124650Y-189333D01*
X124960Y-189542D01*
Y-189958D01*
X124650Y-190167D01*
G01X138910Y-189750D02*
Y-177250D01*
X133175Y-186208D01*
X140925D01*
G01X146505Y-184542D02*
X147590Y-183083D01*
X148520Y-182250D01*
X149760Y-181833D01*
X150845Y-182250D01*
X151620Y-183083D01*
X152240Y-184333D01*
X152395Y-185792D01*
X152240Y-187042D01*
X151620Y-188292D01*
X150690Y-189333D01*
X149605Y-189750D01*
X148365Y-189333D01*
X147280Y-188084D01*
X146660Y-186208D01*
X146505Y-184125D01*
X146815Y-181417D01*
X147280Y-179958D01*
X148055Y-178500D01*
X149140Y-177458D01*
X150225Y-177250D01*
X151310Y-177667D01*
X152085Y-178708D01*
G01X112250Y-164750D02*
X113335Y-164542D01*
X114575Y-163917D01*
X115350Y-162875D01*
X115660Y-161417D01*
X115350Y-159959D01*
X114420Y-158708D01*
X113025Y-158083D01*
X111475D01*
X110545Y-157667D01*
X109770Y-156625D01*
X109460Y-155167D01*
X109925Y-153708D01*
X111010Y-152667D01*
X112250Y-152250D01*
X113490Y-152667D01*
X114575Y-153708D01*
X115040Y-155167D01*
X114730Y-156625D01*
X113955Y-157667D01*
X113025Y-158083D01*
X111475D01*
X110080Y-158708D01*
X109150Y-159959D01*
X108840Y-161417D01*
X109150Y-162875D01*
X109925Y-163917D01*
X111165Y-164542D01*
X112250Y-164750D01*
G01X124650Y-165167D02*
X124340Y-164958D01*
Y-164542D01*
X124650Y-164333D01*
X124960Y-164542D01*
Y-164958D01*
X124650Y-165167D01*
G01X137050Y-152250D02*
X135810Y-152667D01*
X134880Y-153708D01*
X134260Y-154958D01*
X133795Y-156625D01*
X133640Y-158500D01*
X133795Y-160375D01*
X134260Y-162042D01*
X134880Y-163292D01*
X135810Y-164333D01*
X137050Y-164750D01*
X138290Y-164333D01*
X139220Y-163292D01*
X139840Y-162042D01*
X140305Y-160375D01*
X140460Y-158500D01*
X140305Y-156625D01*
X139840Y-154958D01*
X139220Y-153708D01*
X138290Y-152667D01*
X137050Y-152250D01*
G01X225400Y-121000D02*
Y-221000D01*
G01X254850Y-214750D02*
Y-202250D01*
X258570D01*
X259810Y-202875D01*
X260740Y-204333D01*
X261050Y-206000D01*
X260740Y-207667D01*
X259965Y-208917D01*
X258570Y-209542D01*
X254850D01*
G01X267250Y-202250D02*
Y-214750D01*
X273450D01*
G01X278875D02*
X282750Y-202250D01*
X286625Y-214750D01*
G01X285230Y-210375D02*
X280270D01*
G01X295150Y-202250D02*
Y-214750D01*
G01X291585Y-202250D02*
X298715D01*
G01X310650Y-214750D02*
X304450D01*
Y-202250D01*
X310650D01*
G01X308170Y-208292D02*
X304450D01*
G01X316540Y-214750D02*
Y-202250D01*
X319640D01*
X320880Y-202875D01*
X321810Y-203708D01*
X322585Y-204958D01*
X323205Y-206417D01*
X323360Y-208500D01*
X323205Y-210583D01*
X322585Y-212042D01*
X321810Y-213292D01*
X320880Y-214125D01*
X319640Y-214750D01*
X316540D01*
G01X254850Y-189750D02*
Y-177250D01*
X258570D01*
X259810Y-177875D01*
X260740Y-179333D01*
X261050Y-181000D01*
X260740Y-182667D01*
X259965Y-183917D01*
X258570Y-184542D01*
X254850D01*
G01X267250Y-177250D02*
Y-189750D01*
X273450D01*
G01X278875D02*
X282750Y-177250D01*
X286625Y-189750D01*
G01X285230Y-185375D02*
X280270D01*
G01X295150Y-177250D02*
Y-189750D01*
G01X291585Y-177250D02*
X298715D01*
G01X310650Y-189750D02*
X304450D01*
Y-177250D01*
X310650D01*
G01X308170Y-183292D02*
X304450D01*
G01X316540Y-189750D02*
Y-177250D01*
X319640D01*
X320880Y-177875D01*
X321810Y-178708D01*
X322585Y-179958D01*
X323205Y-181417D01*
X323360Y-183500D01*
X323205Y-185583D01*
X322585Y-187042D01*
X321810Y-188292D01*
X320880Y-189125D01*
X319640Y-189750D01*
X316540D01*
G01X254850Y-164750D02*
Y-152250D01*
X258570D01*
X259810Y-152875D01*
X260740Y-154333D01*
X261050Y-156000D01*
X260740Y-157667D01*
X259965Y-158917D01*
X258570Y-159542D01*
X254850D01*
G01X267250Y-152250D02*
Y-164750D01*
X273450D01*
G01X278875D02*
X282750Y-152250D01*
X286625Y-164750D01*
G01X285230Y-160375D02*
X280270D01*
G01X295150Y-152250D02*
Y-164750D01*
G01X291585Y-152250D02*
X298715D01*
G01X310650Y-164750D02*
X304450D01*
Y-152250D01*
X310650D01*
G01X308170Y-158292D02*
X304450D01*
G01X316540Y-164750D02*
Y-152250D01*
X319640D01*
X320880Y-152875D01*
X321810Y-153708D01*
X322585Y-154958D01*
X323205Y-156417D01*
X323360Y-158500D01*
X323205Y-160583D01*
X322585Y-162042D01*
X321810Y-163292D01*
X320880Y-164125D01*
X319640Y-164750D01*
X316540D01*
G01X254850Y-139750D02*
Y-127250D01*
X258570D01*
X259810Y-127875D01*
X260740Y-129333D01*
X261050Y-131000D01*
X260740Y-132667D01*
X259965Y-133917D01*
X258570Y-134542D01*
X254850D01*
G01X267250Y-127250D02*
Y-139750D01*
X273450D01*
G01X278875D02*
X282750Y-127250D01*
X286625Y-139750D01*
G01X285230Y-135375D02*
X280270D01*
G01X295150Y-127250D02*
Y-139750D01*
G01X291585Y-127250D02*
X298715D01*
G01X310650Y-139750D02*
X304450D01*
Y-127250D01*
X310650D01*
G01X308170Y-133292D02*
X304450D01*
G01X316540Y-139750D02*
Y-127250D01*
X319640D01*
X320880Y-127875D01*
X321810Y-128708D01*
X322585Y-129958D01*
X323205Y-131417D01*
X323360Y-133500D01*
X323205Y-135583D01*
X322585Y-137042D01*
X321810Y-138292D01*
X320880Y-139125D01*
X319640Y-139750D01*
X316540D01*
G01X352500Y-121000D02*
Y-221000D01*
G01X385050Y-214750D02*
Y-202250D01*
X383190Y-204750D01*
G01Y-214750D02*
X386910D01*
G01X394505Y-209542D02*
X395590Y-208083D01*
X396520Y-207250D01*
X397760Y-206833D01*
X398845Y-207250D01*
X399620Y-208083D01*
X400240Y-209333D01*
X400395Y-210792D01*
X400240Y-212042D01*
X399620Y-213292D01*
X398690Y-214333D01*
X397605Y-214750D01*
X396365Y-214333D01*
X395280Y-213084D01*
X394660Y-211208D01*
X394505Y-209125D01*
X394815Y-206417D01*
X395280Y-204958D01*
X396055Y-203500D01*
X397140Y-202458D01*
X398225Y-202250D01*
X399310Y-202667D01*
X400085Y-203708D01*
G01X382105Y-159542D02*
X383190Y-158083D01*
X384120Y-157250D01*
X385360Y-156833D01*
X386445Y-157250D01*
X387220Y-158083D01*
X387840Y-159333D01*
X387995Y-160792D01*
X387840Y-162042D01*
X387220Y-163292D01*
X386290Y-164333D01*
X385205Y-164750D01*
X383965Y-164333D01*
X382880Y-163084D01*
X382260Y-161208D01*
X382105Y-159125D01*
X382415Y-156417D01*
X382880Y-154958D01*
X383655Y-153500D01*
X384740Y-152458D01*
X385825Y-152250D01*
X386910Y-152667D01*
X387685Y-153708D01*
G01X397450Y-152250D02*
X396210Y-152667D01*
X395280Y-153708D01*
X394660Y-154958D01*
X394195Y-156625D01*
X394040Y-158500D01*
X394195Y-160375D01*
X394660Y-162042D01*
X395280Y-163292D01*
X396210Y-164333D01*
X397450Y-164750D01*
X398690Y-164333D01*
X399620Y-163292D01*
X400240Y-162042D01*
X400705Y-160375D01*
X400860Y-158500D01*
X400705Y-156625D01*
X400240Y-154958D01*
X399620Y-153708D01*
X398690Y-152667D01*
X397450Y-152250D01*
G01X378850Y-139750D02*
X377610Y-139542D01*
X376525Y-138709D01*
X375595Y-137458D01*
X374975Y-136000D01*
X374665Y-134333D01*
Y-132667D01*
X374975Y-131000D01*
X375595Y-129542D01*
X376525Y-128292D01*
X377610Y-127458D01*
X378850Y-127250D01*
X380090Y-127458D01*
X381175Y-128292D01*
X382105Y-129542D01*
X382725Y-131000D01*
X383035Y-132667D01*
Y-134333D01*
X382725Y-136000D01*
X382105Y-137458D01*
X381175Y-138709D01*
X380090Y-139542D01*
X378850Y-139750D01*
G01X380090Y-136417D02*
X381950Y-139750D01*
G01X391250Y-127250D02*
Y-139750D01*
G01X387685Y-127250D02*
X394815D01*
G01X403650Y-139750D02*
Y-134125D01*
X400550Y-127250D01*
G01X406750D02*
X403650Y-134125D01*
G01X388305Y-184542D02*
X389390Y-183083D01*
X390320Y-182250D01*
X391560Y-181833D01*
X392645Y-182250D01*
X393420Y-183083D01*
X394040Y-184333D01*
X394195Y-185792D01*
X394040Y-187042D01*
X393420Y-188292D01*
X392490Y-189333D01*
X391405Y-189750D01*
X390165Y-189333D01*
X389080Y-188084D01*
X388460Y-186208D01*
X388305Y-184125D01*
X388615Y-181417D01*
X389080Y-179958D01*
X389855Y-178500D01*
X390940Y-177458D01*
X392025Y-177250D01*
X393110Y-177667D01*
X393885Y-178708D01*
M02*
