G04 ================== begin FILE IDENTIFICATION RECORD ==================*
G04 Layout Name:  E:/Project/FPMemory/ElectronicDesign/PCB/output/FPMemory.brd*
G04 Film Name:    SILKSCREEN_TOP*
G04 File Format:  Gerber RS274X*
G04 File Origin:  Cadence Allegro 17.2-S045*
G04 Origin Date:  Sat Oct 20 17:30:39 2018*
G04 *
G04 Layer:  PACKAGE GEOMETRY/SILKSCREEN_TOP*
G04 Layer:  MANUFACTURING/AUTOSILK_TOP*
G04 Layer:  BOARD GEOMETRY/SILKSCREEN_TOP*
G04 *
G04 Offset:    (0.00 0.00)*
G04 Mirror:    No*
G04 Mode:      Positive*
G04 Rotation:  0*
G04 FullContactRelief:  No*
G04 UndefLineWidth:     6.00*
G04 ================== end FILE IDENTIFICATION RECORD ====================*
%FSLAX25Y25*MOIN*%
%IR0*IPPOS*OFA0.00000B0.00000*MIA0B0*SFA1.00000B1.00000*%
%ADD10C,.006*%
%ADD11C,.00591*%
G75*
%LPD*%
G75*
G54D10*
G01X-56600Y-44200D02*
X-56400Y-44600D01*
X-56160Y-44867D01*
X-55880Y-45000D01*
X-55560Y-44867D01*
X-55320Y-44600D01*
X-55080Y-44200D01*
X-55000Y-43667D01*
Y-41000D01*
G01X-53300Y-45000D02*
Y-41000D01*
X-53780Y-41800D01*
G01Y-45000D02*
X-52820D01*
G01X-47800Y-34000D02*
X-46800Y-38000D01*
X-45800Y-34000D01*
G01X-43420Y-34333D02*
X-43660Y-34133D01*
X-43940Y-34000D01*
X-44260D01*
X-44620Y-34200D01*
X-44900Y-34533D01*
X-45100Y-34933D01*
X-45260Y-35600D01*
X-45300Y-36200D01*
X-45220Y-36800D01*
X-45100Y-37200D01*
X-44860Y-37600D01*
X-44580Y-37867D01*
X-44300Y-38000D01*
X-44020D01*
X-43740Y-37867D01*
X-43500Y-37667D01*
X-43300Y-37400D01*
G01X-40920Y-34333D02*
X-41160Y-34133D01*
X-41440Y-34000D01*
X-41760D01*
X-42120Y-34200D01*
X-42400Y-34533D01*
X-42600Y-34933D01*
X-42760Y-35600D01*
X-42800Y-36200D01*
X-42720Y-36800D01*
X-42600Y-37200D01*
X-42360Y-37600D01*
X-42080Y-37867D01*
X-41800Y-38000D01*
X-41520D01*
X-41240Y-37867D01*
X-41000Y-37667D01*
X-40800Y-37400D01*
G01X-47800Y-34000D02*
X-46800Y-38000D01*
X-45800Y-34000D01*
G01X-43420Y-34333D02*
X-43660Y-34133D01*
X-43940Y-34000D01*
X-44260D01*
X-44620Y-34200D01*
X-44900Y-34533D01*
X-45100Y-34933D01*
X-45260Y-35600D01*
X-45300Y-36200D01*
X-45220Y-36800D01*
X-45100Y-37200D01*
X-44860Y-37600D01*
X-44580Y-37867D01*
X-44300Y-38000D01*
X-44020D01*
X-43740Y-37867D01*
X-43500Y-37667D01*
X-43300Y-37400D01*
G01X-40920Y-34333D02*
X-41160Y-34133D01*
X-41440Y-34000D01*
X-41760D01*
X-42120Y-34200D01*
X-42400Y-34533D01*
X-42600Y-34933D01*
X-42760Y-35600D01*
X-42800Y-36200D01*
X-42720Y-36800D01*
X-42600Y-37200D01*
X-42360Y-37600D01*
X-42080Y-37867D01*
X-41800Y-38000D01*
X-41520D01*
X-41240Y-37867D01*
X-41000Y-37667D01*
X-40800Y-37400D01*
G01X-48234Y-24522D02*
X-47914Y-24855D01*
X-47554Y-25055D01*
X-47234D01*
X-46914Y-24855D01*
X-46674Y-24522D01*
X-46554Y-24055D01*
X-46634Y-23588D01*
X-46834Y-23188D01*
X-47194Y-22922D01*
X-47674Y-22788D01*
X-47954Y-22522D01*
X-48074Y-22055D01*
X-47994Y-21588D01*
X-47794Y-21255D01*
X-47514Y-21055D01*
X-47234D01*
X-46954Y-21188D01*
X-46714Y-21522D01*
G01X-44974Y-25055D02*
X-44894Y-24188D01*
X-44774Y-23455D01*
X-44614Y-22788D01*
X-44414Y-22055D01*
X-44094Y-21055D01*
X-45694D01*
G01X-48234Y-3337D02*
X-47914Y-3670D01*
X-47554Y-3870D01*
X-47234D01*
X-46914Y-3670D01*
X-46674Y-3337D01*
X-46554Y-2870D01*
X-46634Y-2403D01*
X-46834Y-2003D01*
X-47194Y-1737D01*
X-47674Y-1603D01*
X-47954Y-1337D01*
X-48074Y-870D01*
X-47994Y-403D01*
X-47794Y-70D01*
X-47514Y130D01*
X-47234D01*
X-46954Y-3D01*
X-46714Y-337D01*
G01X-45774Y-3270D02*
X-45534Y-3603D01*
X-45254Y-3803D01*
X-44894Y-3870D01*
X-44534Y-3737D01*
X-44254Y-3470D01*
X-44054Y-3003D01*
X-44014Y-2470D01*
X-44094Y-1937D01*
X-44294Y-1603D01*
X-44574Y-1337D01*
X-44854Y-1270D01*
X-45134Y-1337D01*
X-45494Y-1603D01*
X-45374Y130D01*
X-44294D01*
G01X-48234Y17848D02*
X-47914Y17515D01*
X-47554Y17315D01*
X-47234D01*
X-46914Y17515D01*
X-46674Y17848D01*
X-46554Y18315D01*
X-46634Y18782D01*
X-46834Y19182D01*
X-47194Y19448D01*
X-47674Y19582D01*
X-47954Y19848D01*
X-48074Y20315D01*
X-47994Y20782D01*
X-47794Y21115D01*
X-47514Y21315D01*
X-47234D01*
X-46954Y21182D01*
X-46714Y20848D01*
G01X-45774Y18115D02*
X-45534Y17648D01*
X-45214Y17382D01*
X-44854Y17315D01*
X-44534Y17382D01*
X-44214Y17715D01*
X-44014Y18115D01*
X-43974Y18515D01*
X-44054Y18982D01*
X-44334Y19315D01*
X-44614Y19448D01*
X-44974D01*
G01X-44614D02*
X-44374Y19648D01*
X-44174Y19982D01*
X-44094Y20382D01*
X-44174Y20782D01*
X-44374Y21115D01*
X-44734Y21315D01*
X-45094Y21248D01*
X-45454Y20982D01*
G01X-48234Y39033D02*
X-47914Y38700D01*
X-47554Y38500D01*
X-47234D01*
X-46914Y38700D01*
X-46674Y39033D01*
X-46554Y39500D01*
X-46634Y39967D01*
X-46834Y40367D01*
X-47194Y40633D01*
X-47674Y40767D01*
X-47954Y41033D01*
X-48074Y41500D01*
X-47994Y41967D01*
X-47794Y42300D01*
X-47514Y42500D01*
X-47234D01*
X-46954Y42367D01*
X-46714Y42033D01*
G01X-44894Y38500D02*
Y42500D01*
X-45374Y41700D01*
G01Y38500D02*
X-44414D01*
G01X-44680Y49500D02*
Y46633D01*
X-44520Y46033D01*
X-44200Y45633D01*
X-43800Y45500D01*
X-43400Y45633D01*
X-43080Y46033D01*
X-42920Y46633D01*
Y49500D01*
G01X-41300Y45500D02*
Y49500D01*
X-41780Y48700D01*
G01Y45500D02*
X-40820D01*
G01X-36800Y-34000D02*
Y-38000D01*
G01X-37720Y-34000D02*
X-35880D01*
G01X-35140Y-38000D02*
X-33460Y-34000D01*
G01X-35140D02*
X-33460Y-38000D01*
G01X-32680D02*
Y-34000D01*
X-31880D01*
X-31560Y-34200D01*
X-31320Y-34467D01*
X-31120Y-34867D01*
X-30960Y-35333D01*
X-30920Y-36000D01*
X-30960Y-36667D01*
X-31120Y-37133D01*
X-31320Y-37533D01*
X-31560Y-37800D01*
X-31880Y-38000D01*
X-32680D01*
G01X-27100D02*
Y-34000D01*
X-26100D01*
X-25780Y-34200D01*
X-25580Y-34467D01*
X-25500Y-35000D01*
X-25580Y-35533D01*
X-25820Y-35867D01*
X-26100Y-36067D01*
X-27100D01*
G01X-26100D02*
X-25500Y-38000D01*
G01X-24640D02*
X-22960Y-34000D01*
G01X-24640D02*
X-22960Y-38000D01*
G01X-22180D02*
Y-34000D01*
X-21380D01*
X-21060Y-34200D01*
X-20820Y-34467D01*
X-20620Y-34867D01*
X-20460Y-35333D01*
X-20420Y-36000D01*
X-20460Y-36667D01*
X-20620Y-37133D01*
X-20820Y-37533D01*
X-21060Y-37800D01*
X-21380Y-38000D01*
X-22180D01*
G01X-27100D02*
Y-34000D01*
X-26100D01*
X-25780Y-34200D01*
X-25580Y-34467D01*
X-25500Y-35000D01*
X-25580Y-35533D01*
X-25820Y-35867D01*
X-26100Y-36067D01*
X-27100D01*
G01X-26100D02*
X-25500Y-38000D01*
G01X-24640D02*
X-22960Y-34000D01*
G01X-24640D02*
X-22960Y-38000D01*
G01X-22180D02*
Y-34000D01*
X-21380D01*
X-21060Y-34200D01*
X-20820Y-34467D01*
X-20620Y-34867D01*
X-20460Y-35333D01*
X-20420Y-36000D01*
X-20460Y-36667D01*
X-20620Y-37133D01*
X-20820Y-37533D01*
X-21060Y-37800D01*
X-21380Y-38000D01*
X-22180D01*
G01X-36800Y-34000D02*
Y-38000D01*
G01X-37720Y-34000D02*
X-35880D01*
G01X-35140Y-38000D02*
X-33460Y-34000D01*
G01X-35140D02*
X-33460Y-38000D01*
G01X-32680D02*
Y-34000D01*
X-31880D01*
X-31560Y-34200D01*
X-31320Y-34467D01*
X-31120Y-34867D01*
X-30960Y-35333D01*
X-30920Y-36000D01*
X-30960Y-36667D01*
X-31120Y-37133D01*
X-31320Y-37533D01*
X-31560Y-37800D01*
X-31880Y-38000D01*
X-32680D01*
G01X-17640Y-37467D02*
X-17320Y-37800D01*
X-16960Y-38000D01*
X-16640D01*
X-16320Y-37800D01*
X-16080Y-37467D01*
X-15960Y-37000D01*
X-16040Y-36533D01*
X-16240Y-36133D01*
X-16600Y-35867D01*
X-17080Y-35733D01*
X-17360Y-35467D01*
X-17480Y-35000D01*
X-17400Y-34533D01*
X-17200Y-34200D01*
X-16920Y-34000D01*
X-16640D01*
X-16360Y-34133D01*
X-16120Y-34467D01*
G01X-15180Y-38000D02*
Y-34000D01*
X-14380D01*
X-14060Y-34200D01*
X-13820Y-34467D01*
X-13620Y-34867D01*
X-13460Y-35333D01*
X-13420Y-36000D01*
X-13460Y-36667D01*
X-13620Y-37133D01*
X-13820Y-37533D01*
X-14060Y-37800D01*
X-14380Y-38000D01*
X-15180D01*
G01X-12800D02*
X-11800Y-34000D01*
X-10800Y-38000D01*
G01X-11160Y-36600D02*
X-12440D01*
G01X-17640Y-37467D02*
X-17320Y-37800D01*
X-16960Y-38000D01*
X-16640D01*
X-16320Y-37800D01*
X-16080Y-37467D01*
X-15960Y-37000D01*
X-16040Y-36533D01*
X-16240Y-36133D01*
X-16600Y-35867D01*
X-17080Y-35733D01*
X-17360Y-35467D01*
X-17480Y-35000D01*
X-17400Y-34533D01*
X-17200Y-34200D01*
X-16920Y-34000D01*
X-16640D01*
X-16360Y-34133D01*
X-16120Y-34467D01*
G01X-15180Y-38000D02*
Y-34000D01*
X-14380D01*
X-14060Y-34200D01*
X-13820Y-34467D01*
X-13620Y-34867D01*
X-13460Y-35333D01*
X-13420Y-36000D01*
X-13460Y-36667D01*
X-13620Y-37133D01*
X-13820Y-37533D01*
X-14060Y-37800D01*
X-14380Y-38000D01*
X-15180D01*
G01X-12800D02*
X-11800Y-34000D01*
X-10800Y-38000D01*
G01X-11160Y-36600D02*
X-12440D01*
G01X2940Y-36000D02*
X3740D01*
Y-37200D01*
X3500Y-37600D01*
X3220Y-37867D01*
X2820Y-38000D01*
X2420Y-37867D01*
X2140Y-37600D01*
X1900Y-37200D01*
X1740Y-36733D01*
X1660Y-36200D01*
Y-35733D01*
X1740Y-35333D01*
X1900Y-34867D01*
X2140Y-34467D01*
X2380Y-34200D01*
X2700Y-34000D01*
X2980D01*
X3300Y-34133D01*
X3540Y-34400D01*
G01X4280Y-38000D02*
Y-34000D01*
X6120Y-38000D01*
Y-34000D01*
G01X6820Y-38000D02*
Y-34000D01*
X7620D01*
X7940Y-34200D01*
X8180Y-34467D01*
X8380Y-34867D01*
X8540Y-35333D01*
X8580Y-36000D01*
X8540Y-36667D01*
X8380Y-37133D01*
X8180Y-37533D01*
X7940Y-37800D01*
X7620Y-38000D01*
X6820D01*
G01X-7640Y-37467D02*
X-7320Y-37800D01*
X-6960Y-38000D01*
X-6640D01*
X-6320Y-37800D01*
X-6080Y-37467D01*
X-5960Y-37000D01*
X-6040Y-36533D01*
X-6240Y-36133D01*
X-6600Y-35867D01*
X-7080Y-35733D01*
X-7360Y-35467D01*
X-7480Y-35000D01*
X-7400Y-34533D01*
X-7200Y-34200D01*
X-6920Y-34000D01*
X-6640D01*
X-6360Y-34133D01*
X-6120Y-34467D01*
G01X-3420Y-34333D02*
X-3660Y-34133D01*
X-3940Y-34000D01*
X-4260D01*
X-4620Y-34200D01*
X-4900Y-34533D01*
X-5100Y-34933D01*
X-5260Y-35600D01*
X-5300Y-36200D01*
X-5220Y-36800D01*
X-5100Y-37200D01*
X-4860Y-37600D01*
X-4580Y-37867D01*
X-4300Y-38000D01*
X-4020D01*
X-3740Y-37867D01*
X-3500Y-37667D01*
X-3300Y-37400D01*
G01X-2600Y-34000D02*
Y-38000D01*
X-1000D01*
G01X-7640Y-37467D02*
X-7320Y-37800D01*
X-6960Y-38000D01*
X-6640D01*
X-6320Y-37800D01*
X-6080Y-37467D01*
X-5960Y-37000D01*
X-6040Y-36533D01*
X-6240Y-36133D01*
X-6600Y-35867D01*
X-7080Y-35733D01*
X-7360Y-35467D01*
X-7480Y-35000D01*
X-7400Y-34533D01*
X-7200Y-34200D01*
X-6920Y-34000D01*
X-6640D01*
X-6360Y-34133D01*
X-6120Y-34467D01*
G01X-3420Y-34333D02*
X-3660Y-34133D01*
X-3940Y-34000D01*
X-4260D01*
X-4620Y-34200D01*
X-4900Y-34533D01*
X-5100Y-34933D01*
X-5260Y-35600D01*
X-5300Y-36200D01*
X-5220Y-36800D01*
X-5100Y-37200D01*
X-4860Y-37600D01*
X-4580Y-37867D01*
X-4300Y-38000D01*
X-4020D01*
X-3740Y-37867D01*
X-3500Y-37667D01*
X-3300Y-37400D01*
G01X-2600Y-34000D02*
Y-38000D01*
X-1000D01*
G01X2940Y-36000D02*
X3740D01*
Y-37200D01*
X3500Y-37600D01*
X3220Y-37867D01*
X2820Y-38000D01*
X2420Y-37867D01*
X2140Y-37600D01*
X1900Y-37200D01*
X1740Y-36733D01*
X1660Y-36200D01*
Y-35733D01*
X1740Y-35333D01*
X1900Y-34867D01*
X2140Y-34467D01*
X2380Y-34200D01*
X2700Y-34000D01*
X2980D01*
X3300Y-34133D01*
X3540Y-34400D01*
G01X4280Y-38000D02*
Y-34000D01*
X6120Y-38000D01*
Y-34000D01*
G01X6820Y-38000D02*
Y-34000D01*
X7620D01*
X7940Y-34200D01*
X8180Y-34467D01*
X8380Y-34867D01*
X8540Y-35333D01*
X8580Y-36000D01*
X8540Y-36667D01*
X8380Y-37133D01*
X8180Y-37533D01*
X7940Y-37800D01*
X7620Y-38000D01*
X6820D01*
G01X22820Y-31000D02*
Y-33867D01*
X22980Y-34467D01*
X23300Y-34867D01*
X23700Y-35000D01*
X24100Y-34867D01*
X24420Y-34467D01*
X24580Y-33867D01*
Y-31000D01*
G01X25440Y-31667D02*
X25680Y-31267D01*
X25960Y-31067D01*
X26280Y-31000D01*
X26680Y-31133D01*
X26960Y-31467D01*
X27040Y-31867D01*
X27000Y-32267D01*
X26840Y-32600D01*
X26040Y-33267D01*
X25680Y-33733D01*
X25440Y-34400D01*
X25360Y-35000D01*
X27040D01*
G01X22820Y-31000D02*
Y-33867D01*
X22980Y-34467D01*
X23300Y-34867D01*
X23700Y-35000D01*
X24100Y-34867D01*
X24420Y-34467D01*
X24580Y-33867D01*
Y-31000D01*
G01X25440Y-31667D02*
X25680Y-31267D01*
X25960Y-31067D01*
X26280Y-31000D01*
X26680Y-31133D01*
X26960Y-31467D01*
X27040Y-31867D01*
X27000Y-32267D01*
X26840Y-32600D01*
X26040Y-33267D01*
X25680Y-33733D01*
X25440Y-34400D01*
X25360Y-35000D01*
X27040D01*
G01X44860Y-25467D02*
X45180Y-25800D01*
X45540Y-26000D01*
X45860D01*
X46180Y-25800D01*
X46420Y-25467D01*
X46540Y-25000D01*
X46460Y-24533D01*
X46260Y-24133D01*
X45900Y-23867D01*
X45420Y-23733D01*
X45140Y-23467D01*
X45020Y-23000D01*
X45100Y-22533D01*
X45300Y-22200D01*
X45580Y-22000D01*
X45860D01*
X46140Y-22133D01*
X46380Y-22467D01*
G01X48200Y-26000D02*
X48480Y-25933D01*
X48800Y-25733D01*
X49000Y-25400D01*
X49080Y-24933D01*
X49000Y-24467D01*
X48760Y-24067D01*
X48400Y-23867D01*
X48000D01*
X47760Y-23733D01*
X47560Y-23400D01*
X47480Y-22933D01*
X47600Y-22467D01*
X47880Y-22133D01*
X48200Y-22000D01*
X48520Y-22133D01*
X48800Y-22467D01*
X48920Y-22933D01*
X48840Y-23400D01*
X48640Y-23733D01*
X48400Y-23867D01*
X48000D01*
X47640Y-24067D01*
X47400Y-24467D01*
X47320Y-24933D01*
X47400Y-25400D01*
X47600Y-25733D01*
X47920Y-25933D01*
X48200Y-26000D01*
G01X44860Y-4467D02*
X45180Y-4800D01*
X45540Y-5000D01*
X45860D01*
X46180Y-4800D01*
X46420Y-4467D01*
X46540Y-4000D01*
X46460Y-3533D01*
X46260Y-3133D01*
X45900Y-2867D01*
X45420Y-2733D01*
X45140Y-2467D01*
X45020Y-2000D01*
X45100Y-1533D01*
X45300Y-1200D01*
X45580Y-1000D01*
X45860D01*
X46140Y-1133D01*
X46380Y-1467D01*
G01X47440Y-3333D02*
X47720Y-2867D01*
X47960Y-2600D01*
X48280Y-2467D01*
X48560Y-2600D01*
X48760Y-2867D01*
X48920Y-3267D01*
X48960Y-3733D01*
X48920Y-4133D01*
X48760Y-4533D01*
X48520Y-4867D01*
X48240Y-5000D01*
X47920Y-4867D01*
X47640Y-4467D01*
X47480Y-3867D01*
X47440Y-3200D01*
X47520Y-2333D01*
X47640Y-1867D01*
X47840Y-1400D01*
X48120Y-1067D01*
X48400Y-1000D01*
X48680Y-1133D01*
X48880Y-1467D01*
G01X44360Y17033D02*
X44680Y16700D01*
X45040Y16500D01*
X45360D01*
X45680Y16700D01*
X45920Y17033D01*
X46040Y17500D01*
X45960Y17967D01*
X45760Y18367D01*
X45400Y18633D01*
X44920Y18767D01*
X44640Y19033D01*
X44520Y19500D01*
X44600Y19967D01*
X44800Y20300D01*
X45080Y20500D01*
X45360D01*
X45640Y20367D01*
X45880Y20033D01*
G01X48180Y16500D02*
Y20500D01*
X46700Y17633D01*
X48700D01*
G01X44360Y38533D02*
X44680Y38200D01*
X45040Y38000D01*
X45360D01*
X45680Y38200D01*
X45920Y38533D01*
X46040Y39000D01*
X45960Y39467D01*
X45760Y39867D01*
X45400Y40133D01*
X44920Y40267D01*
X44640Y40533D01*
X44520Y41000D01*
X44600Y41467D01*
X44800Y41800D01*
X45080Y42000D01*
X45360D01*
X45640Y41867D01*
X45880Y41533D01*
G01X46940Y41333D02*
X47180Y41733D01*
X47460Y41933D01*
X47780Y42000D01*
X48180Y41867D01*
X48460Y41533D01*
X48540Y41133D01*
X48500Y40733D01*
X48340Y40400D01*
X47540Y39733D01*
X47180Y39267D01*
X46940Y38600D01*
X46860Y38000D01*
X48540D01*
G54D11*
G01X-59421Y-34897D02*
X-49579D01*
Y-15213D01*
X-59421D01*
Y-34897D01*
G01D02*
X-49579D01*
Y-15213D01*
X-59421D01*
Y-34897D01*
G01Y-13712D02*
X-49579D01*
Y5972D01*
X-59421D01*
Y-13712D01*
G01D02*
X-49579D01*
Y5972D01*
X-59421D01*
Y-13712D01*
G01Y7473D02*
X-49579D01*
Y27157D01*
X-59421D01*
Y7473D01*
G01D02*
X-49579D01*
Y27157D01*
X-59421D01*
Y7473D01*
G01Y28658D02*
X-49579D01*
Y48342D01*
X-59421D01*
Y28658D01*
G01D02*
X-49579D01*
Y48342D01*
X-59421D01*
Y28658D01*
G01X10134Y-48921D02*
Y-39079D01*
X-48921D01*
Y-48921D01*
X10134D01*
G01D02*
Y-39079D01*
X-48921D01*
Y-48921D01*
X10134D01*
G01X-37220Y47000D02*
X35220D01*
Y-27213D01*
X-37220D01*
Y47000D01*
G01X-25566Y-27213D02*
X-37220D01*
Y-23374D01*
G01Y-19240D02*
Y-18374D01*
G01Y-14240D02*
Y-13374D01*
G01Y-9240D02*
Y-8374D01*
G01Y-4240D02*
Y-3374D01*
G01Y760D02*
Y1626D01*
G01Y5760D02*
Y6626D01*
G01Y10760D02*
Y11626D01*
G01Y15760D02*
Y16626D01*
G01Y20760D02*
Y21626D01*
G01Y25760D02*
Y26626D01*
G01Y30760D02*
Y31626D01*
G01Y35760D02*
Y36626D01*
G01Y47000D02*
X35220D01*
Y45760D01*
G01X-37220Y40760D02*
Y41626D01*
G01Y45760D02*
Y47000D01*
G01X-10566Y-27213D02*
X-11434D01*
G01X-15566D02*
X-16434D01*
G01X-20566D02*
X-21434D01*
G01X4434D02*
X3566D01*
G01X-566D02*
X-1434D01*
G01X-5567D02*
X-6434D01*
G01X18594Y-37496D02*
X30406D01*
Y-49504D01*
X18594D01*
Y-37496D01*
G01D02*
X30406D01*
Y-49504D01*
X18594D01*
Y-37496D01*
G01X19434Y-27213D02*
X18566D01*
G01X14434D02*
X13566D01*
G01X9434D02*
X8566D01*
G01X60000Y-44250D02*
Y-41750D01*
X35000D01*
Y-44250D01*
X60000D01*
G01D02*
Y-41750D01*
X35000D01*
Y-44250D01*
X60000D01*
G01X35220Y-23374D02*
Y-27213D01*
X23566D01*
G01X35220Y-8374D02*
Y-9240D01*
G01Y-13374D02*
Y-14240D01*
G01Y-18374D02*
Y-19240D01*
G01Y6626D02*
Y5760D01*
G01Y1626D02*
Y760D01*
G01Y-3374D02*
Y-4240D01*
G01Y21626D02*
Y20760D01*
G01Y16626D02*
Y15760D01*
G01Y11626D02*
Y10760D01*
G01Y36626D02*
Y35760D01*
G01Y31626D02*
Y30760D01*
G01Y26626D02*
Y25760D01*
G01Y41626D02*
Y40760D01*
G01X50079Y-34897D02*
X59921D01*
Y-15213D01*
X50079D01*
Y-34897D01*
G01D02*
X59921D01*
Y-15213D01*
X50079D01*
Y-34897D01*
G01Y-13763D02*
X59921D01*
Y5921D01*
X50079D01*
Y-13763D01*
G01D02*
X59921D01*
Y5921D01*
X50079D01*
Y-13763D01*
G01Y7473D02*
X59921D01*
Y27157D01*
X50079D01*
Y7473D01*
G01D02*
X59921D01*
Y27157D01*
X50079D01*
Y7473D01*
G01Y28658D02*
X59921D01*
Y48342D01*
X50079D01*
Y28658D01*
G01D02*
X59921D01*
Y48342D01*
X50079D01*
Y28658D01*
M02*
