G04 ================== begin FILE IDENTIFICATION RECORD ==================*
G04 Layout Name:  E:/Project/FPMemory/ElectronicDesign/PCB/output/FPMemory.brd*
G04 Film Name:    SILKSCREEN_BOTTOM*
G04 File Format:  Gerber RS274X*
G04 File Origin:  Cadence Allegro 17.2-S045*
G04 Origin Date:  Sat Oct 20 17:30:39 2018*
G04 *
G04 Layer:  PACKAGE GEOMETRY/SILKSCREEN_BOTTOM*
G04 Layer:  MANUFACTURING/AUTOSILK_BOTTOM*
G04 Layer:  BOARD GEOMETRY/SILKSCREEN_BOTTOM*
G04 *
G04 Offset:    (0.00 0.00)*
G04 Mirror:    No*
G04 Mode:      Positive*
G04 Rotation:  0*
G04 FullContactRelief:  No*
G04 UndefLineWidth:     6.00*
G04 ================== end FILE IDENTIFICATION RECORD ====================*
%FSLAX25Y25*MOIN*%
%IR0*IPPOS*OFA0.00000B0.00000*MIA0B0*SFA1.00000B1.00000*%
%ADD10C,.006*%
%ADD11C,.00591*%
%ADD12C,.00197*%
G75*
%LPD*%
G75*
G36*
G01X13681Y-27296D02*
G03I-1181J0D01*
G37*
G36*
G01Y5700D02*
G03I-1181J0D01*
G37*
G54D10*
G01X-36580Y-38333D02*
X-36340Y-38133D01*
X-36060Y-38000D01*
X-35740D01*
X-35380Y-38200D01*
X-35100Y-38533D01*
X-34900Y-38933D01*
X-34740Y-39600D01*
X-34700Y-40200D01*
X-34780Y-40800D01*
X-34900Y-41200D01*
X-35140Y-41600D01*
X-35420Y-41867D01*
X-35700Y-42000D01*
X-35980D01*
X-36260Y-41867D01*
X-36500Y-41667D01*
X-36700Y-41400D01*
G01X-38200Y-42000D02*
Y-38000D01*
X-37720Y-38800D01*
G01Y-42000D02*
X-38680D01*
G01X-39820Y-41400D02*
X-40060Y-41733D01*
X-40340Y-41933D01*
X-40700Y-42000D01*
X-41060Y-41867D01*
X-41340Y-41600D01*
X-41540Y-41133D01*
X-41580Y-40600D01*
X-41500Y-40067D01*
X-41300Y-39733D01*
X-41020Y-39467D01*
X-40740Y-39400D01*
X-40460Y-39467D01*
X-40100Y-39733D01*
X-40220Y-38000D01*
X-41300D01*
G01X-27957Y-24270D02*
Y-20270D01*
X-28957D01*
X-29277Y-20470D01*
X-29477Y-20737D01*
X-29557Y-21270D01*
X-29477Y-21803D01*
X-29237Y-22137D01*
X-28957Y-22337D01*
X-27957D01*
G01X-28957D02*
X-29557Y-24270D01*
G01X-31177D02*
X-31257Y-23403D01*
X-31377Y-22670D01*
X-31537Y-22003D01*
X-31737Y-21270D01*
X-32057Y-20270D01*
X-30457D01*
G01X-27580Y-9833D02*
X-27340Y-9633D01*
X-27060Y-9500D01*
X-26740D01*
X-26380Y-9700D01*
X-26100Y-10033D01*
X-25900Y-10433D01*
X-25740Y-11100D01*
X-25700Y-11700D01*
X-25780Y-12300D01*
X-25900Y-12700D01*
X-26140Y-13100D01*
X-26420Y-13367D01*
X-26700Y-13500D01*
X-26980D01*
X-27260Y-13367D01*
X-27500Y-13167D01*
X-27700Y-12900D01*
G01X-29200Y-13500D02*
Y-9500D01*
X-28720Y-10300D01*
G01Y-13500D02*
X-29680D01*
G01X-31700D02*
Y-9500D01*
X-31220Y-10300D01*
G01Y-13500D02*
X-32180D01*
G01X-29637Y1145D02*
X-29397Y1345D01*
X-29117Y1478D01*
X-28797D01*
X-28437Y1278D01*
X-28157Y945D01*
X-27957Y545D01*
X-27797Y-122D01*
X-27757Y-722D01*
X-27837Y-1322D01*
X-27957Y-1722D01*
X-28197Y-2122D01*
X-28477Y-2389D01*
X-28757Y-2522D01*
X-29037D01*
X-29317Y-2389D01*
X-29557Y-2189D01*
X-29757Y-1922D01*
G01X-30577Y-2055D02*
X-30857Y-2389D01*
X-31177Y-2522D01*
X-31497Y-2389D01*
X-31777Y-1989D01*
X-31977Y-1389D01*
X-32057Y-789D01*
Y-55D01*
X-31977Y545D01*
X-31777Y1078D01*
X-31537Y1345D01*
X-31257Y1478D01*
X-30937Y1345D01*
X-30697Y1078D01*
X-30537Y678D01*
X-30457Y145D01*
X-30537Y-322D01*
X-30737Y-789D01*
X-30977Y-1055D01*
X-31257Y-1122D01*
X-31577Y-989D01*
X-31817Y-655D01*
X-32057Y-55D01*
G01X-29637Y22893D02*
X-29397Y23093D01*
X-29117Y23226D01*
X-28797D01*
X-28437Y23026D01*
X-28157Y22693D01*
X-27957Y22293D01*
X-27797Y21626D01*
X-27757Y21026D01*
X-27837Y20426D01*
X-27957Y20026D01*
X-28197Y19626D01*
X-28477Y19359D01*
X-28757Y19226D01*
X-29037D01*
X-29317Y19359D01*
X-29557Y19559D01*
X-29757Y19826D01*
G01X-31177Y19226D02*
X-31257Y20093D01*
X-31377Y20826D01*
X-31537Y21493D01*
X-31737Y22226D01*
X-32057Y23226D01*
X-30457D01*
G01X-27957Y8352D02*
Y12352D01*
X-28957D01*
X-29277Y12152D01*
X-29477Y11885D01*
X-29557Y11352D01*
X-29477Y10819D01*
X-29237Y10485D01*
X-28957Y10285D01*
X-27957D01*
G01X-28957D02*
X-29557Y8352D01*
G01X-31737D02*
Y12352D01*
X-30257Y9485D01*
X-32257D01*
G01X-29580Y40167D02*
X-29340Y40367D01*
X-29060Y40500D01*
X-28740D01*
X-28380Y40300D01*
X-28100Y39967D01*
X-27900Y39567D01*
X-27740Y38900D01*
X-27700Y38300D01*
X-27780Y37700D01*
X-27900Y37300D01*
X-28140Y36900D01*
X-28420Y36633D01*
X-28700Y36500D01*
X-28980D01*
X-29260Y36633D01*
X-29500Y36833D01*
X-29700Y37100D01*
G01X-30320Y37300D02*
X-30560Y36833D01*
X-30880Y36567D01*
X-31240Y36500D01*
X-31560Y36567D01*
X-31880Y36900D01*
X-32080Y37300D01*
X-32120Y37700D01*
X-32040Y38167D01*
X-31760Y38500D01*
X-31480Y38633D01*
X-31120D01*
G01X-31480D02*
X-31720Y38833D01*
X-31920Y39167D01*
X-32000Y39567D01*
X-31920Y39967D01*
X-31720Y40300D01*
X-31360Y40500D01*
X-31000Y40433D01*
X-30640Y40167D01*
G01X-29637Y33767D02*
X-29397Y33967D01*
X-29117Y34100D01*
X-28797D01*
X-28437Y33900D01*
X-28157Y33567D01*
X-27957Y33167D01*
X-27797Y32500D01*
X-27757Y31900D01*
X-27837Y31300D01*
X-27957Y30900D01*
X-28197Y30500D01*
X-28477Y30233D01*
X-28757Y30100D01*
X-29037D01*
X-29317Y30233D01*
X-29557Y30433D01*
X-29757Y30700D01*
G01X-30377D02*
X-30617Y30367D01*
X-30897Y30167D01*
X-31257Y30100D01*
X-31617Y30233D01*
X-31897Y30500D01*
X-32097Y30967D01*
X-32137Y31500D01*
X-32057Y32033D01*
X-31857Y32367D01*
X-31577Y32633D01*
X-31297Y32700D01*
X-31017Y32633D01*
X-30657Y32367D01*
X-30777Y34100D01*
X-31857D01*
G01X-18080Y-38333D02*
X-17840Y-38133D01*
X-17560Y-38000D01*
X-17240D01*
X-16880Y-38200D01*
X-16600Y-38533D01*
X-16400Y-38933D01*
X-16240Y-39600D01*
X-16200Y-40200D01*
X-16280Y-40800D01*
X-16400Y-41200D01*
X-16640Y-41600D01*
X-16920Y-41867D01*
X-17200Y-42000D01*
X-17480D01*
X-17760Y-41867D01*
X-18000Y-41667D01*
X-18200Y-41400D01*
G01X-19700Y-42000D02*
Y-38000D01*
X-19220Y-38800D01*
G01Y-42000D02*
X-20180D01*
G01X-22680D02*
Y-38000D01*
X-21200Y-40867D01*
X-23200D01*
G01X-25000Y-14320D02*
X-22133D01*
X-21533Y-14480D01*
X-21133Y-14800D01*
X-21000Y-15200D01*
X-21133Y-15600D01*
X-21533Y-15920D01*
X-22133Y-16080D01*
X-25000D01*
G01X-21000Y-18180D02*
X-25000D01*
X-22133Y-16700D01*
Y-18700D01*
G01X-26000Y18180D02*
X-23133D01*
X-22533Y18020D01*
X-22133Y17700D01*
X-22000Y17300D01*
X-22133Y16900D01*
X-22533Y16580D01*
X-23133Y16420D01*
X-26000D01*
G01X-22800Y15680D02*
X-22333Y15440D01*
X-22067Y15120D01*
X-22000Y14760D01*
X-22067Y14440D01*
X-22400Y14120D01*
X-22800Y13920D01*
X-23200Y13880D01*
X-23667Y13960D01*
X-24000Y14240D01*
X-24133Y14520D01*
Y14880D01*
G01Y14520D02*
X-24333Y14280D01*
X-24667Y14080D01*
X-25067Y14000D01*
X-25467Y14080D01*
X-25800Y14280D01*
X-26000Y14640D01*
X-25933Y15000D01*
X-25667Y15360D01*
G01X-21080Y40667D02*
X-20840Y40867D01*
X-20560Y41000D01*
X-20240D01*
X-19880Y40800D01*
X-19600Y40467D01*
X-19400Y40067D01*
X-19240Y39400D01*
X-19200Y38800D01*
X-19280Y38200D01*
X-19400Y37800D01*
X-19640Y37400D01*
X-19920Y37133D01*
X-20200Y37000D01*
X-20480D01*
X-20760Y37133D01*
X-21000Y37333D01*
X-21200Y37600D01*
G01X-21940Y40333D02*
X-22180Y40733D01*
X-22460Y40933D01*
X-22780Y41000D01*
X-23180Y40867D01*
X-23460Y40533D01*
X-23540Y40133D01*
X-23500Y39733D01*
X-23340Y39400D01*
X-22540Y38733D01*
X-22180Y38267D01*
X-21940Y37600D01*
X-21860Y37000D01*
X-23540D01*
G01X1420Y-38333D02*
X1660Y-38133D01*
X1940Y-38000D01*
X2260D01*
X2620Y-38200D01*
X2900Y-38533D01*
X3100Y-38933D01*
X3260Y-39600D01*
X3300Y-40200D01*
X3220Y-40800D01*
X3100Y-41200D01*
X2860Y-41600D01*
X2580Y-41867D01*
X2300Y-42000D01*
X2020D01*
X1740Y-41867D01*
X1500Y-41667D01*
X1300Y-41400D01*
G01X-200Y-42000D02*
Y-38000D01*
X280Y-38800D01*
G01Y-42000D02*
X-680D01*
G01X-1820Y-41200D02*
X-2060Y-41667D01*
X-2380Y-41933D01*
X-2740Y-42000D01*
X-3060Y-41933D01*
X-3380Y-41600D01*
X-3580Y-41200D01*
X-3620Y-40800D01*
X-3540Y-40333D01*
X-3260Y-40000D01*
X-2980Y-39867D01*
X-2620D01*
G01X-2980D02*
X-3220Y-39667D01*
X-3420Y-39333D01*
X-3500Y-38933D01*
X-3420Y-38533D01*
X-3220Y-38200D01*
X-2860Y-38000D01*
X-2500Y-38067D01*
X-2140Y-38333D01*
G01X-3580Y40667D02*
X-3340Y40867D01*
X-3060Y41000D01*
X-2740D01*
X-2380Y40800D01*
X-2100Y40467D01*
X-1900Y40067D01*
X-1740Y39400D01*
X-1700Y38800D01*
X-1780Y38200D01*
X-1900Y37800D01*
X-2140Y37400D01*
X-2420Y37133D01*
X-2700Y37000D01*
X-2980D01*
X-3260Y37133D01*
X-3500Y37333D01*
X-3700Y37600D01*
G01X-5200Y37000D02*
Y41000D01*
X-4720Y40200D01*
G01Y37000D02*
X-5680D01*
G01X21420Y-38333D02*
X21660Y-38133D01*
X21940Y-38000D01*
X22260D01*
X22620Y-38200D01*
X22900Y-38533D01*
X23100Y-38933D01*
X23260Y-39600D01*
X23300Y-40200D01*
X23220Y-40800D01*
X23100Y-41200D01*
X22860Y-41600D01*
X22580Y-41867D01*
X22300Y-42000D01*
X22020D01*
X21740Y-41867D01*
X21500Y-41667D01*
X21300Y-41400D01*
G01X19800Y-42000D02*
Y-38000D01*
X20280Y-38800D01*
G01Y-42000D02*
X19320D01*
G01X18060Y-38667D02*
X17820Y-38267D01*
X17540Y-38067D01*
X17220Y-38000D01*
X16820Y-38133D01*
X16540Y-38467D01*
X16460Y-38867D01*
X16500Y-39267D01*
X16660Y-39600D01*
X17460Y-40267D01*
X17820Y-40733D01*
X18060Y-41400D01*
X18140Y-42000D01*
X16460D01*
G01X15600Y37000D02*
Y41000D01*
X14600D01*
X14280Y40800D01*
X14080Y40533D01*
X14000Y40000D01*
X14080Y39467D01*
X14320Y39133D01*
X14600Y38933D01*
X15600D01*
G01X14600D02*
X14000Y37000D01*
G01X12300D02*
Y41000D01*
X12780Y40200D01*
G01Y37000D02*
X11820D01*
G01X38000Y-20900D02*
X34000D01*
Y-21900D01*
X34200Y-22220D01*
X34467Y-22420D01*
X35000Y-22500D01*
X35533Y-22420D01*
X35867Y-22180D01*
X36067Y-21900D01*
Y-20900D01*
G01Y-21900D02*
X38000Y-22500D01*
G01Y-24200D02*
X37933Y-24480D01*
X37733Y-24800D01*
X37400Y-25000D01*
X36933Y-25080D01*
X36467Y-25000D01*
X36067Y-24760D01*
X35867Y-24400D01*
Y-24000D01*
X35733Y-23760D01*
X35400Y-23560D01*
X34933Y-23480D01*
X34467Y-23600D01*
X34133Y-23880D01*
X34000Y-24200D01*
X34133Y-24520D01*
X34467Y-24800D01*
X34933Y-24920D01*
X35400Y-24840D01*
X35733Y-24640D01*
X35867Y-24400D01*
Y-24000D01*
X36067Y-23640D01*
X36467Y-23400D01*
X36933Y-23320D01*
X37400Y-23400D01*
X37733Y-23600D01*
X37933Y-23920D01*
X38000Y-24200D01*
G01X25000Y-20400D02*
X21000D01*
Y-21400D01*
X21200Y-21720D01*
X21467Y-21920D01*
X22000Y-22000D01*
X22533Y-21920D01*
X22867Y-21680D01*
X23067Y-21400D01*
Y-20400D01*
G01Y-21400D02*
X25000Y-22000D01*
G01X24533Y-23020D02*
X24867Y-23300D01*
X25000Y-23620D01*
X24867Y-23940D01*
X24467Y-24220D01*
X23867Y-24420D01*
X23267Y-24500D01*
X22533D01*
X21933Y-24420D01*
X21400Y-24220D01*
X21133Y-23980D01*
X21000Y-23700D01*
X21133Y-23380D01*
X21400Y-23140D01*
X21800Y-22980D01*
X22333Y-22900D01*
X22800Y-22980D01*
X23267Y-23180D01*
X23533Y-23420D01*
X23600Y-23700D01*
X23467Y-24020D01*
X23133Y-24260D01*
X22533Y-24500D01*
G01X21333Y-5080D02*
X21133Y-4840D01*
X21000Y-4560D01*
Y-4240D01*
X21200Y-3880D01*
X21533Y-3600D01*
X21933Y-3400D01*
X22600Y-3240D01*
X23200Y-3200D01*
X23800Y-3280D01*
X24200Y-3400D01*
X24600Y-3640D01*
X24867Y-3920D01*
X25000Y-4200D01*
Y-4480D01*
X24867Y-4760D01*
X24667Y-5000D01*
X24400Y-5200D01*
G01X25000Y-6700D02*
X21000D01*
X21800Y-6220D01*
G01X25000D02*
Y-7180D01*
G01X21000Y-9200D02*
X21133Y-8880D01*
X21467Y-8640D01*
X21867Y-8480D01*
X22400Y-8360D01*
X23000Y-8320D01*
X23600Y-8360D01*
X24133Y-8480D01*
X24533Y-8640D01*
X24867Y-8880D01*
X25000Y-9200D01*
X24867Y-9520D01*
X24533Y-9760D01*
X24133Y-9920D01*
X23600Y-10040D01*
X23000Y-10080D01*
X22400Y-10040D01*
X21867Y-9920D01*
X21467Y-9760D01*
X21133Y-9520D01*
X21000Y-9200D01*
G01X38000Y-5400D02*
X34000D01*
Y-6400D01*
X34200Y-6720D01*
X34467Y-6920D01*
X35000Y-7000D01*
X35533Y-6920D01*
X35867Y-6680D01*
X36067Y-6400D01*
Y-5400D01*
G01Y-6400D02*
X38000Y-7000D01*
G01X36333Y-7940D02*
X35867Y-8220D01*
X35600Y-8460D01*
X35467Y-8780D01*
X35600Y-9060D01*
X35867Y-9260D01*
X36267Y-9420D01*
X36733Y-9460D01*
X37133Y-9420D01*
X37533Y-9260D01*
X37867Y-9020D01*
X38000Y-8740D01*
X37867Y-8420D01*
X37467Y-8140D01*
X36867Y-7980D01*
X36200Y-7940D01*
X35333Y-8020D01*
X34867Y-8140D01*
X34400Y-8340D01*
X34067Y-8620D01*
X34000Y-8900D01*
X34133Y-9180D01*
X34467Y-9380D01*
G01X21333Y9420D02*
X21133Y9660D01*
X21000Y9940D01*
Y10260D01*
X21200Y10620D01*
X21533Y10900D01*
X21933Y11100D01*
X22600Y11260D01*
X23200Y11300D01*
X23800Y11220D01*
X24200Y11100D01*
X24600Y10860D01*
X24867Y10580D01*
X25000Y10300D01*
Y10020D01*
X24867Y9740D01*
X24667Y9500D01*
X24400Y9300D01*
G01X25000Y7800D02*
X24933Y7520D01*
X24733Y7200D01*
X24400Y7000D01*
X23933Y6920D01*
X23467Y7000D01*
X23067Y7240D01*
X22867Y7600D01*
Y8000D01*
X22733Y8240D01*
X22400Y8440D01*
X21933Y8520D01*
X21467Y8400D01*
X21133Y8120D01*
X21000Y7800D01*
X21133Y7480D01*
X21467Y7200D01*
X21933Y7080D01*
X22400Y7160D01*
X22733Y7360D01*
X22867Y7600D01*
Y8000D01*
X23067Y8360D01*
X23467Y8600D01*
X23933Y8680D01*
X24400Y8600D01*
X24733Y8400D01*
X24933Y8080D01*
X25000Y7800D01*
G01X38000Y11100D02*
X34000D01*
Y10100D01*
X34200Y9780D01*
X34467Y9580D01*
X35000Y9500D01*
X35533Y9580D01*
X35867Y9820D01*
X36067Y10100D01*
Y11100D01*
G01Y10100D02*
X38000Y9500D01*
G01X37400Y8680D02*
X37733Y8440D01*
X37933Y8160D01*
X38000Y7800D01*
X37867Y7440D01*
X37600Y7160D01*
X37133Y6960D01*
X36600Y6920D01*
X36067Y7000D01*
X35733Y7200D01*
X35467Y7480D01*
X35400Y7760D01*
X35467Y8040D01*
X35733Y8400D01*
X34000Y8280D01*
Y7200D01*
G01X21333Y24920D02*
X21133Y25160D01*
X21000Y25440D01*
Y25760D01*
X21200Y26120D01*
X21533Y26400D01*
X21933Y26600D01*
X22600Y26760D01*
X23200Y26800D01*
X23800Y26720D01*
X24200Y26600D01*
X24600Y26360D01*
X24867Y26080D01*
X25000Y25800D01*
Y25520D01*
X24867Y25240D01*
X24667Y25000D01*
X24400Y24800D01*
G01X23333Y24060D02*
X22867Y23780D01*
X22600Y23540D01*
X22467Y23220D01*
X22600Y22940D01*
X22867Y22740D01*
X23267Y22580D01*
X23733Y22540D01*
X24133Y22580D01*
X24533Y22740D01*
X24867Y22980D01*
X25000Y23260D01*
X24867Y23580D01*
X24467Y23860D01*
X23867Y24020D01*
X23200Y24060D01*
X22333Y23980D01*
X21867Y23860D01*
X21400Y23660D01*
X21067Y23380D01*
X21000Y23100D01*
X21133Y22820D01*
X21467Y22620D01*
G01X38000Y26600D02*
X34000D01*
Y25600D01*
X34200Y25280D01*
X34467Y25080D01*
X35000Y25000D01*
X35533Y25080D01*
X35867Y25320D01*
X36067Y25600D01*
Y26600D01*
G01Y25600D02*
X38000Y25000D01*
G01X37200Y24180D02*
X37667Y23940D01*
X37933Y23620D01*
X38000Y23260D01*
X37933Y22940D01*
X37600Y22620D01*
X37200Y22420D01*
X36800Y22380D01*
X36333Y22460D01*
X36000Y22740D01*
X35867Y23020D01*
Y23380D01*
G01Y23020D02*
X35667Y22780D01*
X35333Y22580D01*
X34933Y22500D01*
X34533Y22580D01*
X34200Y22780D01*
X34000Y23140D01*
X34067Y23500D01*
X34333Y23860D01*
G01X21333Y40420D02*
X21133Y40660D01*
X21000Y40940D01*
Y41260D01*
X21200Y41620D01*
X21533Y41900D01*
X21933Y42100D01*
X22600Y42260D01*
X23200Y42300D01*
X23800Y42220D01*
X24200Y42100D01*
X24600Y41860D01*
X24867Y41580D01*
X25000Y41300D01*
Y41020D01*
X24867Y40740D01*
X24667Y40500D01*
X24400Y40300D01*
G01X25000Y38320D02*
X21000D01*
X23867Y39800D01*
Y37800D01*
G01X38000Y42100D02*
X34000D01*
Y41100D01*
X34200Y40780D01*
X34467Y40580D01*
X35000Y40500D01*
X35533Y40580D01*
X35867Y40820D01*
X36067Y41100D01*
Y42100D01*
G01Y41100D02*
X38000Y40500D01*
G01X34667Y39560D02*
X34267Y39320D01*
X34067Y39040D01*
X34000Y38720D01*
X34133Y38320D01*
X34467Y38040D01*
X34867Y37960D01*
X35267Y38000D01*
X35600Y38160D01*
X36267Y38960D01*
X36733Y39320D01*
X37400Y39560D01*
X38000Y39640D01*
Y37960D01*
G54D11*
G01X14724Y-23201D02*
Y1209D01*
X-19724D01*
Y-23201D01*
X14724D01*
G01X-18976Y1209D02*
X-19724D01*
Y-23201D01*
X-18976D01*
G01X-16024D02*
X-13976D01*
G01X-11024D02*
X-8976D01*
G01Y1209D02*
X-11024D01*
G01X-13976D02*
X-16024D01*
G01X14724Y9795D02*
Y34205D01*
X-19724D01*
Y9795D01*
X14724D01*
G01X-18976Y34205D02*
X-19724D01*
Y9795D01*
X-18976D01*
G01X-16024D02*
X-13976D01*
G01X-11024D02*
X-8976D01*
G01Y34205D02*
X-11024D01*
G01X-13976D02*
X-16024D01*
G01X-6024Y-23201D02*
X-3976D01*
G01X-1024D02*
X1024D01*
G01X3976D02*
X6024D01*
G01Y1209D02*
X3976D01*
G01X1024D02*
X-1024D01*
G01X-3976D02*
X-6024D01*
G01Y9795D02*
X-3976D01*
G01X-1024D02*
X1024D01*
G01X3976D02*
X6024D01*
G01Y34205D02*
X3976D01*
G01X1024D02*
X-1024D01*
G01X-3976D02*
X-6024D01*
G01X14724Y-23201D02*
Y1209D01*
X13976D01*
G01X8976Y-23201D02*
X11024D01*
G01X13976D02*
X14724D01*
G01X11024Y1209D02*
X8976D01*
G01X14724Y9795D02*
Y34205D01*
X13976D01*
G01X8976Y9795D02*
X11024D01*
G01X13976D02*
X14724D01*
G01X11024Y34205D02*
X8976D01*
G54D12*
G01X-39126Y-29299D02*
X-44559D01*
Y-36701D01*
X-39126D01*
G01Y-29299D02*
X-44559D01*
Y-36701D01*
X-39126D01*
G01X-40681Y-18569D02*
X-46114D01*
Y-25971D01*
X-40681D01*
G01Y-18569D02*
X-46114D01*
Y-25971D01*
X-40681D01*
G01Y-7695D02*
X-46114D01*
Y-15097D01*
X-40681D01*
G01Y-7695D02*
X-46114D01*
Y-15097D01*
X-40681D01*
G01Y3179D02*
X-46114D01*
Y-4223D01*
X-40681D01*
G01Y3179D02*
X-46114D01*
Y-4223D01*
X-40681D01*
G01Y14053D02*
X-46114D01*
Y6651D01*
X-40681D01*
G01Y14053D02*
X-46114D01*
Y6651D01*
X-40681D01*
G01Y24927D02*
X-46114D01*
Y17525D01*
X-40681D01*
G01Y24927D02*
X-46114D01*
Y17525D01*
X-40681D01*
G01Y35801D02*
X-46114D01*
Y28399D01*
X-40681D01*
G01Y35801D02*
X-46114D01*
Y28399D01*
X-40681D01*
G01Y46675D02*
X-46114D01*
Y39273D01*
X-40681D01*
G01Y46675D02*
X-46114D01*
Y39273D01*
X-40681D01*
G01X-36764Y-29299D02*
X-31331D01*
Y-36701D01*
X-36764D01*
G01Y-29299D02*
X-31331D01*
Y-36701D01*
X-36764D01*
G01X-38319Y-18569D02*
X-32886D01*
Y-25971D01*
X-38319D01*
G01Y-18569D02*
X-32886D01*
Y-25971D01*
X-38319D01*
G01Y-7695D02*
X-32886D01*
Y-15097D01*
X-38319D01*
G01Y-7695D02*
X-32886D01*
Y-15097D01*
X-38319D01*
G01Y3179D02*
X-32886D01*
Y-4223D01*
X-38319D01*
G01Y3179D02*
X-32886D01*
Y-4223D01*
X-38319D01*
G01Y14053D02*
X-32886D01*
Y6651D01*
X-38319D01*
G01Y14053D02*
X-32886D01*
Y6651D01*
X-38319D01*
G01Y24927D02*
X-32886D01*
Y17525D01*
X-38319D01*
G01Y24927D02*
X-32886D01*
Y17525D01*
X-38319D01*
G01Y35801D02*
X-32886D01*
Y28399D01*
X-38319D01*
G01Y35801D02*
X-32886D01*
Y28399D01*
X-38319D01*
G01Y46675D02*
X-32886D01*
Y39273D01*
X-38319D01*
G01Y46675D02*
X-32886D01*
Y39273D01*
X-38319D01*
G01X-22681Y41799D02*
X-28114D01*
Y49201D01*
X-22681D01*
G01Y41799D02*
X-28114D01*
Y49201D01*
X-22681D01*
G01X-20848Y-29299D02*
X-26281D01*
Y-36701D01*
X-20848D01*
G01X-18486Y-29299D02*
X-13053D01*
Y-36701D01*
X-18486D01*
G01Y-29299D02*
X-13053D01*
Y-36701D01*
X-18486D01*
G01X-20848Y-29299D02*
X-26281D01*
Y-36701D01*
X-20848D01*
G01X-20319Y41799D02*
X-14886D01*
Y49201D01*
X-20319D01*
G01Y41799D02*
X-14886D01*
Y49201D01*
X-20319D01*
G01X-2566Y-29299D02*
X-7999D01*
Y-36701D01*
X-2566D01*
G01X-204Y-29299D02*
X5229D01*
Y-36701D01*
X-204D01*
G01Y-29299D02*
X5229D01*
Y-36701D01*
X-204D01*
G01X-2566Y-29299D02*
X-7999D01*
Y-36701D01*
X-2566D01*
G01X-2819Y41799D02*
X2614D01*
Y49201D01*
X-2819D01*
G01X-5181Y41799D02*
X-10614D01*
Y49201D01*
X-5181D01*
G01Y41799D02*
X-10614D01*
Y49201D01*
X-5181D01*
G01X-2819Y41799D02*
X2614D01*
Y49201D01*
X-2819D01*
G01X15712Y-29299D02*
X10279D01*
Y-36701D01*
X15712D01*
G01X18074Y-29299D02*
X23507D01*
Y-36701D01*
X18074D01*
G01Y-29299D02*
X23507D01*
Y-36701D01*
X18074D01*
G01X15712Y-29299D02*
X10279D01*
Y-36701D01*
X15712D01*
G01X12319Y49201D02*
X6886D01*
Y41799D01*
X12319D01*
G01X14681Y49201D02*
X20114D01*
Y41799D01*
X14681D01*
G01Y49201D02*
X20114D01*
Y41799D01*
X14681D01*
G01X12319Y49201D02*
X6886D01*
Y41799D01*
X12319D01*
G01X25799Y-23801D02*
Y-29234D01*
X33201D01*
Y-23801D01*
G01X25799D02*
Y-29234D01*
X33201D01*
Y-23801D01*
G01X25799Y-8021D02*
Y-13454D01*
X33201D01*
Y-8021D01*
G01X25799D02*
Y-13454D01*
X33201D01*
Y-8021D01*
G01X25799Y-21439D02*
Y-16006D01*
X33201D01*
Y-21439D01*
G01X25799D02*
Y-16006D01*
X33201D01*
Y-21439D01*
G01Y7759D02*
Y2326D01*
X25799D01*
Y7759D01*
G01X33201D02*
Y2326D01*
X25799D01*
Y7759D01*
G01Y-5659D02*
Y-226D01*
X33201D01*
Y-5659D01*
G01X25799D02*
Y-226D01*
X33201D01*
Y-5659D01*
G01Y10121D02*
Y15554D01*
X25799D01*
Y10121D01*
G01X33201D02*
Y15554D01*
X25799D01*
Y10121D01*
G01Y23539D02*
Y18106D01*
X33201D01*
Y23539D01*
G01X25799D02*
Y18106D01*
X33201D01*
Y23539D01*
G01X25799Y39319D02*
Y33886D01*
X33201D01*
Y39319D01*
G01X25799D02*
Y33886D01*
X33201D01*
Y39319D01*
G01X25799Y25901D02*
Y31334D01*
X33201D01*
Y25901D01*
G01X25799D02*
Y31334D01*
X33201D01*
Y25901D01*
G01X25799Y41681D02*
Y47114D01*
X33201D01*
Y41681D01*
G01X25799D02*
Y47114D01*
X33201D01*
Y41681D01*
G01X45701Y-23801D02*
Y-29234D01*
X38299D01*
Y-23801D01*
G01X45701D02*
Y-29234D01*
X38299D01*
Y-23801D01*
G01X45701Y-21439D02*
Y-16006D01*
X38299D01*
Y-21439D01*
G01X45701D02*
Y-16006D01*
X38299D01*
Y-21439D01*
G01Y-8021D02*
Y-13454D01*
X45701D01*
Y-8021D01*
G01X38299D02*
Y-13454D01*
X45701D01*
Y-8021D01*
G01X38299Y-5659D02*
Y-226D01*
X45701D01*
Y-5659D01*
G01X38299D02*
Y-226D01*
X45701D01*
Y-5659D01*
G01Y7819D02*
Y2386D01*
X38299D01*
Y7819D01*
G01X45701D02*
Y2386D01*
X38299D01*
Y7819D01*
G01Y23539D02*
Y18106D01*
X45701D01*
Y23539D01*
G01X38299D02*
Y18106D01*
X45701D01*
Y23539D01*
G01Y10181D02*
Y15614D01*
X38299D01*
Y10181D01*
G01X45701D02*
Y15614D01*
X38299D01*
Y10181D01*
G01Y25901D02*
Y31334D01*
X45701D01*
Y25901D01*
G01X38299D02*
Y31334D01*
X45701D01*
Y25901D01*
G01X38299Y39319D02*
Y33886D01*
X45701D01*
Y39319D01*
G01X38299D02*
Y33886D01*
X45701D01*
Y39319D01*
G01X38299Y41681D02*
Y47114D01*
X45701D01*
Y41681D01*
G01X38299D02*
Y47114D01*
X45701D01*
Y41681D01*
M02*
