G04 ================== begin FILE IDENTIFICATION RECORD ==================*
G04 Layout Name:  E:/Project/FPMemory/ElectronicDesign/PCB/output/FPMemory.brd*
G04 Film Name:    SOLDERMASK_TOP*
G04 File Format:  Gerber RS274X*
G04 File Origin:  Cadence Allegro 17.2-S045*
G04 Origin Date:  Sat Oct 20 17:30:39 2018*
G04 *
G04 Layer:  VIA CLASS/SOLDERMASK_TOP*
G04 Layer:  PIN/SOLDERMASK_TOP*
G04 Layer:  PACKAGE GEOMETRY/SOLDERMASK_TOP*
G04 Layer:  DRC ERROR CLASS/SOLDERMASK_TOP*
G04 Layer:  BOARD GEOMETRY/SOLDERMASK_TOP*
G04 *
G04 Offset:    (0.00 0.00)*
G04 Mirror:    No*
G04 Mode:      Positive*
G04 Rotation:  0*
G04 FullContactRelief:  No*
G04 UndefLineWidth:     6.00*
G04 ================== end FILE IDENTIFICATION RECORD ====================*
%FSLAX25Y25*MOIN*%
%IR0*IPPOS*OFA0.00000B0.00000*MIA0B0*SFA1.00000B1.00000*%
%ADD18C,.017*%
%ADD11C,.0748*%
%ADD13C,.05394*%
%ADD12R,.0748X.0748*%
%ADD10R,.05394X.05394*%
%ADD16R,.20079X.20079*%
%AMMACRO17*
4,1,44,.01968,.01476,
-.01968,.01476,
-.020534,.014691,
-.021363,.01447,
-.022141,.014108,
-.022844,.013617,
-.023451,.013011,
-.023943,.012309,
-.024307,.011532,
-.024529,.010704,
-.024605,.00985,
-.0246,.00984,
-.0246,-.00984,
-.024531,-.010694,
-.02431,-.011523,
-.023948,-.012301,
-.023457,-.013004,
-.022851,-.013611,
-.022149,-.014103,
-.021372,-.014467,
-.020544,-.014689,
-.01969,-.014765,
-.01968,-.01476,
.01968,-.01476,
.020534,-.014691,
.021363,-.01447,
.022141,-.014108,
.022844,-.013617,
.023451,-.013011,
.023943,-.012309,
.024307,-.011532,
.024529,-.010704,
.024605,-.00985,
.0246,-.00984,
.0246,.00984,
.024531,.010694,
.02431,.011523,
.023948,.012301,
.023457,.013004,
.022851,.013611,
.022149,.014103,
.021372,.014467,
.020544,.014689,
.01969,.014765,
.01968,.01476,
0.0*
%
%ADD17MACRO17*%
%ADD15R,.03937X.08268*%
%ADD14R,.08268X.03937*%
%LPD*%
G75*
G54D10*
X-44000Y-44000D03*
G54D11*
X-54500Y-29976D03*
Y-8791D03*
Y12394D03*
Y33579D03*
X55000Y-29976D03*
Y-8842D03*
Y12394D03*
Y33579D03*
G54D12*
X-54500Y-20134D03*
Y1051D03*
Y22236D03*
Y43421D03*
X55000Y-20134D03*
Y1000D03*
Y22236D03*
Y43421D03*
G54D13*
X-24315Y-44000D03*
X-34157D03*
X-14472D03*
X5213D03*
X-4630D03*
G54D14*
X-34465Y-21307D03*
Y-16307D03*
Y-11307D03*
Y-6307D03*
Y-1307D03*
Y3693D03*
Y8693D03*
Y13693D03*
Y18693D03*
Y23693D03*
Y28693D03*
Y33693D03*
Y38693D03*
Y43693D03*
X32465Y-11307D03*
Y-16307D03*
Y-21307D03*
Y3693D03*
Y-1307D03*
Y-6307D03*
Y23693D03*
Y18693D03*
Y13693D03*
Y8693D03*
Y38693D03*
Y33693D03*
Y28693D03*
Y43693D03*
G54D15*
X-13500Y-25244D03*
X-18500D03*
X-23500D03*
X6500D03*
X1500D03*
X-3500D03*
X-8500D03*
X21500D03*
X16500D03*
X11500D03*
G54D16*
X-3756Y14165D03*
G54D17*
X19382Y-47240D03*
Y-43500D03*
Y-39760D03*
X29618Y-47240D03*
Y-39760D03*
G54D18*
X37500Y-43000D03*
X57500D03*
M02*
