G04 ================== begin FILE IDENTIFICATION RECORD ==================*
G04 Layout Name:  E:/Project/FPMemory/ElectronicDesign/PCB/output/FPMemory.brd*
G04 Film Name:    TOP*
G04 File Format:  Gerber RS274X*
G04 File Origin:  Cadence Allegro 17.2-S045*
G04 Origin Date:  Sat Oct 20 17:30:39 2018*
G04 *
G04 Layer:  ETCH/TOP*
G04 Layer:  PIN/TOP*
G04 Layer:  VIA CLASS/TOP*
G04 *
G04 Offset:    (0.00 0.00)*
G04 Mirror:    No*
G04 Mode:      Positive*
G04 Rotation:  0*
G04 FullContactRelief:  No*
G04 UndefLineWidth:     6.00*
G04 ================== end FILE IDENTIFICATION RECORD ====================*
%FSLAX25Y25*MOIN*%
%IR0*IPPOS*OFA0.00000B0.00000*MIA0B0*SFA1.00000B1.00000*%
%ADD14C,.05*%
%ADD12C,.016*%
%ADD10R,.05X.05*%
%ADD11C,.07087*%
%ADD13R,.07087X.07087*%
%AMMACRO18*
4,1,44,.01968,.01181,
-.01968,.01181,
-.020022,.011781,
-.020354,.011693,
-.020666,.011549,
-.020947,.011352,
-.021191,.01111,
-.021389,.010829,
-.021534,.010518,
-.021624,.010187,
-.021655,.009845,
-.02165,.00984,
-.02165,-.00984,
-.021625,-.010182,
-.021536,-.010514,
-.021391,-.010825,
-.021194,-.011106,
-.020951,-.011349,
-.02067,-.011546,
-.020359,-.011691,
-.020027,-.01178,
-.019685,-.01181,
-.01968,-.01181,
.01968,-.01181,
.020022,-.011781,
.020354,-.011693,
.020666,-.011549,
.020947,-.011352,
.021191,-.01111,
.021389,-.010829,
.021534,-.010518,
.021624,-.010187,
.021655,-.009845,
.02165,-.00984,
.02165,.00984,
.021625,.010182,
.021536,.010514,
.021391,.010825,
.021194,.011106,
.020951,.011349,
.02067,.011546,
.020359,.011691,
.020027,.01178,
.019685,.01181,
.01968,.01181,
0.0*
%
%ADD18MACRO18*%
%ADD16R,.03543X.07874*%
%ADD15R,.07874X.03543*%
%ADD17R,.19685X.19685*%
%ADD19C,.01*%
%ADD20C,.03604*%
G75*
%LPD*%
G75*
G36*
G01X-26772Y-22808D02*
X-26615Y-22651D01*
G02X-26274Y-22793I141J-142D01*
G01Y-29181D01*
G03X-25272Y-30183I1002J0D01*
G01X-19531D01*
G02X-19248Y-30866I0J-400D01*
G01X-30578Y-42195D01*
G02X-31198Y-42126I-282J283D01*
G03X-31666Y-41539I-2957J-1877D01*
G02X-31664Y-40975I285J281D01*
G03X-31136Y-39700I-1274J1274D01*
G03X-31436Y-38704I-1803J0D01*
G01Y-30866D01*
X-30753Y-30182D01*
X-29723D01*
G03X-28727Y-30483I997J1501D01*
G03Y-26879I0J1802D01*
G03X-29723Y-27180I1J-1802D01*
G01X-31997D01*
X-34440Y-29622D01*
Y-38704D01*
G03X-34740Y-39700I1503J-996D01*
G03X-34691Y-40116I1802J1D01*
G02X-34986Y-40597I-389J-92D01*
G03X-37604Y-43383I829J-3402D01*
G02X-38281Y-43596I-394J70D01*
G01X-38498Y-43378D01*
Y-24080D01*
X-30528D01*
G03X-29526Y-23078I0J1002D01*
G01Y-22808D01*
X-26772D01*
G37*
G36*
G01X13922Y45992D02*
X27132D01*
G02X27531Y45555I0J-400D01*
G03X27526Y45464I996J-100D01*
G01Y41922D01*
G03X27732Y41314I1002J0D01*
G02Y41072I-159J-121D01*
G03X27526Y40464I796J-608D01*
G01Y36922D01*
G03X27732Y36314I1002J0D01*
G02Y36072I-159J-121D01*
G03X27526Y35464I796J-608D01*
G01Y31922D01*
G03X27732Y31314I1002J0D01*
G02Y31072I-159J-121D01*
G03X27526Y30464I796J-608D01*
G01Y26922D01*
G03X27732Y26314I1002J0D01*
G02Y26072I-159J-121D01*
G03X27526Y25464I796J-608D01*
G01Y21922D01*
G03X27732Y21314I1002J0D01*
G02Y21072I-159J-121D01*
G03X27526Y20464I796J-608D01*
G01Y16922D01*
G03X27732Y16314I1002J0D01*
G02Y16072I-159J-121D01*
G03X27526Y15464I796J-608D01*
G01Y11922D01*
G03X27732Y11314I1002J0D01*
G02Y11072I-159J-121D01*
G03X27526Y10464I796J-608D01*
G01Y6922D01*
G03X27732Y6314I1002J0D01*
G02Y6072I-159J-121D01*
G03X27526Y5464I796J-608D01*
G01Y1922D01*
G03X27732Y1314I1002J0D01*
G02Y1072I-159J-121D01*
G03X27526Y464I796J-608D01*
G01Y-3078D01*
G03X27732Y-3686I1002J0D01*
G02Y-3928I-159J-121D01*
G03X27526Y-4536I796J-608D01*
G01Y-8078D01*
G03X27732Y-8686I1002J0D01*
G02Y-8928I-159J-121D01*
G03X27526Y-9536I796J-608D01*
G01Y-13078D01*
G03X27732Y-13686I1002J0D01*
G02Y-13928I-159J-121D01*
G03X27526Y-14536I796J-608D01*
G01Y-18078D01*
G03X27732Y-18686I1002J0D01*
G02Y-18928I-159J-121D01*
G03X27526Y-19536I796J-608D01*
G01Y-20140D01*
G02X26844Y-20423I-400J0D01*
G01X21894Y-15474D01*
X17721D01*
X15122Y-12874D01*
X-6504D01*
G03X-7500Y-12574I-996J-1503D01*
G03X-9302Y-14376I0J-1802D01*
G03X-8999Y-15376I1802J0D01*
G02X-9331Y-15998I-332J-222D01*
G01X-15445D01*
G02X-15818Y-15455I0J400D01*
G03X-15698Y-14807I-1682J647D01*
G03X-16864Y-13121I-1802J0D01*
G02X-17006Y-12464I141J374D01*
G01X-12144Y-7602D01*
X-12088Y-7589D01*
G03X-11504Y-7336I-413J1754D01*
G01X-9666D01*
G02X-9272Y-7809I0J-400D01*
G03X-9302Y-8135I1772J-327D01*
G03X-7500Y-9937I1802J0D01*
G03X-6504Y-9636I-1J1802D01*
G01X19877D01*
X23882Y-5632D01*
Y-529D01*
G03X24182Y467I-1503J996D01*
G03X20578I-1802J0D01*
G03X20878Y-529I1803J0D01*
G01Y-4388D01*
X20262Y-5004D01*
G02X19635Y-4924I-283J283D01*
G03X18080Y-4033I-1555J-911D01*
G03X17752Y-4063I-1J-1802D01*
G02X17280Y-3645I-73J393D01*
G03X17283Y-3535I-1799J104D01*
G03X15481Y-1733I-1802J0D01*
G03X14485Y-2034I1J-1802D01*
G01X-14736D01*
X-17508Y-4806D01*
X-25165D01*
G02X-25565Y-4423I0J400D01*
G03X-27365Y-2698I-1800J-77D01*
G03X-29040Y-3836I0J-1802D01*
G02X-29730Y-3930I-372J148D01*
G01X-29732Y-3928D01*
G02Y-3686I159J121D01*
G03X-29526Y-3078I-796J608D01*
G01Y464D01*
G03X-29732Y1072I-1002J0D01*
G02Y1314I159J121D01*
G03X-29526Y1922I-796J608D01*
G01Y2192D01*
X-21905D01*
X-19684Y4412D01*
G02X-19002Y4129I282J-283D01*
G01Y3798D01*
X-15202Y-2D01*
X15225D01*
X21156Y5930D01*
X21212Y5943D01*
G03X22602Y7697I-412J1754D01*
G03X20800Y9499I-1802J0D01*
G03X19046Y8109I0J-1802D01*
G01X19033Y8053D01*
X13981Y3002D01*
X7143D01*
G02X6841Y3664I0J400D01*
G03X7088Y4322I-754J659D01*
G01Y24006D01*
X8077D01*
X10720Y21364D01*
X10733Y21308D01*
G03X12487Y19918I1754J412D01*
G03X14289Y21720I0J1802D01*
G03X12899Y23474I-1802J0D01*
G01X12843Y23487D01*
X9321Y27010D01*
X-14968D01*
X-16630Y25348D01*
Y14815D01*
X-21250Y10194D01*
X-29526D01*
Y10464D01*
G03X-29732Y11072I-1002J0D01*
G02Y11314I159J121D01*
G03X-29526Y11922I-796J608D01*
G01Y12192D01*
X-27205D01*
X-21912Y17484D01*
G02X-21230Y17201I282J-283D01*
G01Y17018D01*
X-21260Y16970D01*
G03X-21530Y16020I1532J-949D01*
G03X-17926I1802J0D01*
G03X-18226Y17016I-1803J0D01*
G01Y25886D01*
X-16106Y28006D01*
X17446D01*
X21999Y32560D01*
X22055Y32573D01*
G03X23445Y34327I-412J1754D01*
G03X21643Y36129I-1802J0D01*
G03X19889Y34739I0J-1802D01*
G01X19876Y34683D01*
X17723Y32530D01*
G02X17084Y32631I-283J283D01*
G03X15481Y33610I-1603J-823D01*
G03X14485Y33310I0J-1803D01*
G01X-7985D01*
X-12106Y37430D01*
Y41384D01*
G03X-11805Y42380I-1501J997D01*
G03X-15409I-1802J0D01*
G03X-15108Y41384I1802J1D01*
G01Y36186D01*
X-10615Y31692D01*
G02X-10898Y31010I-283J-282D01*
G01X-17350D01*
X-20023Y28336D01*
G02X-20673Y28460I-283J283D01*
G03X-22327Y29547I-1654J-715D01*
G03X-24129Y27745I0J-1802D01*
G03X-23828Y26749I1802J1D01*
G01Y22359D01*
G02X-24301Y21965I-400J0D01*
G03X-24627Y21995I-327J-1772D01*
G03X-26381Y20605I0J-1802D01*
G01X-26394Y20549D01*
X-26749Y20194D01*
X-29526D01*
Y20464D01*
G03X-29732Y21072I-1002J0D01*
G02Y21314I159J121D01*
G03X-29526Y21922I-796J608D01*
G01Y25464D01*
G03X-29732Y26072I-1002J0D01*
G02Y26314I159J121D01*
G03X-29707Y26349I-802J599D01*
G02X-29109Y26415I328J-229D01*
G03X-27893Y25943I1216J1330D01*
G03X-26091Y27745I0J1802D01*
G03X-26392Y28741I-1802J-1D01*
G01Y33180D01*
X-28406Y35194D01*
X-29526D01*
Y35464D01*
G03X-29732Y36072I-1002J0D01*
G02Y36314I159J121D01*
G03X-29565Y36647I-796J608D01*
G02X-29098Y36929I385J-109D01*
G03X-28728Y36891I368J1764D01*
G03Y40495I0J1802D01*
G03X-29098Y40457I-2J-1802D01*
G02X-29565Y40739I-82J391D01*
G03X-29732Y41072I-963J-275D01*
G02Y41314I159J121D01*
G03X-29526Y41922I-796J608D01*
G01Y45464D01*
G03X-29527Y45487I-1001J-32D01*
G01Y45692D01*
X-8146D01*
X-1184Y38729D01*
G02X-1467Y38046I-283J-283D01*
G01X-3843D01*
X-4878Y39082D01*
X-6504D01*
G03X-7500Y39382I-996J-1503D01*
G03Y35778I0J-1802D01*
G03X-6550Y36048I1J1802D01*
G01X-6502Y36078D01*
X-6122D01*
X-5087Y35044D01*
X17000D01*
X17003Y35043D01*
X17043D01*
X17083D01*
X17086Y35044D01*
X17365D01*
X17399Y35078D01*
X17455Y35091D01*
G03X18845Y36845I-412J1754D01*
G03X17043Y38647I-1802J0D01*
G03X15700Y38046I0J-1801D01*
G01X6943D01*
G02X6660Y38729I0J400D01*
G01X13922Y45992D01*
G37*
G36*
G01X48307Y-48742D02*
X60340Y-36708D01*
G02X61023Y-36991I283J-283D01*
G01Y-51180D01*
X-2721D01*
G02X-3004Y-50497I0J400D01*
G01X1655Y-45838D01*
G02X2274Y-45904I283J-283D01*
G03X5213Y-47502I2939J1904D01*
G03X8715Y-44000I0J3502D01*
G03X8016Y-41901I-3501J0D01*
G02X8337Y-41262I320J239D01*
G01X16327D01*
X16385Y-41359D01*
G03X16487Y-41503I1026J619D01*
G02Y-41757I-155J-127D01*
G03X16216Y-42516I927J-759D01*
G01Y-44484D01*
G03X16487Y-45243I1198J0D01*
G02Y-45497I-155J-127D01*
G03X16216Y-46256I927J-759D01*
G01Y-48224D01*
G03X17414Y-49422I1198J0D01*
G01X21350D01*
G03X22548Y-48224I0J1198D01*
G01Y-46256D01*
G03X22277Y-45497I-1198J0D01*
G02Y-45243I155J127D01*
G03X22548Y-44484I-927J759D01*
G01Y-42516D01*
G03X22277Y-41757I-1198J0D01*
G02Y-41503I155J127D01*
G03X22548Y-40744I-927J759D01*
G01Y-38580D01*
X23502D01*
X23550Y-38611D01*
G03X23793Y-38737I949J1532D01*
G02X24002Y-39267I-157J-368D01*
G03X23846Y-40000I1646J-733D01*
G03X24146Y-40996I1803J0D01*
G01Y-43892D01*
X26453Y-46198D01*
G03X26452Y-46256I1197J-50D01*
G01Y-48224D01*
G03X27650Y-49422I1198J0D01*
G01X31586D01*
G03X32615Y-48839I1J1198D01*
G01X32673Y-48742D01*
X48307D01*
G37*
%LPC*%
G75*
G54D20*
X57500Y-43000D03*
%LPD*%
G75*
G54D10*
X-44000Y-44000D03*
G54D11*
X-54500Y-29976D03*
Y-8791D03*
Y12394D03*
Y33579D03*
X55000Y-29976D03*
Y-8842D03*
Y12394D03*
Y33579D03*
G54D12*
X-46007Y-33000D03*
X-43707Y-17615D03*
X-45000Y-6000D03*
X-56800Y6395D03*
X-48000Y18000D03*
X-47107Y45721D03*
X-28727Y-28681D03*
X-32938Y-39700D03*
X-30638Y-32981D03*
X-27365Y-4500D03*
X-40202Y15007D03*
X-27893Y27745D03*
X-41500Y37500D03*
X-28728Y38693D03*
X-17500Y-14807D03*
X-24000Y-17500D03*
X-17500Y6720D03*
X-12500Y-5835D03*
X-24627Y20193D03*
X-23893Y12493D03*
X-17428Y23145D03*
X-25228D03*
X-19728Y16020D03*
X-22327Y27745D03*
X-23228Y34700D03*
X-13607Y42380D03*
X-11307Y39880D03*
X-7500Y-14376D03*
X2500Y-16676D03*
X-200Y-10907D03*
X-7500Y-8135D03*
Y37580D03*
X2500Y40845D03*
X21000Y-14500D03*
X7500Y-16676D03*
X18080Y-5835D03*
X15481Y-3535D03*
X20800Y7697D03*
X12487Y21720D03*
X17043Y36845D03*
X15481Y31808D03*
X9957Y40845D03*
X25648Y-40000D03*
X24500Y-32981D03*
X36455D03*
X34155Y-26381D03*
X36455Y-30381D03*
X24500Y-37079D03*
X22380Y467D03*
X24846Y16547D03*
X21643Y34327D03*
X23500Y45000D03*
X37500Y-43000D03*
X41055Y-40699D03*
X48255Y-32276D03*
X41055Y-37581D03*
X43655D03*
X38202Y-14447D03*
X57500Y-43000D03*
X60044Y49793D03*
G54D13*
X-54500Y-20134D03*
Y1051D03*
Y22236D03*
Y43421D03*
X55000Y-20134D03*
Y1000D03*
Y22236D03*
Y43421D03*
G54D14*
X-24315Y-44000D03*
X-34157D03*
X-14472D03*
X5213D03*
X-4630D03*
G54D15*
X-34465Y-21307D03*
Y-16307D03*
Y-11307D03*
Y-6307D03*
Y-1307D03*
Y3693D03*
Y8693D03*
Y13693D03*
Y18693D03*
Y23693D03*
Y28693D03*
Y33693D03*
Y38693D03*
Y43693D03*
X32465Y-11307D03*
Y-16307D03*
Y-21307D03*
Y3693D03*
Y-1307D03*
Y-6307D03*
Y23693D03*
Y18693D03*
Y13693D03*
Y8693D03*
Y38693D03*
Y33693D03*
Y28693D03*
Y43693D03*
G54D16*
X-13500Y-25244D03*
X-18500D03*
X-23500D03*
X6500D03*
X1500D03*
X-3500D03*
X-8500D03*
X21500D03*
X16500D03*
X11500D03*
G54D17*
X-3756Y14165D03*
G54D18*
X19382Y-47240D03*
Y-43500D03*
Y-39760D03*
X29618Y-47240D03*
Y-39760D03*
G54D19*
G01X-54500Y-8791D02*
X-59544Y-3747D01*
Y5651D01*
X-58800Y6395D01*
X-56800D01*
G01X-54500Y12394D02*
X-59544Y17438D01*
Y47630D01*
X-57981Y49193D01*
X500D01*
G01X19382Y-39760D02*
X3370D01*
X291Y-42839D01*
Y-45079D01*
X-4630Y-50000D01*
X-38000D01*
X-44000Y-44000D01*
G01X-45000Y-6000D02*
X-46007Y-7007D01*
Y-33000D01*
G01X-43707Y-17615D02*
Y-34300D01*
X-44707Y-35300D01*
X-47456D01*
X-49456Y-33300D01*
Y-20134D01*
G01X-54500D02*
X-49456D01*
G01D02*
Y1051D01*
G01D02*
X-54500D01*
G01X-49456D02*
X-48000Y2507D01*
Y18000D01*
G01X32465Y38693D02*
X37602D01*
X37965Y39056D01*
Y46493D01*
X36965Y47493D01*
X13300D01*
X4352Y38545D01*
X1124D01*
X-7524Y47193D01*
X-39002D01*
X-44000Y42195D01*
Y6844D01*
X-40000Y2844D01*
Y-44000D01*
X-36000Y-48000D01*
X-8630D01*
X-4630Y-44000D01*
G01X-48000Y18000D02*
X-46500Y19500D01*
Y22236D01*
G01D02*
X-54500D01*
G01X-47107Y43421D02*
Y36107D01*
X-46500Y35500D01*
Y22236D01*
G01X-47107Y43421D02*
X-54500D01*
G01X-47107Y45721D02*
Y43421D01*
G01X-34157Y-44000D02*
X-30259D01*
X-16940Y-30681D01*
X36155D01*
X36455Y-30381D01*
G01X-28727Y-28681D02*
X-31375D01*
X-32938Y-30244D01*
Y-39700D01*
G01X-30638Y-32981D02*
X-25500D01*
X-23500Y-30981D01*
G01X-34465Y-16307D02*
X-26308D01*
X-24808Y-14807D01*
X-17500D01*
G01X-34465Y-11307D02*
X-17972D01*
X-12500Y-5835D01*
G01X-34465Y-21307D02*
X-27394D01*
X-25894Y-19807D01*
X4369D01*
X7500Y-16676D01*
G01X-34465Y3693D02*
X-22527D01*
X-19500Y6720D01*
X-17500D01*
G01X-34465Y-6307D02*
X-27365D01*
G01D02*
X-16886D01*
X-14114Y-3535D01*
X15481D01*
G01X-27365Y-6307D02*
Y-4500D01*
G01X-34465Y13693D02*
X-27827D01*
X-22327Y19193D01*
Y27745D01*
G01X-34465Y18693D02*
X-26127D01*
X-24627Y20193D01*
G01X-34465Y33693D02*
X-39602D01*
X-40202Y33093D01*
Y15007D01*
G01X-34465Y8693D02*
X-20628D01*
X-15128Y14193D01*
Y24726D01*
X-14346Y25508D01*
X8699D01*
X12487Y21720D01*
G01X-27893Y27745D02*
Y32558D01*
X-29028Y33693D01*
X-34465D01*
G01Y38693D02*
X-40307D01*
X-41500Y37500D01*
G01X-28728Y38693D02*
X-34465D01*
G01Y43693D02*
X-29028D01*
G01D02*
X-27528Y45193D01*
X-23228D01*
G01X-24315Y-44000D02*
X-17394Y-37079D01*
X24500D01*
G01X-23500Y-30981D02*
Y-25244D01*
G01X2500Y-16676D02*
X1676Y-17500D01*
X-24000D01*
G01X-17500Y6720D02*
Y4420D01*
X-14580Y1500D01*
X14603D01*
X20800Y7697D01*
G01X18080Y-5835D02*
X-12500D01*
G01X-23893Y12493D02*
X-19928D01*
X-17428Y14993D01*
Y23145D01*
G01X21643Y34327D02*
X16824Y29508D01*
X-16728D01*
X-19728Y26508D01*
Y16020D01*
G01X15481Y31808D02*
X-8607D01*
X-13607Y36808D01*
Y42380D01*
G01X-25228Y23145D02*
Y32700D01*
X-23228Y34700D01*
G01D02*
Y45193D01*
G01X-17428Y23145D02*
Y25508D01*
X-15428Y27508D01*
X11287D01*
X14787Y24008D01*
Y20420D01*
X8532Y14165D01*
G01X-11307Y39880D02*
Y37545D01*
X-8307Y34545D01*
X18343D01*
X19343Y35545D01*
Y38845D01*
G01X-23228Y45193D02*
X-12870D01*
X-11307Y43630D01*
Y39880D01*
G01X5213Y-44000D02*
X11716D01*
G01X34155Y-26381D02*
X29272D01*
X26772Y-23881D01*
Y-22475D01*
X21272Y-16975D01*
X17099D01*
X14500Y-14376D01*
X-7500D01*
G01X-200Y-10907D02*
X21253D01*
G01X-7500Y-8135D02*
X19255D01*
X22380Y-5010D01*
Y467D01*
G01X8532Y14165D02*
X-3756D01*
G01X17043Y36845D02*
X16743Y36545D01*
X-4465D01*
X-5500Y37580D01*
X-7500D01*
G01X500Y49193D02*
X2500Y47193D01*
Y40845D01*
G01X500Y49193D02*
X1100Y49793D01*
X60044D01*
G01X11716Y-44000D02*
X12216Y-43500D01*
G01D02*
X19382D01*
G01X50579Y-49921D02*
X15216D01*
X11716Y-46421D01*
Y-44000D01*
G01X21000Y-14500D02*
X22415Y-13085D01*
Y-12069D01*
X21253Y-10907D01*
G01X23807Y44693D02*
Y43309D01*
X19343Y38845D01*
G01D02*
X17343Y40845D01*
X9957D01*
G01X25648Y-40000D02*
Y-43270D01*
X29618Y-47240D01*
G01X60044Y-20134D02*
Y-34881D01*
X47685Y-47240D01*
X29618D01*
G01X24500Y-32981D02*
X36455D01*
G01X21253Y-10907D02*
X24846Y-7314D01*
Y16547D01*
G01X32465Y-21307D02*
X37602D01*
X38755Y-22460D01*
Y-39745D01*
X37500Y-41000D01*
Y-43000D01*
G01X32465Y23693D02*
X37902D01*
X38202Y23393D01*
Y-14447D01*
G01X32465Y28693D02*
X39555D01*
X41055Y27193D01*
Y-37581D01*
G01X32465Y33693D02*
X39655D01*
X45500Y27848D01*
Y-22171D01*
X43655Y-24016D01*
Y-37581D01*
G01X23500Y45000D02*
X23807Y44693D01*
G01D02*
X31465D01*
X32465Y43693D01*
G01X41055Y-40699D02*
X43955D01*
X45955Y-38699D01*
Y-24545D01*
X47500Y-23000D01*
Y26079D01*
X55000Y33579D01*
G01X57500Y-43000D02*
X50579Y-49921D01*
G01X55000Y12394D02*
X49882Y7276D01*
Y-30649D01*
X48255Y-32276D01*
G01X57500Y-45002D02*
Y-43000D01*
G01D02*
Y-40998D01*
G01X55498Y-43000D02*
X57500D01*
G01D02*
X59502D01*
G01X60044Y1000D02*
Y-20134D01*
G01X55000D02*
X60044D01*
G01Y22236D02*
Y1000D01*
G01X55000D02*
X60044D01*
G01X55000Y22236D02*
X60044D01*
G01X55000Y43421D02*
X60044Y38377D01*
Y22236D01*
M02*
