 0
SECTION
 2
HEADER
 9
$ACADVER
 1
AC1009
 0
ENDSEC
 0
SECTION
 2
ENTITIES
 0
POLYLINE
 8
TITLE
 66
1
 70
1
 10
0.0
 20
0.0
 30
0.0
 0
VERTEX
 8
TITLE
 10
 -0.1000
 20
  0.1000
 30
0.0
 0
VERTEX
 8
TITLE
 10
 15.1000
 20
  0.1000
 30
0.0
 0
VERTEX
 8
TITLE
 10
 15.1000
 20
  9.8000
 30
0.0
 0
VERTEX
 8
TITLE
 10
 -0.1000
 20
  9.8000
 30
0.0
 0
SEQEND
 8
TITLE
 0
POLYLINE
 8
TITLE
 66
1
 70
1
 10
0.0
 20
0.0
 30
0.0
 0
VERTEX
 8
TITLE
 10
  0.0000
 20
  0.2000
 30
0.0
 0
VERTEX
 8
TITLE
 10
 15.0000
 20
  0.2000
 30
0.0
 0
VERTEX
 8
TITLE
 10
 15.0000
 20
  9.7000
 30
0.0
 0
VERTEX
 8
TITLE
 10
  0.0000
 20
  9.7000
 30
0.0
 0
SEQEND
 8
TITLE
 0
POLYLINE
 8
TITLE
 66
1
 10
0.0
 20
0.0
 30
0.0
 0
VERTEX
 8
TITLE
 10
  3.1600
 20
  0.2000
 30
0.0
 0
VERTEX
 8
TITLE
 10
  3.1600
 20
  0.1000
 30
0.0
 0
SEQEND
 8
TITLE
 0
POLYLINE
 8
TITLE
 66
1
 10
0.0
 20
0.0
 30
0.0
 0
VERTEX
 8
TITLE
 10
  3.1600
 20
  9.7000
 30
0.0
 0
VERTEX
 8
TITLE
 10
  3.1600
 20
  9.8000
 30
0.0
 0
SEQEND
 8
TITLE
 0
POLYLINE
 8
TITLE
 66
1
 10
0.0
 20
0.0
 30
0.0
 0
VERTEX
 8
TITLE
 10
  6.1200
 20
  0.2000
 30
0.0
 0
VERTEX
 8
TITLE
 10
  6.1200
 20
  0.1000
 30
0.0
 0
SEQEND
 8
TITLE
 0
POLYLINE
 8
TITLE
 66
1
 10
0.0
 20
0.0
 30
0.0
 0
VERTEX
 8
TITLE
 10
  6.1200
 20
  9.7000
 30
0.0
 0
VERTEX
 8
TITLE
 10
  6.1200
 20
  9.8000
 30
0.0
 0
SEQEND
 8
TITLE
 0
POLYLINE
 8
TITLE
 66
1
 10
0.0
 20
0.0
 30
0.0
 0
VERTEX
 8
TITLE
 10
  9.0800
 20
  0.2000
 30
0.0
 0
VERTEX
 8
TITLE
 10
  9.0800
 20
  0.1000
 30
0.0
 0
SEQEND
 8
TITLE
 0
POLYLINE
 8
TITLE
 66
1
 10
0.0
 20
0.0
 30
0.0
 0
VERTEX
 8
TITLE
 10
  9.0800
 20
  9.7000
 30
0.0
 0
VERTEX
 8
TITLE
 10
  9.0800
 20
  9.8000
 30
0.0
 0
SEQEND
 8
TITLE
 0
POLYLINE
 8
TITLE
 66
1
 10
0.0
 20
0.0
 30
0.0
 0
VERTEX
 8
TITLE
 10
 12.0400
 20
  0.2000
 30
0.0
 0
VERTEX
 8
TITLE
 10
 12.0400
 20
  0.1000
 30
0.0
 0
SEQEND
 8
TITLE
 0
POLYLINE
 8
TITLE
 66
1
 10
0.0
 20
0.0
 30
0.0
 0
VERTEX
 8
TITLE
 10
 12.0400
 20
  9.7000
 30
0.0
 0
VERTEX
 8
TITLE
 10
 12.0400
 20
  9.8000
 30
0.0
 0
SEQEND
 8
TITLE
 0
TEXT
 8
TITLE
 10
  1.6800
 20
  0.1200
 30
0.0
 40
  0.0500
 1
5
 0
TEXT
 8
TITLE
 10
  1.6800
 20
  9.7200
 30
0.0
 40
  0.0500
 1
5
 0
TEXT
 8
TITLE
 10
  4.6400
 20
  0.1200
 30
0.0
 40
  0.0500
 1
4
 0
TEXT
 8
TITLE
 10
  4.6400
 20
  9.7200
 30
0.0
 40
  0.0500
 1
4
 0
TEXT
 8
TITLE
 10
  7.6000
 20
  0.1200
 30
0.0
 40
  0.0500
 1
3
 0
TEXT
 8
TITLE
 10
  7.6000
 20
  9.7200
 30
0.0
 40
  0.0500
 1
3
 0
TEXT
 8
TITLE
 10
 10.5600
 20
  0.1200
 30
0.0
 40
  0.0500
 1
2
 0
TEXT
 8
TITLE
 10
 10.5600
 20
  9.7200
 30
0.0
 40
  0.0500
 1
2
 0
TEXT
 8
TITLE
 10
 13.5200
 20
  0.1200
 30
0.0
 40
  0.0500
 1
1
 0
TEXT
 8
TITLE
 10
 13.5200
 20
  9.7200
 30
0.0
 40
  0.0500
 1
1
 0
POLYLINE
 8
TITLE
 66
1
 10
0.0
 20
0.0
 30
0.0
 0
VERTEX
 8
TITLE
 10
 -0.1000
 20
  7.1800
 30
0.0
 0
VERTEX
 8
TITLE
 10
  0.0000
 20
  7.1800
 30
0.0
 0
SEQEND
 8
TITLE
 0
POLYLINE
 8
TITLE
 66
1
 10
0.0
 20
0.0
 30
0.0
 0
VERTEX
 8
TITLE
 10
 15.0000
 20
  7.1800
 30
0.0
 0
VERTEX
 8
TITLE
 10
 15.1000
 20
  7.1800
 30
0.0
 0
SEQEND
 8
TITLE
 0
SOLID
 8
TITLE
 10
  0.0000
 20
  4.8600
 30
0.0
 11
 -0.0500
 21
  4.8800
 31
0.0
 12
 -0.0500
 22
  4.8400
 32
0.0
 13
 -0.0500
 23
  4.8600
 33
0.0
 0
SOLID
 8
TITLE
 10
 15.0000
 20
  4.8600
 30
0.0
 11
 15.0500
 21
  4.8800
 31
0.0
 12
 15.0500
 22
  4.8400
 32
0.0
 13
 15.0500
 23
  4.8600
 33
0.0
 0
POLYLINE
 8
TITLE
 66
1
 10
0.0
 20
0.0
 30
0.0
 0
VERTEX
 8
TITLE
 10
 -0.1000
 20
  4.8600
 30
0.0
 0
VERTEX
 8
TITLE
 10
  0.0000
 20
  4.8600
 30
0.0
 0
SEQEND
 8
TITLE
 0
POLYLINE
 8
TITLE
 66
1
 10
0.0
 20
0.0
 30
0.0
 0
VERTEX
 8
TITLE
 10
 15.0000
 20
  4.8600
 30
0.0
 0
VERTEX
 8
TITLE
 10
 15.1000
 20
  4.8600
 30
0.0
 0
SEQEND
 8
TITLE
 0
SOLID
 8
TITLE
 10
  0.0000
 20
  4.8600
 30
0.0
 11
 -0.0500
 21
  4.8800
 31
0.0
 12
 -0.0500
 22
  4.8400
 32
0.0
 13
 -0.0500
 23
  4.8600
 33
0.0
 0
SOLID
 8
TITLE
 10
 15.0000
 20
  4.8600
 30
0.0
 11
 15.0500
 21
  4.8800
 31
0.0
 12
 15.0500
 22
  4.8400
 32
0.0
 13
 15.0500
 23
  4.8600
 33
0.0
 0
POLYLINE
 8
TITLE
 66
1
 10
0.0
 20
0.0
 30
0.0
 0
VERTEX
 8
TITLE
 10
 -0.1000
 20
  2.5400
 30
0.0
 0
VERTEX
 8
TITLE
 10
  0.0000
 20
  2.5400
 30
0.0
 0
SEQEND
 8
TITLE
 0
POLYLINE
 8
TITLE
 66
1
 10
0.0
 20
0.0
 30
0.0
 0
VERTEX
 8
TITLE
 10
 15.0000
 20
  2.5400
 30
0.0
 0
VERTEX
 8
TITLE
 10
 15.1000
 20
  2.5400
 30
0.0
 0
SEQEND
 8
TITLE
 0
SOLID
 8
TITLE
 10
  0.0000
 20
  4.8600
 30
0.0
 11
 -0.0500
 21
  4.8800
 31
0.0
 12
 -0.0500
 22
  4.8400
 32
0.0
 13
 -0.0500
 23
  4.8600
 33
0.0
 0
SOLID
 8
TITLE
 10
 15.0000
 20
  4.8600
 30
0.0
 11
 15.0500
 21
  4.8800
 31
0.0
 12
 15.0500
 22
  4.8400
 32
0.0
 13
 15.0500
 23
  4.8600
 33
0.0
 0
TEXT
 8
TITLE
 10
 -0.0800
 20
  8.3400
 30
0.0
 40
  0.0500
 1
D
 0
TEXT
 8
TITLE
 10
 15.0200
 20
  8.3400
 30
0.0
 40
  0.0500
 1
D
 0
TEXT
 8
TITLE
 10
 -0.0800
 20
  6.0200
 30
0.0
 40
  0.0500
 1
C
 0
TEXT
 8
TITLE
 10
 15.0200
 20
  6.0200
 30
0.0
 40
  0.0500
 1
C
 0
TEXT
 8
TITLE
 10
 -0.0800
 20
  3.7000
 30
0.0
 40
  0.0500
 1
B
 0
TEXT
 8
TITLE
 10
 15.0200
 20
  3.7000
 30
0.0
 40
  0.0500
 1
B
 0
TEXT
 8
TITLE
 10
 -0.0800
 20
  1.3800
 30
0.0
 40
  0.0500
 1
A
 0
TEXT
 8
TITLE
 10
 15.0200
 20
  1.3800
 30
0.0
 40
  0.0500
 1
A
 0
TEXT
 8
TITLE
 10
 11.8000
 20
  0.4186
 30
0.0
 40
  0.0514
 1
<Doc>
 0
TEXT
 8
TITLE
 10
 14.8000
 20
  0.4186
 30
0.0
 40
  0.0514
 1
V1.0
 0
TEXT
 8
TITLE
 10
 11.8000
 20
  0.7186
 30
0.0
 40
  0.0514
 1
FPMemory
 0
TEXT
 8
TITLE
 10
 11.5000
 20
  0.4186
 30
0.0
 40
  0.0514
 1
B
 0
TEXT
 8
TITLE
 10
 13.9000
 20
  0.2186
 30
0.0
 40
  0.0514
 1
1
 0
TEXT
 8
TITLE
 10
 14.5000
 20
  0.2186
 30
0.0
 40
  0.0514
 1
1
 0
TEXT
 8
TITLE
 10
 11.9200
 20
  0.2186
 30
0.0
 40
  0.0514
 1
Sunday, August 05, 2018
 0
TEXT
 8
PARTTEXT
 10
 11.4000
 20
  0.8186
 30
0.0
 40
  0.0514
 1
Title
 0
TEXT
 8
PARTTEXT
 10
 11.4000
 20
  0.5186
 30
0.0
 40
  0.0514
 1
Size
 0
TEXT
 8
PARTTEXT
 10
 11.8000
 20
  0.5186
 30
0.0
 40
  0.0514
 1
Document Number
 0
TEXT
 8
PARTTEXT
 10
 14.7000
 20
  0.5186
 30
0.0
 40
  0.0514
 1
Rev
 0
TEXT
 8
PARTTEXT
 10
 11.4000
 20
  0.2186
 30
0.0
 40
  0.0514
 1
Date:
 0
TEXT
 8
PARTTEXT
 10
 13.4000
 20
  0.2186
 30
0.0
 40
  0.0514
 1
Sheet
 0
POLYLINE
 8
TITLE
 66
1
 70
1
 10
0.0
 20
0.0
 30
0.0
 0
VERTEX
 8
TITLE
 10
 11.4000
 20
  1.1000
 30
0.0
 0
VERTEX
 8
TITLE
 10
 15.0000
 20
  1.1000
 30
0.0
 0
VERTEX
 8
TITLE
 10
 15.0000
 20
  0.9000
 30
0.0
 0
VERTEX
 8
TITLE
 10
 11.4000
 20
  0.9000
 30
0.0
 0
SEQEND
 8
TITLE
 0
POLYLINE
 8
TITLE
 66
1
 70
1
 10
0.0
 20
0.0
 30
0.0
 0
VERTEX
 8
TITLE
 10
 11.4000
 20
  0.9000
 30
0.0
 0
VERTEX
 8
TITLE
 10
 15.0000
 20
  0.9000
 30
0.0
 0
VERTEX
 8
TITLE
 10
 15.0000
 20
  0.6000
 30
0.0
 0
VERTEX
 8
TITLE
 10
 11.4000
 20
  0.6000
 30
0.0
 0
SEQEND
 8
TITLE
 0
POLYLINE
 8
TITLE
 66
1
 70
1
 10
0.0
 20
0.0
 30
0.0
 0
VERTEX
 8
TITLE
 10
 11.4000
 20
  0.6000
 30
0.0
 0
VERTEX
 8
TITLE
 10
 11.7000
 20
  0.6000
 30
0.0
 0
VERTEX
 8
TITLE
 10
 11.7000
 20
  0.3000
 30
0.0
 0
VERTEX
 8
TITLE
 10
 11.4000
 20
  0.3000
 30
0.0
 0
SEQEND
 8
TITLE
 0
POLYLINE
 8
TITLE
 66
1
 70
1
 10
0.0
 20
0.0
 30
0.0
 0
VERTEX
 8
TITLE
 10
 11.7000
 20
  0.6000
 30
0.0
 0
VERTEX
 8
TITLE
 10
 14.7000
 20
  0.6000
 30
0.0
 0
VERTEX
 8
TITLE
 10
 14.7000
 20
  0.3000
 30
0.0
 0
VERTEX
 8
TITLE
 10
 11.7000
 20
  0.3000
 30
0.0
 0
SEQEND
 8
TITLE
 0
POLYLINE
 8
TITLE
 66
1
 70
1
 10
0.0
 20
0.0
 30
0.0
 0
VERTEX
 8
TITLE
 10
 14.7000
 20
  0.6000
 30
0.0
 0
VERTEX
 8
TITLE
 10
 15.0000
 20
  0.6000
 30
0.0
 0
VERTEX
 8
TITLE
 10
 15.0000
 20
  0.3000
 30
0.0
 0
VERTEX
 8
TITLE
 10
 14.7000
 20
  0.3000
 30
0.0
 0
SEQEND
 8
TITLE
 0
POLYLINE
 8
TITLE
 66
1
 70
1
 10
0.0
 20
0.0
 30
0.0
 0
VERTEX
 8
TITLE
 10
 11.4000
 20
  0.3000
 30
0.0
 0
VERTEX
 8
TITLE
 10
 13.4000
 20
  0.3000
 30
0.0
 0
VERTEX
 8
TITLE
 10
 13.4000
 20
  0.2000
 30
0.0
 0
VERTEX
 8
TITLE
 10
 11.4000
 20
  0.2000
 30
0.0
 0
SEQEND
 8
TITLE
 0
POLYLINE
 8
TITLE
 66
1
 70
1
 10
0.0
 20
0.0
 30
0.0
 0
VERTEX
 8
TITLE
 10
 13.4000
 20
  0.3000
 30
0.0
 0
VERTEX
 8
TITLE
 10
 15.0000
 20
  0.3000
 30
0.0
 0
VERTEX
 8
TITLE
 10
 15.0000
 20
  0.2000
 30
0.0
 0
VERTEX
 8
TITLE
 10
 13.4000
 20
  0.2000
 30
0.0
 0
SEQEND
 8
TITLE
 0
TEXT
 8
PARTTEXT
 10
 14.2000
 20
  0.2186
 30
0.0
 40
  0.0514
 1
of
 0
TEXT
 8
PARTTEXT
 10
  6.3000
 20
  6.4386
 30
0.0
 40
  0.0514
 1
R5
 0
TEXT
 8
PARTTEXT
 10
  6.3000
 20
  6.3186
 30
0.0
 40
  0.0514
 1
50k
 0
LINE
 8
PARTS
 10
  6.2000
 20
  6.7000
 30
0.0
 11
  6.2000
 21
  6.6000
 31
0.0
 0
LINE
 8
PARTS
 10
  6.2000
 20
  6.2000
 30
0.0
 11
  6.2000
 21
  6.3000
 31
0.0
 0
POLYLINE
 8
PARTS
 66
1
 10
0.0
 20
0.0
 30
0.0
 0
VERTEX
 8
PARTS
 10
  6.2000
 20
  6.6000
 30
0.0
 0
VERTEX
 8
PARTS
 10
  6.2300
 20
  6.5700
 30
0.0
 0
SEQEND
 8
PARTS
 0
POLYLINE
 8
PARTS
 66
1
 10
0.0
 20
0.0
 30
0.0
 0
VERTEX
 8
PARTS
 10
  6.2300
 20
  6.5700
 30
0.0
 0
VERTEX
 8
PARTS
 10
  6.1700
 20
  6.5100
 30
0.0
 0
SEQEND
 8
PARTS
 0
POLYLINE
 8
PARTS
 66
1
 10
0.0
 20
0.0
 30
0.0
 0
VERTEX
 8
PARTS
 10
  6.1700
 20
  6.5100
 30
0.0
 0
VERTEX
 8
PARTS
 10
  6.2300
 20
  6.4500
 30
0.0
 0
SEQEND
 8
PARTS
 0
POLYLINE
 8
PARTS
 66
1
 10
0.0
 20
0.0
 30
0.0
 0
VERTEX
 8
PARTS
 10
  6.2300
 20
  6.4500
 30
0.0
 0
VERTEX
 8
PARTS
 10
  6.1700
 20
  6.3900
 30
0.0
 0
SEQEND
 8
PARTS
 0
POLYLINE
 8
PARTS
 66
1
 10
0.0
 20
0.0
 30
0.0
 0
VERTEX
 8
PARTS
 10
  6.1700
 20
  6.3900
 30
0.0
 0
VERTEX
 8
PARTS
 10
  6.2300
 20
  6.3300
 30
0.0
 0
SEQEND
 8
PARTS
 0
POLYLINE
 8
PARTS
 66
1
 10
0.0
 20
0.0
 30
0.0
 0
VERTEX
 8
PARTS
 10
  6.2300
 20
  6.3300
 30
0.0
 0
VERTEX
 8
PARTS
 10
  6.2000
 20
  6.3000
 30
0.0
 0
SEQEND
 8
PARTS
 0
TEXT
 8
PARTTEXT
 10
 12.7000
 20
  3.5186
 30
0.0
 40
  0.0514
 1
U4
 0
TEXT
 8
PARTTEXT
 10
 13.1000
 20
  2.9186
 30
0.0
 40
  0.0514
 1
LM317
 0
LINE
 8
PARTS
 10
 12.4000
 20
  3.3000
 30
0.0
 11
 12.7000
 21
  3.3000
 31
0.0
 0
TEXT
 8
PARTS
 10
 12.7900
 20
  3.2750
 30
0.0
 40
  0.0500
 1
VIN
 0
TEXT
 8
PARTS
 10
 12.6000
 20
  3.3300
 30
0.0
 40
  0.0500
 1
3
 0
LINE
 8
PARTS
 10
 12.4000
 20
  3.1000
 30
0.0
 11
 12.7000
 21
  3.1000
 31
0.0
 0
TEXT
 8
PARTS
 10
 12.7900
 20
  3.0750
 30
0.0
 40
  0.0500
 1
ADJ
 0
TEXT
 8
PARTS
 10
 12.6000
 20
  3.1300
 30
0.0
 40
  0.0500
 1
1
 0
LINE
 8
PARTS
 10
 13.7000
 20
  3.3000
 30
0.0
 11
 13.4000
 21
  3.3000
 31
0.0
 0
TEXT
 8
PARTS
 10
 13.1500
 20
  3.2750
 30
0.0
 40
  0.0500
 1
VOUT
 0
TEXT
 8
PARTS
 10
 13.4600
 20
  3.3300
 30
0.0
 40
  0.0500
 1
2
 0
POLYLINE
 8
PARTS
 66
1
 70
1
 10
0.0
 20
0.0
 30
0.0
 0
VERTEX
 8
PARTS
 10
 12.7000
 20
  3.4000
 30
0.0
 0
VERTEX
 8
PARTS
 10
 13.4000
 20
  3.4000
 30
0.0
 0
VERTEX
 8
PARTS
 10
 13.4000
 20
  3.0000
 30
0.0
 0
VERTEX
 8
PARTS
 10
 12.7000
 20
  3.0000
 30
0.0
 0
SEQEND
 8
PARTS
 0
TEXT
 8
PARTTEXT
 10
  2.4000
 20
  3.5186
 30
0.0
 40
  0.0514
 1
C12
 0
TEXT
 8
PARTTEXT
 10
  2.6000
 20
  3.4186
 30
0.0
 40
  0.0514
 1
0.1uF
 0
LINE
 8
PARTS
 10
  2.7000
 20
  3.5000
 30
0.0
 11
  2.6000
 21
  3.5000
 31
0.0
 0
LINE
 8
PARTS
 10
  2.4000
 20
  3.5000
 30
0.0
 11
  2.5000
 21
  3.5000
 31
0.0
 0
POLYLINE
 8
PARTS
 66
1
 10
0.0
 20
0.0
 30
0.0
 0
VERTEX
 8
PARTS
 10
  2.6000
 20
  3.5000
 30
0.0
 0
VERTEX
 8
PARTS
 10
  2.5800
 20
  3.5000
 30
0.0
 0
SEQEND
 8
PARTS
 0
POLYLINE
 8
PARTS
 66
1
 10
0.0
 20
0.0
 30
0.0
 0
VERTEX
 8
PARTS
 10
  2.5300
 20
  3.4100
 30
0.0
 0
VERTEX
 8
PARTS
 10
  2.5300
 20
  3.5900
 30
0.0
 0
SEQEND
 8
PARTS
 0
POLYLINE
 8
PARTS
 66
1
 10
0.0
 20
0.0
 30
0.0
 0
VERTEX
 8
PARTS
 10
  2.5800
 20
  3.4100
 30
0.0
 0
VERTEX
 8
PARTS
 10
  2.5800
 20
  3.5900
 30
0.0
 0
SEQEND
 8
PARTS
 0
POLYLINE
 8
PARTS
 66
1
 10
0.0
 20
0.0
 30
0.0
 0
VERTEX
 8
PARTS
 10
  2.5000
 20
  3.5000
 30
0.0
 0
VERTEX
 8
PARTS
 10
  2.5300
 20
  3.5000
 30
0.0
 0
SEQEND
 8
PARTS
 0
TEXT
 8
PARTTEXT
 10
  2.7200
 20
  1.9986
 30
0.0
 40
  0.0514
 1
S7
 0
TEXT
 8
PARTTEXT
 10
  2.4000
 20
  2.7786
 30
0.0
 40
  0.0514
 1
IMS-C20B
 0
LINE
 8
PARTS
 10
  3.2000
 20
  2.3000
 30
0.0
 11
  2.9000
 21
  2.3000
 31
0.0
 0
TEXT
 8
PARTS
 10
  2.7700
 20
  2.2750
 30
0.0
 40
  0.0500
 1
+
 0
TEXT
 8
PARTS
 10
  2.9600
 20
  2.3300
 30
0.0
 40
  0.0500
 1
1
 0
LINE
 8
PARTS
 10
  3.2000
 20
  2.5000
 30
0.0
 11
  2.9000
 21
  2.5000
 31
0.0
 0
TEXT
 8
PARTS
 10
  2.7700
 20
  2.4750
 30
0.0
 40
  0.0500
 1
-
 0
TEXT
 8
PARTS
 10
  2.9600
 20
  2.5300
 30
0.0
 40
  0.0500
 1
2
 0
POLYLINE
 8
PARTS
 66
1
 70
1
 10
0.0
 20
0.0
 30
0.0
 0
VERTEX
 8
PARTS
 10
  2.9000
 20
  2.4000
 30
0.0
 42
  0.0985
 0
VERTEX
 8
PARTS
 10
  2.8772
 20
  2.5148
 30
0.0
 42
  0.0985
 0
VERTEX
 8
PARTS
 10
  2.8121
 20
  2.6121
 30
0.0
 42
  0.0985
 0
VERTEX
 8
PARTS
 10
  2.7148
 20
  2.6772
 30
0.0
 42
  0.0985
 0
VERTEX
 8
PARTS
 10
  2.6000
 20
  2.7000
 30
0.0
 42
  0.0985
 0
VERTEX
 8
PARTS
 10
  2.4852
 20
  2.6772
 30
0.0
 42
  0.0985
 0
VERTEX
 8
PARTS
 10
  2.3879
 20
  2.6121
 30
0.0
 42
  0.0985
 0
VERTEX
 8
PARTS
 10
  2.3228
 20
  2.5148
 30
0.0
 42
  0.0985
 0
VERTEX
 8
PARTS
 10
  2.3000
 20
  2.4000
 30
0.0
 42
  0.0985
 0
VERTEX
 8
PARTS
 10
  2.3228
 20
  2.2852
 30
0.0
 42
  0.0985
 0
VERTEX
 8
PARTS
 10
  2.3879
 20
  2.1879
 30
0.0
 42
  0.0985
 0
VERTEX
 8
PARTS
 10
  2.4852
 20
  2.1228
 30
0.0
 42
  0.0985
 0
VERTEX
 8
PARTS
 10
  2.6000
 20
  2.1000
 30
0.0
 42
  0.0985
 0
VERTEX
 8
PARTS
 10
  2.7148
 20
  2.1228
 30
0.0
 42
  0.0985
 0
VERTEX
 8
PARTS
 10
  2.8121
 20
  2.1879
 30
0.0
 42
  0.0985
 0
VERTEX
 8
PARTS
 10
  2.8772
 20
  2.2852
 30
0.0
 42
  0.0985
 0
SEQEND
 8
PARTS
 0
POLYLINE
 8
PARTS
 66
1
 10
0.0
 20
0.0
 30
0.0
 0
VERTEX
 8
PARTS
 10
  2.9000
 20
  2.3000
 30
0.0
 0
VERTEX
 8
PARTS
 10
  2.8800
 20
  2.3000
 30
0.0
 0
SEQEND
 8
PARTS
 0
POLYLINE
 8
PARTS
 66
1
 10
0.0
 20
0.0
 30
0.0
 0
VERTEX
 8
PARTS
 10
  2.9000
 20
  2.5000
 30
0.0
 0
VERTEX
 8
PARTS
 10
  2.8800
 20
  2.5000
 30
0.0
 0
SEQEND
 8
PARTS
 0
TEXT
 8
PARTTEXT
 10
  9.4000
 20
  8.6386
 30
0.0
 40
  0.0514
 1
R1
 0
TEXT
 8
PARTTEXT
 10
  9.4000
 20
  8.5186
 30
0.0
 40
  0.0514
 1
10k
 0
LINE
 8
PARTS
 10
  9.3000
 20
  8.3000
 30
0.0
 11
  9.3000
 21
  8.4000
 31
0.0
 0
LINE
 8
PARTS
 10
  9.3000
 20
  8.8000
 30
0.0
 11
  9.3000
 21
  8.7000
 31
0.0
 0
POLYLINE
 8
PARTS
 66
1
 10
0.0
 20
0.0
 30
0.0
 0
VERTEX
 8
PARTS
 10
  9.3000
 20
  8.4000
 30
0.0
 0
VERTEX
 8
PARTS
 10
  9.2700
 20
  8.4300
 30
0.0
 0
SEQEND
 8
PARTS
 0
POLYLINE
 8
PARTS
 66
1
 10
0.0
 20
0.0
 30
0.0
 0
VERTEX
 8
PARTS
 10
  9.2700
 20
  8.4300
 30
0.0
 0
VERTEX
 8
PARTS
 10
  9.3300
 20
  8.4900
 30
0.0
 0
SEQEND
 8
PARTS
 0
POLYLINE
 8
PARTS
 66
1
 10
0.0
 20
0.0
 30
0.0
 0
VERTEX
 8
PARTS
 10
  9.3300
 20
  8.4900
 30
0.0
 0
VERTEX
 8
PARTS
 10
  9.2700
 20
  8.5500
 30
0.0
 0
SEQEND
 8
PARTS
 0
POLYLINE
 8
PARTS
 66
1
 10
0.0
 20
0.0
 30
0.0
 0
VERTEX
 8
PARTS
 10
  9.2700
 20
  8.5500
 30
0.0
 0
VERTEX
 8
PARTS
 10
  9.3300
 20
  8.6100
 30
0.0
 0
SEQEND
 8
PARTS
 0
POLYLINE
 8
PARTS
 66
1
 10
0.0
 20
0.0
 30
0.0
 0
VERTEX
 8
PARTS
 10
  9.3300
 20
  8.6100
 30
0.0
 0
VERTEX
 8
PARTS
 10
  9.2700
 20
  8.6700
 30
0.0
 0
SEQEND
 8
PARTS
 0
POLYLINE
 8
PARTS
 66
1
 10
0.0
 20
0.0
 30
0.0
 0
VERTEX
 8
PARTS
 10
  9.2700
 20
  8.6700
 30
0.0
 0
VERTEX
 8
PARTS
 10
  9.3000
 20
  8.7000
 30
0.0
 0
SEQEND
 8
PARTS
 0
TEXT
 8
PARTTEXT
 10
 10.5700
 20
  8.1586
 30
0.0
 40
  0.0514
 1
U2
 0
TEXT
 8
PARTTEXT
 10
 10.0000
 20
  6.1186
 30
0.0
 40
  0.0514
 1
ESP32
 0
LINE
 8
PARTS
 10
 10.2000
 20
  8.0000
 30
0.0
 11
 10.5000
 21
  8.0000
 31
0.0
 0
TEXT
 8
PARTS
 10
 10.5900
 20
  7.9750
 30
0.0
 40
  0.0500
 1
GND1
 0
TEXT
 8
PARTS
 10
 10.4000
 20
  8.0300
 30
0.0
 40
  0.0500
 1
1
 0
LINE
 8
PARTS
 10
 10.2000
 20
  7.9000
 30
0.0
 11
 10.5000
 21
  7.9000
 31
0.0
 0
TEXT
 8
PARTS
 10
 10.5900
 20
  7.8750
 30
0.0
 40
  0.0500
 1
3V3
 0
TEXT
 8
PARTS
 10
 10.4000
 20
  7.9300
 30
0.0
 40
  0.0500
 1
2
 0
LINE
 8
PARTS
 10
 10.2000
 20
  7.8000
 30
0.0
 11
 10.5000
 21
  7.8000
 31
0.0
 0
TEXT
 8
PARTS
 10
 10.5900
 20
  7.7750
 30
0.0
 40
  0.0500
 1
EN
 0
TEXT
 8
PARTS
 10
 10.4000
 20
  7.8300
 30
0.0
 40
  0.0500
 1
3
 0
LINE
 8
PARTS
 10
 10.2000
 20
  7.7000
 30
0.0
 11
 10.5000
 21
  7.7000
 31
0.0
 0
LINE
 8
PARTS
 10
 10.1750
 20
  7.7250
 30
0.0
 11
 10.2250
 21
  7.6750
 31
0.0
 0
LINE
 8
PARTS
 10
 10.2250
 20
  7.7250
 30
0.0
 11
 10.1750
 21
  7.6750
 31
0.0
 0
TEXT
 8
PARTS
 10
 10.5900
 20
  7.6750
 30
0.0
 40
  0.0500
 1
SENSOR_VP
 0
TEXT
 8
PARTS
 10
 10.4000
 20
  7.7300
 30
0.0
 40
  0.0500
 1
4
 0
LINE
 8
PARTS
 10
 10.2000
 20
  7.6000
 30
0.0
 11
 10.5000
 21
  7.6000
 31
0.0
 0
LINE
 8
PARTS
 10
 10.1750
 20
  7.6250
 30
0.0
 11
 10.2250
 21
  7.5750
 31
0.0
 0
LINE
 8
PARTS
 10
 10.2250
 20
  7.6250
 30
0.0
 11
 10.1750
 21
  7.5750
 31
0.0
 0
TEXT
 8
PARTS
 10
 10.5900
 20
  7.5750
 30
0.0
 40
  0.0500
 1
SENSOR_VN
 0
TEXT
 8
PARTS
 10
 10.4000
 20
  7.6300
 30
0.0
 40
  0.0500
 1
5
 0
LINE
 8
PARTS
 10
 10.2000
 20
  7.5000
 30
0.0
 11
 10.5000
 21
  7.5000
 31
0.0
 0
TEXT
 8
PARTS
 10
 10.5900
 20
  7.4750
 30
0.0
 40
  0.0500
 1
IO34
 0
TEXT
 8
PARTS
 10
 10.4000
 20
  7.5300
 30
0.0
 40
  0.0500
 1
6
 0
LINE
 8
PARTS
 10
 10.2000
 20
  7.4000
 30
0.0
 11
 10.5000
 21
  7.4000
 31
0.0
 0
TEXT
 8
PARTS
 10
 10.5900
 20
  7.3750
 30
0.0
 40
  0.0500
 1
IO35
 0
TEXT
 8
PARTS
 10
 10.4000
 20
  7.4300
 30
0.0
 40
  0.0500
 1
7
 0
LINE
 8
PARTS
 10
 10.2000
 20
  7.3000
 30
0.0
 11
 10.5000
 21
  7.3000
 31
0.0
 0
TEXT
 8
PARTS
 10
 10.5900
 20
  7.2750
 30
0.0
 40
  0.0500
 1
IO32
 0
TEXT
 8
PARTS
 10
 10.4000
 20
  7.3300
 30
0.0
 40
  0.0500
 1
8
 0
LINE
 8
PARTS
 10
 10.2000
 20
  7.2000
 30
0.0
 11
 10.5000
 21
  7.2000
 31
0.0
 0
TEXT
 8
PARTS
 10
 10.5900
 20
  7.1750
 30
0.0
 40
  0.0500
 1
IO33
 0
TEXT
 8
PARTS
 10
 10.4000
 20
  7.2300
 30
0.0
 40
  0.0500
 1
9
 0
LINE
 8
PARTS
 10
 10.2000
 20
  7.1000
 30
0.0
 11
 10.5000
 21
  7.1000
 31
0.0
 0
LINE
 8
PARTS
 10
 10.1750
 20
  7.1250
 30
0.0
 11
 10.2250
 21
  7.0750
 31
0.0
 0
LINE
 8
PARTS
 10
 10.2250
 20
  7.1250
 30
0.0
 11
 10.1750
 21
  7.0750
 31
0.0
 0
TEXT
 8
PARTS
 10
 10.5900
 20
  7.0750
 30
0.0
 40
  0.0500
 1
IO25
 0
TEXT
 8
PARTS
 10
 10.3600
 20
  7.1300
 30
0.0
 40
  0.0500
 1
10
 0
LINE
 8
PARTS
 10
 10.2000
 20
  7.0000
 30
0.0
 11
 10.5000
 21
  7.0000
 31
0.0
 0
TEXT
 8
PARTS
 10
 10.5900
 20
  6.9750
 30
0.0
 40
  0.0500
 1
IO26
 0
TEXT
 8
PARTS
 10
 10.3600
 20
  7.0300
 30
0.0
 40
  0.0500
 1
11
 0
LINE
 8
PARTS
 10
 10.2000
 20
  6.9000
 30
0.0
 11
 10.5000
 21
  6.9000
 31
0.0
 0
TEXT
 8
PARTS
 10
 10.5900
 20
  6.8750
 30
0.0
 40
  0.0500
 1
IO27
 0
TEXT
 8
PARTS
 10
 10.3600
 20
  6.9300
 30
0.0
 40
  0.0500
 1
12
 0
LINE
 8
PARTS
 10
 10.2000
 20
  6.8000
 30
0.0
 11
 10.5000
 21
  6.8000
 31
0.0
 0
TEXT
 8
PARTS
 10
 10.5900
 20
  6.7750
 30
0.0
 40
  0.0500
 1
IO14
 0
TEXT
 8
PARTS
 10
 10.3600
 20
  6.8300
 30
0.0
 40
  0.0500
 1
13
 0
LINE
 8
PARTS
 10
 10.2000
 20
  6.7000
 30
0.0
 11
 10.5000
 21
  6.7000
 31
0.0
 0
TEXT
 8
PARTS
 10
 10.5900
 20
  6.6750
 30
0.0
 40
  0.0500
 1
IO12
 0
TEXT
 8
PARTS
 10
 10.3600
 20
  6.7300
 30
0.0
 40
  0.0500
 1
14
 0
LINE
 8
PARTS
 10
 10.7000
 20
  6.0000
 30
0.0
 11
 10.7000
 21
  6.3000
 31
0.0
 0
TEXT
 8
PARTS
 10
 10.7250
 20
  6.3900
 30
0.0
 40
  0.0500
 50
 90.0000
 1
GND2
 0
TEXT
 8
PARTS
 10
 10.6700
 20
  6.1800
 30
0.0
 40
  0.0500
 50
 90.0000
 1
15
 0
LINE
 8
PARTS
 10
 10.8000
 20
  6.0000
 30
0.0
 11
 10.8000
 21
  6.3000
 31
0.0
 0
LINE
 8
PARTS
 10
 10.8250
 20
  6.0250
 30
0.0
 11
 10.7750
 21
  5.9750
 31
0.0
 0
LINE
 8
PARTS
 10
 10.7750
 20
  6.0250
 30
0.0
 11
 10.8250
 21
  5.9750
 31
0.0
 0
TEXT
 8
PARTS
 10
 10.8250
 20
  6.3900
 30
0.0
 40
  0.0500
 50
 90.0000
 1
IO13
 0
TEXT
 8
PARTS
 10
 10.7700
 20
  6.1800
 30
0.0
 40
  0.0500
 50
 90.0000
 1
16
 0
LINE
 8
PARTS
 10
 10.9000
 20
  6.0000
 30
0.0
 11
 10.9000
 21
  6.3000
 31
0.0
 0
LINE
 8
PARTS
 10
 10.9250
 20
  6.0250
 30
0.0
 11
 10.8750
 21
  5.9750
 31
0.0
 0
LINE
 8
PARTS
 10
 10.8750
 20
  6.0250
 30
0.0
 11
 10.9250
 21
  5.9750
 31
0.0
 0
TEXT
 8
PARTS
 10
 10.9250
 20
  6.3900
 30
0.0
 40
  0.0500
 50
 90.0000
 1
SD2
 0
TEXT
 8
PARTS
 10
 10.8700
 20
  6.1800
 30
0.0
 40
  0.0500
 50
 90.0000
 1
17
 0
LINE
 8
PARTS
 10
 11.0000
 20
  6.0000
 30
0.0
 11
 11.0000
 21
  6.3000
 31
0.0
 0
LINE
 8
PARTS
 10
 11.0250
 20
  6.0250
 30
0.0
 11
 10.9750
 21
  5.9750
 31
0.0
 0
LINE
 8
PARTS
 10
 10.9750
 20
  6.0250
 30
0.0
 11
 11.0250
 21
  5.9750
 31
0.0
 0
TEXT
 8
PARTS
 10
 11.0250
 20
  6.3900
 30
0.0
 40
  0.0500
 50
 90.0000
 1
SD3
 0
TEXT
 8
PARTS
 10
 10.9700
 20
  6.1800
 30
0.0
 40
  0.0500
 50
 90.0000
 1
18
 0
LINE
 8
PARTS
 10
 11.1000
 20
  6.0000
 30
0.0
 11
 11.1000
 21
  6.3000
 31
0.0
 0
LINE
 8
PARTS
 10
 11.1250
 20
  6.0250
 30
0.0
 11
 11.0750
 21
  5.9750
 31
0.0
 0
LINE
 8
PARTS
 10
 11.0750
 20
  6.0250
 30
0.0
 11
 11.1250
 21
  5.9750
 31
0.0
 0
TEXT
 8
PARTS
 10
 11.1250
 20
  6.3900
 30
0.0
 40
  0.0500
 50
 90.0000
 1
CMD
 0
TEXT
 8
PARTS
 10
 11.0700
 20
  6.1800
 30
0.0
 40
  0.0500
 50
 90.0000
 1
19
 0
LINE
 8
PARTS
 10
 11.2000
 20
  6.0000
 30
0.0
 11
 11.2000
 21
  6.3000
 31
0.0
 0
LINE
 8
PARTS
 10
 11.2250
 20
  6.0250
 30
0.0
 11
 11.1750
 21
  5.9750
 31
0.0
 0
LINE
 8
PARTS
 10
 11.1750
 20
  6.0250
 30
0.0
 11
 11.2250
 21
  5.9750
 31
0.0
 0
TEXT
 8
PARTS
 10
 11.2250
 20
  6.3900
 30
0.0
 40
  0.0500
 50
 90.0000
 1
CLK
 0
TEXT
 8
PARTS
 10
 11.1700
 20
  6.1800
 30
0.0
 40
  0.0500
 50
 90.0000
 1
20
 0
LINE
 8
PARTS
 10
 11.3000
 20
  6.0000
 30
0.0
 11
 11.3000
 21
  6.3000
 31
0.0
 0
LINE
 8
PARTS
 10
 11.3250
 20
  6.0250
 30
0.0
 11
 11.2750
 21
  5.9750
 31
0.0
 0
LINE
 8
PARTS
 10
 11.2750
 20
  6.0250
 30
0.0
 11
 11.3250
 21
  5.9750
 31
0.0
 0
TEXT
 8
PARTS
 10
 11.3250
 20
  6.3900
 30
0.0
 40
  0.0500
 50
 90.0000
 1
SD0
 0
TEXT
 8
PARTS
 10
 11.2700
 20
  6.1800
 30
0.0
 40
  0.0500
 50
 90.0000
 1
21
 0
LINE
 8
PARTS
 10
 11.4000
 20
  6.0000
 30
0.0
 11
 11.4000
 21
  6.3000
 31
0.0
 0
LINE
 8
PARTS
 10
 11.4250
 20
  6.0250
 30
0.0
 11
 11.3750
 21
  5.9750
 31
0.0
 0
LINE
 8
PARTS
 10
 11.3750
 20
  6.0250
 30
0.0
 11
 11.4250
 21
  5.9750
 31
0.0
 0
TEXT
 8
PARTS
 10
 11.4250
 20
  6.3900
 30
0.0
 40
  0.0500
 50
 90.0000
 1
SD1
 0
TEXT
 8
PARTS
 10
 11.3700
 20
  6.1800
 30
0.0
 40
  0.0500
 50
 90.0000
 1
22
 0
LINE
 8
PARTS
 10
 11.5000
 20
  6.0000
 30
0.0
 11
 11.5000
 21
  6.3000
 31
0.0
 0
LINE
 8
PARTS
 10
 11.5250
 20
  6.0250
 30
0.0
 11
 11.4750
 21
  5.9750
 31
0.0
 0
LINE
 8
PARTS
 10
 11.4750
 20
  6.0250
 30
0.0
 11
 11.5250
 21
  5.9750
 31
0.0
 0
TEXT
 8
PARTS
 10
 11.5250
 20
  6.3900
 30
0.0
 40
  0.0500
 50
 90.0000
 1
IO15
 0
TEXT
 8
PARTS
 10
 11.4700
 20
  6.1800
 30
0.0
 40
  0.0500
 50
 90.0000
 1
23
 0
LINE
 8
PARTS
 10
 11.6000
 20
  6.0000
 30
0.0
 11
 11.6000
 21
  6.3000
 31
0.0
 0
LINE
 8
PARTS
 10
 11.6250
 20
  6.0250
 30
0.0
 11
 11.5750
 21
  5.9750
 31
0.0
 0
LINE
 8
PARTS
 10
 11.5750
 20
  6.0250
 30
0.0
 11
 11.6250
 21
  5.9750
 31
0.0
 0
TEXT
 8
PARTS
 10
 11.6250
 20
  6.3900
 30
0.0
 40
  0.0500
 50
 90.0000
 1
IO2
 0
TEXT
 8
PARTS
 10
 11.5700
 20
  6.1800
 30
0.0
 40
  0.0500
 50
 90.0000
 1
24
 0
LINE
 8
PARTS
 10
 12.2000
 20
  8.0000
 30
0.0
 11
 11.9000
 21
  8.0000
 31
0.0
 0
TEXT
 8
PARTS
 10
 11.6500
 20
  7.9750
 30
0.0
 40
  0.0500
 1
GND3
 0
TEXT
 8
PARTS
 10
 11.9600
 20
  8.0300
 30
0.0
 40
  0.0500
 1
38
 0
LINE
 8
PARTS
 10
 12.2000
 20
  7.9000
 30
0.0
 11
 11.9000
 21
  7.9000
 31
0.0
 0
LINE
 8
PARTS
 10
 12.2250
 20
  7.9250
 30
0.0
 11
 12.1750
 21
  7.8750
 31
0.0
 0
LINE
 8
PARTS
 10
 12.1750
 20
  7.9250
 30
0.0
 11
 12.2250
 21
  7.8750
 31
0.0
 0
TEXT
 8
PARTS
 10
 11.6500
 20
  7.8750
 30
0.0
 40
  0.0500
 1
IO23
 0
TEXT
 8
PARTS
 10
 11.9600
 20
  7.9300
 30
0.0
 40
  0.0500
 1
37
 0
LINE
 8
PARTS
 10
 12.2000
 20
  7.8000
 30
0.0
 11
 11.9000
 21
  7.8000
 31
0.0
 0
LINE
 8
PARTS
 10
 12.2250
 20
  7.8250
 30
0.0
 11
 12.1750
 21
  7.7750
 31
0.0
 0
LINE
 8
PARTS
 10
 12.1750
 20
  7.8250
 30
0.0
 11
 12.2250
 21
  7.7750
 31
0.0
 0
TEXT
 8
PARTS
 10
 11.6500
 20
  7.7750
 30
0.0
 40
  0.0500
 1
IO22
 0
TEXT
 8
PARTS
 10
 11.9600
 20
  7.8300
 30
0.0
 40
  0.0500
 1
36
 0
LINE
 8
PARTS
 10
 12.2000
 20
  7.7000
 30
0.0
 11
 11.9000
 21
  7.7000
 31
0.0
 0
TEXT
 8
PARTS
 10
 11.6500
 20
  7.6750
 30
0.0
 40
  0.0500
 1
TXD0
 0
TEXT
 8
PARTS
 10
 11.9600
 20
  7.7300
 30
0.0
 40
  0.0500
 1
35
 0
LINE
 8
PARTS
 10
 12.2000
 20
  7.6000
 30
0.0
 11
 11.9000
 21
  7.6000
 31
0.0
 0
TEXT
 8
PARTS
 10
 11.6500
 20
  7.5750
 30
0.0
 40
  0.0500
 1
RXD0
 0
TEXT
 8
PARTS
 10
 11.9600
 20
  7.6300
 30
0.0
 40
  0.0500
 1
34
 0
LINE
 8
PARTS
 10
 12.2000
 20
  7.5000
 30
0.0
 11
 11.9000
 21
  7.5000
 31
0.0
 0
LINE
 8
PARTS
 10
 12.2250
 20
  7.5250
 30
0.0
 11
 12.1750
 21
  7.4750
 31
0.0
 0
LINE
 8
PARTS
 10
 12.1750
 20
  7.5250
 30
0.0
 11
 12.2250
 21
  7.4750
 31
0.0
 0
TEXT
 8
PARTS
 10
 11.6500
 20
  7.4750
 30
0.0
 40
  0.0500
 1
IO21
 0
TEXT
 8
PARTS
 10
 11.9600
 20
  7.5300
 30
0.0
 40
  0.0500
 1
33
 0
LINE
 8
PARTS
 10
 12.2000
 20
  7.4000
 30
0.0
 11
 11.9000
 21
  7.4000
 31
0.0
 0
LINE
 8
PARTS
 10
 12.2250
 20
  7.4250
 30
0.0
 11
 12.1750
 21
  7.3750
 31
0.0
 0
LINE
 8
PARTS
 10
 12.1750
 20
  7.4250
 30
0.0
 11
 12.2250
 21
  7.3750
 31
0.0
 0
TEXT
 8
PARTS
 10
 11.7300
 20
  7.3750
 30
0.0
 40
  0.0500
 1
NC
 0
TEXT
 8
PARTS
 10
 11.9600
 20
  7.4300
 30
0.0
 40
  0.0500
 1
32
 0
LINE
 8
PARTS
 10
 12.2000
 20
  7.3000
 30
0.0
 11
 11.9000
 21
  7.3000
 31
0.0
 0
LINE
 8
PARTS
 10
 12.2250
 20
  7.3250
 30
0.0
 11
 12.1750
 21
  7.2750
 31
0.0
 0
LINE
 8
PARTS
 10
 12.1750
 20
  7.3250
 30
0.0
 11
 12.2250
 21
  7.2750
 31
0.0
 0
TEXT
 8
PARTS
 10
 11.6500
 20
  7.2750
 30
0.0
 40
  0.0500
 1
IO19
 0
TEXT
 8
PARTS
 10
 11.9600
 20
  7.3300
 30
0.0
 40
  0.0500
 1
31
 0
LINE
 8
PARTS
 10
 12.2000
 20
  7.2000
 30
0.0
 11
 11.9000
 21
  7.2000
 31
0.0
 0
LINE
 8
PARTS
 10
 12.2250
 20
  7.2250
 30
0.0
 11
 12.1750
 21
  7.1750
 31
0.0
 0
LINE
 8
PARTS
 10
 12.1750
 20
  7.2250
 30
0.0
 11
 12.2250
 21
  7.1750
 31
0.0
 0
TEXT
 8
PARTS
 10
 11.6500
 20
  7.1750
 30
0.0
 40
  0.0500
 1
IO18
 0
TEXT
 8
PARTS
 10
 11.9600
 20
  7.2300
 30
0.0
 40
  0.0500
 1
30
 0
LINE
 8
PARTS
 10
 12.2000
 20
  7.1000
 30
0.0
 11
 11.9000
 21
  7.1000
 31
0.0
 0
LINE
 8
PARTS
 10
 12.2250
 20
  7.1250
 30
0.0
 11
 12.1750
 21
  7.0750
 31
0.0
 0
LINE
 8
PARTS
 10
 12.1750
 20
  7.1250
 30
0.0
 11
 12.2250
 21
  7.0750
 31
0.0
 0
TEXT
 8
PARTS
 10
 11.6900
 20
  7.0750
 30
0.0
 40
  0.0500
 1
IO5
 0
TEXT
 8
PARTS
 10
 11.9600
 20
  7.1300
 30
0.0
 40
  0.0500
 1
29
 0
LINE
 8
PARTS
 10
 12.2000
 20
  7.0000
 30
0.0
 11
 11.9000
 21
  7.0000
 31
0.0
 0
LINE
 8
PARTS
 10
 12.2250
 20
  7.0250
 30
0.0
 11
 12.1750
 21
  6.9750
 31
0.0
 0
LINE
 8
PARTS
 10
 12.1750
 20
  7.0250
 30
0.0
 11
 12.2250
 21
  6.9750
 31
0.0
 0
TEXT
 8
PARTS
 10
 11.6500
 20
  6.9750
 30
0.0
 40
  0.0500
 1
IO17
 0
TEXT
 8
PARTS
 10
 11.9600
 20
  7.0300
 30
0.0
 40
  0.0500
 1
28
 0
LINE
 8
PARTS
 10
 12.2000
 20
  6.9000
 30
0.0
 11
 11.9000
 21
  6.9000
 31
0.0
 0
LINE
 8
PARTS
 10
 12.2250
 20
  6.9250
 30
0.0
 11
 12.1750
 21
  6.8750
 31
0.0
 0
LINE
 8
PARTS
 10
 12.1750
 20
  6.9250
 30
0.0
 11
 12.2250
 21
  6.8750
 31
0.0
 0
TEXT
 8
PARTS
 10
 11.6500
 20
  6.8750
 30
0.0
 40
  0.0500
 1
IO16
 0
TEXT
 8
PARTS
 10
 11.9600
 20
  6.9300
 30
0.0
 40
  0.0500
 1
27
 0
LINE
 8
PARTS
 10
 12.2000
 20
  6.8000
 30
0.0
 11
 11.9000
 21
  6.8000
 31
0.0
 0
LINE
 8
PARTS
 10
 12.2250
 20
  6.8250
 30
0.0
 11
 12.1750
 21
  6.7750
 31
0.0
 0
LINE
 8
PARTS
 10
 12.1750
 20
  6.8250
 30
0.0
 11
 12.2250
 21
  6.7750
 31
0.0
 0
TEXT
 8
PARTS
 10
 11.6900
 20
  6.7750
 30
0.0
 40
  0.0500
 1
IO4
 0
TEXT
 8
PARTS
 10
 11.9600
 20
  6.8300
 30
0.0
 40
  0.0500
 1
26
 0
LINE
 8
PARTS
 10
 12.2000
 20
  6.7000
 30
0.0
 11
 11.9000
 21
  6.7000
 31
0.0
 0
TEXT
 8
PARTS
 10
 11.6900
 20
  6.6750
 30
0.0
 40
  0.0500
 1
IO0
 0
TEXT
 8
PARTS
 10
 11.9600
 20
  6.7300
 30
0.0
 40
  0.0500
 1
25
 0
POLYLINE
 8
PARTS
 66
1
 70
1
 10
0.0
 20
0.0
 30
0.0
 0
VERTEX
 8
PARTS
 10
 10.5000
 20
  8.1000
 30
0.0
 0
VERTEX
 8
PARTS
 10
 11.9000
 20
  8.1000
 30
0.0
 0
VERTEX
 8
PARTS
 10
 11.9000
 20
  6.3000
 30
0.0
 0
VERTEX
 8
PARTS
 10
 10.5000
 20
  6.3000
 30
0.0
 0
SEQEND
 8
PARTS
 0
TEXT
 8
PARTTEXT
 10
  2.6200
 20
  5.8986
 30
0.0
 40
  0.0514
 1
S3
 0
TEXT
 8
PARTTEXT
 10
  2.3000
 20
  6.6786
 30
0.0
 40
  0.0514
 1
IMS-C20B
 0
LINE
 8
PARTS
 10
  3.1000
 20
  6.2000
 30
0.0
 11
  2.8000
 21
  6.2000
 31
0.0
 0
TEXT
 8
PARTS
 10
  2.6700
 20
  6.1750
 30
0.0
 40
  0.0500
 1
+
 0
TEXT
 8
PARTS
 10
  2.8600
 20
  6.2300
 30
0.0
 40
  0.0500
 1
1
 0
LINE
 8
PARTS
 10
  3.1000
 20
  6.4000
 30
0.0
 11
  2.8000
 21
  6.4000
 31
0.0
 0
TEXT
 8
PARTS
 10
  2.6700
 20
  6.3750
 30
0.0
 40
  0.0500
 1
-
 0
TEXT
 8
PARTS
 10
  2.8600
 20
  6.4300
 30
0.0
 40
  0.0500
 1
2
 0
POLYLINE
 8
PARTS
 66
1
 70
1
 10
0.0
 20
0.0
 30
0.0
 0
VERTEX
 8
PARTS
 10
  2.8000
 20
  6.3000
 30
0.0
 42
  0.0985
 0
VERTEX
 8
PARTS
 10
  2.7772
 20
  6.4148
 30
0.0
 42
  0.0985
 0
VERTEX
 8
PARTS
 10
  2.7121
 20
  6.5121
 30
0.0
 42
  0.0985
 0
VERTEX
 8
PARTS
 10
  2.6148
 20
  6.5772
 30
0.0
 42
  0.0985
 0
VERTEX
 8
PARTS
 10
  2.5000
 20
  6.6000
 30
0.0
 42
  0.0985
 0
VERTEX
 8
PARTS
 10
  2.3852
 20
  6.5772
 30
0.0
 42
  0.0985
 0
VERTEX
 8
PARTS
 10
  2.2879
 20
  6.5121
 30
0.0
 42
  0.0985
 0
VERTEX
 8
PARTS
 10
  2.2228
 20
  6.4148
 30
0.0
 42
  0.0985
 0
VERTEX
 8
PARTS
 10
  2.2000
 20
  6.3000
 30
0.0
 42
  0.0985
 0
VERTEX
 8
PARTS
 10
  2.2228
 20
  6.1852
 30
0.0
 42
  0.0985
 0
VERTEX
 8
PARTS
 10
  2.2879
 20
  6.0879
 30
0.0
 42
  0.0985
 0
VERTEX
 8
PARTS
 10
  2.3852
 20
  6.0228
 30
0.0
 42
  0.0985
 0
VERTEX
 8
PARTS
 10
  2.5000
 20
  6.0000
 30
0.0
 42
  0.0985
 0
VERTEX
 8
PARTS
 10
  2.6148
 20
  6.0228
 30
0.0
 42
  0.0985
 0
VERTEX
 8
PARTS
 10
  2.7121
 20
  6.0879
 30
0.0
 42
  0.0985
 0
VERTEX
 8
PARTS
 10
  2.7772
 20
  6.1852
 30
0.0
 42
  0.0985
 0
SEQEND
 8
PARTS
 0
POLYLINE
 8
PARTS
 66
1
 10
0.0
 20
0.0
 30
0.0
 0
VERTEX
 8
PARTS
 10
  2.8000
 20
  6.2000
 30
0.0
 0
VERTEX
 8
PARTS
 10
  2.7800
 20
  6.2000
 30
0.0
 0
SEQEND
 8
PARTS
 0
POLYLINE
 8
PARTS
 66
1
 10
0.0
 20
0.0
 30
0.0
 0
VERTEX
 8
PARTS
 10
  2.8000
 20
  6.4000
 30
0.0
 0
VERTEX
 8
PARTS
 10
  2.7800
 20
  6.4000
 30
0.0
 0
SEQEND
 8
PARTS
 0
TEXT
 8
PARTTEXT
 10
  1.8600
 20
  3.9186
 30
0.0
 40
  0.0514
 1
C9
 0
TEXT
 8
PARTTEXT
 10
  1.8600
 20
  3.7986
 30
0.0
 40
  0.0514
 1
0.1uF
 0
LINE
 8
PARTS
 10
  1.7000
 20
  4.1000
 30
0.0
 11
  1.7000
 21
  4.0000
 31
0.0
 0
LINE
 8
PARTS
 10
  1.7000
 20
  3.8000
 30
0.0
 11
  1.7000
 21
  3.9000
 31
0.0
 0
POLYLINE
 8
PARTS
 66
1
 10
0.0
 20
0.0
 30
0.0
 0
VERTEX
 8
PARTS
 10
  1.7000
 20
  4.0000
 30
0.0
 0
VERTEX
 8
PARTS
 10
  1.7000
 20
  3.9800
 30
0.0
 0
SEQEND
 8
PARTS
 0
POLYLINE
 8
PARTS
 66
1
 10
0.0
 20
0.0
 30
0.0
 0
VERTEX
 8
PARTS
 10
  1.6100
 20
  3.9300
 30
0.0
 0
VERTEX
 8
PARTS
 10
  1.7900
 20
  3.9300
 30
0.0
 0
SEQEND
 8
PARTS
 0
POLYLINE
 8
PARTS
 66
1
 10
0.0
 20
0.0
 30
0.0
 0
VERTEX
 8
PARTS
 10
  1.6100
 20
  3.9800
 30
0.0
 0
VERTEX
 8
PARTS
 10
  1.7900
 20
  3.9800
 30
0.0
 0
SEQEND
 8
PARTS
 0
POLYLINE
 8
PARTS
 66
1
 10
0.0
 20
0.0
 30
0.0
 0
VERTEX
 8
PARTS
 10
  1.7000
 20
  3.9000
 30
0.0
 0
VERTEX
 8
PARTS
 10
  1.7000
 20
  3.9300
 30
0.0
 0
SEQEND
 8
PARTS
 0
TEXT
 8
PARTTEXT
 10
  6.4000
 20
  2.5386
 30
0.0
 40
  0.0514
 1
R10
 0
TEXT
 8
PARTTEXT
 10
  6.4000
 20
  2.4186
 30
0.0
 40
  0.0514
 1
50k
 0
LINE
 8
PARTS
 10
  6.3000
 20
  2.8000
 30
0.0
 11
  6.3000
 21
  2.7000
 31
0.0
 0
LINE
 8
PARTS
 10
  6.3000
 20
  2.3000
 30
0.0
 11
  6.3000
 21
  2.4000
 31
0.0
 0
POLYLINE
 8
PARTS
 66
1
 10
0.0
 20
0.0
 30
0.0
 0
VERTEX
 8
PARTS
 10
  6.3000
 20
  2.7000
 30
0.0
 0
VERTEX
 8
PARTS
 10
  6.3300
 20
  2.6700
 30
0.0
 0
SEQEND
 8
PARTS
 0
POLYLINE
 8
PARTS
 66
1
 10
0.0
 20
0.0
 30
0.0
 0
VERTEX
 8
PARTS
 10
  6.3300
 20
  2.6700
 30
0.0
 0
VERTEX
 8
PARTS
 10
  6.2700
 20
  2.6100
 30
0.0
 0
SEQEND
 8
PARTS
 0
POLYLINE
 8
PARTS
 66
1
 10
0.0
 20
0.0
 30
0.0
 0
VERTEX
 8
PARTS
 10
  6.2700
 20
  2.6100
 30
0.0
 0
VERTEX
 8
PARTS
 10
  6.3300
 20
  2.5500
 30
0.0
 0
SEQEND
 8
PARTS
 0
POLYLINE
 8
PARTS
 66
1
 10
0.0
 20
0.0
 30
0.0
 0
VERTEX
 8
PARTS
 10
  6.3300
 20
  2.5500
 30
0.0
 0
VERTEX
 8
PARTS
 10
  6.2700
 20
  2.4900
 30
0.0
 0
SEQEND
 8
PARTS
 0
POLYLINE
 8
PARTS
 66
1
 10
0.0
 20
0.0
 30
0.0
 0
VERTEX
 8
PARTS
 10
  6.2700
 20
  2.4900
 30
0.0
 0
VERTEX
 8
PARTS
 10
  6.3300
 20
  2.4300
 30
0.0
 0
SEQEND
 8
PARTS
 0
POLYLINE
 8
PARTS
 66
1
 10
0.0
 20
0.0
 30
0.0
 0
VERTEX
 8
PARTS
 10
  6.3300
 20
  2.4300
 30
0.0
 0
VERTEX
 8
PARTS
 10
  6.3000
 20
  2.4000
 30
0.0
 0
SEQEND
 8
PARTS
 0
TEXT
 8
PARTTEXT
 10
  3.7000
 20
  2.6386
 30
0.0
 40
  0.0514
 1
R9
 0
TEXT
 8
PARTTEXT
 10
  3.7000
 20
  2.5186
 30
0.0
 40
  0.0514
 1
50k
 0
LINE
 8
PARTS
 10
  3.6000
 20
  2.3000
 30
0.0
 11
  3.6000
 21
  2.4000
 31
0.0
 0
LINE
 8
PARTS
 10
  3.6000
 20
  2.8000
 30
0.0
 11
  3.6000
 21
  2.7000
 31
0.0
 0
POLYLINE
 8
PARTS
 66
1
 10
0.0
 20
0.0
 30
0.0
 0
VERTEX
 8
PARTS
 10
  3.6000
 20
  2.4000
 30
0.0
 0
VERTEX
 8
PARTS
 10
  3.6300
 20
  2.4300
 30
0.0
 0
SEQEND
 8
PARTS
 0
POLYLINE
 8
PARTS
 66
1
 10
0.0
 20
0.0
 30
0.0
 0
VERTEX
 8
PARTS
 10
  3.6300
 20
  2.4300
 30
0.0
 0
VERTEX
 8
PARTS
 10
  3.5700
 20
  2.4900
 30
0.0
 0
SEQEND
 8
PARTS
 0
POLYLINE
 8
PARTS
 66
1
 10
0.0
 20
0.0
 30
0.0
 0
VERTEX
 8
PARTS
 10
  3.5700
 20
  2.4900
 30
0.0
 0
VERTEX
 8
PARTS
 10
  3.6300
 20
  2.5500
 30
0.0
 0
SEQEND
 8
PARTS
 0
POLYLINE
 8
PARTS
 66
1
 10
0.0
 20
0.0
 30
0.0
 0
VERTEX
 8
PARTS
 10
  3.6300
 20
  2.5500
 30
0.0
 0
VERTEX
 8
PARTS
 10
  3.5700
 20
  2.6100
 30
0.0
 0
SEQEND
 8
PARTS
 0
POLYLINE
 8
PARTS
 66
1
 10
0.0
 20
0.0
 30
0.0
 0
VERTEX
 8
PARTS
 10
  3.5700
 20
  2.6100
 30
0.0
 0
VERTEX
 8
PARTS
 10
  3.6300
 20
  2.6700
 30
0.0
 0
SEQEND
 8
PARTS
 0
POLYLINE
 8
PARTS
 66
1
 10
0.0
 20
0.0
 30
0.0
 0
VERTEX
 8
PARTS
 10
  3.6300
 20
  2.6700
 30
0.0
 0
VERTEX
 8
PARTS
 10
  3.6000
 20
  2.7000
 30
0.0
 0
SEQEND
 8
PARTS
 0
TEXT
 8
PARTTEXT
 10
  1.7600
 20
  7.8186
 30
0.0
 40
  0.0514
 1
C4
 0
TEXT
 8
PARTTEXT
 10
  1.7600
 20
  7.6986
 30
0.0
 40
  0.0514
 1
0.1uF
 0
LINE
 8
PARTS
 10
  1.6000
 20
  8.0000
 30
0.0
 11
  1.6000
 21
  7.9000
 31
0.0
 0
LINE
 8
PARTS
 10
  1.6000
 20
  7.7000
 30
0.0
 11
  1.6000
 21
  7.8000
 31
0.0
 0
POLYLINE
 8
PARTS
 66
1
 10
0.0
 20
0.0
 30
0.0
 0
VERTEX
 8
PARTS
 10
  1.6000
 20
  7.9000
 30
0.0
 0
VERTEX
 8
PARTS
 10
  1.6000
 20
  7.8800
 30
0.0
 0
SEQEND
 8
PARTS
 0
POLYLINE
 8
PARTS
 66
1
 10
0.0
 20
0.0
 30
0.0
 0
VERTEX
 8
PARTS
 10
  1.5100
 20
  7.8300
 30
0.0
 0
VERTEX
 8
PARTS
 10
  1.6900
 20
  7.8300
 30
0.0
 0
SEQEND
 8
PARTS
 0
POLYLINE
 8
PARTS
 66
1
 10
0.0
 20
0.0
 30
0.0
 0
VERTEX
 8
PARTS
 10
  1.5100
 20
  7.8800
 30
0.0
 0
VERTEX
 8
PARTS
 10
  1.6900
 20
  7.8800
 30
0.0
 0
SEQEND
 8
PARTS
 0
POLYLINE
 8
PARTS
 66
1
 10
0.0
 20
0.0
 30
0.0
 0
VERTEX
 8
PARTS
 10
  1.6000
 20
  7.8000
 30
0.0
 0
VERTEX
 8
PARTS
 10
  1.6000
 20
  7.8300
 30
0.0
 0
SEQEND
 8
PARTS
 0
TEXT
 8
PARTTEXT
 10
  6.3000
 20
  7.9186
 30
0.0
 40
  0.0514
 1
R3
 0
TEXT
 8
PARTTEXT
 10
  6.3000
 20
  7.7986
 30
0.0
 40
  0.0514
 1
50k
 0
LINE
 8
PARTS
 10
  6.2000
 20
  7.6000
 30
0.0
 11
  6.2000
 21
  7.7000
 31
0.0
 0
LINE
 8
PARTS
 10
  6.2000
 20
  8.1000
 30
0.0
 11
  6.2000
 21
  8.0000
 31
0.0
 0
POLYLINE
 8
PARTS
 66
1
 10
0.0
 20
0.0
 30
0.0
 0
VERTEX
 8
PARTS
 10
  6.2000
 20
  7.7000
 30
0.0
 0
VERTEX
 8
PARTS
 10
  6.2300
 20
  7.7300
 30
0.0
 0
SEQEND
 8
PARTS
 0
POLYLINE
 8
PARTS
 66
1
 10
0.0
 20
0.0
 30
0.0
 0
VERTEX
 8
PARTS
 10
  6.2300
 20
  7.7300
 30
0.0
 0
VERTEX
 8
PARTS
 10
  6.1700
 20
  7.7900
 30
0.0
 0
SEQEND
 8
PARTS
 0
POLYLINE
 8
PARTS
 66
1
 10
0.0
 20
0.0
 30
0.0
 0
VERTEX
 8
PARTS
 10
  6.1700
 20
  7.7900
 30
0.0
 0
VERTEX
 8
PARTS
 10
  6.2300
 20
  7.8500
 30
0.0
 0
SEQEND
 8
PARTS
 0
POLYLINE
 8
PARTS
 66
1
 10
0.0
 20
0.0
 30
0.0
 0
VERTEX
 8
PARTS
 10
  6.2300
 20
  7.8500
 30
0.0
 0
VERTEX
 8
PARTS
 10
  6.1700
 20
  7.9100
 30
0.0
 0
SEQEND
 8
PARTS
 0
POLYLINE
 8
PARTS
 66
1
 10
0.0
 20
0.0
 30
0.0
 0
VERTEX
 8
PARTS
 10
  6.1700
 20
  7.9100
 30
0.0
 0
VERTEX
 8
PARTS
 10
  6.2300
 20
  7.9700
 30
0.0
 0
SEQEND
 8
PARTS
 0
POLYLINE
 8
PARTS
 66
1
 10
0.0
 20
0.0
 30
0.0
 0
VERTEX
 8
PARTS
 10
  6.2300
 20
  7.9700
 30
0.0
 0
VERTEX
 8
PARTS
 10
  6.2000
 20
  8.0000
 30
0.0
 0
SEQEND
 8
PARTS
 0
TEXT
 8
PARTTEXT
 10
  2.3000
 20
  7.4186
 30
0.0
 40
  0.0514
 1
C6
 0
TEXT
 8
PARTTEXT
 10
  2.5000
 20
  7.3186
 30
0.0
 40
  0.0514
 1
0.1uF
 0
LINE
 8
PARTS
 10
  2.6000
 20
  7.4000
 30
0.0
 11
  2.5000
 21
  7.4000
 31
0.0
 0
LINE
 8
PARTS
 10
  2.3000
 20
  7.4000
 30
0.0
 11
  2.4000
 21
  7.4000
 31
0.0
 0
POLYLINE
 8
PARTS
 66
1
 10
0.0
 20
0.0
 30
0.0
 0
VERTEX
 8
PARTS
 10
  2.5000
 20
  7.4000
 30
0.0
 0
VERTEX
 8
PARTS
 10
  2.4800
 20
  7.4000
 30
0.0
 0
SEQEND
 8
PARTS
 0
POLYLINE
 8
PARTS
 66
1
 10
0.0
 20
0.0
 30
0.0
 0
VERTEX
 8
PARTS
 10
  2.4300
 20
  7.3100
 30
0.0
 0
VERTEX
 8
PARTS
 10
  2.4300
 20
  7.4900
 30
0.0
 0
SEQEND
 8
PARTS
 0
POLYLINE
 8
PARTS
 66
1
 10
0.0
 20
0.0
 30
0.0
 0
VERTEX
 8
PARTS
 10
  2.4800
 20
  7.3100
 30
0.0
 0
VERTEX
 8
PARTS
 10
  2.4800
 20
  7.4900
 30
0.0
 0
SEQEND
 8
PARTS
 0
POLYLINE
 8
PARTS
 66
1
 10
0.0
 20
0.0
 30
0.0
 0
VERTEX
 8
PARTS
 10
  2.4000
 20
  7.4000
 30
0.0
 0
VERTEX
 8
PARTS
 10
  2.4300
 20
  7.4000
 30
0.0
 0
SEQEND
 8
PARTS
 0
TEXT
 8
PARTTEXT
 10
  1.7600
 20
  6.7186
 30
0.0
 40
  0.0514
 1
C7
 0
TEXT
 8
PARTTEXT
 10
  1.7600
 20
  6.5986
 30
0.0
 40
  0.0514
 1
0.1uF
 0
LINE
 8
PARTS
 10
  1.6000
 20
  6.9000
 30
0.0
 11
  1.6000
 21
  6.8000
 31
0.0
 0
LINE
 8
PARTS
 10
  1.6000
 20
  6.6000
 30
0.0
 11
  1.6000
 21
  6.7000
 31
0.0
 0
POLYLINE
 8
PARTS
 66
1
 10
0.0
 20
0.0
 30
0.0
 0
VERTEX
 8
PARTS
 10
  1.6000
 20
  6.8000
 30
0.0
 0
VERTEX
 8
PARTS
 10
  1.6000
 20
  6.7800
 30
0.0
 0
SEQEND
 8
PARTS
 0
POLYLINE
 8
PARTS
 66
1
 10
0.0
 20
0.0
 30
0.0
 0
VERTEX
 8
PARTS
 10
  1.5100
 20
  6.7300
 30
0.0
 0
VERTEX
 8
PARTS
 10
  1.6900
 20
  6.7300
 30
0.0
 0
SEQEND
 8
PARTS
 0
POLYLINE
 8
PARTS
 66
1
 10
0.0
 20
0.0
 30
0.0
 0
VERTEX
 8
PARTS
 10
  1.5100
 20
  6.7800
 30
0.0
 0
VERTEX
 8
PARTS
 10
  1.6900
 20
  6.7800
 30
0.0
 0
SEQEND
 8
PARTS
 0
POLYLINE
 8
PARTS
 66
1
 10
0.0
 20
0.0
 30
0.0
 0
VERTEX
 8
PARTS
 10
  1.6000
 20
  6.7000
 30
0.0
 0
VERTEX
 8
PARTS
 10
  1.6000
 20
  6.7300
 30
0.0
 0
SEQEND
 8
PARTS
 0
TEXT
 8
PARTTEXT
 10
 13.7300
 20
  2.6186
 30
0.0
 40
  0.0514
 1
C15
 0
TEXT
 8
PARTTEXT
 10
 13.3400
 20
  2.5186
 30
0.0
 40
  0.0514
 1
1uF
 0
LINE
 8
PARTS
 10
 13.8000
 20
  2.6000
 30
0.0
 11
 13.7000
 21
  2.6000
 31
0.0
 0
LINE
 8
PARTS
 10
 13.4000
 20
  2.6000
 30
0.0
 11
 13.5000
 21
  2.6000
 31
0.0
 0
POLYLINE
 8
PARTS
 66
1
 10
0.0
 20
0.0
 30
0.0
 0
VERTEX
 8
PARTS
 10
 13.5600
 20
  2.6000
 30
0.0
 0
VERTEX
 8
PARTS
 10
 13.5000
 20
  2.6000
 30
0.0
 0
SEQEND
 8
PARTS
 0
POLYLINE
 8
PARTS
 66
1
 10
0.0
 20
0.0
 30
0.0
 0
VERTEX
 8
PARTS
 10
 13.6000
 20
  2.5000
 30
0.0
 0
VERTEX
 8
PARTS
 10
 13.6000
 20
  2.7000
 30
0.0
 0
SEQEND
 8
PARTS
 0
POLYLINE
 8
PARTS
 66
1
 10
0.0
 20
0.0
 30
0.0
 0
VERTEX
 8
PARTS
 10
 13.7000
 20
  2.6000
 30
0.0
 0
VERTEX
 8
PARTS
 10
 13.6000
 20
  2.6000
 30
0.0
 0
SEQEND
 8
PARTS
 0
POLYLINE
 8
PARTS
 66
1
 10
0.0
 20
0.0
 30
0.0
 0
VERTEX
 8
PARTS
 10
 13.5300
 20
  2.7000
 30
0.0
 42
 -0.1654
 0
VERTEX
 8
PARTS
 10
 13.5600
 20
  2.6000
 30
0.0
 0
SEQEND
 8
PARTS
 0
POLYLINE
 8
PARTS
 66
1
 10
0.0
 20
0.0
 30
0.0
 0
VERTEX
 8
PARTS
 10
 13.5600
 20
  2.6000
 30
0.0
 42
 -0.1654
 0
VERTEX
 8
PARTS
 10
 13.5300
 20
  2.5000
 30
0.0
 0
SEQEND
 8
PARTS
 0
TEXT
 8
PARTTEXT
 10
 13.6086
 20
  2.7500
 30
0.0
 40
  0.0514
 50
270.0000
 1
+
 0
TEXT
 8
PARTTEXT
 10
  7.0700
 20
  1.9986
 30
0.0
 40
  0.0514
 1
S8
 0
TEXT
 8
PARTTEXT
 10
  7.0800
 20
  2.7786
 30
0.0
 40
  0.0514
 1
IMS-C20B
 0
LINE
 8
PARTS
 10
  6.7000
 20
  2.3000
 30
0.0
 11
  7.0000
 21
  2.3000
 31
0.0
 0
TEXT
 8
PARTS
 10
  7.0900
 20
  2.2750
 30
0.0
 40
  0.0500
 1
+
 0
TEXT
 8
PARTS
 10
  6.9000
 20
  2.3300
 30
0.0
 40
  0.0500
 1
1
 0
LINE
 8
PARTS
 10
  6.7000
 20
  2.5000
 30
0.0
 11
  7.0000
 21
  2.5000
 31
0.0
 0
TEXT
 8
PARTS
 10
  7.0900
 20
  2.4750
 30
0.0
 40
  0.0500
 1
-
 0
TEXT
 8
PARTS
 10
  6.9000
 20
  2.5300
 30
0.0
 40
  0.0500
 1
2
 0
POLYLINE
 8
PARTS
 66
1
 70
1
 10
0.0
 20
0.0
 30
0.0
 0
VERTEX
 8
PARTS
 10
  7.6000
 20
  2.4000
 30
0.0
 42
  0.0985
 0
VERTEX
 8
PARTS
 10
  7.5772
 20
  2.5148
 30
0.0
 42
  0.0985
 0
VERTEX
 8
PARTS
 10
  7.5121
 20
  2.6121
 30
0.0
 42
  0.0985
 0
VERTEX
 8
PARTS
 10
  7.4148
 20
  2.6772
 30
0.0
 42
  0.0985
 0
VERTEX
 8
PARTS
 10
  7.3000
 20
  2.7000
 30
0.0
 42
  0.0985
 0
VERTEX
 8
PARTS
 10
  7.1852
 20
  2.6772
 30
0.0
 42
  0.0985
 0
VERTEX
 8
PARTS
 10
  7.0879
 20
  2.6121
 30
0.0
 42
  0.0985
 0
VERTEX
 8
PARTS
 10
  7.0228
 20
  2.5148
 30
0.0
 42
  0.0985
 0
VERTEX
 8
PARTS
 10
  7.0000
 20
  2.4000
 30
0.0
 42
  0.0985
 0
VERTEX
 8
PARTS
 10
  7.0228
 20
  2.2852
 30
0.0
 42
  0.0985
 0
VERTEX
 8
PARTS
 10
  7.0879
 20
  2.1879
 30
0.0
 42
  0.0985
 0
VERTEX
 8
PARTS
 10
  7.1852
 20
  2.1228
 30
0.0
 42
  0.0985
 0
VERTEX
 8
PARTS
 10
  7.3000
 20
  2.1000
 30
0.0
 42
  0.0985
 0
VERTEX
 8
PARTS
 10
  7.4148
 20
  2.1228
 30
0.0
 42
  0.0985
 0
VERTEX
 8
PARTS
 10
  7.5121
 20
  2.1879
 30
0.0
 42
  0.0985
 0
VERTEX
 8
PARTS
 10
  7.5772
 20
  2.2852
 30
0.0
 42
  0.0985
 0
SEQEND
 8
PARTS
 0
POLYLINE
 8
PARTS
 66
1
 10
0.0
 20
0.0
 30
0.0
 0
VERTEX
 8
PARTS
 10
  7.0000
 20
  2.3000
 30
0.0
 0
VERTEX
 8
PARTS
 10
  7.0200
 20
  2.3000
 30
0.0
 0
SEQEND
 8
PARTS
 0
POLYLINE
 8
PARTS
 66
1
 10
0.0
 20
0.0
 30
0.0
 0
VERTEX
 8
PARTS
 10
  7.0000
 20
  2.5000
 30
0.0
 0
VERTEX
 8
PARTS
 10
  7.0200
 20
  2.5000
 30
0.0
 0
SEQEND
 8
PARTS
 0
TEXT
 8
PARTTEXT
 10
  2.3000
 20
  3.7886
 30
0.0
 40
  0.0514
 1
S5
 0
TEXT
 8
PARTTEXT
 10
  2.3000
 20
  4.5986
 30
0.0
 40
  0.0514
 1
IMS-C20B
 0
LINE
 8
PARTS
 10
  3.2000
 20
  4.3000
 30
0.0
 11
  2.9000
 21
  4.3000
 31
0.0
 0
TEXT
 8
PARTS
 10
  2.7700
 20
  4.2750
 30
0.0
 40
  0.0500
 1
+
 0
TEXT
 8
PARTS
 10
  2.9600
 20
  4.3300
 30
0.0
 40
  0.0500
 1
1
 0
LINE
 8
PARTS
 10
  3.2000
 20
  4.1000
 30
0.0
 11
  2.9000
 21
  4.1000
 31
0.0
 0
TEXT
 8
PARTS
 10
  2.7700
 20
  4.0750
 30
0.0
 40
  0.0500
 1
-
 0
TEXT
 8
PARTS
 10
  2.9600
 20
  4.1300
 30
0.0
 40
  0.0500
 1
2
 0
POLYLINE
 8
PARTS
 66
1
 70
1
 10
0.0
 20
0.0
 30
0.0
 0
VERTEX
 8
PARTS
 10
  2.9000
 20
  4.2000
 30
0.0
 42
  0.0985
 0
VERTEX
 8
PARTS
 10
  2.8772
 20
  4.3148
 30
0.0
 42
  0.0985
 0
VERTEX
 8
PARTS
 10
  2.8121
 20
  4.4121
 30
0.0
 42
  0.0985
 0
VERTEX
 8
PARTS
 10
  2.7148
 20
  4.4772
 30
0.0
 42
  0.0985
 0
VERTEX
 8
PARTS
 10
  2.6000
 20
  4.5000
 30
0.0
 42
  0.0985
 0
VERTEX
 8
PARTS
 10
  2.4852
 20
  4.4772
 30
0.0
 42
  0.0985
 0
VERTEX
 8
PARTS
 10
  2.3879
 20
  4.4121
 30
0.0
 42
  0.0985
 0
VERTEX
 8
PARTS
 10
  2.3228
 20
  4.3148
 30
0.0
 42
  0.0985
 0
VERTEX
 8
PARTS
 10
  2.3000
 20
  4.2000
 30
0.0
 42
  0.0985
 0
VERTEX
 8
PARTS
 10
  2.3228
 20
  4.0852
 30
0.0
 42
  0.0985
 0
VERTEX
 8
PARTS
 10
  2.3879
 20
  3.9879
 30
0.0
 42
  0.0985
 0
VERTEX
 8
PARTS
 10
  2.4852
 20
  3.9228
 30
0.0
 42
  0.0985
 0
VERTEX
 8
PARTS
 10
  2.6000
 20
  3.9000
 30
0.0
 42
  0.0985
 0
VERTEX
 8
PARTS
 10
  2.7148
 20
  3.9228
 30
0.0
 42
  0.0985
 0
VERTEX
 8
PARTS
 10
  2.8121
 20
  3.9879
 30
0.0
 42
  0.0985
 0
VERTEX
 8
PARTS
 10
  2.8772
 20
  4.0852
 30
0.0
 42
  0.0985
 0
SEQEND
 8
PARTS
 0
POLYLINE
 8
PARTS
 66
1
 10
0.0
 20
0.0
 30
0.0
 0
VERTEX
 8
PARTS
 10
  2.9000
 20
  4.3000
 30
0.0
 0
VERTEX
 8
PARTS
 10
  2.8800
 20
  4.3000
 30
0.0
 0
SEQEND
 8
PARTS
 0
POLYLINE
 8
PARTS
 66
1
 10
0.0
 20
0.0
 30
0.0
 0
VERTEX
 8
PARTS
 10
  2.9000
 20
  4.1000
 30
0.0
 0
VERTEX
 8
PARTS
 10
  2.8800
 20
  4.1000
 30
0.0
 0
SEQEND
 8
PARTS
 0
TEXT
 8
PARTTEXT
 10
  4.5700
 20
  3.7586
 30
0.0
 40
  0.0514
 1
U3
 0
TEXT
 8
PARTTEXT
 10
  4.5800
 20
  2.6786
 30
0.0
 40
  0.0514
 1
LM324
 0
LINE
 8
PARTS
 10
  4.2000
 20
  3.6000
 30
0.0
 11
  4.5000
 21
  3.6000
 31
0.0
 0
TEXT
 8
PARTS
 10
  4.5900
 20
  3.5750
 30
0.0
 40
  0.0500
 1
IOUT
 0
TEXT
 8
PARTS
 10
  4.4000
 20
  3.6300
 30
0.0
 40
  0.0500
 1
1
 0
LINE
 8
PARTS
 10
  4.2000
 20
  3.5000
 30
0.0
 11
  4.5000
 21
  3.5000
 31
0.0
 0
TEXT
 8
PARTS
 10
  4.5900
 20
  3.4750
 30
0.0
 40
  0.0500
 1
1IN-
 0
TEXT
 8
PARTS
 10
  4.4000
 20
  3.5300
 30
0.0
 40
  0.0500
 1
2
 0
LINE
 8
PARTS
 10
  4.2000
 20
  3.4000
 30
0.0
 11
  4.5000
 21
  3.4000
 31
0.0
 0
TEXT
 8
PARTS
 10
  4.5900
 20
  3.3750
 30
0.0
 40
  0.0500
 1
1IN+
 0
TEXT
 8
PARTS
 10
  4.4000
 20
  3.4300
 30
0.0
 40
  0.0500
 1
3
 0
LINE
 8
PARTS
 10
  4.2000
 20
  3.3000
 30
0.0
 11
  4.5000
 21
  3.3000
 31
0.0
 0
TEXT
 8
PARTS
 10
  4.5900
 20
  3.2750
 30
0.0
 40
  0.0500
 1
Vcc
 0
TEXT
 8
PARTS
 10
  4.4000
 20
  3.3300
 30
0.0
 40
  0.0500
 1
4
 0
LINE
 8
PARTS
 10
  4.2000
 20
  3.2000
 30
0.0
 11
  4.5000
 21
  3.2000
 31
0.0
 0
TEXT
 8
PARTS
 10
  4.5900
 20
  3.1750
 30
0.0
 40
  0.0500
 1
2IN+
 0
TEXT
 8
PARTS
 10
  4.4000
 20
  3.2300
 30
0.0
 40
  0.0500
 1
5
 0
LINE
 8
PARTS
 10
  4.2000
 20
  3.1000
 30
0.0
 11
  4.5000
 21
  3.1000
 31
0.0
 0
TEXT
 8
PARTS
 10
  4.5900
 20
  3.0750
 30
0.0
 40
  0.0500
 1
2IN-
 0
TEXT
 8
PARTS
 10
  4.4000
 20
  3.1300
 30
0.0
 40
  0.0500
 1
6
 0
LINE
 8
PARTS
 10
  4.2000
 20
  3.0000
 30
0.0
 11
  4.5000
 21
  3.0000
 31
0.0
 0
TEXT
 8
PARTS
 10
  4.5900
 20
  2.9750
 30
0.0
 40
  0.0500
 1
2OUT
 0
TEXT
 8
PARTS
 10
  4.4000
 20
  3.0300
 30
0.0
 40
  0.0500
 1
7
 0
LINE
 8
PARTS
 10
  5.6000
 20
  3.6000
 30
0.0
 11
  5.3000
 21
  3.6000
 31
0.0
 0
TEXT
 8
PARTS
 10
  5.0500
 20
  3.5750
 30
0.0
 40
  0.0500
 1
4OUT
 0
TEXT
 8
PARTS
 10
  5.3600
 20
  3.6300
 30
0.0
 40
  0.0500
 1
14
 0
LINE
 8
PARTS
 10
  5.6000
 20
  3.5000
 30
0.0
 11
  5.3000
 21
  3.5000
 31
0.0
 0
TEXT
 8
PARTS
 10
  5.0500
 20
  3.4750
 30
0.0
 40
  0.0500
 1
4IN-
 0
TEXT
 8
PARTS
 10
  5.3600
 20
  3.5300
 30
0.0
 40
  0.0500
 1
13
 0
LINE
 8
PARTS
 10
  5.6000
 20
  3.4000
 30
0.0
 11
  5.3000
 21
  3.4000
 31
0.0
 0
TEXT
 8
PARTS
 10
  5.0500
 20
  3.3750
 30
0.0
 40
  0.0500
 1
4IN+
 0
TEXT
 8
PARTS
 10
  5.3600
 20
  3.4300
 30
0.0
 40
  0.0500
 1
12
 0
LINE
 8
PARTS
 10
  5.6000
 20
  3.3000
 30
0.0
 11
  5.3000
 21
  3.3000
 31
0.0
 0
TEXT
 8
PARTS
 10
  5.0900
 20
  3.2750
 30
0.0
 40
  0.0500
 1
GND
 0
TEXT
 8
PARTS
 10
  5.3600
 20
  3.3300
 30
0.0
 40
  0.0500
 1
11
 0
LINE
 8
PARTS
 10
  5.6000
 20
  3.2000
 30
0.0
 11
  5.3000
 21
  3.2000
 31
0.0
 0
TEXT
 8
PARTS
 10
  5.0500
 20
  3.1750
 30
0.0
 40
  0.0500
 1
3IN+
 0
TEXT
 8
PARTS
 10
  5.3600
 20
  3.2300
 30
0.0
 40
  0.0500
 1
10
 0
LINE
 8
PARTS
 10
  5.6000
 20
  3.1000
 30
0.0
 11
  5.3000
 21
  3.1000
 31
0.0
 0
TEXT
 8
PARTS
 10
  5.0500
 20
  3.0750
 30
0.0
 40
  0.0500
 1
3IN-
 0
TEXT
 8
PARTS
 10
  5.3600
 20
  3.1300
 30
0.0
 40
  0.0500
 1
9
 0
LINE
 8
PARTS
 10
  5.6000
 20
  3.0000
 30
0.0
 11
  5.3000
 21
  3.0000
 31
0.0
 0
TEXT
 8
PARTS
 10
  5.0500
 20
  2.9750
 30
0.0
 40
  0.0500
 1
3OUT
 0
TEXT
 8
PARTS
 10
  5.3600
 20
  3.0300
 30
0.0
 40
  0.0500
 1
8
 0
POLYLINE
 8
PARTS
 66
1
 70
1
 10
0.0
 20
0.0
 30
0.0
 0
VERTEX
 8
PARTS
 10
  4.5000
 20
  3.7000
 30
0.0
 0
VERTEX
 8
PARTS
 10
  5.3000
 20
  3.7000
 30
0.0
 0
VERTEX
 8
PARTS
 10
  5.3000
 20
  2.8000
 30
0.0
 0
VERTEX
 8
PARTS
 10
  4.5000
 20
  2.8000
 30
0.0
 0
SEQEND
 8
PARTS
 0
TEXT
 8
PARTTEXT
 10
  6.9700
 20
  5.8986
 30
0.0
 40
  0.0514
 1
S4
 0
TEXT
 8
PARTTEXT
 10
  6.9800
 20
  6.6786
 30
0.0
 40
  0.0514
 1
IMS-C20B
 0
LINE
 8
PARTS
 10
  6.6000
 20
  6.2000
 30
0.0
 11
  6.9000
 21
  6.2000
 31
0.0
 0
TEXT
 8
PARTS
 10
  6.9900
 20
  6.1750
 30
0.0
 40
  0.0500
 1
+
 0
TEXT
 8
PARTS
 10
  6.8000
 20
  6.2300
 30
0.0
 40
  0.0500
 1
1
 0
LINE
 8
PARTS
 10
  6.6000
 20
  6.4000
 30
0.0
 11
  6.9000
 21
  6.4000
 31
0.0
 0
TEXT
 8
PARTS
 10
  6.9900
 20
  6.3750
 30
0.0
 40
  0.0500
 1
-
 0
TEXT
 8
PARTS
 10
  6.8000
 20
  6.4300
 30
0.0
 40
  0.0500
 1
2
 0
POLYLINE
 8
PARTS
 66
1
 70
1
 10
0.0
 20
0.0
 30
0.0
 0
VERTEX
 8
PARTS
 10
  7.5000
 20
  6.3000
 30
0.0
 42
  0.0985
 0
VERTEX
 8
PARTS
 10
  7.4772
 20
  6.4148
 30
0.0
 42
  0.0985
 0
VERTEX
 8
PARTS
 10
  7.4121
 20
  6.5121
 30
0.0
 42
  0.0985
 0
VERTEX
 8
PARTS
 10
  7.3148
 20
  6.5772
 30
0.0
 42
  0.0985
 0
VERTEX
 8
PARTS
 10
  7.2000
 20
  6.6000
 30
0.0
 42
  0.0985
 0
VERTEX
 8
PARTS
 10
  7.0852
 20
  6.5772
 30
0.0
 42
  0.0985
 0
VERTEX
 8
PARTS
 10
  6.9879
 20
  6.5121
 30
0.0
 42
  0.0985
 0
VERTEX
 8
PARTS
 10
  6.9228
 20
  6.4148
 30
0.0
 42
  0.0985
 0
VERTEX
 8
PARTS
 10
  6.9000
 20
  6.3000
 30
0.0
 42
  0.0985
 0
VERTEX
 8
PARTS
 10
  6.9228
 20
  6.1852
 30
0.0
 42
  0.0985
 0
VERTEX
 8
PARTS
 10
  6.9879
 20
  6.0879
 30
0.0
 42
  0.0985
 0
VERTEX
 8
PARTS
 10
  7.0852
 20
  6.0228
 30
0.0
 42
  0.0985
 0
VERTEX
 8
PARTS
 10
  7.2000
 20
  6.0000
 30
0.0
 42
  0.0985
 0
VERTEX
 8
PARTS
 10
  7.3148
 20
  6.0228
 30
0.0
 42
  0.0985
 0
VERTEX
 8
PARTS
 10
  7.4121
 20
  6.0879
 30
0.0
 42
  0.0985
 0
VERTEX
 8
PARTS
 10
  7.4772
 20
  6.1852
 30
0.0
 42
  0.0985
 0
SEQEND
 8
PARTS
 0
POLYLINE
 8
PARTS
 66
1
 10
0.0
 20
0.0
 30
0.0
 0
VERTEX
 8
PARTS
 10
  6.9000
 20
  6.2000
 30
0.0
 0
VERTEX
 8
PARTS
 10
  6.9200
 20
  6.2000
 30
0.0
 0
SEQEND
 8
PARTS
 0
POLYLINE
 8
PARTS
 66
1
 10
0.0
 20
0.0
 30
0.0
 0
VERTEX
 8
PARTS
 10
  6.9000
 20
  6.4000
 30
0.0
 0
VERTEX
 8
PARTS
 10
  6.9200
 20
  6.4000
 30
0.0
 0
SEQEND
 8
PARTS
 0
TEXT
 8
PARTTEXT
 10
  6.4000
 20
  4.0186
 30
0.0
 40
  0.0514
 1
R7
 0
TEXT
 8
PARTTEXT
 10
  6.4000
 20
  3.8986
 30
0.0
 40
  0.0514
 1
50k
 0
LINE
 8
PARTS
 10
  6.3000
 20
  3.7000
 30
0.0
 11
  6.3000
 21
  3.8000
 31
0.0
 0
LINE
 8
PARTS
 10
  6.3000
 20
  4.2000
 30
0.0
 11
  6.3000
 21
  4.1000
 31
0.0
 0
POLYLINE
 8
PARTS
 66
1
 10
0.0
 20
0.0
 30
0.0
 0
VERTEX
 8
PARTS
 10
  6.3000
 20
  3.8000
 30
0.0
 0
VERTEX
 8
PARTS
 10
  6.3300
 20
  3.8300
 30
0.0
 0
SEQEND
 8
PARTS
 0
POLYLINE
 8
PARTS
 66
1
 10
0.0
 20
0.0
 30
0.0
 0
VERTEX
 8
PARTS
 10
  6.3300
 20
  3.8300
 30
0.0
 0
VERTEX
 8
PARTS
 10
  6.2700
 20
  3.8900
 30
0.0
 0
SEQEND
 8
PARTS
 0
POLYLINE
 8
PARTS
 66
1
 10
0.0
 20
0.0
 30
0.0
 0
VERTEX
 8
PARTS
 10
  6.2700
 20
  3.8900
 30
0.0
 0
VERTEX
 8
PARTS
 10
  6.3300
 20
  3.9500
 30
0.0
 0
SEQEND
 8
PARTS
 0
POLYLINE
 8
PARTS
 66
1
 10
0.0
 20
0.0
 30
0.0
 0
VERTEX
 8
PARTS
 10
  6.3300
 20
  3.9500
 30
0.0
 0
VERTEX
 8
PARTS
 10
  6.2700
 20
  4.0100
 30
0.0
 0
SEQEND
 8
PARTS
 0
POLYLINE
 8
PARTS
 66
1
 10
0.0
 20
0.0
 30
0.0
 0
VERTEX
 8
PARTS
 10
  6.2700
 20
  4.0100
 30
0.0
 0
VERTEX
 8
PARTS
 10
  6.3300
 20
  4.0700
 30
0.0
 0
SEQEND
 8
PARTS
 0
POLYLINE
 8
PARTS
 66
1
 10
0.0
 20
0.0
 30
0.0
 0
VERTEX
 8
PARTS
 10
  6.3300
 20
  4.0700
 30
0.0
 0
VERTEX
 8
PARTS
 10
  6.3000
 20
  4.1000
 30
0.0
 0
SEQEND
 8
PARTS
 0
TEXT
 8
PARTTEXT
 10
 12.1600
 20
  3.6186
 30
0.0
 40
  0.0514
 1
C11
 0
TEXT
 8
PARTTEXT
 10
 12.1600
 20
  3.4986
 30
0.0
 40
  0.0514
 1
0.1uF
 0
LINE
 8
PARTS
 10
 12.0000
 20
  3.5000
 30
0.0
 11
 12.0000
 21
  3.6000
 31
0.0
 0
LINE
 8
PARTS
 10
 12.0000
 20
  3.8000
 30
0.0
 11
 12.0000
 21
  3.7000
 31
0.0
 0
POLYLINE
 8
PARTS
 66
1
 10
0.0
 20
0.0
 30
0.0
 0
VERTEX
 8
PARTS
 10
 12.0000
 20
  3.6000
 30
0.0
 0
VERTEX
 8
PARTS
 10
 12.0000
 20
  3.6200
 30
0.0
 0
SEQEND
 8
PARTS
 0
POLYLINE
 8
PARTS
 66
1
 10
0.0
 20
0.0
 30
0.0
 0
VERTEX
 8
PARTS
 10
 12.0900
 20
  3.6700
 30
0.0
 0
VERTEX
 8
PARTS
 10
 11.9100
 20
  3.6700
 30
0.0
 0
SEQEND
 8
PARTS
 0
POLYLINE
 8
PARTS
 66
1
 10
0.0
 20
0.0
 30
0.0
 0
VERTEX
 8
PARTS
 10
 12.0900
 20
  3.6200
 30
0.0
 0
VERTEX
 8
PARTS
 10
 11.9100
 20
  3.6200
 30
0.0
 0
SEQEND
 8
PARTS
 0
POLYLINE
 8
PARTS
 66
1
 10
0.0
 20
0.0
 30
0.0
 0
VERTEX
 8
PARTS
 10
 12.0000
 20
  3.7000
 30
0.0
 0
VERTEX
 8
PARTS
 10
 12.0000
 20
  3.6700
 30
0.0
 0
SEQEND
 8
PARTS
 0
TEXT
 8
PARTTEXT
 10
  7.9600
 20
  3.8186
 30
0.0
 40
  0.0514
 1
C10
 0
TEXT
 8
PARTTEXT
 10
  7.9600
 20
  3.6986
 30
0.0
 40
  0.0514
 1
0.1uF
 0
LINE
 8
PARTS
 10
  7.8000
 20
  4.0000
 30
0.0
 11
  7.8000
 21
  3.9000
 31
0.0
 0
LINE
 8
PARTS
 10
  7.8000
 20
  3.7000
 30
0.0
 11
  7.8000
 21
  3.8000
 31
0.0
 0
POLYLINE
 8
PARTS
 66
1
 10
0.0
 20
0.0
 30
0.0
 0
VERTEX
 8
PARTS
 10
  7.8000
 20
  3.9000
 30
0.0
 0
VERTEX
 8
PARTS
 10
  7.8000
 20
  3.8800
 30
0.0
 0
SEQEND
 8
PARTS
 0
POLYLINE
 8
PARTS
 66
1
 10
0.0
 20
0.0
 30
0.0
 0
VERTEX
 8
PARTS
 10
  7.7100
 20
  3.8300
 30
0.0
 0
VERTEX
 8
PARTS
 10
  7.8900
 20
  3.8300
 30
0.0
 0
SEQEND
 8
PARTS
 0
POLYLINE
 8
PARTS
 66
1
 10
0.0
 20
0.0
 30
0.0
 0
VERTEX
 8
PARTS
 10
  7.7100
 20
  3.8800
 30
0.0
 0
VERTEX
 8
PARTS
 10
  7.8900
 20
  3.8800
 30
0.0
 0
SEQEND
 8
PARTS
 0
POLYLINE
 8
PARTS
 66
1
 10
0.0
 20
0.0
 30
0.0
 0
VERTEX
 8
PARTS
 10
  7.8000
 20
  3.8000
 30
0.0
 0
VERTEX
 8
PARTS
 10
  7.8000
 20
  3.8300
 30
0.0
 0
SEQEND
 8
PARTS
 0
TEXT
 8
PARTTEXT
 10
  6.9700
 20
  8.4586
 30
0.0
 40
  0.0514
 1
S2
 0
TEXT
 8
PARTTEXT
 10
  6.9800
 20
  7.6786
 30
0.0
 40
  0.0514
 1
IMS-C20B
 0
LINE
 8
PARTS
 10
  6.6000
 20
  8.2000
 30
0.0
 11
  6.9000
 21
  8.2000
 31
0.0
 0
TEXT
 8
PARTS
 10
  6.9900
 20
  8.1750
 30
0.0
 40
  0.0500
 1
+
 0
TEXT
 8
PARTS
 10
  6.8000
 20
  8.2300
 30
0.0
 40
  0.0500
 1
1
 0
LINE
 8
PARTS
 10
  6.6000
 20
  8.0000
 30
0.0
 11
  6.9000
 21
  8.0000
 31
0.0
 0
TEXT
 8
PARTS
 10
  6.9900
 20
  7.9750
 30
0.0
 40
  0.0500
 1
-
 0
TEXT
 8
PARTS
 10
  6.8000
 20
  8.0300
 30
0.0
 40
  0.0500
 1
2
 0
POLYLINE
 8
PARTS
 66
1
 70
1
 10
0.0
 20
0.0
 30
0.0
 0
VERTEX
 8
PARTS
 10
  7.5000
 20
  8.1000
 30
0.0
 42
  0.0985
 0
VERTEX
 8
PARTS
 10
  7.4772
 20
  8.2148
 30
0.0
 42
  0.0985
 0
VERTEX
 8
PARTS
 10
  7.4121
 20
  8.3121
 30
0.0
 42
  0.0985
 0
VERTEX
 8
PARTS
 10
  7.3148
 20
  8.3772
 30
0.0
 42
  0.0985
 0
VERTEX
 8
PARTS
 10
  7.2000
 20
  8.4000
 30
0.0
 42
  0.0985
 0
VERTEX
 8
PARTS
 10
  7.0852
 20
  8.3772
 30
0.0
 42
  0.0985
 0
VERTEX
 8
PARTS
 10
  6.9879
 20
  8.3121
 30
0.0
 42
  0.0985
 0
VERTEX
 8
PARTS
 10
  6.9228
 20
  8.2148
 30
0.0
 42
  0.0985
 0
VERTEX
 8
PARTS
 10
  6.9000
 20
  8.1000
 30
0.0
 42
  0.0985
 0
VERTEX
 8
PARTS
 10
  6.9228
 20
  7.9852
 30
0.0
 42
  0.0985
 0
VERTEX
 8
PARTS
 10
  6.9879
 20
  7.8879
 30
0.0
 42
  0.0985
 0
VERTEX
 8
PARTS
 10
  7.0852
 20
  7.8228
 30
0.0
 42
  0.0985
 0
VERTEX
 8
PARTS
 10
  7.2000
 20
  7.8000
 30
0.0
 42
  0.0985
 0
VERTEX
 8
PARTS
 10
  7.3148
 20
  7.8228
 30
0.0
 42
  0.0985
 0
VERTEX
 8
PARTS
 10
  7.4121
 20
  7.8879
 30
0.0
 42
  0.0985
 0
VERTEX
 8
PARTS
 10
  7.4772
 20
  7.9852
 30
0.0
 42
  0.0985
 0
SEQEND
 8
PARTS
 0
POLYLINE
 8
PARTS
 66
1
 10
0.0
 20
0.0
 30
0.0
 0
VERTEX
 8
PARTS
 10
  6.9000
 20
  8.2000
 30
0.0
 0
VERTEX
 8
PARTS
 10
  6.9200
 20
  8.2000
 30
0.0
 0
SEQEND
 8
PARTS
 0
POLYLINE
 8
PARTS
 66
1
 10
0.0
 20
0.0
 30
0.0
 0
VERTEX
 8
PARTS
 10
  6.9000
 20
  8.0000
 30
0.0
 0
VERTEX
 8
PARTS
 10
  6.9200
 20
  8.0000
 30
0.0
 0
SEQEND
 8
PARTS
 0
TEXT
 8
PARTTEXT
 10
  7.8600
 20
  7.7186
 30
0.0
 40
  0.0514
 1
C5
 0
TEXT
 8
PARTTEXT
 10
  7.8600
 20
  7.5986
 30
0.0
 40
  0.0514
 1
0.1uF
 0
LINE
 8
PARTS
 10
  7.7000
 20
  7.9000
 30
0.0
 11
  7.7000
 21
  7.8000
 31
0.0
 0
LINE
 8
PARTS
 10
  7.7000
 20
  7.6000
 30
0.0
 11
  7.7000
 21
  7.7000
 31
0.0
 0
POLYLINE
 8
PARTS
 66
1
 10
0.0
 20
0.0
 30
0.0
 0
VERTEX
 8
PARTS
 10
  7.7000
 20
  7.8000
 30
0.0
 0
VERTEX
 8
PARTS
 10
  7.7000
 20
  7.7800
 30
0.0
 0
SEQEND
 8
PARTS
 0
POLYLINE
 8
PARTS
 66
1
 10
0.0
 20
0.0
 30
0.0
 0
VERTEX
 8
PARTS
 10
  7.6100
 20
  7.7300
 30
0.0
 0
VERTEX
 8
PARTS
 10
  7.7900
 20
  7.7300
 30
0.0
 0
SEQEND
 8
PARTS
 0
POLYLINE
 8
PARTS
 66
1
 10
0.0
 20
0.0
 30
0.0
 0
VERTEX
 8
PARTS
 10
  7.6100
 20
  7.7800
 30
0.0
 0
VERTEX
 8
PARTS
 10
  7.7900
 20
  7.7800
 30
0.0
 0
SEQEND
 8
PARTS
 0
POLYLINE
 8
PARTS
 66
1
 10
0.0
 20
0.0
 30
0.0
 0
VERTEX
 8
PARTS
 10
  7.7000
 20
  7.7000
 30
0.0
 0
VERTEX
 8
PARTS
 10
  7.7000
 20
  7.7300
 30
0.0
 0
SEQEND
 8
PARTS
 0
TEXT
 8
PARTTEXT
 10
  3.7000
 20
  4.1386
 30
0.0
 40
  0.0514
 1
R6
 0
TEXT
 8
PARTTEXT
 10
  3.7000
 20
  4.0186
 30
0.0
 40
  0.0514
 1
50k
 0
LINE
 8
PARTS
 10
  3.6000
 20
  3.8000
 30
0.0
 11
  3.6000
 21
  3.9000
 31
0.0
 0
LINE
 8
PARTS
 10
  3.6000
 20
  4.3000
 30
0.0
 11
  3.6000
 21
  4.2000
 31
0.0
 0
POLYLINE
 8
PARTS
 66
1
 10
0.0
 20
0.0
 30
0.0
 0
VERTEX
 8
PARTS
 10
  3.6000
 20
  3.9000
 30
0.0
 0
VERTEX
 8
PARTS
 10
  3.5700
 20
  3.9300
 30
0.0
 0
SEQEND
 8
PARTS
 0
POLYLINE
 8
PARTS
 66
1
 10
0.0
 20
0.0
 30
0.0
 0
VERTEX
 8
PARTS
 10
  3.5700
 20
  3.9300
 30
0.0
 0
VERTEX
 8
PARTS
 10
  3.6300
 20
  3.9900
 30
0.0
 0
SEQEND
 8
PARTS
 0
POLYLINE
 8
PARTS
 66
1
 10
0.0
 20
0.0
 30
0.0
 0
VERTEX
 8
PARTS
 10
  3.6300
 20
  3.9900
 30
0.0
 0
VERTEX
 8
PARTS
 10
  3.5700
 20
  4.0500
 30
0.0
 0
SEQEND
 8
PARTS
 0
POLYLINE
 8
PARTS
 66
1
 10
0.0
 20
0.0
 30
0.0
 0
VERTEX
 8
PARTS
 10
  3.5700
 20
  4.0500
 30
0.0
 0
VERTEX
 8
PARTS
 10
  3.6300
 20
  4.1100
 30
0.0
 0
SEQEND
 8
PARTS
 0
POLYLINE
 8
PARTS
 66
1
 10
0.0
 20
0.0
 30
0.0
 0
VERTEX
 8
PARTS
 10
  3.6300
 20
  4.1100
 30
0.0
 0
VERTEX
 8
PARTS
 10
  3.5700
 20
  4.1700
 30
0.0
 0
SEQEND
 8
PARTS
 0
POLYLINE
 8
PARTS
 66
1
 10
0.0
 20
0.0
 30
0.0
 0
VERTEX
 8
PARTS
 10
  3.5700
 20
  4.1700
 30
0.0
 0
VERTEX
 8
PARTS
 10
  3.6000
 20
  4.2000
 30
0.0
 0
SEQEND
 8
PARTS
 0
TEXT
 8
PARTTEXT
 10
  7.9600
 20
  2.7186
 30
0.0
 40
  0.0514
 1
C14
 0
TEXT
 8
PARTTEXT
 10
  7.9600
 20
  2.5986
 30
0.0
 40
  0.0514
 1
0.1uF
 0
LINE
 8
PARTS
 10
  7.8000
 20
  2.9000
 30
0.0
 11
  7.8000
 21
  2.8000
 31
0.0
 0
LINE
 8
PARTS
 10
  7.8000
 20
  2.6000
 30
0.0
 11
  7.8000
 21
  2.7000
 31
0.0
 0
POLYLINE
 8
PARTS
 66
1
 10
0.0
 20
0.0
 30
0.0
 0
VERTEX
 8
PARTS
 10
  7.8000
 20
  2.8000
 30
0.0
 0
VERTEX
 8
PARTS
 10
  7.8000
 20
  2.7800
 30
0.0
 0
SEQEND
 8
PARTS
 0
POLYLINE
 8
PARTS
 66
1
 10
0.0
 20
0.0
 30
0.0
 0
VERTEX
 8
PARTS
 10
  7.7100
 20
  2.7300
 30
0.0
 0
VERTEX
 8
PARTS
 10
  7.8900
 20
  2.7300
 30
0.0
 0
SEQEND
 8
PARTS
 0
POLYLINE
 8
PARTS
 66
1
 10
0.0
 20
0.0
 30
0.0
 0
VERTEX
 8
PARTS
 10
  7.7100
 20
  2.7800
 30
0.0
 0
VERTEX
 8
PARTS
 10
  7.8900
 20
  2.7800
 30
0.0
 0
SEQEND
 8
PARTS
 0
POLYLINE
 8
PARTS
 66
1
 10
0.0
 20
0.0
 30
0.0
 0
VERTEX
 8
PARTS
 10
  7.8000
 20
  2.7000
 30
0.0
 0
VERTEX
 8
PARTS
 10
  7.8000
 20
  2.7300
 30
0.0
 0
SEQEND
 8
PARTS
 0
TEXT
 8
PARTTEXT
 10
  2.2000
 20
  7.6886
 30
0.0
 40
  0.0514
 1
S1
 0
TEXT
 8
PARTTEXT
 10
  2.2000
 20
  8.4986
 30
0.0
 40
  0.0514
 1
IMS-C20B
 0
LINE
 8
PARTS
 10
  3.1000
 20
  8.2000
 30
0.0
 11
  2.8000
 21
  8.2000
 31
0.0
 0
TEXT
 8
PARTS
 10
  2.6700
 20
  8.1750
 30
0.0
 40
  0.0500
 1
+
 0
TEXT
 8
PARTS
 10
  2.8600
 20
  8.2300
 30
0.0
 40
  0.0500
 1
1
 0
LINE
 8
PARTS
 10
  3.1000
 20
  8.0000
 30
0.0
 11
  2.8000
 21
  8.0000
 31
0.0
 0
TEXT
 8
PARTS
 10
  2.6700
 20
  7.9750
 30
0.0
 40
  0.0500
 1
-
 0
TEXT
 8
PARTS
 10
  2.8600
 20
  8.0300
 30
0.0
 40
  0.0500
 1
2
 0
POLYLINE
 8
PARTS
 66
1
 70
1
 10
0.0
 20
0.0
 30
0.0
 0
VERTEX
 8
PARTS
 10
  2.8000
 20
  8.1000
 30
0.0
 42
  0.0985
 0
VERTEX
 8
PARTS
 10
  2.7772
 20
  8.2148
 30
0.0
 42
  0.0985
 0
VERTEX
 8
PARTS
 10
  2.7121
 20
  8.3121
 30
0.0
 42
  0.0985
 0
VERTEX
 8
PARTS
 10
  2.6148
 20
  8.3772
 30
0.0
 42
  0.0985
 0
VERTEX
 8
PARTS
 10
  2.5000
 20
  8.4000
 30
0.0
 42
  0.0985
 0
VERTEX
 8
PARTS
 10
  2.3852
 20
  8.3772
 30
0.0
 42
  0.0985
 0
VERTEX
 8
PARTS
 10
  2.2879
 20
  8.3121
 30
0.0
 42
  0.0985
 0
VERTEX
 8
PARTS
 10
  2.2228
 20
  8.2148
 30
0.0
 42
  0.0985
 0
VERTEX
 8
PARTS
 10
  2.2000
 20
  8.1000
 30
0.0
 42
  0.0985
 0
VERTEX
 8
PARTS
 10
  2.2228
 20
  7.9852
 30
0.0
 42
  0.0985
 0
VERTEX
 8
PARTS
 10
  2.2879
 20
  7.8879
 30
0.0
 42
  0.0985
 0
VERTEX
 8
PARTS
 10
  2.3852
 20
  7.8228
 30
0.0
 42
  0.0985
 0
VERTEX
 8
PARTS
 10
  2.5000
 20
  7.8000
 30
0.0
 42
  0.0985
 0
VERTEX
 8
PARTS
 10
  2.6148
 20
  7.8228
 30
0.0
 42
  0.0985
 0
VERTEX
 8
PARTS
 10
  2.7121
 20
  7.8879
 30
0.0
 42
  0.0985
 0
VERTEX
 8
PARTS
 10
  2.7772
 20
  7.9852
 30
0.0
 42
  0.0985
 0
SEQEND
 8
PARTS
 0
POLYLINE
 8
PARTS
 66
1
 10
0.0
 20
0.0
 30
0.0
 0
VERTEX
 8
PARTS
 10
  2.8000
 20
  8.2000
 30
0.0
 0
VERTEX
 8
PARTS
 10
  2.7800
 20
  8.2000
 30
0.0
 0
SEQEND
 8
PARTS
 0
POLYLINE
 8
PARTS
 66
1
 10
0.0
 20
0.0
 30
0.0
 0
VERTEX
 8
PARTS
 10
  2.8000
 20
  8.0000
 30
0.0
 0
VERTEX
 8
PARTS
 10
  2.7800
 20
  8.0000
 30
0.0
 0
SEQEND
 8
PARTS
 0
TEXT
 8
PARTTEXT
 10
  1.8600
 20
  2.8186
 30
0.0
 40
  0.0514
 1
C13
 0
TEXT
 8
PARTTEXT
 10
  1.8600
 20
  2.6986
 30
0.0
 40
  0.0514
 1
0.1uF
 0
LINE
 8
PARTS
 10
  1.7000
 20
  3.0000
 30
0.0
 11
  1.7000
 21
  2.9000
 31
0.0
 0
LINE
 8
PARTS
 10
  1.7000
 20
  2.7000
 30
0.0
 11
  1.7000
 21
  2.8000
 31
0.0
 0
POLYLINE
 8
PARTS
 66
1
 10
0.0
 20
0.0
 30
0.0
 0
VERTEX
 8
PARTS
 10
  1.7000
 20
  2.9000
 30
0.0
 0
VERTEX
 8
PARTS
 10
  1.7000
 20
  2.8800
 30
0.0
 0
SEQEND
 8
PARTS
 0
POLYLINE
 8
PARTS
 66
1
 10
0.0
 20
0.0
 30
0.0
 0
VERTEX
 8
PARTS
 10
  1.6100
 20
  2.8300
 30
0.0
 0
VERTEX
 8
PARTS
 10
  1.7900
 20
  2.8300
 30
0.0
 0
SEQEND
 8
PARTS
 0
POLYLINE
 8
PARTS
 66
1
 10
0.0
 20
0.0
 30
0.0
 0
VERTEX
 8
PARTS
 10
  1.6100
 20
  2.8800
 30
0.0
 0
VERTEX
 8
PARTS
 10
  1.7900
 20
  2.8800
 30
0.0
 0
SEQEND
 8
PARTS
 0
POLYLINE
 8
PARTS
 66
1
 10
0.0
 20
0.0
 30
0.0
 0
VERTEX
 8
PARTS
 10
  1.7000
 20
  2.8000
 30
0.0
 0
VERTEX
 8
PARTS
 10
  1.7000
 20
  2.8300
 30
0.0
 0
SEQEND
 8
PARTS
 0
TEXT
 8
PARTTEXT
 10
  3.6000
 20
  8.0386
 30
0.0
 40
  0.0514
 1
R2
 0
TEXT
 8
PARTTEXT
 10
  3.6000
 20
  7.9186
 30
0.0
 40
  0.0514
 1
50k
 0
LINE
 8
PARTS
 10
  3.5000
 20
  7.7000
 30
0.0
 11
  3.5000
 21
  7.8000
 31
0.0
 0
LINE
 8
PARTS
 10
  3.5000
 20
  8.2000
 30
0.0
 11
  3.5000
 21
  8.1000
 31
0.0
 0
POLYLINE
 8
PARTS
 66
1
 10
0.0
 20
0.0
 30
0.0
 0
VERTEX
 8
PARTS
 10
  3.5000
 20
  7.8000
 30
0.0
 0
VERTEX
 8
PARTS
 10
  3.4700
 20
  7.8300
 30
0.0
 0
SEQEND
 8
PARTS
 0
POLYLINE
 8
PARTS
 66
1
 10
0.0
 20
0.0
 30
0.0
 0
VERTEX
 8
PARTS
 10
  3.4700
 20
  7.8300
 30
0.0
 0
VERTEX
 8
PARTS
 10
  3.5300
 20
  7.8900
 30
0.0
 0
SEQEND
 8
PARTS
 0
POLYLINE
 8
PARTS
 66
1
 10
0.0
 20
0.0
 30
0.0
 0
VERTEX
 8
PARTS
 10
  3.5300
 20
  7.8900
 30
0.0
 0
VERTEX
 8
PARTS
 10
  3.4700
 20
  7.9500
 30
0.0
 0
SEQEND
 8
PARTS
 0
POLYLINE
 8
PARTS
 66
1
 10
0.0
 20
0.0
 30
0.0
 0
VERTEX
 8
PARTS
 10
  3.4700
 20
  7.9500
 30
0.0
 0
VERTEX
 8
PARTS
 10
  3.5300
 20
  8.0100
 30
0.0
 0
SEQEND
 8
PARTS
 0
POLYLINE
 8
PARTS
 66
1
 10
0.0
 20
0.0
 30
0.0
 0
VERTEX
 8
PARTS
 10
  3.5300
 20
  8.0100
 30
0.0
 0
VERTEX
 8
PARTS
 10
  3.4700
 20
  8.0700
 30
0.0
 0
SEQEND
 8
PARTS
 0
POLYLINE
 8
PARTS
 66
1
 10
0.0
 20
0.0
 30
0.0
 0
VERTEX
 8
PARTS
 10
  3.4700
 20
  8.0700
 30
0.0
 0
VERTEX
 8
PARTS
 10
  3.5000
 20
  8.1000
 30
0.0
 0
SEQEND
 8
PARTS
 0
TEXT
 8
PARTTEXT
 10
  9.0000
 20
  8.5186
 30
0.0
 40
  0.0514
 1
C2
 0
TEXT
 8
PARTTEXT
 10
  9.0000
 20
  8.3986
 30
0.0
 40
  0.0514
 1
0.1uF
 0
LINE
 8
PARTS
 10
  8.9000
 20
  8.7000
 30
0.0
 11
  8.9000
 21
  8.6000
 31
0.0
 0
LINE
 8
PARTS
 10
  8.9000
 20
  8.4000
 30
0.0
 11
  8.9000
 21
  8.5000
 31
0.0
 0
POLYLINE
 8
PARTS
 66
1
 10
0.0
 20
0.0
 30
0.0
 0
VERTEX
 8
PARTS
 10
  8.9000
 20
  8.6000
 30
0.0
 0
VERTEX
 8
PARTS
 10
  8.9000
 20
  8.5800
 30
0.0
 0
SEQEND
 8
PARTS
 0
POLYLINE
 8
PARTS
 66
1
 10
0.0
 20
0.0
 30
0.0
 0
VERTEX
 8
PARTS
 10
  8.9900
 20
  8.5300
 30
0.0
 0
VERTEX
 8
PARTS
 10
  8.8100
 20
  8.5300
 30
0.0
 0
SEQEND
 8
PARTS
 0
POLYLINE
 8
PARTS
 66
1
 10
0.0
 20
0.0
 30
0.0
 0
VERTEX
 8
PARTS
 10
  8.9900
 20
  8.5800
 30
0.0
 0
VERTEX
 8
PARTS
 10
  8.8100
 20
  8.5800
 30
0.0
 0
SEQEND
 8
PARTS
 0
POLYLINE
 8
PARTS
 66
1
 10
0.0
 20
0.0
 30
0.0
 0
VERTEX
 8
PARTS
 10
  8.9000
 20
  8.5000
 30
0.0
 0
VERTEX
 8
PARTS
 10
  8.9000
 20
  8.5300
 30
0.0
 0
SEQEND
 8
PARTS
 0
TEXT
 8
PARTTEXT
 10
  7.8600
 20
  6.6186
 30
0.0
 40
  0.0514
 1
C8
 0
TEXT
 8
PARTTEXT
 10
  7.8600
 20
  6.4986
 30
0.0
 40
  0.0514
 1
0.1uF
 0
LINE
 8
PARTS
 10
  7.7000
 20
  6.8000
 30
0.0
 11
  7.7000
 21
  6.7000
 31
0.0
 0
LINE
 8
PARTS
 10
  7.7000
 20
  6.5000
 30
0.0
 11
  7.7000
 21
  6.6000
 31
0.0
 0
POLYLINE
 8
PARTS
 66
1
 10
0.0
 20
0.0
 30
0.0
 0
VERTEX
 8
PARTS
 10
  7.7000
 20
  6.7000
 30
0.0
 0
VERTEX
 8
PARTS
 10
  7.7000
 20
  6.6800
 30
0.0
 0
SEQEND
 8
PARTS
 0
POLYLINE
 8
PARTS
 66
1
 10
0.0
 20
0.0
 30
0.0
 0
VERTEX
 8
PARTS
 10
  7.6100
 20
  6.6300
 30
0.0
 0
VERTEX
 8
PARTS
 10
  7.7900
 20
  6.6300
 30
0.0
 0
SEQEND
 8
PARTS
 0
POLYLINE
 8
PARTS
 66
1
 10
0.0
 20
0.0
 30
0.0
 0
VERTEX
 8
PARTS
 10
  7.6100
 20
  6.6800
 30
0.0
 0
VERTEX
 8
PARTS
 10
  7.7900
 20
  6.6800
 30
0.0
 0
SEQEND
 8
PARTS
 0
POLYLINE
 8
PARTS
 66
1
 10
0.0
 20
0.0
 30
0.0
 0
VERTEX
 8
PARTS
 10
  7.7000
 20
  6.6000
 30
0.0
 0
VERTEX
 8
PARTS
 10
  7.7000
 20
  6.6300
 30
0.0
 0
SEQEND
 8
PARTS
 0
TEXT
 8
PARTTEXT
 10
  7.0700
 20
  4.5586
 30
0.0
 40
  0.0514
 1
S6
 0
TEXT
 8
PARTTEXT
 10
  7.0800
 20
  3.7786
 30
0.0
 40
  0.0514
 1
IMS-C20B
 0
LINE
 8
PARTS
 10
  6.7000
 20
  4.3000
 30
0.0
 11
  7.0000
 21
  4.3000
 31
0.0
 0
TEXT
 8
PARTS
 10
  7.0900
 20
  4.2750
 30
0.0
 40
  0.0500
 1
+
 0
TEXT
 8
PARTS
 10
  6.9000
 20
  4.3300
 30
0.0
 40
  0.0500
 1
1
 0
LINE
 8
PARTS
 10
  6.7000
 20
  4.1000
 30
0.0
 11
  7.0000
 21
  4.1000
 31
0.0
 0
TEXT
 8
PARTS
 10
  7.0900
 20
  4.0750
 30
0.0
 40
  0.0500
 1
-
 0
TEXT
 8
PARTS
 10
  6.9000
 20
  4.1300
 30
0.0
 40
  0.0500
 1
2
 0
POLYLINE
 8
PARTS
 66
1
 70
1
 10
0.0
 20
0.0
 30
0.0
 0
VERTEX
 8
PARTS
 10
  7.6000
 20
  4.2000
 30
0.0
 42
  0.0985
 0
VERTEX
 8
PARTS
 10
  7.5772
 20
  4.3148
 30
0.0
 42
  0.0985
 0
VERTEX
 8
PARTS
 10
  7.5121
 20
  4.4121
 30
0.0
 42
  0.0985
 0
VERTEX
 8
PARTS
 10
  7.4148
 20
  4.4772
 30
0.0
 42
  0.0985
 0
VERTEX
 8
PARTS
 10
  7.3000
 20
  4.5000
 30
0.0
 42
  0.0985
 0
VERTEX
 8
PARTS
 10
  7.1852
 20
  4.4772
 30
0.0
 42
  0.0985
 0
VERTEX
 8
PARTS
 10
  7.0879
 20
  4.4121
 30
0.0
 42
  0.0985
 0
VERTEX
 8
PARTS
 10
  7.0228
 20
  4.3148
 30
0.0
 42
  0.0985
 0
VERTEX
 8
PARTS
 10
  7.0000
 20
  4.2000
 30
0.0
 42
  0.0985
 0
VERTEX
 8
PARTS
 10
  7.0228
 20
  4.0852
 30
0.0
 42
  0.0985
 0
VERTEX
 8
PARTS
 10
  7.0879
 20
  3.9879
 30
0.0
 42
  0.0985
 0
VERTEX
 8
PARTS
 10
  7.1852
 20
  3.9228
 30
0.0
 42
  0.0985
 0
VERTEX
 8
PARTS
 10
  7.3000
 20
  3.9000
 30
0.0
 42
  0.0985
 0
VERTEX
 8
PARTS
 10
  7.4148
 20
  3.9228
 30
0.0
 42
  0.0985
 0
VERTEX
 8
PARTS
 10
  7.5121
 20
  3.9879
 30
0.0
 42
  0.0985
 0
VERTEX
 8
PARTS
 10
  7.5772
 20
  4.0852
 30
0.0
 42
  0.0985
 0
SEQEND
 8
PARTS
 0
POLYLINE
 8
PARTS
 66
1
 10
0.0
 20
0.0
 30
0.0
 0
VERTEX
 8
PARTS
 10
  7.0000
 20
  4.3000
 30
0.0
 0
VERTEX
 8
PARTS
 10
  7.0200
 20
  4.3000
 30
0.0
 0
SEQEND
 8
PARTS
 0
POLYLINE
 8
PARTS
 66
1
 10
0.0
 20
0.0
 30
0.0
 0
VERTEX
 8
PARTS
 10
  7.0000
 20
  4.1000
 30
0.0
 0
VERTEX
 8
PARTS
 10
  7.0200
 20
  4.1000
 30
0.0
 0
SEQEND
 8
PARTS
 0
TEXT
 8
PARTTEXT
 10
  3.6000
 20
  6.5386
 30
0.0
 40
  0.0514
 1
R4
 0
TEXT
 8
PARTTEXT
 10
  3.6000
 20
  6.4186
 30
0.0
 40
  0.0514
 1
50k
 0
LINE
 8
PARTS
 10
  3.5000
 20
  6.2000
 30
0.0
 11
  3.5000
 21
  6.3000
 31
0.0
 0
LINE
 8
PARTS
 10
  3.5000
 20
  6.7000
 30
0.0
 11
  3.5000
 21
  6.6000
 31
0.0
 0
POLYLINE
 8
PARTS
 66
1
 10
0.0
 20
0.0
 30
0.0
 0
VERTEX
 8
PARTS
 10
  3.5000
 20
  6.3000
 30
0.0
 0
VERTEX
 8
PARTS
 10
  3.5300
 20
  6.3300
 30
0.0
 0
SEQEND
 8
PARTS
 0
POLYLINE
 8
PARTS
 66
1
 10
0.0
 20
0.0
 30
0.0
 0
VERTEX
 8
PARTS
 10
  3.5300
 20
  6.3300
 30
0.0
 0
VERTEX
 8
PARTS
 10
  3.4700
 20
  6.3900
 30
0.0
 0
SEQEND
 8
PARTS
 0
POLYLINE
 8
PARTS
 66
1
 10
0.0
 20
0.0
 30
0.0
 0
VERTEX
 8
PARTS
 10
  3.4700
 20
  6.3900
 30
0.0
 0
VERTEX
 8
PARTS
 10
  3.5300
 20
  6.4500
 30
0.0
 0
SEQEND
 8
PARTS
 0
POLYLINE
 8
PARTS
 66
1
 10
0.0
 20
0.0
 30
0.0
 0
VERTEX
 8
PARTS
 10
  3.5300
 20
  6.4500
 30
0.0
 0
VERTEX
 8
PARTS
 10
  3.4700
 20
  6.5100
 30
0.0
 0
SEQEND
 8
PARTS
 0
POLYLINE
 8
PARTS
 66
1
 10
0.0
 20
0.0
 30
0.0
 0
VERTEX
 8
PARTS
 10
  3.4700
 20
  6.5100
 30
0.0
 0
VERTEX
 8
PARTS
 10
  3.5300
 20
  6.5700
 30
0.0
 0
SEQEND
 8
PARTS
 0
POLYLINE
 8
PARTS
 66
1
 10
0.0
 20
0.0
 30
0.0
 0
VERTEX
 8
PARTS
 10
  3.5300
 20
  6.5700
 30
0.0
 0
VERTEX
 8
PARTS
 10
  3.5000
 20
  6.6000
 30
0.0
 0
SEQEND
 8
PARTS
 0
TEXT
 8
PARTTEXT
 10
 12.8000
 20
  2.8186
 30
0.0
 40
  0.0514
 1
R8
 0
TEXT
 8
PARTTEXT
 10
 13.2000
 20
  2.7186
 30
0.0
 40
  0.0514
 1
120
 0
LINE
 8
PARTS
 10
 12.8000
 20
  2.8000
 30
0.0
 11
 12.9000
 21
  2.8000
 31
0.0
 0
LINE
 8
PARTS
 10
 13.3000
 20
  2.8000
 30
0.0
 11
 13.2000
 21
  2.8000
 31
0.0
 0
POLYLINE
 8
PARTS
 66
1
 10
0.0
 20
0.0
 30
0.0
 0
VERTEX
 8
PARTS
 10
 12.9000
 20
  2.8000
 30
0.0
 0
VERTEX
 8
PARTS
 10
 12.9300
 20
  2.8300
 30
0.0
 0
SEQEND
 8
PARTS
 0
POLYLINE
 8
PARTS
 66
1
 10
0.0
 20
0.0
 30
0.0
 0
VERTEX
 8
PARTS
 10
 12.9300
 20
  2.8300
 30
0.0
 0
VERTEX
 8
PARTS
 10
 12.9900
 20
  2.7700
 30
0.0
 0
SEQEND
 8
PARTS
 0
POLYLINE
 8
PARTS
 66
1
 10
0.0
 20
0.0
 30
0.0
 0
VERTEX
 8
PARTS
 10
 12.9900
 20
  2.7700
 30
0.0
 0
VERTEX
 8
PARTS
 10
 13.0500
 20
  2.8300
 30
0.0
 0
SEQEND
 8
PARTS
 0
POLYLINE
 8
PARTS
 66
1
 10
0.0
 20
0.0
 30
0.0
 0
VERTEX
 8
PARTS
 10
 13.0500
 20
  2.8300
 30
0.0
 0
VERTEX
 8
PARTS
 10
 13.1100
 20
  2.7700
 30
0.0
 0
SEQEND
 8
PARTS
 0
POLYLINE
 8
PARTS
 66
1
 10
0.0
 20
0.0
 30
0.0
 0
VERTEX
 8
PARTS
 10
 13.1100
 20
  2.7700
 30
0.0
 0
VERTEX
 8
PARTS
 10
 13.1700
 20
  2.8300
 30
0.0
 0
SEQEND
 8
PARTS
 0
POLYLINE
 8
PARTS
 66
1
 10
0.0
 20
0.0
 30
0.0
 0
VERTEX
 8
PARTS
 10
 13.1700
 20
  2.8300
 30
0.0
 0
VERTEX
 8
PARTS
 10
 13.2000
 20
  2.8000
 30
0.0
 0
SEQEND
 8
PARTS
 0
TEXT
 8
PARTTEXT
 10
  9.8000
 20
  8.7186
 30
0.0
 40
  0.0514
 1
C1
 0
TEXT
 8
PARTTEXT
 10
 10.1000
 20
  8.6186
 30
0.0
 40
  0.0514
 1
10uF
 0
LINE
 8
PARTS
 10
 10.2000
 20
  8.7000
 30
0.0
 11
 10.1000
 21
  8.7000
 31
0.0
 0
LINE
 8
PARTS
 10
  9.9000
 20
  8.7000
 30
0.0
 11
 10.0000
 21
  8.7000
 31
0.0
 0
POLYLINE
 8
PARTS
 66
1
 10
0.0
 20
0.0
 30
0.0
 0
VERTEX
 8
PARTS
 10
 10.1000
 20
  8.7000
 30
0.0
 0
VERTEX
 8
PARTS
 10
 10.0800
 20
  8.7000
 30
0.0
 0
SEQEND
 8
PARTS
 0
POLYLINE
 8
PARTS
 66
1
 10
0.0
 20
0.0
 30
0.0
 0
VERTEX
 8
PARTS
 10
 10.0300
 20
  8.6100
 30
0.0
 0
VERTEX
 8
PARTS
 10
 10.0300
 20
  8.7900
 30
0.0
 0
SEQEND
 8
PARTS
 0
POLYLINE
 8
PARTS
 66
1
 10
0.0
 20
0.0
 30
0.0
 0
VERTEX
 8
PARTS
 10
 10.0800
 20
  8.6100
 30
0.0
 0
VERTEX
 8
PARTS
 10
 10.0800
 20
  8.7900
 30
0.0
 0
SEQEND
 8
PARTS
 0
POLYLINE
 8
PARTS
 66
1
 10
0.0
 20
0.0
 30
0.0
 0
VERTEX
 8
PARTS
 10
 10.0000
 20
  8.7000
 30
0.0
 0
VERTEX
 8
PARTS
 10
 10.0300
 20
  8.7000
 30
0.0
 0
SEQEND
 8
PARTS
 0
TEXT
 8
PARTTEXT
 10
  4.4700
 20
  7.6586
 30
0.0
 40
  0.0514
 1
U1
 0
TEXT
 8
PARTTEXT
 10
  4.4800
 20
  6.5786
 30
0.0
 40
  0.0514
 1
LM324
 0
LINE
 8
PARTS
 10
  4.1000
 20
  7.5000
 30
0.0
 11
  4.4000
 21
  7.5000
 31
0.0
 0
TEXT
 8
PARTS
 10
  4.4900
 20
  7.4750
 30
0.0
 40
  0.0500
 1
IOUT
 0
TEXT
 8
PARTS
 10
  4.3000
 20
  7.5300
 30
0.0
 40
  0.0500
 1
1
 0
LINE
 8
PARTS
 10
  4.1000
 20
  7.4000
 30
0.0
 11
  4.4000
 21
  7.4000
 31
0.0
 0
TEXT
 8
PARTS
 10
  4.4900
 20
  7.3750
 30
0.0
 40
  0.0500
 1
1IN-
 0
TEXT
 8
PARTS
 10
  4.3000
 20
  7.4300
 30
0.0
 40
  0.0500
 1
2
 0
LINE
 8
PARTS
 10
  4.1000
 20
  7.3000
 30
0.0
 11
  4.4000
 21
  7.3000
 31
0.0
 0
TEXT
 8
PARTS
 10
  4.4900
 20
  7.2750
 30
0.0
 40
  0.0500
 1
1IN+
 0
TEXT
 8
PARTS
 10
  4.3000
 20
  7.3300
 30
0.0
 40
  0.0500
 1
3
 0
LINE
 8
PARTS
 10
  4.1000
 20
  7.2000
 30
0.0
 11
  4.4000
 21
  7.2000
 31
0.0
 0
TEXT
 8
PARTS
 10
  4.4900
 20
  7.1750
 30
0.0
 40
  0.0500
 1
Vcc
 0
TEXT
 8
PARTS
 10
  4.3000
 20
  7.2300
 30
0.0
 40
  0.0500
 1
4
 0
LINE
 8
PARTS
 10
  4.1000
 20
  7.1000
 30
0.0
 11
  4.4000
 21
  7.1000
 31
0.0
 0
TEXT
 8
PARTS
 10
  4.4900
 20
  7.0750
 30
0.0
 40
  0.0500
 1
2IN+
 0
TEXT
 8
PARTS
 10
  4.3000
 20
  7.1300
 30
0.0
 40
  0.0500
 1
5
 0
LINE
 8
PARTS
 10
  4.1000
 20
  7.0000
 30
0.0
 11
  4.4000
 21
  7.0000
 31
0.0
 0
TEXT
 8
PARTS
 10
  4.4900
 20
  6.9750
 30
0.0
 40
  0.0500
 1
2IN-
 0
TEXT
 8
PARTS
 10
  4.3000
 20
  7.0300
 30
0.0
 40
  0.0500
 1
6
 0
LINE
 8
PARTS
 10
  4.1000
 20
  6.9000
 30
0.0
 11
  4.4000
 21
  6.9000
 31
0.0
 0
TEXT
 8
PARTS
 10
  4.4900
 20
  6.8750
 30
0.0
 40
  0.0500
 1
2OUT
 0
TEXT
 8
PARTS
 10
  4.3000
 20
  6.9300
 30
0.0
 40
  0.0500
 1
7
 0
LINE
 8
PARTS
 10
  5.5000
 20
  7.5000
 30
0.0
 11
  5.2000
 21
  7.5000
 31
0.0
 0
TEXT
 8
PARTS
 10
  4.9500
 20
  7.4750
 30
0.0
 40
  0.0500
 1
4OUT
 0
TEXT
 8
PARTS
 10
  5.2600
 20
  7.5300
 30
0.0
 40
  0.0500
 1
14
 0
LINE
 8
PARTS
 10
  5.5000
 20
  7.4000
 30
0.0
 11
  5.2000
 21
  7.4000
 31
0.0
 0
TEXT
 8
PARTS
 10
  4.9500
 20
  7.3750
 30
0.0
 40
  0.0500
 1
4IN-
 0
TEXT
 8
PARTS
 10
  5.2600
 20
  7.4300
 30
0.0
 40
  0.0500
 1
13
 0
LINE
 8
PARTS
 10
  5.5000
 20
  7.3000
 30
0.0
 11
  5.2000
 21
  7.3000
 31
0.0
 0
TEXT
 8
PARTS
 10
  4.9500
 20
  7.2750
 30
0.0
 40
  0.0500
 1
4IN+
 0
TEXT
 8
PARTS
 10
  5.2600
 20
  7.3300
 30
0.0
 40
  0.0500
 1
12
 0
LINE
 8
PARTS
 10
  5.5000
 20
  7.2000
 30
0.0
 11
  5.2000
 21
  7.2000
 31
0.0
 0
TEXT
 8
PARTS
 10
  4.9900
 20
  7.1750
 30
0.0
 40
  0.0500
 1
GND
 0
TEXT
 8
PARTS
 10
  5.2600
 20
  7.2300
 30
0.0
 40
  0.0500
 1
11
 0
LINE
 8
PARTS
 10
  5.5000
 20
  7.1000
 30
0.0
 11
  5.2000
 21
  7.1000
 31
0.0
 0
TEXT
 8
PARTS
 10
  4.9500
 20
  7.0750
 30
0.0
 40
  0.0500
 1
3IN+
 0
TEXT
 8
PARTS
 10
  5.2600
 20
  7.1300
 30
0.0
 40
  0.0500
 1
10
 0
LINE
 8
PARTS
 10
  5.5000
 20
  7.0000
 30
0.0
 11
  5.2000
 21
  7.0000
 31
0.0
 0
TEXT
 8
PARTS
 10
  4.9500
 20
  6.9750
 30
0.0
 40
  0.0500
 1
3IN-
 0
TEXT
 8
PARTS
 10
  5.2600
 20
  7.0300
 30
0.0
 40
  0.0500
 1
9
 0
LINE
 8
PARTS
 10
  5.5000
 20
  6.9000
 30
0.0
 11
  5.2000
 21
  6.9000
 31
0.0
 0
TEXT
 8
PARTS
 10
  4.9500
 20
  6.8750
 30
0.0
 40
  0.0500
 1
3OUT
 0
TEXT
 8
PARTS
 10
  5.2600
 20
  6.9300
 30
0.0
 40
  0.0500
 1
8
 0
POLYLINE
 8
PARTS
 66
1
 70
1
 10
0.0
 20
0.0
 30
0.0
 0
VERTEX
 8
PARTS
 10
  4.4000
 20
  7.6000
 30
0.0
 0
VERTEX
 8
PARTS
 10
  5.2000
 20
  7.6000
 30
0.0
 0
VERTEX
 8
PARTS
 10
  5.2000
 20
  6.7000
 30
0.0
 0
VERTEX
 8
PARTS
 10
  4.4000
 20
  6.7000
 30
0.0
 0
SEQEND
 8
PARTS
 0
TEXT
 8
PARTTEXT
 10
  9.8000
 20
  8.5186
 30
0.0
 40
  0.0514
 1
C3
 0
TEXT
 8
PARTTEXT
 10
 10.1000
 20
  8.4186
 30
0.0
 40
  0.0514
 1
0.1uF
 0
LINE
 8
PARTS
 10
 10.2000
 20
  8.5000
 30
0.0
 11
 10.1000
 21
  8.5000
 31
0.0
 0
LINE
 8
PARTS
 10
  9.9000
 20
  8.5000
 30
0.0
 11
 10.0000
 21
  8.5000
 31
0.0
 0
POLYLINE
 8
PARTS
 66
1
 10
0.0
 20
0.0
 30
0.0
 0
VERTEX
 8
PARTS
 10
 10.1000
 20
  8.5000
 30
0.0
 0
VERTEX
 8
PARTS
 10
 10.0800
 20
  8.5000
 30
0.0
 0
SEQEND
 8
PARTS
 0
POLYLINE
 8
PARTS
 66
1
 10
0.0
 20
0.0
 30
0.0
 0
VERTEX
 8
PARTS
 10
 10.0300
 20
  8.4100
 30
0.0
 0
VERTEX
 8
PARTS
 10
 10.0300
 20
  8.5900
 30
0.0
 0
SEQEND
 8
PARTS
 0
POLYLINE
 8
PARTS
 66
1
 10
0.0
 20
0.0
 30
0.0
 0
VERTEX
 8
PARTS
 10
 10.0800
 20
  8.4100
 30
0.0
 0
VERTEX
 8
PARTS
 10
 10.0800
 20
  8.5900
 30
0.0
 0
SEQEND
 8
PARTS
 0
POLYLINE
 8
PARTS
 66
1
 10
0.0
 20
0.0
 30
0.0
 0
VERTEX
 8
PARTS
 10
 10.0000
 20
  8.5000
 30
0.0
 0
VERTEX
 8
PARTS
 10
 10.0300
 20
  8.5000
 30
0.0
 0
SEQEND
 8
PARTS
 0
TEXT
 8
PARTTEXT
 10
 12.5000
 20
  2.6186
 30
0.0
 40
  0.0514
 1
R11
 0
TEXT
 8
PARTTEXT
 10
 12.9000
 20
  2.5186
 30
0.0
 40
  0.0514
 1
200
 0
LINE
 8
PARTS
 10
 12.5000
 20
  2.6000
 30
0.0
 11
 12.6000
 21
  2.6000
 31
0.0
 0
LINE
 8
PARTS
 10
 13.0000
 20
  2.6000
 30
0.0
 11
 12.9000
 21
  2.6000
 31
0.0
 0
POLYLINE
 8
PARTS
 66
1
 10
0.0
 20
0.0
 30
0.0
 0
VERTEX
 8
PARTS
 10
 12.6000
 20
  2.6000
 30
0.0
 0
VERTEX
 8
PARTS
 10
 12.6300
 20
  2.6300
 30
0.0
 0
SEQEND
 8
PARTS
 0
POLYLINE
 8
PARTS
 66
1
 10
0.0
 20
0.0
 30
0.0
 0
VERTEX
 8
PARTS
 10
 12.6300
 20
  2.6300
 30
0.0
 0
VERTEX
 8
PARTS
 10
 12.6900
 20
  2.5700
 30
0.0
 0
SEQEND
 8
PARTS
 0
POLYLINE
 8
PARTS
 66
1
 10
0.0
 20
0.0
 30
0.0
 0
VERTEX
 8
PARTS
 10
 12.6900
 20
  2.5700
 30
0.0
 0
VERTEX
 8
PARTS
 10
 12.7500
 20
  2.6300
 30
0.0
 0
SEQEND
 8
PARTS
 0
POLYLINE
 8
PARTS
 66
1
 10
0.0
 20
0.0
 30
0.0
 0
VERTEX
 8
PARTS
 10
 12.7500
 20
  2.6300
 30
0.0
 0
VERTEX
 8
PARTS
 10
 12.8100
 20
  2.5700
 30
0.0
 0
SEQEND
 8
PARTS
 0
POLYLINE
 8
PARTS
 66
1
 10
0.0
 20
0.0
 30
0.0
 0
VERTEX
 8
PARTS
 10
 12.8100
 20
  2.5700
 30
0.0
 0
VERTEX
 8
PARTS
 10
 12.8700
 20
  2.6300
 30
0.0
 0
SEQEND
 8
PARTS
 0
POLYLINE
 8
PARTS
 66
1
 10
0.0
 20
0.0
 30
0.0
 0
VERTEX
 8
PARTS
 10
 12.8700
 20
  2.6300
 30
0.0
 0
VERTEX
 8
PARTS
 10
 12.9000
 20
  2.6000
 30
0.0
 0
SEQEND
 8
PARTS
 0
POLYLINE
 8
WIRE
 66
1
 10
0.0
 20
0.0
 30
0.0
 0
VERTEX
 8
WIRE
 10
 10.7000
 20
  5.6000
 30
0.0
 0
VERTEX
 8
WIRE
 10
 10.7000
 20
  6.0000
 30
0.0
 0
SEQEND
 8
WIRE
 0
TEXT
 8
WIRETEXT
 10
 10.6700
 20
  5.6000
 30
0.0
 40
  0.0514
 50
 90.0000
 1
GND
 0
POLYLINE
 8
WIRE
 66
1
 10
0.0
 20
0.0
 30
0.0
 0
VERTEX
 8
WIRE
 10
 10.2000
 20
  8.0000
 30
0.0
 0
VERTEX
 8
WIRE
 10
  9.8000
 20
  8.0000
 30
0.0
 0
SEQEND
 8
WIRE
 0
TEXT
 8
WIRETEXT
 10
  9.8000
 20
  8.0300
 30
0.0
 40
  0.0514
 1
GND
 0
POLYLINE
 8
WIRE
 66
1
 10
0.0
 20
0.0
 30
0.0
 0
VERTEX
 8
WIRE
 10
 12.8000
 20
  8.0000
 30
0.0
 0
VERTEX
 8
WIRE
 10
 12.2000
 20
  8.0000
 30
0.0
 0
SEQEND
 8
WIRE
 0
TEXT
 8
WIRETEXT
 10
 12.5000
 20
  8.0300
 30
0.0
 40
  0.0514
 1
GND
 0
POLYLINE
 8
WIRE
 66
1
 10
0.0
 20
0.0
 30
0.0
 0
VERTEX
 8
WIRE
 10
  2.9000
 20
  7.2000
 30
0.0
 0
VERTEX
 8
WIRE
 10
  0.9000
 20
  7.2000
 30
0.0
 0
SEQEND
 8
WIRE
 0
TEXT
 8
WIRETEXT
 10
  0.9000
 20
  7.2300
 30
0.0
 40
  0.0514
 1
VDD33
 0
POLYLINE
 8
WIRE
 66
1
 10
0.0
 20
0.0
 30
0.0
 0
VERTEX
 8
WIRE
 10
  3.2000
 20
  7.3000
 30
0.0
 0
VERTEX
 8
WIRE
 10
  3.2000
 20
  8.0000
 30
0.0
 0
SEQEND
 8
WIRE
 0
POLYLINE
 8
WIRE
 66
1
 10
0.0
 20
0.0
 30
0.0
 0
VERTEX
 8
WIRE
 10
  3.2000
 20
  7.3000
 30
0.0
 0
VERTEX
 8
WIRE
 10
  3.5000
 20
  7.3000
 30
0.0
 0
SEQEND
 8
WIRE
 0
POLYLINE
 8
WIRE
 66
1
 10
0.0
 20
0.0
 30
0.0
 0
VERTEX
 8
WIRE
 10
  3.2000
 20
  8.0000
 30
0.0
 0
VERTEX
 8
WIRE
 10
  3.1000
 20
  8.0000
 30
0.0
 0
SEQEND
 8
WIRE
 0
POLYLINE
 8
WIRE
 66
1
 10
0.0
 20
0.0
 30
0.0
 0
VERTEX
 8
WIRE
 10
  3.5000
 20
  8.2000
 30
0.0
 0
VERTEX
 8
WIRE
 10
  3.5000
 20
  8.5000
 30
0.0
 0
SEQEND
 8
WIRE
 0
POLYLINE
 8
WIRE
 66
1
 10
0.0
 20
0.0
 30
0.0
 0
VERTEX
 8
WIRE
 10
  4.1000
 20
  7.4000
 30
0.0
 0
VERTEX
 8
WIRE
 10
  3.9000
 20
  7.4000
 30
0.0
 0
SEQEND
 8
WIRE
 0
POLYLINE
 8
WIRE
 66
1
 10
0.0
 20
0.0
 30
0.0
 0
VERTEX
 8
WIRE
 10
 10.2000
 20
  6.7000
 30
0.0
 0
VERTEX
 8
WIRE
 10
  9.6000
 20
  6.7000
 30
0.0
 0
SEQEND
 8
WIRE
 0
TEXT
 8
WIRETEXT
 10
  9.6000
 20
  6.7300
 30
0.0
 40
  0.0514
 1
ADC2_CH5
 0
POLYLINE
 8
WIRE
 66
1
 10
0.0
 20
0.0
 30
0.0
 0
VERTEX
 8
WIRE
 10
  0.9000
 20
  7.6000
 30
0.0
 0
VERTEX
 8
WIRE
 10
  1.6000
 20
  7.6000
 30
0.0
 0
SEQEND
 8
WIRE
 0
TEXT
 8
WIRETEXT
 10
  0.9000
 20
  7.6300
 30
0.0
 40
  0.0514
 1
ADC1_CH4
 0
POLYLINE
 8
WIRE
 66
1
 10
0.0
 20
0.0
 30
0.0
 0
VERTEX
 8
WIRE
 10
  3.2000
 20
  8.2000
 30
0.0
 0
VERTEX
 8
WIRE
 10
  3.1000
 20
  8.2000
 30
0.0
 0
SEQEND
 8
WIRE
 0
POLYLINE
 8
WIRE
 66
1
 10
0.0
 20
0.0
 30
0.0
 0
VERTEX
 8
WIRE
 10
 10.2000
 20
  7.3000
 30
0.0
 0
VERTEX
 8
WIRE
 10
  9.6000
 20
  7.3000
 30
0.0
 0
SEQEND
 8
WIRE
 0
TEXT
 8
WIRETEXT
 10
  9.6000
 20
  7.3300
 30
0.0
 40
  0.0514
 1
ADC1_CH4
 0
POLYLINE
 8
WIRE
 66
1
 10
0.0
 20
0.0
 30
0.0
 0
VERTEX
 8
WIRE
 10
  3.2000
 20
  8.2000
 30
0.0
 0
VERTEX
 8
WIRE
 10
  3.2000
 20
  8.6000
 30
0.0
 0
SEQEND
 8
WIRE
 0
TEXT
 8
WIRETEXT
 10
  3.1700
 20
  8.3000
 30
0.0
 40
  0.0514
 50
 90.0000
 1
VDD33
 0
POLYLINE
 8
WIRE
 66
1
 10
0.0
 20
0.0
 30
0.0
 0
VERTEX
 8
WIRE
 10
  3.2000
 20
  5.8000
 30
0.0
 0
VERTEX
 8
WIRE
 10
  3.2000
 20
  6.2000
 30
0.0
 0
SEQEND
 8
WIRE
 0
TEXT
 8
WIRETEXT
 10
  3.1700
 20
  5.8000
 30
0.0
 40
  0.0514
 50
 90.0000
 1
VDD33
 0
POLYLINE
 8
WIRE
 66
1
 10
0.0
 20
0.0
 30
0.0
 0
VERTEX
 8
WIRE
 10
  3.2000
 20
  6.2000
 30
0.0
 0
VERTEX
 8
WIRE
 10
  3.1000
 20
  6.2000
 30
0.0
 0
SEQEND
 8
WIRE
 0
POLYLINE
 8
WIRE
 66
1
 10
0.0
 20
0.0
 30
0.0
 0
VERTEX
 8
WIRE
 10
  3.2000
 20
  6.4000
 30
0.0
 0
VERTEX
 8
WIRE
 10
  3.1000
 20
  6.4000
 30
0.0
 0
SEQEND
 8
WIRE
 0
POLYLINE
 8
WIRE
 66
1
 10
0.0
 20
0.0
 30
0.0
 0
VERTEX
 8
WIRE
 10
  3.2000
 20
  6.4000
 30
0.0
 0
VERTEX
 8
WIRE
 10
  3.2000
 20
  7.1000
 30
0.0
 0
SEQEND
 8
WIRE
 0
POLYLINE
 8
WIRE
 66
1
 10
0.0
 20
0.0
 30
0.0
 0
VERTEX
 8
WIRE
 10
  3.5000
 20
  6.7000
 30
0.0
 0
VERTEX
 8
WIRE
 10
  3.5000
 20
  7.1000
 30
0.0
 0
SEQEND
 8
WIRE
 0
POLYLINE
 8
WIRE
 66
1
 10
0.0
 20
0.0
 30
0.0
 0
VERTEX
 8
WIRE
 10
  3.5000
 20
  7.1000
 30
0.0
 0
VERTEX
 8
WIRE
 10
  3.2000
 20
  7.1000
 30
0.0
 0
SEQEND
 8
WIRE
 0
POLYLINE
 8
WIRE
 66
1
 10
0.0
 20
0.0
 30
0.0
 0
VERTEX
 8
WIRE
 10
  4.1000
 20
  7.1000
 30
0.0
 0
VERTEX
 8
WIRE
 10
  3.5000
 20
  7.1000
 30
0.0
 0
SEQEND
 8
WIRE
 0
POLYLINE
 8
WIRE
 66
1
 70
1
 10
0.0
 20
0.0
 30
0.0
 40
  0.0200
 41
  0.0200
 0
VERTEX
 8
WIRE
 10
  3.4900
 20
  7.1000
 30
0.0
 42
1.0
 0
VERTEX
 8
WIRE
 10
  3.5100
 20
  7.1000
 30
0.0
 42
1.0
 0
SEQEND
 8
WIRE
 0
POLYLINE
 8
WIRE
 66
1
 10
0.0
 20
0.0
 30
0.0
 0
VERTEX
 8
WIRE
 10
  1.6000
 20
  7.0000
 30
0.0
 0
VERTEX
 8
WIRE
 10
  3.9000
 20
  7.0000
 30
0.0
 0
SEQEND
 8
WIRE
 0
POLYLINE
 8
WIRE
 66
1
 70
1
 10
0.0
 20
0.0
 30
0.0
 40
  0.0200
 41
  0.0200
 0
VERTEX
 8
WIRE
 10
  1.5900
 20
  7.0000
 30
0.0
 42
1.0
 0
VERTEX
 8
WIRE
 10
  1.6100
 20
  7.0000
 30
0.0
 42
1.0
 0
SEQEND
 8
WIRE
 0
POLYLINE
 8
WIRE
 66
1
 70
1
 10
0.0
 20
0.0
 30
0.0
 40
  0.0200
 41
  0.0200
 0
VERTEX
 8
WIRE
 10
  3.8900
 20
  7.0000
 30
0.0
 42
1.0
 0
VERTEX
 8
WIRE
 10
  3.9100
 20
  7.0000
 30
0.0
 42
1.0
 0
SEQEND
 8
WIRE
 0
POLYLINE
 8
WIRE
 66
1
 10
0.0
 20
0.0
 30
0.0
 0
VERTEX
 8
WIRE
 10
  0.9000
 20
  7.0000
 30
0.0
 0
VERTEX
 8
WIRE
 10
  1.6000
 20
  7.0000
 30
0.0
 0
SEQEND
 8
WIRE
 0
TEXT
 8
WIRETEXT
 10
  0.9000
 20
  7.0300
 30
0.0
 40
  0.0514
 1
ADC1_CH5
 0
POLYLINE
 8
WIRE
 66
1
 10
0.0
 20
0.0
 30
0.0
 0
VERTEX
 8
WIRE
 10
  6.2000
 20
  8.1000
 30
0.0
 0
VERTEX
 8
WIRE
 10
  6.2000
 20
  8.5000
 30
0.0
 0
SEQEND
 8
WIRE
 0
POLYLINE
 8
WIRE
 66
1
 10
0.0
 20
0.0
 30
0.0
 0
VERTEX
 8
WIRE
 10
  6.5000
 20
  8.2000
 30
0.0
 0
VERTEX
 8
WIRE
 10
  6.5000
 20
  8.6000
 30
0.0
 0
SEQEND
 8
WIRE
 0
TEXT
 8
WIRETEXT
 10
  6.4700
 20
  8.3000
 30
0.0
 40
  0.0514
 50
 90.0000
 1
VDD33
 0
POLYLINE
 8
WIRE
 66
1
 10
0.0
 20
0.0
 30
0.0
 0
VERTEX
 8
WIRE
 10
  6.6000
 20
  8.2000
 30
0.0
 0
VERTEX
 8
WIRE
 10
  6.5000
 20
  8.2000
 30
0.0
 0
SEQEND
 8
WIRE
 0
POLYLINE
 8
WIRE
 66
1
 10
0.0
 20
0.0
 30
0.0
 0
VERTEX
 8
WIRE
 10
  6.6000
 20
  8.0000
 30
0.0
 0
VERTEX
 8
WIRE
 10
  6.5000
 20
  8.0000
 30
0.0
 0
SEQEND
 8
WIRE
 0
POLYLINE
 8
WIRE
 66
1
 10
0.0
 20
0.0
 30
0.0
 0
VERTEX
 8
WIRE
 10
  6.5000
 20
  8.0000
 30
0.0
 0
VERTEX
 8
WIRE
 10
  6.5000
 20
  7.3000
 30
0.0
 0
SEQEND
 8
WIRE
 0
POLYLINE
 8
WIRE
 66
1
 10
0.0
 20
0.0
 30
0.0
 0
VERTEX
 8
WIRE
 10
  6.5000
 20
  7.1000
 30
0.0
 0
VERTEX
 8
WIRE
 10
  6.5000
 20
  6.4000
 30
0.0
 0
SEQEND
 8
WIRE
 0
POLYLINE
 8
WIRE
 66
1
 10
0.0
 20
0.0
 30
0.0
 0
VERTEX
 8
WIRE
 10
  6.2000
 20
  6.7000
 30
0.0
 0
VERTEX
 8
WIRE
 10
  6.2000
 20
  7.1000
 30
0.0
 0
SEQEND
 8
WIRE
 0
POLYLINE
 8
WIRE
 66
1
 10
0.0
 20
0.0
 30
0.0
 0
VERTEX
 8
WIRE
 10
  5.8000
 20
  7.0000
 30
0.0
 0
VERTEX
 8
WIRE
 10
  5.8000
 20
  6.9000
 30
0.0
 0
SEQEND
 8
WIRE
 0
POLYLINE
 8
WIRE
 66
1
 10
0.0
 20
0.0
 30
0.0
 0
VERTEX
 8
WIRE
 10
  6.6000
 20
  6.4000
 30
0.0
 0
VERTEX
 8
WIRE
 10
  6.5000
 20
  6.4000
 30
0.0
 0
SEQEND
 8
WIRE
 0
POLYLINE
 8
WIRE
 66
1
 10
0.0
 20
0.0
 30
0.0
 0
VERTEX
 8
WIRE
 10
  6.6000
 20
  6.2000
 30
0.0
 0
VERTEX
 8
WIRE
 10
  6.5000
 20
  6.2000
 30
0.0
 0
SEQEND
 8
WIRE
 0
POLYLINE
 8
WIRE
 66
1
 10
0.0
 20
0.0
 30
0.0
 0
VERTEX
 8
WIRE
 10
  6.5000
 20
  5.8000
 30
0.0
 0
VERTEX
 8
WIRE
 10
  6.5000
 20
  6.2000
 30
0.0
 0
SEQEND
 8
WIRE
 0
TEXT
 8
WIRETEXT
 10
  6.4700
 20
  5.8000
 30
0.0
 40
  0.0514
 50
 90.0000
 1
VDD33
 0
POLYLINE
 8
WIRE
 66
1
 10
0.0
 20
0.0
 30
0.0
 0
VERTEX
 8
WIRE
 10
  5.5000
 20
  7.3000
 30
0.0
 0
VERTEX
 8
WIRE
 10
  6.2000
 20
  7.3000
 30
0.0
 0
SEQEND
 8
WIRE
 0
POLYLINE
 8
WIRE
 66
1
 70
1
 10
0.0
 20
0.0
 30
0.0
 40
  0.0200
 41
  0.0200
 0
VERTEX
 8
WIRE
 10
  6.1900
 20
  7.3000
 30
0.0
 42
1.0
 0
VERTEX
 8
WIRE
 10
  6.2100
 20
  7.3000
 30
0.0
 42
1.0
 0
SEQEND
 8
WIRE
 0
POLYLINE
 8
WIRE
 66
1
 10
0.0
 20
0.0
 30
0.0
 0
VERTEX
 8
WIRE
 10
  6.2000
 20
  7.1000
 30
0.0
 0
VERTEX
 8
WIRE
 10
  5.5000
 20
  7.1000
 30
0.0
 0
SEQEND
 8
WIRE
 0
POLYLINE
 8
WIRE
 66
1
 70
1
 10
0.0
 20
0.0
 30
0.0
 40
  0.0200
 41
  0.0200
 0
VERTEX
 8
WIRE
 10
  6.1900
 20
  7.1000
 30
0.0
 42
1.0
 0
VERTEX
 8
WIRE
 10
  6.2100
 20
  7.1000
 30
0.0
 42
1.0
 0
SEQEND
 8
WIRE
 0
POLYLINE
 8
WIRE
 66
1
 10
0.0
 20
0.0
 30
0.0
 0
VERTEX
 8
WIRE
 10
  6.5000
 20
  7.1000
 30
0.0
 0
VERTEX
 8
WIRE
 10
  6.2000
 20
  7.1000
 30
0.0
 0
SEQEND
 8
WIRE
 0
POLYLINE
 8
WIRE
 66
1
 10
0.0
 20
0.0
 30
0.0
 0
VERTEX
 8
WIRE
 10
  5.9000
 20
  7.2000
 30
0.0
 0
VERTEX
 8
WIRE
 10
  5.5000
 20
  7.2000
 30
0.0
 0
SEQEND
 8
WIRE
 0
POLYLINE
 8
WIRE
 66
1
 10
0.0
 20
0.0
 30
0.0
 0
VERTEX
 8
WIRE
 10
  5.8000
 20
  7.4000
 30
0.0
 0
VERTEX
 8
WIRE
 10
  5.5000
 20
  7.4000
 30
0.0
 0
SEQEND
 8
WIRE
 0
POLYLINE
 8
WIRE
 66
1
 10
0.0
 20
0.0
 30
0.0
 0
VERTEX
 8
WIRE
 10
  5.8000
 20
  7.0000
 30
0.0
 0
VERTEX
 8
WIRE
 10
  5.5000
 20
  7.0000
 30
0.0
 0
SEQEND
 8
WIRE
 0
POLYLINE
 8
WIRE
 66
1
 10
0.0
 20
0.0
 30
0.0
 0
VERTEX
 8
WIRE
 10
  5.5000
 20
  7.5000
 30
0.0
 0
VERTEX
 8
WIRE
 10
  5.8000
 20
  7.5000
 30
0.0
 0
SEQEND
 8
WIRE
 0
POLYLINE
 8
WIRE
 66
1
 10
0.0
 20
0.0
 30
0.0
 0
VERTEX
 8
WIRE
 10
  5.5000
 20
  6.9000
 30
0.0
 0
VERTEX
 8
WIRE
 10
  5.8000
 20
  6.9000
 30
0.0
 0
SEQEND
 8
WIRE
 0
POLYLINE
 8
WIRE
 66
1
 10
0.0
 20
0.0
 30
0.0
 0
VERTEX
 8
WIRE
 10
 10.2000
 20
  7.2000
 30
0.0
 0
VERTEX
 8
WIRE
 10
  9.6000
 20
  7.2000
 30
0.0
 0
SEQEND
 8
WIRE
 0
TEXT
 8
WIRETEXT
 10
  9.6000
 20
  7.2300
 30
0.0
 40
  0.0514
 1
ADC1_CH5
 0
POLYLINE
 8
WIRE
 66
1
 10
0.0
 20
0.0
 30
0.0
 0
VERTEX
 8
WIRE
 10
 10.2000
 20
  7.4000
 30
0.0
 0
VERTEX
 8
WIRE
 10
  9.6000
 20
  7.4000
 30
0.0
 0
SEQEND
 8
WIRE
 0
TEXT
 8
WIRETEXT
 10
  9.6000
 20
  7.4300
 30
0.0
 40
  0.0514
 1
ADC1_CH7
 0
POLYLINE
 8
WIRE
 66
1
 10
0.0
 20
0.0
 30
0.0
 0
VERTEX
 8
WIRE
 10
 10.2000
 20
  7.5000
 30
0.0
 0
VERTEX
 8
WIRE
 10
  9.6000
 20
  7.5000
 30
0.0
 0
SEQEND
 8
WIRE
 0
TEXT
 8
WIRETEXT
 10
  9.6000
 20
  7.5300
 30
0.0
 40
  0.0514
 1
ADC1_CH6
 0
POLYLINE
 8
WIRE
 66
1
 10
0.0
 20
0.0
 30
0.0
 0
VERTEX
 8
WIRE
 10
 10.2000
 20
  6.8000
 30
0.0
 0
VERTEX
 8
WIRE
 10
  9.6000
 20
  6.8000
 30
0.0
 0
SEQEND
 8
WIRE
 0
TEXT
 8
WIRETEXT
 10
  9.6000
 20
  6.8300
 30
0.0
 40
  0.0514
 1
ADC2_CH6
 0
POLYLINE
 8
WIRE
 66
1
 10
0.0
 20
0.0
 30
0.0
 0
VERTEX
 8
WIRE
 10
 10.2000
 20
  6.9000
 30
0.0
 0
VERTEX
 8
WIRE
 10
  9.6000
 20
  6.9000
 30
0.0
 0
SEQEND
 8
WIRE
 0
TEXT
 8
WIRETEXT
 10
  9.6000
 20
  6.9300
 30
0.0
 40
  0.0514
 1
ADC2_CH7
 0
POLYLINE
 8
WIRE
 66
1
 10
0.0
 20
0.0
 30
0.0
 0
VERTEX
 8
WIRE
 10
 10.2000
 20
  7.0000
 30
0.0
 0
VERTEX
 8
WIRE
 10
  9.6000
 20
  7.0000
 30
0.0
 0
SEQEND
 8
WIRE
 0
TEXT
 8
WIRETEXT
 10
  9.6000
 20
  7.0300
 30
0.0
 40
  0.0514
 1
ADC2_CH9
 0
POLYLINE
 8
WIRE
 66
1
 10
0.0
 20
0.0
 30
0.0
 0
VERTEX
 8
WIRE
 10
  9.3000
 20
  7.8000
 30
0.0
 0
VERTEX
 8
WIRE
 10
  8.9000
 20
  7.8000
 30
0.0
 0
SEQEND
 8
WIRE
 0
POLYLINE
 8
WIRE
 66
1
 10
0.0
 20
0.0
 30
0.0
 0
VERTEX
 8
WIRE
 10
 12.2000
 20
  6.7000
 30
0.0
 0
VERTEX
 8
WIRE
 10
 12.5000
 20
  6.7000
 30
0.0
 0
SEQEND
 8
WIRE
 0
POLYLINE
 8
WIRE
 66
1
 10
0.0
 20
0.0
 30
0.0
 0
VERTEX
 8
WIRE
 10
  6.2000
 20
  6.2000
 30
0.0
 0
VERTEX
 8
WIRE
 10
  6.2000
 20
  5.9000
 30
0.0
 0
SEQEND
 8
WIRE
 0
POLYLINE
 8
WIRE
 66
1
 10
0.0
 20
0.0
 30
0.0
 0
VERTEX
 8
WIRE
 10
  6.2000
 20
  7.6000
 30
0.0
 0
VERTEX
 8
WIRE
 10
  6.2000
 20
  7.3000
 30
0.0
 0
SEQEND
 8
WIRE
 0
POLYLINE
 8
WIRE
 66
1
 10
0.0
 20
0.0
 30
0.0
 0
VERTEX
 8
WIRE
 10
  6.2000
 20
  7.3000
 30
0.0
 0
VERTEX
 8
WIRE
 10
  6.5000
 20
  7.3000
 30
0.0
 0
SEQEND
 8
WIRE
 0
POLYLINE
 8
WIRE
 66
1
 10
0.0
 20
0.0
 30
0.0
 0
VERTEX
 8
WIRE
 10
  3.5000
 20
  7.3000
 30
0.0
 0
VERTEX
 8
WIRE
 10
  3.5000
 20
  7.7000
 30
0.0
 0
SEQEND
 8
WIRE
 0
POLYLINE
 8
WIRE
 66
1
 10
0.0
 20
0.0
 30
0.0
 0
VERTEX
 8
WIRE
 10
  3.5000
 20
  7.3000
 30
0.0
 0
VERTEX
 8
WIRE
 10
  4.1000
 20
  7.3000
 30
0.0
 0
SEQEND
 8
WIRE
 0
POLYLINE
 8
WIRE
 66
1
 70
1
 10
0.0
 20
0.0
 30
0.0
 40
  0.0200
 41
  0.0200
 0
VERTEX
 8
WIRE
 10
  3.4900
 20
  7.3000
 30
0.0
 42
1.0
 0
VERTEX
 8
WIRE
 10
  3.5100
 20
  7.3000
 30
0.0
 42
1.0
 0
SEQEND
 8
WIRE
 0
POLYLINE
 8
WIRE
 66
1
 10
0.0
 20
0.0
 30
0.0
 0
VERTEX
 8
WIRE
 10
  3.5000
 20
  6.2000
 30
0.0
 0
VERTEX
 8
WIRE
 10
  3.5000
 20
  5.9000
 30
0.0
 0
SEQEND
 8
WIRE
 0
POLYLINE
 8
WIRE
 66
1
 10
0.0
 20
0.0
 30
0.0
 0
VERTEX
 8
WIRE
 10
 12.2000
 20
  7.7000
 30
0.0
 0
VERTEX
 8
WIRE
 10
 12.5000
 20
  7.7000
 30
0.0
 0
SEQEND
 8
WIRE
 0
POLYLINE
 8
WIRE
 66
1
 10
0.0
 20
0.0
 30
0.0
 0
VERTEX
 8
WIRE
 10
 12.2000
 20
  7.6000
 30
0.0
 0
VERTEX
 8
WIRE
 10
 12.5000
 20
  7.6000
 30
0.0
 0
SEQEND
 8
WIRE
 0
POLYLINE
 8
WIRE
 66
1
 10
0.0
 20
0.0
 30
0.0
 0
VERTEX
 8
WIRE
 10
  4.1000
 20
  7.6000
 30
0.0
 0
VERTEX
 8
WIRE
 10
  4.1000
 20
  7.5000
 30
0.0
 0
SEQEND
 8
WIRE
 0
POLYLINE
 8
WIRE
 66
1
 10
0.0
 20
0.0
 30
0.0
 0
VERTEX
 8
WIRE
 10
  2.3000
 20
  7.4000
 30
0.0
 0
VERTEX
 8
WIRE
 10
  2.1000
 20
  7.4000
 30
0.0
 0
SEQEND
 8
WIRE
 0
POLYLINE
 8
WIRE
 66
1
 10
0.0
 20
0.0
 30
0.0
 0
VERTEX
 8
WIRE
 10
  2.6000
 20
  7.4000
 30
0.0
 0
VERTEX
 8
WIRE
 10
  2.9000
 20
  7.4000
 30
0.0
 0
SEQEND
 8
WIRE
 0
POLYLINE
 8
WIRE
 66
1
 10
0.0
 20
0.0
 30
0.0
 0
VERTEX
 8
WIRE
 10
  2.9000
 20
  7.4000
 30
0.0
 0
VERTEX
 8
WIRE
 10
  2.9000
 20
  7.2000
 30
0.0
 0
SEQEND
 8
WIRE
 0
POLYLINE
 8
WIRE
 66
1
 10
0.0
 20
0.0
 30
0.0
 0
VERTEX
 8
WIRE
 10
  2.9000
 20
  7.2000
 30
0.0
 0
VERTEX
 8
WIRE
 10
  4.1000
 20
  7.2000
 30
0.0
 0
SEQEND
 8
WIRE
 0
POLYLINE
 8
WIRE
 66
1
 70
1
 10
0.0
 20
0.0
 30
0.0
 40
  0.0200
 41
  0.0200
 0
VERTEX
 8
WIRE
 10
  2.8900
 20
  7.2000
 30
0.0
 42
1.0
 0
VERTEX
 8
WIRE
 10
  2.9100
 20
  7.2000
 30
0.0
 42
1.0
 0
SEQEND
 8
WIRE
 0
POLYLINE
 8
WIRE
 66
1
 10
0.0
 20
0.0
 30
0.0
 0
VERTEX
 8
WIRE
 10
  1.6000
 20
  7.7000
 30
0.0
 0
VERTEX
 8
WIRE
 10
  1.6000
 20
  7.6000
 30
0.0
 0
SEQEND
 8
WIRE
 0
POLYLINE
 8
WIRE
 66
1
 10
0.0
 20
0.0
 30
0.0
 0
VERTEX
 8
WIRE
 10
  1.6000
 20
  6.9000
 30
0.0
 0
VERTEX
 8
WIRE
 10
  1.6000
 20
  7.0000
 30
0.0
 0
SEQEND
 8
WIRE
 0
POLYLINE
 8
WIRE
 66
1
 10
0.0
 20
0.0
 30
0.0
 0
VERTEX
 8
WIRE
 10
  1.6000
 20
  6.6000
 30
0.0
 0
VERTEX
 8
WIRE
 10
  1.6000
 20
  6.5000
 30
0.0
 0
SEQEND
 8
WIRE
 0
POLYLINE
 8
WIRE
 66
1
 10
0.0
 20
0.0
 30
0.0
 0
VERTEX
 8
WIRE
 10
  1.6000
 20
  8.1000
 30
0.0
 0
VERTEX
 8
WIRE
 10
  1.6000
 20
  8.0000
 30
0.0
 0
SEQEND
 8
WIRE
 0
POLYLINE
 8
WIRE
 66
1
 10
0.0
 20
0.0
 30
0.0
 0
VERTEX
 8
WIRE
 10
  7.7000
 20
  7.9000
 30
0.0
 0
VERTEX
 8
WIRE
 10
  7.7000
 20
  8.0000
 30
0.0
 0
SEQEND
 8
WIRE
 0
POLYLINE
 8
WIRE
 66
1
 10
0.0
 20
0.0
 30
0.0
 0
VERTEX
 8
WIRE
 10
  7.7000
 20
  7.5000
 30
0.0
 0
VERTEX
 8
WIRE
 10
  7.7000
 20
  7.6000
 30
0.0
 0
SEQEND
 8
WIRE
 0
POLYLINE
 8
WIRE
 66
1
 10
0.0
 20
0.0
 30
0.0
 0
VERTEX
 8
WIRE
 10
  7.7000
 20
  6.4000
 30
0.0
 0
VERTEX
 8
WIRE
 10
  7.7000
 20
  6.5000
 30
0.0
 0
SEQEND
 8
WIRE
 0
POLYLINE
 8
WIRE
 66
1
 10
0.0
 20
0.0
 30
0.0
 0
VERTEX
 8
WIRE
 10
  8.4000
 20
  7.5000
 30
0.0
 0
VERTEX
 8
WIRE
 10
  7.7000
 20
  7.5000
 30
0.0
 0
SEQEND
 8
WIRE
 0
TEXT
 8
WIRETEXT
 10
  7.9000
 20
  7.5300
 30
0.0
 40
  0.0514
 1
ADC1_CH6
 0
POLYLINE
 8
WIRE
 66
1
 10
0.0
 20
0.0
 30
0.0
 0
VERTEX
 8
WIRE
 10
  7.7000
 20
  6.8000
 30
0.0
 0
VERTEX
 8
WIRE
 10
  7.7000
 20
  6.9000
 30
0.0
 0
SEQEND
 8
WIRE
 0
POLYLINE
 8
WIRE
 66
1
 10
0.0
 20
0.0
 30
0.0
 0
VERTEX
 8
WIRE
 10
  8.4000
 20
  6.9000
 30
0.0
 0
VERTEX
 8
WIRE
 10
  7.7000
 20
  6.9000
 30
0.0
 0
SEQEND
 8
WIRE
 0
TEXT
 8
WIRETEXT
 10
  7.9000
 20
  6.9300
 30
0.0
 40
  0.0514
 1
ADC1_CH7
 0
POLYLINE
 8
WIRE
 66
1
 10
0.0
 20
0.0
 30
0.0
 0
VERTEX
 8
WIRE
 10
  9.7000
 20
  8.7000
 30
0.0
 0
VERTEX
 8
WIRE
 10
  9.7000
 20
  9.2000
 30
0.0
 0
SEQEND
 8
WIRE
 0
POLYLINE
 8
WIRE
 66
1
 70
1
 10
0.0
 20
0.0
 30
0.0
 40
  0.0200
 41
  0.0200
 0
VERTEX
 8
WIRE
 10
  9.6900
 20
  8.7000
 30
0.0
 42
1.0
 0
VERTEX
 8
WIRE
 10
  9.7100
 20
  8.7000
 30
0.0
 42
1.0
 0
SEQEND
 8
WIRE
 0
TEXT
 8
WIRETEXT
 10
  9.6700
 20
  8.9000
 30
0.0
 40
  0.0514
 50
 90.0000
 1
VDD33
 0
POLYLINE
 8
WIRE
 66
1
 10
0.0
 20
0.0
 30
0.0
 0
VERTEX
 8
WIRE
 10
 10.2000
 20
  7.9000
 30
0.0
 0
VERTEX
 8
WIRE
 10
  9.7000
 20
  7.9000
 30
0.0
 0
SEQEND
 8
WIRE
 0
POLYLINE
 8
WIRE
 66
1
 10
0.0
 20
0.0
 30
0.0
 0
VERTEX
 8
WIRE
 10
  9.9000
 20
  8.7000
 30
0.0
 0
VERTEX
 8
WIRE
 10
  9.7000
 20
  8.7000
 30
0.0
 0
SEQEND
 8
WIRE
 0
POLYLINE
 8
WIRE
 66
1
 10
0.0
 20
0.0
 30
0.0
 0
VERTEX
 8
WIRE
 10
  9.7000
 20
  8.7000
 30
0.0
 0
VERTEX
 8
WIRE
 10
  9.7000
 20
  8.5000
 30
0.0
 0
SEQEND
 8
WIRE
 0
POLYLINE
 8
WIRE
 66
1
 10
0.0
 20
0.0
 30
0.0
 0
VERTEX
 8
WIRE
 10
  9.9000
 20
  8.5000
 30
0.0
 0
VERTEX
 8
WIRE
 10
  9.7000
 20
  8.5000
 30
0.0
 0
SEQEND
 8
WIRE
 0
POLYLINE
 8
WIRE
 66
1
 10
0.0
 20
0.0
 30
0.0
 0
VERTEX
 8
WIRE
 10
  9.7000
 20
  8.5000
 30
0.0
 0
VERTEX
 8
WIRE
 10
  9.7000
 20
  7.9000
 30
0.0
 0
SEQEND
 8
WIRE
 0
POLYLINE
 8
WIRE
 66
1
 70
1
 10
0.0
 20
0.0
 30
0.0
 40
  0.0200
 41
  0.0200
 0
VERTEX
 8
WIRE
 10
  9.6900
 20
  8.5000
 30
0.0
 42
1.0
 0
VERTEX
 8
WIRE
 10
  9.7100
 20
  8.5000
 30
0.0
 42
1.0
 0
SEQEND
 8
WIRE
 0
POLYLINE
 8
WIRE
 66
1
 10
0.0
 20
0.0
 30
0.0
 0
VERTEX
 8
WIRE
 10
 10.2000
 20
  8.7000
 30
0.0
 0
VERTEX
 8
WIRE
 10
 10.4000
 20
  8.7000
 30
0.0
 0
SEQEND
 8
WIRE
 0
POLYLINE
 8
WIRE
 66
1
 10
0.0
 20
0.0
 30
0.0
 0
VERTEX
 8
WIRE
 10
 10.4000
 20
  8.7000
 30
0.0
 0
VERTEX
 8
WIRE
 10
 10.4000
 20
  8.6000
 30
0.0
 0
SEQEND
 8
WIRE
 0
POLYLINE
 8
WIRE
 66
1
 10
0.0
 20
0.0
 30
0.0
 0
VERTEX
 8
WIRE
 10
 10.4000
 20
  8.6000
 30
0.0
 0
VERTEX
 8
WIRE
 10
 10.7000
 20
  8.6000
 30
0.0
 0
SEQEND
 8
WIRE
 0
POLYLINE
 8
WIRE
 66
1
 10
0.0
 20
0.0
 30
0.0
 0
VERTEX
 8
WIRE
 10
 10.2000
 20
  8.5000
 30
0.0
 0
VERTEX
 8
WIRE
 10
 10.4000
 20
  8.5000
 30
0.0
 0
SEQEND
 8
WIRE
 0
POLYLINE
 8
WIRE
 66
1
 10
0.0
 20
0.0
 30
0.0
 0
VERTEX
 8
WIRE
 10
 10.4000
 20
  8.5000
 30
0.0
 0
VERTEX
 8
WIRE
 10
 10.4000
 20
  8.6000
 30
0.0
 0
SEQEND
 8
WIRE
 0
POLYLINE
 8
WIRE
 66
1
 70
1
 10
0.0
 20
0.0
 30
0.0
 40
  0.0200
 41
  0.0200
 0
VERTEX
 8
WIRE
 10
 10.3900
 20
  8.6000
 30
0.0
 42
1.0
 0
VERTEX
 8
WIRE
 10
 10.4100
 20
  8.6000
 30
0.0
 42
1.0
 0
SEQEND
 8
WIRE
 0
POLYLINE
 8
WIRE
 66
1
 10
0.0
 20
0.0
 30
0.0
 0
VERTEX
 8
WIRE
 10
  9.3000
 20
  8.3000
 30
0.0
 0
VERTEX
 8
WIRE
 10
  9.3000
 20
  7.8000
 30
0.0
 0
SEQEND
 8
WIRE
 0
POLYLINE
 8
WIRE
 66
1
 10
0.0
 20
0.0
 30
0.0
 0
VERTEX
 8
WIRE
 10
  9.3000
 20
  7.8000
 30
0.0
 0
VERTEX
 8
WIRE
 10
 10.2000
 20
  7.8000
 30
0.0
 0
SEQEND
 8
WIRE
 0
POLYLINE
 8
WIRE
 66
1
 70
1
 10
0.0
 20
0.0
 30
0.0
 40
  0.0200
 41
  0.0200
 0
VERTEX
 8
WIRE
 10
  9.2900
 20
  7.8000
 30
0.0
 42
1.0
 0
VERTEX
 8
WIRE
 10
  9.3100
 20
  7.8000
 30
0.0
 42
1.0
 0
SEQEND
 8
WIRE
 0
POLYLINE
 8
WIRE
 66
1
 10
0.0
 20
0.0
 30
0.0
 0
VERTEX
 8
WIRE
 10
  9.3000
 20
  8.8000
 30
0.0
 0
VERTEX
 8
WIRE
 10
  9.3000
 20
  9.2000
 30
0.0
 0
SEQEND
 8
WIRE
 0
TEXT
 8
WIRETEXT
 10
  9.2700
 20
  8.9000
 30
0.0
 40
  0.0514
 50
 90.0000
 1
VDD33
 0
POLYLINE
 8
WIRE
 66
1
 10
0.0
 20
0.0
 30
0.0
 0
VERTEX
 8
WIRE
 10
  8.9000
 20
  7.8000
 30
0.0
 0
VERTEX
 8
WIRE
 10
  8.9000
 20
  8.4000
 30
0.0
 0
SEQEND
 8
WIRE
 0
POLYLINE
 8
WIRE
 66
1
 10
0.0
 20
0.0
 30
0.0
 0
VERTEX
 8
WIRE
 10
  8.9000
 20
  9.1000
 30
0.0
 0
VERTEX
 8
WIRE
 10
  8.9000
 20
  8.7000
 30
0.0
 0
SEQEND
 8
WIRE
 0
POLYLINE
 8
WIRE
 66
1
 10
0.0
 20
0.0
 30
0.0
 0
VERTEX
 8
WIRE
 10
 13.7000
 20
  3.3000
 30
0.0
 0
VERTEX
 8
WIRE
 10
 13.9000
 20
  3.3000
 30
0.0
 0
SEQEND
 8
WIRE
 0
POLYLINE
 8
WIRE
 66
1
 70
1
 10
0.0
 20
0.0
 30
0.0
 40
  0.0200
 41
  0.0200
 0
VERTEX
 8
WIRE
 10
 13.8900
 20
  3.3000
 30
0.0
 42
1.0
 0
VERTEX
 8
WIRE
 10
 13.9100
 20
  3.3000
 30
0.0
 42
1.0
 0
SEQEND
 8
WIRE
 0
POLYLINE
 8
WIRE
 66
1
 10
0.0
 20
0.0
 30
0.0
 0
VERTEX
 8
WIRE
 10
 13.9000
 20
  2.8000
 30
0.0
 0
VERTEX
 8
WIRE
 10
 13.3000
 20
  2.8000
 30
0.0
 0
SEQEND
 8
WIRE
 0
POLYLINE
 8
WIRE
 66
1
 70
1
 10
0.0
 20
0.0
 30
0.0
 40
  0.0200
 41
  0.0200
 0
VERTEX
 8
WIRE
 10
 13.8900
 20
  2.8000
 30
0.0
 42
1.0
 0
VERTEX
 8
WIRE
 10
 13.9100
 20
  2.8000
 30
0.0
 42
1.0
 0
SEQEND
 8
WIRE
 0
POLYLINE
 8
WIRE
 66
1
 10
0.0
 20
0.0
 30
0.0
 0
VERTEX
 8
WIRE
 10
 13.9000
 20
  2.8000
 30
0.0
 0
VERTEX
 8
WIRE
 10
 13.9000
 20
  3.3000
 30
0.0
 0
SEQEND
 8
WIRE
 0
POLYLINE
 8
WIRE
 66
1
 10
0.0
 20
0.0
 30
0.0
 0
VERTEX
 8
WIRE
 10
 13.9000
 20
  3.3000
 30
0.0
 0
VERTEX
 8
WIRE
 10
 14.3000
 20
  3.3000
 30
0.0
 0
SEQEND
 8
WIRE
 0
TEXT
 8
WIRETEXT
 10
 14.0000
 20
  3.3300
 30
0.0
 40
  0.0514
 1
VDD33
 0
POLYLINE
 8
WIRE
 66
1
 10
0.0
 20
0.0
 30
0.0
 0
VERTEX
 8
WIRE
 10
 12.4000
 20
  3.1000
 30
0.0
 0
VERTEX
 8
WIRE
 10
 12.4000
 20
  2.8000
 30
0.0
 0
SEQEND
 8
WIRE
 0
POLYLINE
 8
WIRE
 66
1
 10
0.0
 20
0.0
 30
0.0
 0
VERTEX
 8
WIRE
 10
 12.5000
 20
  2.6000
 30
0.0
 0
VERTEX
 8
WIRE
 10
 12.4000
 20
  2.6000
 30
0.0
 0
SEQEND
 8
WIRE
 0
POLYLINE
 8
WIRE
 66
1
 10
0.0
 20
0.0
 30
0.0
 0
VERTEX
 8
WIRE
 10
 12.8000
 20
  2.8000
 30
0.0
 0
VERTEX
 8
WIRE
 10
 12.4000
 20
  2.8000
 30
0.0
 0
SEQEND
 8
WIRE
 0
POLYLINE
 8
WIRE
 66
1
 70
1
 10
0.0
 20
0.0
 30
0.0
 40
  0.0200
 41
  0.0200
 0
VERTEX
 8
WIRE
 10
 12.3900
 20
  2.8000
 30
0.0
 42
1.0
 0
VERTEX
 8
WIRE
 10
 12.4100
 20
  2.8000
 30
0.0
 42
1.0
 0
SEQEND
 8
WIRE
 0
POLYLINE
 8
WIRE
 66
1
 10
0.0
 20
0.0
 30
0.0
 0
VERTEX
 8
WIRE
 10
 12.4000
 20
  2.6000
 30
0.0
 0
VERTEX
 8
WIRE
 10
 12.4000
 20
  2.8000
 30
0.0
 0
SEQEND
 8
WIRE
 0
POLYLINE
 8
WIRE
 66
1
 10
0.0
 20
0.0
 30
0.0
 0
VERTEX
 8
WIRE
 10
 13.9000
 20
  2.6000
 30
0.0
 0
VERTEX
 8
WIRE
 10
 13.9000
 20
  2.8000
 30
0.0
 0
SEQEND
 8
WIRE
 0
POLYLINE
 8
WIRE
 66
1
 10
0.0
 20
0.0
 30
0.0
 0
VERTEX
 8
WIRE
 10
 13.9000
 20
  2.6000
 30
0.0
 0
VERTEX
 8
WIRE
 10
 13.8000
 20
  2.6000
 30
0.0
 0
SEQEND
 8
WIRE
 0
POLYLINE
 8
WIRE
 66
1
 10
0.0
 20
0.0
 30
0.0
 0
VERTEX
 8
WIRE
 10
 13.2000
 20
  2.6000
 30
0.0
 0
VERTEX
 8
WIRE
 10
 13.0000
 20
  2.6000
 30
0.0
 0
SEQEND
 8
WIRE
 0
POLYLINE
 8
WIRE
 66
1
 10
0.0
 20
0.0
 30
0.0
 0
VERTEX
 8
WIRE
 10
 13.2000
 20
  2.6000
 30
0.0
 0
VERTEX
 8
WIRE
 10
 13.2000
 20
  2.3000
 30
0.0
 0
SEQEND
 8
WIRE
 0
POLYLINE
 8
WIRE
 66
1
 70
1
 10
0.0
 20
0.0
 30
0.0
 40
  0.0200
 41
  0.0200
 0
VERTEX
 8
WIRE
 10
 13.1900
 20
  2.6000
 30
0.0
 42
1.0
 0
VERTEX
 8
WIRE
 10
 13.2100
 20
  2.6000
 30
0.0
 42
1.0
 0
SEQEND
 8
WIRE
 0
POLYLINE
 8
WIRE
 66
1
 70
1
 10
0.0
 20
0.0
 30
0.0
 40
  0.0200
 41
  0.0200
 0
VERTEX
 8
WIRE
 10
 13.1900
 20
  2.3000
 30
0.0
 42
1.0
 0
VERTEX
 8
WIRE
 10
 13.2100
 20
  2.3000
 30
0.0
 42
1.0
 0
SEQEND
 8
WIRE
 0
POLYLINE
 8
WIRE
 66
1
 10
0.0
 20
0.0
 30
0.0
 0
VERTEX
 8
WIRE
 10
 13.4000
 20
  2.6000
 30
0.0
 0
VERTEX
 8
WIRE
 10
 13.2000
 20
  2.6000
 30
0.0
 0
SEQEND
 8
WIRE
 0
POLYLINE
 8
WIRE
 66
1
 10
0.0
 20
0.0
 30
0.0
 0
VERTEX
 8
WIRE
 10
 12.0000
 20
  3.3000
 30
0.0
 0
VERTEX
 8
WIRE
 10
 11.6000
 20
  3.3000
 30
0.0
 0
SEQEND
 8
WIRE
 0
POLYLINE
 8
WIRE
 66
1
 10
0.0
 20
0.0
 30
0.0
 0
VERTEX
 8
WIRE
 10
 12.0000
 20
  4.1000
 30
0.0
 0
VERTEX
 8
WIRE
 10
 12.0000
 20
  3.8000
 30
0.0
 0
SEQEND
 8
WIRE
 0
POLYLINE
 8
WIRE
 66
1
 10
0.0
 20
0.0
 30
0.0
 0
VERTEX
 8
WIRE
 10
 12.0000
 20
  3.5000
 30
0.0
 0
VERTEX
 8
WIRE
 10
 12.0000
 20
  3.3000
 30
0.0
 0
SEQEND
 8
WIRE
 0
POLYLINE
 8
WIRE
 66
1
 10
0.0
 20
0.0
 30
0.0
 0
VERTEX
 8
WIRE
 10
 12.0000
 20
  3.3000
 30
0.0
 0
VERTEX
 8
WIRE
 10
 12.4000
 20
  3.3000
 30
0.0
 0
SEQEND
 8
WIRE
 0
POLYLINE
 8
WIRE
 66
1
 70
1
 10
0.0
 20
0.0
 30
0.0
 40
  0.0200
 41
  0.0200
 0
VERTEX
 8
WIRE
 10
 11.9900
 20
  3.3000
 30
0.0
 42
1.0
 0
VERTEX
 8
WIRE
 10
 12.0100
 20
  3.3000
 30
0.0
 42
1.0
 0
SEQEND
 8
WIRE
 0
POLYLINE
 8
WIRE
 66
1
 10
0.0
 20
0.0
 30
0.0
 0
VERTEX
 8
WIRE
 10
 13.2000
 20
  2.3000
 30
0.0
 0
VERTEX
 8
WIRE
 10
 14.3000
 20
  2.3000
 30
0.0
 0
SEQEND
 8
WIRE
 0
TEXT
 8
WIRETEXT
 10
 14.0000
 20
  2.3300
 30
0.0
 40
  0.0514
 1
GND
 0
POLYLINE
 8
WIRE
 66
1
 10
0.0
 20
0.0
 30
0.0
 0
VERTEX
 8
WIRE
 10
 13.2000
 20
  2.3000
 30
0.0
 0
VERTEX
 8
WIRE
 10
 13.2000
 20
  2.1000
 30
0.0
 0
SEQEND
 8
WIRE
 0
POLYLINE
 8
WIRE
 66
1
 10
0.0
 20
0.0
 30
0.0
 0
VERTEX
 8
WIRE
 10
  3.3000
 20
  4.3000
 30
0.0
 0
VERTEX
 8
WIRE
 10
  3.3000
 20
  4.7000
 30
0.0
 0
SEQEND
 8
WIRE
 0
TEXT
 8
WIRETEXT
 10
  3.2700
 20
  4.4000
 30
0.0
 40
  0.0514
 50
 90.0000
 1
VDD33
 0
POLYLINE
 8
WIRE
 66
1
 10
0.0
 20
0.0
 30
0.0
 0
VERTEX
 8
WIRE
 10
  6.6000
 20
  4.3000
 30
0.0
 0
VERTEX
 8
WIRE
 10
  6.6000
 20
  4.7000
 30
0.0
 0
SEQEND
 8
WIRE
 0
TEXT
 8
WIRETEXT
 10
  6.5700
 20
  4.4000
 30
0.0
 40
  0.0514
 50
 90.0000
 1
VDD33
 0
POLYLINE
 8
WIRE
 66
1
 10
0.0
 20
0.0
 30
0.0
 0
VERTEX
 8
WIRE
 10
  3.6000
 20
  4.3000
 30
0.0
 0
VERTEX
 8
WIRE
 10
  3.6000
 20
  4.6000
 30
0.0
 0
SEQEND
 8
WIRE
 0
POLYLINE
 8
WIRE
 66
1
 10
0.0
 20
0.0
 30
0.0
 0
VERTEX
 8
WIRE
 10
  6.3000
 20
  4.2000
 30
0.0
 0
VERTEX
 8
WIRE
 10
  6.3000
 20
  4.6000
 30
0.0
 0
SEQEND
 8
WIRE
 0
POLYLINE
 8
WIRE
 66
1
 10
0.0
 20
0.0
 30
0.0
 0
VERTEX
 8
WIRE
 10
  3.3000
 20
  4.3000
 30
0.0
 0
VERTEX
 8
WIRE
 10
  3.2000
 20
  4.3000
 30
0.0
 0
SEQEND
 8
WIRE
 0
POLYLINE
 8
WIRE
 66
1
 10
0.0
 20
0.0
 30
0.0
 0
VERTEX
 8
WIRE
 10
  6.7000
 20
  4.3000
 30
0.0
 0
VERTEX
 8
WIRE
 10
  6.6000
 20
  4.3000
 30
0.0
 0
SEQEND
 8
WIRE
 0
POLYLINE
 8
WIRE
 66
1
 10
0.0
 20
0.0
 30
0.0
 0
VERTEX
 8
WIRE
 10
  1.7000
 20
  4.2000
 30
0.0
 0
VERTEX
 8
WIRE
 10
  1.7000
 20
  4.1000
 30
0.0
 0
SEQEND
 8
WIRE
 0
POLYLINE
 8
WIRE
 66
1
 10
0.0
 20
0.0
 30
0.0
 0
VERTEX
 8
WIRE
 10
  3.3000
 20
  4.1000
 30
0.0
 0
VERTEX
 8
WIRE
 10
  3.2000
 20
  4.1000
 30
0.0
 0
SEQEND
 8
WIRE
 0
POLYLINE
 8
WIRE
 66
1
 10
0.0
 20
0.0
 30
0.0
 0
VERTEX
 8
WIRE
 10
  3.3000
 20
  3.4000
 30
0.0
 0
VERTEX
 8
WIRE
 10
  3.3000
 20
  4.1000
 30
0.0
 0
SEQEND
 8
WIRE
 0
POLYLINE
 8
WIRE
 66
1
 10
0.0
 20
0.0
 30
0.0
 0
VERTEX
 8
WIRE
 10
  6.7000
 20
  4.1000
 30
0.0
 0
VERTEX
 8
WIRE
 10
  6.6000
 20
  4.1000
 30
0.0
 0
SEQEND
 8
WIRE
 0
POLYLINE
 8
WIRE
 66
1
 10
0.0
 20
0.0
 30
0.0
 0
VERTEX
 8
WIRE
 10
  6.6000
 20
  4.1000
 30
0.0
 0
VERTEX
 8
WIRE
 10
  6.6000
 20
  3.4000
 30
0.0
 0
SEQEND
 8
WIRE
 0
POLYLINE
 8
WIRE
 66
1
 10
0.0
 20
0.0
 30
0.0
 0
VERTEX
 8
WIRE
 10
  7.8000
 20
  4.0000
 30
0.0
 0
VERTEX
 8
WIRE
 10
  7.8000
 20
  4.1000
 30
0.0
 0
SEQEND
 8
WIRE
 0
POLYLINE
 8
WIRE
 66
1
 10
0.0
 20
0.0
 30
0.0
 0
VERTEX
 8
WIRE
 10
  1.7000
 20
  3.8000
 30
0.0
 0
VERTEX
 8
WIRE
 10
  1.7000
 20
  3.7000
 30
0.0
 0
SEQEND
 8
WIRE
 0
POLYLINE
 8
WIRE
 66
1
 10
0.0
 20
0.0
 30
0.0
 0
VERTEX
 8
WIRE
 10
  1.0000
 20
  3.7000
 30
0.0
 0
VERTEX
 8
WIRE
 10
  1.7000
 20
  3.7000
 30
0.0
 0
SEQEND
 8
WIRE
 0
TEXT
 8
WIRETEXT
 10
  1.0000
 20
  3.7300
 30
0.0
 40
  0.0514
 1
ADC2_CH5
 0
POLYLINE
 8
WIRE
 66
1
 10
0.0
 20
0.0
 30
0.0
 0
VERTEX
 8
WIRE
 10
  3.6000
 20
  3.4000
 30
0.0
 0
VERTEX
 8
WIRE
 10
  3.6000
 20
  3.8000
 30
0.0
 0
SEQEND
 8
WIRE
 0
POLYLINE
 8
WIRE
 66
1
 10
0.0
 20
0.0
 30
0.0
 0
VERTEX
 8
WIRE
 10
  4.2000
 20
  3.7000
 30
0.0
 0
VERTEX
 8
WIRE
 10
  4.2000
 20
  3.6000
 30
0.0
 0
SEQEND
 8
WIRE
 0
POLYLINE
 8
WIRE
 66
1
 10
0.0
 20
0.0
 30
0.0
 0
VERTEX
 8
WIRE
 10
  6.3000
 20
  3.7000
 30
0.0
 0
VERTEX
 8
WIRE
 10
  6.3000
 20
  3.4000
 30
0.0
 0
SEQEND
 8
WIRE
 0
POLYLINE
 8
WIRE
 66
1
 10
0.0
 20
0.0
 30
0.0
 0
VERTEX
 8
WIRE
 10
  7.8000
 20
  3.6000
 30
0.0
 0
VERTEX
 8
WIRE
 10
  7.8000
 20
  3.7000
 30
0.0
 0
SEQEND
 8
WIRE
 0
POLYLINE
 8
WIRE
 66
1
 10
0.0
 20
0.0
 30
0.0
 0
VERTEX
 8
WIRE
 10
  5.6000
 20
  3.6000
 30
0.0
 0
VERTEX
 8
WIRE
 10
  5.9000
 20
  3.6000
 30
0.0
 0
SEQEND
 8
WIRE
 0
POLYLINE
 8
WIRE
 66
1
 10
0.0
 20
0.0
 30
0.0
 0
VERTEX
 8
WIRE
 10
  8.5000
 20
  3.6000
 30
0.0
 0
VERTEX
 8
WIRE
 10
  7.8000
 20
  3.6000
 30
0.0
 0
SEQEND
 8
WIRE
 0
TEXT
 8
WIRETEXT
 10
  8.0000
 20
  3.6300
 30
0.0
 40
  0.0514
 1
ADC2_CH9
 0
POLYLINE
 8
WIRE
 66
1
 10
0.0
 20
0.0
 30
0.0
 0
VERTEX
 8
WIRE
 10
  2.4000
 20
  3.5000
 30
0.0
 0
VERTEX
 8
WIRE
 10
  2.2000
 20
  3.5000
 30
0.0
 0
SEQEND
 8
WIRE
 0
POLYLINE
 8
WIRE
 66
1
 10
0.0
 20
0.0
 30
0.0
 0
VERTEX
 8
WIRE
 10
  2.7000
 20
  3.5000
 30
0.0
 0
VERTEX
 8
WIRE
 10
  3.0000
 20
  3.5000
 30
0.0
 0
SEQEND
 8
WIRE
 0
POLYLINE
 8
WIRE
 66
1
 10
0.0
 20
0.0
 30
0.0
 0
VERTEX
 8
WIRE
 10
  3.0000
 20
  3.5000
 30
0.0
 0
VERTEX
 8
WIRE
 10
  3.0000
 20
  3.3000
 30
0.0
 0
SEQEND
 8
WIRE
 0
POLYLINE
 8
WIRE
 66
1
 10
0.0
 20
0.0
 30
0.0
 0
VERTEX
 8
WIRE
 10
  4.2000
 20
  3.5000
 30
0.0
 0
VERTEX
 8
WIRE
 10
  4.0000
 20
  3.5000
 30
0.0
 0
SEQEND
 8
WIRE
 0
POLYLINE
 8
WIRE
 66
1
 10
0.0
 20
0.0
 30
0.0
 0
VERTEX
 8
WIRE
 10
  5.9000
 20
  3.5000
 30
0.0
 0
VERTEX
 8
WIRE
 10
  5.6000
 20
  3.5000
 30
0.0
 0
SEQEND
 8
WIRE
 0
POLYLINE
 8
WIRE
 66
1
 10
0.0
 20
0.0
 30
0.0
 0
VERTEX
 8
WIRE
 10
  3.3000
 20
  3.4000
 30
0.0
 0
VERTEX
 8
WIRE
 10
  3.6000
 20
  3.4000
 30
0.0
 0
SEQEND
 8
WIRE
 0
POLYLINE
 8
WIRE
 66
1
 10
0.0
 20
0.0
 30
0.0
 0
VERTEX
 8
WIRE
 10
  3.6000
 20
  3.4000
 30
0.0
 0
VERTEX
 8
WIRE
 10
  4.2000
 20
  3.4000
 30
0.0
 0
SEQEND
 8
WIRE
 0
POLYLINE
 8
WIRE
 66
1
 70
1
 10
0.0
 20
0.0
 30
0.0
 40
  0.0200
 41
  0.0200
 0
VERTEX
 8
WIRE
 10
  3.5900
 20
  3.4000
 30
0.0
 42
1.0
 0
VERTEX
 8
WIRE
 10
  3.6100
 20
  3.4000
 30
0.0
 42
1.0
 0
SEQEND
 8
WIRE
 0
POLYLINE
 8
WIRE
 66
1
 10
0.0
 20
0.0
 30
0.0
 0
VERTEX
 8
WIRE
 10
  5.6000
 20
  3.4000
 30
0.0
 0
VERTEX
 8
WIRE
 10
  6.3000
 20
  3.4000
 30
0.0
 0
SEQEND
 8
WIRE
 0
POLYLINE
 8
WIRE
 66
1
 70
1
 10
0.0
 20
0.0
 30
0.0
 40
  0.0200
 41
  0.0200
 0
VERTEX
 8
WIRE
 10
  6.2900
 20
  3.4000
 30
0.0
 42
1.0
 0
VERTEX
 8
WIRE
 10
  6.3100
 20
  3.4000
 30
0.0
 42
1.0
 0
SEQEND
 8
WIRE
 0
POLYLINE
 8
WIRE
 66
1
 10
0.0
 20
0.0
 30
0.0
 0
VERTEX
 8
WIRE
 10
  6.3000
 20
  3.4000
 30
0.0
 0
VERTEX
 8
WIRE
 10
  6.6000
 20
  3.4000
 30
0.0
 0
SEQEND
 8
WIRE
 0
POLYLINE
 8
WIRE
 66
1
 10
0.0
 20
0.0
 30
0.0
 0
VERTEX
 8
WIRE
 10
  3.0000
 20
  3.3000
 30
0.0
 0
VERTEX
 8
WIRE
 10
  1.0000
 20
  3.3000
 30
0.0
 0
SEQEND
 8
WIRE
 0
TEXT
 8
WIRETEXT
 10
  1.0000
 20
  3.3300
 30
0.0
 40
  0.0514
 1
VDD33
 0
POLYLINE
 8
WIRE
 66
1
 10
0.0
 20
0.0
 30
0.0
 0
VERTEX
 8
WIRE
 10
  3.0000
 20
  3.3000
 30
0.0
 0
VERTEX
 8
WIRE
 10
  4.2000
 20
  3.3000
 30
0.0
 0
SEQEND
 8
WIRE
 0
POLYLINE
 8
WIRE
 66
1
 70
1
 10
0.0
 20
0.0
 30
0.0
 40
  0.0200
 41
  0.0200
 0
VERTEX
 8
WIRE
 10
  2.9900
 20
  3.3000
 30
0.0
 42
1.0
 0
VERTEX
 8
WIRE
 10
  3.0100
 20
  3.3000
 30
0.0
 42
1.0
 0
SEQEND
 8
WIRE
 0
POLYLINE
 8
WIRE
 66
1
 10
0.0
 20
0.0
 30
0.0
 0
VERTEX
 8
WIRE
 10
  6.0000
 20
  3.3000
 30
0.0
 0
VERTEX
 8
WIRE
 10
  5.6000
 20
  3.3000
 30
0.0
 0
SEQEND
 8
WIRE
 0
POLYLINE
 8
WIRE
 66
1
 10
0.0
 20
0.0
 30
0.0
 0
VERTEX
 8
WIRE
 10
  3.6000
 20
  3.2000
 30
0.0
 0
VERTEX
 8
WIRE
 10
  3.3000
 20
  3.2000
 30
0.0
 0
SEQEND
 8
WIRE
 0
POLYLINE
 8
WIRE
 66
1
 10
0.0
 20
0.0
 30
0.0
 0
VERTEX
 8
WIRE
 10
  3.3000
 20
  2.5000
 30
0.0
 0
VERTEX
 8
WIRE
 10
  3.3000
 20
  3.2000
 30
0.0
 0
SEQEND
 8
WIRE
 0
POLYLINE
 8
WIRE
 66
1
 10
0.0
 20
0.0
 30
0.0
 0
VERTEX
 8
WIRE
 10
  4.2000
 20
  3.2000
 30
0.0
 0
VERTEX
 8
WIRE
 10
  3.6000
 20
  3.2000
 30
0.0
 0
SEQEND
 8
WIRE
 0
POLYLINE
 8
WIRE
 66
1
 70
1
 10
0.0
 20
0.0
 30
0.0
 40
  0.0200
 41
  0.0200
 0
VERTEX
 8
WIRE
 10
  3.5900
 20
  3.2000
 30
0.0
 42
1.0
 0
VERTEX
 8
WIRE
 10
  3.6100
 20
  3.2000
 30
0.0
 42
1.0
 0
SEQEND
 8
WIRE
 0
POLYLINE
 8
WIRE
 66
1
 10
0.0
 20
0.0
 30
0.0
 0
VERTEX
 8
WIRE
 10
  3.6000
 20
  2.8000
 30
0.0
 0
VERTEX
 8
WIRE
 10
  3.6000
 20
  3.2000
 30
0.0
 0
SEQEND
 8
WIRE
 0
POLYLINE
 8
WIRE
 66
1
 10
0.0
 20
0.0
 30
0.0
 0
VERTEX
 8
WIRE
 10
  6.3000
 20
  3.2000
 30
0.0
 0
VERTEX
 8
WIRE
 10
  5.6000
 20
  3.2000
 30
0.0
 0
SEQEND
 8
WIRE
 0
POLYLINE
 8
WIRE
 66
1
 70
1
 10
0.0
 20
0.0
 30
0.0
 40
  0.0200
 41
  0.0200
 0
VERTEX
 8
WIRE
 10
  6.2900
 20
  3.2000
 30
0.0
 42
1.0
 0
VERTEX
 8
WIRE
 10
  6.3100
 20
  3.2000
 30
0.0
 42
1.0
 0
SEQEND
 8
WIRE
 0
POLYLINE
 8
WIRE
 66
1
 10
0.0
 20
0.0
 30
0.0
 0
VERTEX
 8
WIRE
 10
  6.6000
 20
  3.2000
 30
0.0
 0
VERTEX
 8
WIRE
 10
  6.3000
 20
  3.2000
 30
0.0
 0
SEQEND
 8
WIRE
 0
POLYLINE
 8
WIRE
 66
1
 10
0.0
 20
0.0
 30
0.0
 0
VERTEX
 8
WIRE
 10
  6.3000
 20
  2.8000
 30
0.0
 0
VERTEX
 8
WIRE
 10
  6.3000
 20
  3.2000
 30
0.0
 0
SEQEND
 8
WIRE
 0
POLYLINE
 8
WIRE
 66
1
 10
0.0
 20
0.0
 30
0.0
 0
VERTEX
 8
WIRE
 10
  6.6000
 20
  3.2000
 30
0.0
 0
VERTEX
 8
WIRE
 10
  6.6000
 20
  2.5000
 30
0.0
 0
SEQEND
 8
WIRE
 0
POLYLINE
 8
WIRE
 66
1
 10
0.0
 20
0.0
 30
0.0
 0
VERTEX
 8
WIRE
 10
  1.0000
 20
  3.1000
 30
0.0
 0
VERTEX
 8
WIRE
 10
  1.7000
 20
  3.1000
 30
0.0
 0
SEQEND
 8
WIRE
 0
TEXT
 8
WIRETEXT
 10
  1.0000
 20
  3.1300
 30
0.0
 40
  0.0514
 1
ADC2_CH6
 0
POLYLINE
 8
WIRE
 66
1
 10
0.0
 20
0.0
 30
0.0
 0
VERTEX
 8
WIRE
 10
  1.7000
 20
  3.0000
 30
0.0
 0
VERTEX
 8
WIRE
 10
  1.7000
 20
  3.1000
 30
0.0
 0
SEQEND
 8
WIRE
 0
POLYLINE
 8
WIRE
 66
1
 10
0.0
 20
0.0
 30
0.0
 0
VERTEX
 8
WIRE
 10
  1.7000
 20
  3.1000
 30
0.0
 0
VERTEX
 8
WIRE
 10
  4.0000
 20
  3.1000
 30
0.0
 0
SEQEND
 8
WIRE
 0
POLYLINE
 8
WIRE
 66
1
 70
1
 10
0.0
 20
0.0
 30
0.0
 40
  0.0200
 41
  0.0200
 0
VERTEX
 8
WIRE
 10
  1.6900
 20
  3.1000
 30
0.0
 42
1.0
 0
VERTEX
 8
WIRE
 10
  1.7100
 20
  3.1000
 30
0.0
 42
1.0
 0
SEQEND
 8
WIRE
 0
POLYLINE
 8
WIRE
 66
1
 70
1
 10
0.0
 20
0.0
 30
0.0
 40
  0.0200
 41
  0.0200
 0
VERTEX
 8
WIRE
 10
  3.9900
 20
  3.1000
 30
0.0
 42
1.0
 0
VERTEX
 8
WIRE
 10
  4.0100
 20
  3.1000
 30
0.0
 42
1.0
 0
SEQEND
 8
WIRE
 0
POLYLINE
 8
WIRE
 66
1
 10
0.0
 20
0.0
 30
0.0
 0
VERTEX
 8
WIRE
 10
  5.9000
 20
  3.1000
 30
0.0
 0
VERTEX
 8
WIRE
 10
  5.6000
 20
  3.1000
 30
0.0
 0
SEQEND
 8
WIRE
 0
POLYLINE
 8
WIRE
 66
1
 10
0.0
 20
0.0
 30
0.0
 0
VERTEX
 8
WIRE
 10
  5.9000
 20
  3.1000
 30
0.0
 0
VERTEX
 8
WIRE
 10
  5.9000
 20
  3.0000
 30
0.0
 0
SEQEND
 8
WIRE
 0
POLYLINE
 8
WIRE
 66
1
 10
0.0
 20
0.0
 30
0.0
 0
VERTEX
 8
WIRE
 10
  5.6000
 20
  3.0000
 30
0.0
 0
VERTEX
 8
WIRE
 10
  5.9000
 20
  3.0000
 30
0.0
 0
SEQEND
 8
WIRE
 0
POLYLINE
 8
WIRE
 66
1
 10
0.0
 20
0.0
 30
0.0
 0
VERTEX
 8
WIRE
 10
  7.8000
 20
  2.9000
 30
0.0
 0
VERTEX
 8
WIRE
 10
  7.8000
 20
  3.0000
 30
0.0
 0
SEQEND
 8
WIRE
 0
POLYLINE
 8
WIRE
 66
1
 10
0.0
 20
0.0
 30
0.0
 0
VERTEX
 8
WIRE
 10
  8.5000
 20
  3.0000
 30
0.0
 0
VERTEX
 8
WIRE
 10
  7.8000
 20
  3.0000
 30
0.0
 0
SEQEND
 8
WIRE
 0
TEXT
 8
WIRETEXT
 10
  8.0000
 20
  3.0300
 30
0.0
 40
  0.0514
 1
ADC2_CH7
 0
POLYLINE
 8
WIRE
 66
1
 10
0.0
 20
0.0
 30
0.0
 0
VERTEX
 8
WIRE
 10
  1.7000
 20
  2.7000
 30
0.0
 0
VERTEX
 8
WIRE
 10
  1.7000
 20
  2.6000
 30
0.0
 0
SEQEND
 8
WIRE
 0
POLYLINE
 8
WIRE
 66
1
 10
0.0
 20
0.0
 30
0.0
 0
VERTEX
 8
WIRE
 10
  7.8000
 20
  2.5000
 30
0.0
 0
VERTEX
 8
WIRE
 10
  7.8000
 20
  2.6000
 30
0.0
 0
SEQEND
 8
WIRE
 0
POLYLINE
 8
WIRE
 66
1
 10
0.0
 20
0.0
 30
0.0
 0
VERTEX
 8
WIRE
 10
  3.3000
 20
  2.5000
 30
0.0
 0
VERTEX
 8
WIRE
 10
  3.2000
 20
  2.5000
 30
0.0
 0
SEQEND
 8
WIRE
 0
POLYLINE
 8
WIRE
 66
1
 10
0.0
 20
0.0
 30
0.0
 0
VERTEX
 8
WIRE
 10
  6.7000
 20
  2.5000
 30
0.0
 0
VERTEX
 8
WIRE
 10
  6.6000
 20
  2.5000
 30
0.0
 0
SEQEND
 8
WIRE
 0
POLYLINE
 8
WIRE
 66
1
 10
0.0
 20
0.0
 30
0.0
 0
VERTEX
 8
WIRE
 10
  3.3000
 20
  2.3000
 30
0.0
 0
VERTEX
 8
WIRE
 10
  3.2000
 20
  2.3000
 30
0.0
 0
SEQEND
 8
WIRE
 0
POLYLINE
 8
WIRE
 66
1
 10
0.0
 20
0.0
 30
0.0
 0
VERTEX
 8
WIRE
 10
  3.3000
 20
  1.9000
 30
0.0
 0
VERTEX
 8
WIRE
 10
  3.3000
 20
  2.3000
 30
0.0
 0
SEQEND
 8
WIRE
 0
TEXT
 8
WIRETEXT
 10
  3.2700
 20
  1.9000
 30
0.0
 40
  0.0514
 50
 90.0000
 1
VDD33
 0
POLYLINE
 8
WIRE
 66
1
 10
0.0
 20
0.0
 30
0.0
 0
VERTEX
 8
WIRE
 10
  3.6000
 20
  2.3000
 30
0.0
 0
VERTEX
 8
WIRE
 10
  3.6000
 20
  2.0000
 30
0.0
 0
SEQEND
 8
WIRE
 0
POLYLINE
 8
WIRE
 66
1
 10
0.0
 20
0.0
 30
0.0
 0
VERTEX
 8
WIRE
 10
  6.3000
 20
  2.3000
 30
0.0
 0
VERTEX
 8
WIRE
 10
  6.3000
 20
  2.0000
 30
0.0
 0
SEQEND
 8
WIRE
 0
POLYLINE
 8
WIRE
 66
1
 10
0.0
 20
0.0
 30
0.0
 0
VERTEX
 8
WIRE
 10
  6.7000
 20
  2.3000
 30
0.0
 0
VERTEX
 8
WIRE
 10
  6.6000
 20
  2.3000
 30
0.0
 0
SEQEND
 8
WIRE
 0
POLYLINE
 8
WIRE
 66
1
 10
0.0
 20
0.0
 30
0.0
 0
VERTEX
 8
WIRE
 10
  6.6000
 20
  1.9000
 30
0.0
 0
VERTEX
 8
WIRE
 10
  6.6000
 20
  2.3000
 30
0.0
 0
SEQEND
 8
WIRE
 0
TEXT
 8
WIRETEXT
 10
  6.5700
 20
  1.9000
 30
0.0
 40
  0.0514
 50
 90.0000
 1
VDD33
 0
POLYLINE
 8
WIRE
 66
1
 10
0.0
 20
0.0
 30
0.0
 0
VERTEX
 8
WIRE
 10
 12.2000
 20
  7.8000
 30
0.0
 0
VERTEX
 8
WIRE
 10
 12.5000
 20
  7.8000
 30
0.0
 0
SEQEND
 8
WIRE
 0
POLYLINE
 8
WIRE
 66
1
 10
0.0
 20
0.0
 30
0.0
 0
VERTEX
 8
WIRE
 10
  1.6000
 20
  7.6000
 30
0.0
 0
VERTEX
 8
WIRE
 10
  3.9000
 20
  7.6000
 30
0.0
 0
SEQEND
 8
WIRE
 0
POLYLINE
 8
WIRE
 66
1
 70
1
 10
0.0
 20
0.0
 30
0.0
 40
  0.0200
 41
  0.0200
 0
VERTEX
 8
WIRE
 10
  1.5900
 20
  7.6000
 30
0.0
 42
1.0
 0
VERTEX
 8
WIRE
 10
  1.6100
 20
  7.6000
 30
0.0
 42
1.0
 0
SEQEND
 8
WIRE
 0
POLYLINE
 8
WIRE
 66
1
 70
1
 10
0.0
 20
0.0
 30
0.0
 40
  0.0200
 41
  0.0200
 0
VERTEX
 8
WIRE
 10
  3.8900
 20
  7.6000
 30
0.0
 42
1.0
 0
VERTEX
 8
WIRE
 10
  3.9100
 20
  7.6000
 30
0.0
 42
1.0
 0
SEQEND
 8
WIRE
 0
POLYLINE
 8
WIRE
 66
1
 10
0.0
 20
0.0
 30
0.0
 0
VERTEX
 8
WIRE
 10
  1.7000
 20
  3.7000
 30
0.0
 0
VERTEX
 8
WIRE
 10
  4.0000
 20
  3.7000
 30
0.0
 0
SEQEND
 8
WIRE
 0
POLYLINE
 8
WIRE
 66
1
 70
1
 10
0.0
 20
0.0
 30
0.0
 40
  0.0200
 41
  0.0200
 0
VERTEX
 8
WIRE
 10
  1.6900
 20
  3.7000
 30
0.0
 42
1.0
 0
VERTEX
 8
WIRE
 10
  1.7100
 20
  3.7000
 30
0.0
 42
1.0
 0
SEQEND
 8
WIRE
 0
POLYLINE
 8
WIRE
 66
1
 70
1
 10
0.0
 20
0.0
 30
0.0
 40
  0.0200
 41
  0.0200
 0
VERTEX
 8
WIRE
 10
  3.9900
 20
  3.7000
 30
0.0
 42
1.0
 0
VERTEX
 8
WIRE
 10
  4.0100
 20
  3.7000
 30
0.0
 42
1.0
 0
SEQEND
 8
WIRE
 0
POLYLINE
 8
WIRE
 66
1
 10
0.0
 20
0.0
 30
0.0
 0
VERTEX
 8
WIRE
 10
  3.9000
 20
  7.6000
 30
0.0
 0
VERTEX
 8
WIRE
 10
  3.9000
 20
  7.4000
 30
0.0
 0
SEQEND
 8
WIRE
 0
POLYLINE
 8
WIRE
 66
1
 10
0.0
 20
0.0
 30
0.0
 0
VERTEX
 8
WIRE
 10
  3.9000
 20
  7.6000
 30
0.0
 0
VERTEX
 8
WIRE
 10
  4.1000
 20
  7.6000
 30
0.0
 0
SEQEND
 8
WIRE
 0
POLYLINE
 8
WIRE
 66
1
 10
0.0
 20
0.0
 30
0.0
 0
VERTEX
 8
WIRE
 10
  5.8000
 20
  7.5000
 30
0.0
 0
VERTEX
 8
WIRE
 10
  5.8000
 20
  7.4000
 30
0.0
 0
SEQEND
 8
WIRE
 0
POLYLINE
 8
WIRE
 66
1
 10
0.0
 20
0.0
 30
0.0
 0
VERTEX
 8
WIRE
 10
  5.8000
 20
  7.5000
 30
0.0
 0
VERTEX
 8
WIRE
 10
  7.7000
 20
  7.5000
 30
0.0
 0
SEQEND
 8
WIRE
 0
POLYLINE
 8
WIRE
 66
1
 70
1
 10
0.0
 20
0.0
 30
0.0
 40
  0.0200
 41
  0.0200
 0
VERTEX
 8
WIRE
 10
  5.7900
 20
  7.5000
 30
0.0
 42
1.0
 0
VERTEX
 8
WIRE
 10
  5.8100
 20
  7.5000
 30
0.0
 42
1.0
 0
SEQEND
 8
WIRE
 0
POLYLINE
 8
WIRE
 66
1
 70
1
 10
0.0
 20
0.0
 30
0.0
 40
  0.0200
 41
  0.0200
 0
VERTEX
 8
WIRE
 10
  7.6900
 20
  7.5000
 30
0.0
 42
1.0
 0
VERTEX
 8
WIRE
 10
  7.7100
 20
  7.5000
 30
0.0
 42
1.0
 0
SEQEND
 8
WIRE
 0
POLYLINE
 8
WIRE
 66
1
 10
0.0
 20
0.0
 30
0.0
 0
VERTEX
 8
WIRE
 10
  5.8000
 20
  6.9000
 30
0.0
 0
VERTEX
 8
WIRE
 10
  7.7000
 20
  6.9000
 30
0.0
 0
SEQEND
 8
WIRE
 0
POLYLINE
 8
WIRE
 66
1
 70
1
 10
0.0
 20
0.0
 30
0.0
 40
  0.0200
 41
  0.0200
 0
VERTEX
 8
WIRE
 10
  5.7900
 20
  6.9000
 30
0.0
 42
1.0
 0
VERTEX
 8
WIRE
 10
  5.8100
 20
  6.9000
 30
0.0
 42
1.0
 0
SEQEND
 8
WIRE
 0
POLYLINE
 8
WIRE
 66
1
 70
1
 10
0.0
 20
0.0
 30
0.0
 40
  0.0200
 41
  0.0200
 0
VERTEX
 8
WIRE
 10
  7.6900
 20
  6.9000
 30
0.0
 42
1.0
 0
VERTEX
 8
WIRE
 10
  7.7100
 20
  6.9000
 30
0.0
 42
1.0
 0
SEQEND
 8
WIRE
 0
POLYLINE
 8
WIRE
 66
1
 10
0.0
 20
0.0
 30
0.0
 0
VERTEX
 8
WIRE
 10
  5.9000
 20
  3.6000
 30
0.0
 0
VERTEX
 8
WIRE
 10
  7.8000
 20
  3.6000
 30
0.0
 0
SEQEND
 8
WIRE
 0
POLYLINE
 8
WIRE
 66
1
 70
1
 10
0.0
 20
0.0
 30
0.0
 40
  0.0200
 41
  0.0200
 0
VERTEX
 8
WIRE
 10
  5.8900
 20
  3.6000
 30
0.0
 42
1.0
 0
VERTEX
 8
WIRE
 10
  5.9100
 20
  3.6000
 30
0.0
 42
1.0
 0
SEQEND
 8
WIRE
 0
POLYLINE
 8
WIRE
 66
1
 70
1
 10
0.0
 20
0.0
 30
0.0
 40
  0.0200
 41
  0.0200
 0
VERTEX
 8
WIRE
 10
  7.7900
 20
  3.6000
 30
0.0
 42
1.0
 0
VERTEX
 8
WIRE
 10
  7.8100
 20
  3.6000
 30
0.0
 42
1.0
 0
SEQEND
 8
WIRE
 0
POLYLINE
 8
WIRE
 66
1
 10
0.0
 20
0.0
 30
0.0
 0
VERTEX
 8
WIRE
 10
  5.9000
 20
  3.6000
 30
0.0
 0
VERTEX
 8
WIRE
 10
  5.9000
 20
  3.5000
 30
0.0
 0
SEQEND
 8
WIRE
 0
POLYLINE
 8
WIRE
 66
1
 10
0.0
 20
0.0
 30
0.0
 0
VERTEX
 8
WIRE
 10
  5.9000
 20
  3.0000
 30
0.0
 0
VERTEX
 8
WIRE
 10
  7.8000
 20
  3.0000
 30
0.0
 0
SEQEND
 8
WIRE
 0
POLYLINE
 8
WIRE
 66
1
 70
1
 10
0.0
 20
0.0
 30
0.0
 40
  0.0200
 41
  0.0200
 0
VERTEX
 8
WIRE
 10
  5.8900
 20
  3.0000
 30
0.0
 42
1.0
 0
VERTEX
 8
WIRE
 10
  5.9100
 20
  3.0000
 30
0.0
 42
1.0
 0
SEQEND
 8
WIRE
 0
POLYLINE
 8
WIRE
 66
1
 70
1
 10
0.0
 20
0.0
 30
0.0
 40
  0.0200
 41
  0.0200
 0
VERTEX
 8
WIRE
 10
  7.7900
 20
  3.0000
 30
0.0
 42
1.0
 0
VERTEX
 8
WIRE
 10
  7.8100
 20
  3.0000
 30
0.0
 42
1.0
 0
SEQEND
 8
WIRE
 0
POLYLINE
 8
WIRE
 66
1
 10
0.0
 20
0.0
 30
0.0
 0
VERTEX
 8
WIRE
 10
  4.0000
 20
  3.7000
 30
0.0
 0
VERTEX
 8
WIRE
 10
  4.0000
 20
  3.5000
 30
0.0
 0
SEQEND
 8
WIRE
 0
POLYLINE
 8
WIRE
 66
1
 10
0.0
 20
0.0
 30
0.0
 0
VERTEX
 8
WIRE
 10
  4.0000
 20
  3.7000
 30
0.0
 0
VERTEX
 8
WIRE
 10
  4.2000
 20
  3.7000
 30
0.0
 0
SEQEND
 8
WIRE
 0
POLYLINE
 8
WIRE
 66
1
 10
0.0
 20
0.0
 30
0.0
 0
VERTEX
 8
WIRE
 10
  4.2000
 20
  3.0000
 30
0.0
 0
VERTEX
 8
WIRE
 10
  4.0000
 20
  3.0000
 30
0.0
 0
SEQEND
 8
WIRE
 0
POLYLINE
 8
WIRE
 66
1
 10
0.0
 20
0.0
 30
0.0
 0
VERTEX
 8
WIRE
 10
  4.0000
 20
  3.0000
 30
0.0
 0
VERTEX
 8
WIRE
 10
  4.0000
 20
  3.1000
 30
0.0
 0
SEQEND
 8
WIRE
 0
POLYLINE
 8
WIRE
 66
1
 10
0.0
 20
0.0
 30
0.0
 0
VERTEX
 8
WIRE
 10
  4.0000
 20
  3.1000
 30
0.0
 0
VERTEX
 8
WIRE
 10
  4.2000
 20
  3.1000
 30
0.0
 0
SEQEND
 8
WIRE
 0
POLYLINE
 8
WIRE
 66
1
 10
0.0
 20
0.0
 30
0.0
 0
VERTEX
 8
WIRE
 10
  4.1000
 20
  6.9000
 30
0.0
 0
VERTEX
 8
WIRE
 10
  3.9000
 20
  6.9000
 30
0.0
 0
SEQEND
 8
WIRE
 0
POLYLINE
 8
WIRE
 66
1
 10
0.0
 20
0.0
 30
0.0
 0
VERTEX
 8
WIRE
 10
  3.9000
 20
  6.9000
 30
0.0
 0
VERTEX
 8
WIRE
 10
  3.9000
 20
  7.0000
 30
0.0
 0
SEQEND
 8
WIRE
 0
POLYLINE
 8
WIRE
 66
1
 10
0.0
 20
0.0
 30
0.0
 0
VERTEX
 8
WIRE
 10
  3.9000
 20
  7.0000
 30
0.0
 0
VERTEX
 8
WIRE
 10
  4.1000
 20
  7.0000
 30
0.0
 0
SEQEND
 8
WIRE
 0
POLYLINE
 8
PARTS
 66
1
 10
0.0
 20
0.0
 30
0.0
 0
VERTEX
 8
PARTS
 10
  5.9000
 20
  7.1000
 30
0.0
 0
VERTEX
 8
PARTS
 10
  5.9000
 20
  7.3000
 30
0.0
 0
SEQEND
 8
PARTS
 0
POLYLINE
 8
PARTS
 66
1
 10
0.0
 20
0.0
 30
0.0
 0
VERTEX
 8
PARTS
 10
  5.9300
 20
  7.1300
 30
0.0
 0
VERTEX
 8
PARTS
 10
  5.9300
 20
  7.2700
 30
0.0
 0
SEQEND
 8
PARTS
 0
POLYLINE
 8
PARTS
 66
1
 10
0.0
 20
0.0
 30
0.0
 0
VERTEX
 8
PARTS
 10
  5.9600
 20
  7.2400
 30
0.0
 0
VERTEX
 8
PARTS
 10
  5.9600
 20
  7.1600
 30
0.0
 0
SEQEND
 8
PARTS
 0
POLYLINE
 8
PARTS
 66
1
 10
0.0
 20
0.0
 30
0.0
 0
VERTEX
 8
PARTS
 10
  5.9900
 20
  7.1900
 30
0.0
 0
VERTEX
 8
PARTS
 10
  5.9900
 20
  7.2100
 30
0.0
 0
SEQEND
 8
PARTS
 0
POLYLINE
 8
PARTS
 66
1
 10
0.0
 20
0.0
 30
0.0
 0
VERTEX
 8
PARTS
 10
  3.4000
 20
  8.5000
 30
0.0
 0
VERTEX
 8
PARTS
 10
  3.6000
 20
  8.5000
 30
0.0
 0
SEQEND
 8
PARTS
 0
POLYLINE
 8
PARTS
 66
1
 10
0.0
 20
0.0
 30
0.0
 0
VERTEX
 8
PARTS
 10
  3.4300
 20
  8.5300
 30
0.0
 0
VERTEX
 8
PARTS
 10
  3.5700
 20
  8.5300
 30
0.0
 0
SEQEND
 8
PARTS
 0
POLYLINE
 8
PARTS
 66
1
 10
0.0
 20
0.0
 30
0.0
 0
VERTEX
 8
PARTS
 10
  3.5400
 20
  8.5600
 30
0.0
 0
VERTEX
 8
PARTS
 10
  3.4600
 20
  8.5600
 30
0.0
 0
SEQEND
 8
PARTS
 0
POLYLINE
 8
PARTS
 66
1
 10
0.0
 20
0.0
 30
0.0
 0
VERTEX
 8
PARTS
 10
  3.4900
 20
  8.5900
 30
0.0
 0
VERTEX
 8
PARTS
 10
  3.5100
 20
  8.5900
 30
0.0
 0
SEQEND
 8
PARTS
 0
POLYLINE
 8
PARTS
 66
1
 10
0.0
 20
0.0
 30
0.0
 0
VERTEX
 8
PARTS
 10
  3.4000
 20
  5.9000
 30
0.0
 0
VERTEX
 8
PARTS
 10
  3.6000
 20
  5.9000
 30
0.0
 0
SEQEND
 8
PARTS
 0
POLYLINE
 8
PARTS
 66
1
 10
0.0
 20
0.0
 30
0.0
 0
VERTEX
 8
PARTS
 10
  3.4300
 20
  5.8700
 30
0.0
 0
VERTEX
 8
PARTS
 10
  3.5700
 20
  5.8700
 30
0.0
 0
SEQEND
 8
PARTS
 0
POLYLINE
 8
PARTS
 66
1
 10
0.0
 20
0.0
 30
0.0
 0
VERTEX
 8
PARTS
 10
  3.5400
 20
  5.8400
 30
0.0
 0
VERTEX
 8
PARTS
 10
  3.4600
 20
  5.8400
 30
0.0
 0
SEQEND
 8
PARTS
 0
POLYLINE
 8
PARTS
 66
1
 10
0.0
 20
0.0
 30
0.0
 0
VERTEX
 8
PARTS
 10
  3.4900
 20
  5.8100
 30
0.0
 0
VERTEX
 8
PARTS
 10
  3.5100
 20
  5.8100
 30
0.0
 0
SEQEND
 8
PARTS
 0
POLYLINE
 8
PARTS
 66
1
 10
0.0
 20
0.0
 30
0.0
 0
VERTEX
 8
PARTS
 10
  6.3000
 20
  8.5000
 30
0.0
 0
VERTEX
 8
PARTS
 10
  6.1000
 20
  8.5000
 30
0.0
 0
SEQEND
 8
PARTS
 0
POLYLINE
 8
PARTS
 66
1
 10
0.0
 20
0.0
 30
0.0
 0
VERTEX
 8
PARTS
 10
  6.2700
 20
  8.5300
 30
0.0
 0
VERTEX
 8
PARTS
 10
  6.1300
 20
  8.5300
 30
0.0
 0
SEQEND
 8
PARTS
 0
POLYLINE
 8
PARTS
 66
1
 10
0.0
 20
0.0
 30
0.0
 0
VERTEX
 8
PARTS
 10
  6.1600
 20
  8.5600
 30
0.0
 0
VERTEX
 8
PARTS
 10
  6.2400
 20
  8.5600
 30
0.0
 0
SEQEND
 8
PARTS
 0
POLYLINE
 8
PARTS
 66
1
 10
0.0
 20
0.0
 30
0.0
 0
VERTEX
 8
PARTS
 10
  6.2100
 20
  8.5900
 30
0.0
 0
VERTEX
 8
PARTS
 10
  6.1900
 20
  8.5900
 30
0.0
 0
SEQEND
 8
PARTS
 0
POLYLINE
 8
PARTS
 66
1
 10
0.0
 20
0.0
 30
0.0
 0
VERTEX
 8
PARTS
 10
  6.3000
 20
  5.9000
 30
0.0
 0
VERTEX
 8
PARTS
 10
  6.1000
 20
  5.9000
 30
0.0
 0
SEQEND
 8
PARTS
 0
POLYLINE
 8
PARTS
 66
1
 10
0.0
 20
0.0
 30
0.0
 0
VERTEX
 8
PARTS
 10
  6.2700
 20
  5.8700
 30
0.0
 0
VERTEX
 8
PARTS
 10
  6.1300
 20
  5.8700
 30
0.0
 0
SEQEND
 8
PARTS
 0
POLYLINE
 8
PARTS
 66
1
 10
0.0
 20
0.0
 30
0.0
 0
VERTEX
 8
PARTS
 10
  6.1600
 20
  5.8400
 30
0.0
 0
VERTEX
 8
PARTS
 10
  6.2400
 20
  5.8400
 30
0.0
 0
SEQEND
 8
PARTS
 0
POLYLINE
 8
PARTS
 66
1
 10
0.0
 20
0.0
 30
0.0
 0
VERTEX
 8
PARTS
 10
  6.2100
 20
  5.8100
 30
0.0
 0
VERTEX
 8
PARTS
 10
  6.1900
 20
  5.8100
 30
0.0
 0
SEQEND
 8
PARTS
 0
POLYLINE
 8
PARTS
 66
1
 10
0.0
 20
0.0
 30
0.0
 0
VERTEX
 8
PARTS
 10
  2.1000
 20
  7.3000
 30
0.0
 0
VERTEX
 8
PARTS
 10
  2.1000
 20
  7.5000
 30
0.0
 0
SEQEND
 8
PARTS
 0
POLYLINE
 8
PARTS
 66
1
 10
0.0
 20
0.0
 30
0.0
 0
VERTEX
 8
PARTS
 10
  2.0700
 20
  7.3300
 30
0.0
 0
VERTEX
 8
PARTS
 10
  2.0700
 20
  7.4700
 30
0.0
 0
SEQEND
 8
PARTS
 0
POLYLINE
 8
PARTS
 66
1
 10
0.0
 20
0.0
 30
0.0
 0
VERTEX
 8
PARTS
 10
  2.0400
 20
  7.4400
 30
0.0
 0
VERTEX
 8
PARTS
 10
  2.0400
 20
  7.3600
 30
0.0
 0
SEQEND
 8
PARTS
 0
POLYLINE
 8
PARTS
 66
1
 10
0.0
 20
0.0
 30
0.0
 0
VERTEX
 8
PARTS
 10
  2.0100
 20
  7.3900
 30
0.0
 0
VERTEX
 8
PARTS
 10
  2.0100
 20
  7.4100
 30
0.0
 0
SEQEND
 8
PARTS
 0
POLYLINE
 8
PARTS
 66
1
 10
0.0
 20
0.0
 30
0.0
 0
VERTEX
 8
PARTS
 10
  1.5000
 20
  8.1000
 30
0.0
 0
VERTEX
 8
PARTS
 10
  1.7000
 20
  8.1000
 30
0.0
 0
SEQEND
 8
PARTS
 0
POLYLINE
 8
PARTS
 66
1
 10
0.0
 20
0.0
 30
0.0
 0
VERTEX
 8
PARTS
 10
  1.5300
 20
  8.1300
 30
0.0
 0
VERTEX
 8
PARTS
 10
  1.6700
 20
  8.1300
 30
0.0
 0
SEQEND
 8
PARTS
 0
POLYLINE
 8
PARTS
 66
1
 10
0.0
 20
0.0
 30
0.0
 0
VERTEX
 8
PARTS
 10
  1.6400
 20
  8.1600
 30
0.0
 0
VERTEX
 8
PARTS
 10
  1.5600
 20
  8.1600
 30
0.0
 0
SEQEND
 8
PARTS
 0
POLYLINE
 8
PARTS
 66
1
 10
0.0
 20
0.0
 30
0.0
 0
VERTEX
 8
PARTS
 10
  1.5900
 20
  8.1900
 30
0.0
 0
VERTEX
 8
PARTS
 10
  1.6100
 20
  8.1900
 30
0.0
 0
SEQEND
 8
PARTS
 0
POLYLINE
 8
PARTS
 66
1
 10
0.0
 20
0.0
 30
0.0
 0
VERTEX
 8
PARTS
 10
  1.7000
 20
  6.5000
 30
0.0
 0
VERTEX
 8
PARTS
 10
  1.5000
 20
  6.5000
 30
0.0
 0
SEQEND
 8
PARTS
 0
POLYLINE
 8
PARTS
 66
1
 10
0.0
 20
0.0
 30
0.0
 0
VERTEX
 8
PARTS
 10
  1.6700
 20
  6.4700
 30
0.0
 0
VERTEX
 8
PARTS
 10
  1.5300
 20
  6.4700
 30
0.0
 0
SEQEND
 8
PARTS
 0
POLYLINE
 8
PARTS
 66
1
 10
0.0
 20
0.0
 30
0.0
 0
VERTEX
 8
PARTS
 10
  1.5600
 20
  6.4400
 30
0.0
 0
VERTEX
 8
PARTS
 10
  1.6400
 20
  6.4400
 30
0.0
 0
SEQEND
 8
PARTS
 0
POLYLINE
 8
PARTS
 66
1
 10
0.0
 20
0.0
 30
0.0
 0
VERTEX
 8
PARTS
 10
  1.6100
 20
  6.4100
 30
0.0
 0
VERTEX
 8
PARTS
 10
  1.5900
 20
  6.4100
 30
0.0
 0
SEQEND
 8
PARTS
 0
POLYLINE
 8
PARTS
 66
1
 10
0.0
 20
0.0
 30
0.0
 0
VERTEX
 8
PARTS
 10
  7.6000
 20
  8.0000
 30
0.0
 0
VERTEX
 8
PARTS
 10
  7.8000
 20
  8.0000
 30
0.0
 0
SEQEND
 8
PARTS
 0
POLYLINE
 8
PARTS
 66
1
 10
0.0
 20
0.0
 30
0.0
 0
VERTEX
 8
PARTS
 10
  7.6300
 20
  8.0300
 30
0.0
 0
VERTEX
 8
PARTS
 10
  7.7700
 20
  8.0300
 30
0.0
 0
SEQEND
 8
PARTS
 0
POLYLINE
 8
PARTS
 66
1
 10
0.0
 20
0.0
 30
0.0
 0
VERTEX
 8
PARTS
 10
  7.7400
 20
  8.0600
 30
0.0
 0
VERTEX
 8
PARTS
 10
  7.6600
 20
  8.0600
 30
0.0
 0
SEQEND
 8
PARTS
 0
POLYLINE
 8
PARTS
 66
1
 10
0.0
 20
0.0
 30
0.0
 0
VERTEX
 8
PARTS
 10
  7.6900
 20
  8.0900
 30
0.0
 0
VERTEX
 8
PARTS
 10
  7.7100
 20
  8.0900
 30
0.0
 0
SEQEND
 8
PARTS
 0
POLYLINE
 8
PARTS
 66
1
 10
0.0
 20
0.0
 30
0.0
 0
VERTEX
 8
PARTS
 10
  7.8000
 20
  6.4000
 30
0.0
 0
VERTEX
 8
PARTS
 10
  7.6000
 20
  6.4000
 30
0.0
 0
SEQEND
 8
PARTS
 0
POLYLINE
 8
PARTS
 66
1
 10
0.0
 20
0.0
 30
0.0
 0
VERTEX
 8
PARTS
 10
  7.7700
 20
  6.3700
 30
0.0
 0
VERTEX
 8
PARTS
 10
  7.6300
 20
  6.3700
 30
0.0
 0
SEQEND
 8
PARTS
 0
POLYLINE
 8
PARTS
 66
1
 10
0.0
 20
0.0
 30
0.0
 0
VERTEX
 8
PARTS
 10
  7.6600
 20
  6.3400
 30
0.0
 0
VERTEX
 8
PARTS
 10
  7.7400
 20
  6.3400
 30
0.0
 0
SEQEND
 8
PARTS
 0
POLYLINE
 8
PARTS
 66
1
 10
0.0
 20
0.0
 30
0.0
 0
VERTEX
 8
PARTS
 10
  7.7100
 20
  6.3100
 30
0.0
 0
VERTEX
 8
PARTS
 10
  7.6900
 20
  6.3100
 30
0.0
 0
SEQEND
 8
PARTS
 0
POLYLINE
 8
PARTS
 66
1
 10
0.0
 20
0.0
 30
0.0
 0
VERTEX
 8
PARTS
 10
 10.7000
 20
  8.7000
 30
0.0
 0
VERTEX
 8
PARTS
 10
 10.7000
 20
  8.5000
 30
0.0
 0
SEQEND
 8
PARTS
 0
POLYLINE
 8
PARTS
 66
1
 10
0.0
 20
0.0
 30
0.0
 0
VERTEX
 8
PARTS
 10
 10.7300
 20
  8.6700
 30
0.0
 0
VERTEX
 8
PARTS
 10
 10.7300
 20
  8.5300
 30
0.0
 0
SEQEND
 8
PARTS
 0
POLYLINE
 8
PARTS
 66
1
 10
0.0
 20
0.0
 30
0.0
 0
VERTEX
 8
PARTS
 10
 10.7600
 20
  8.5600
 30
0.0
 0
VERTEX
 8
PARTS
 10
 10.7600
 20
  8.6400
 30
0.0
 0
SEQEND
 8
PARTS
 0
POLYLINE
 8
PARTS
 66
1
 10
0.0
 20
0.0
 30
0.0
 0
VERTEX
 8
PARTS
 10
 10.7900
 20
  8.6100
 30
0.0
 0
VERTEX
 8
PARTS
 10
 10.7900
 20
  8.5900
 30
0.0
 0
SEQEND
 8
PARTS
 0
POLYLINE
 8
PARTS
 66
1
 10
0.0
 20
0.0
 30
0.0
 0
VERTEX
 8
PARTS
 10
  8.8000
 20
  9.1000
 30
0.0
 0
VERTEX
 8
PARTS
 10
  9.0000
 20
  9.1000
 30
0.0
 0
SEQEND
 8
PARTS
 0
POLYLINE
 8
PARTS
 66
1
 10
0.0
 20
0.0
 30
0.0
 0
VERTEX
 8
PARTS
 10
  8.8300
 20
  9.1300
 30
0.0
 0
VERTEX
 8
PARTS
 10
  8.9700
 20
  9.1300
 30
0.0
 0
SEQEND
 8
PARTS
 0
POLYLINE
 8
PARTS
 66
1
 10
0.0
 20
0.0
 30
0.0
 0
VERTEX
 8
PARTS
 10
  8.9400
 20
  9.1600
 30
0.0
 0
VERTEX
 8
PARTS
 10
  8.8600
 20
  9.1600
 30
0.0
 0
SEQEND
 8
PARTS
 0
POLYLINE
 8
PARTS
 66
1
 10
0.0
 20
0.0
 30
0.0
 0
VERTEX
 8
PARTS
 10
  8.8900
 20
  9.1900
 30
0.0
 0
VERTEX
 8
PARTS
 10
  8.9100
 20
  9.1900
 30
0.0
 0
SEQEND
 8
PARTS
 0
POLYLINE
 8
PARTS
 66
1
 10
0.0
 20
0.0
 30
0.0
 0
VERTEX
 8
PARTS
 10
 13.3000
 20
  2.1000
 30
0.0
 0
VERTEX
 8
PARTS
 10
 13.1000
 20
  2.1000
 30
0.0
 0
SEQEND
 8
PARTS
 0
POLYLINE
 8
PARTS
 66
1
 10
0.0
 20
0.0
 30
0.0
 0
VERTEX
 8
PARTS
 10
 13.2700
 20
  2.0700
 30
0.0
 0
VERTEX
 8
PARTS
 10
 13.1300
 20
  2.0700
 30
0.0
 0
SEQEND
 8
PARTS
 0
POLYLINE
 8
PARTS
 66
1
 10
0.0
 20
0.0
 30
0.0
 0
VERTEX
 8
PARTS
 10
 13.1600
 20
  2.0400
 30
0.0
 0
VERTEX
 8
PARTS
 10
 13.2400
 20
  2.0400
 30
0.0
 0
SEQEND
 8
PARTS
 0
POLYLINE
 8
PARTS
 66
1
 10
0.0
 20
0.0
 30
0.0
 0
VERTEX
 8
PARTS
 10
 13.2100
 20
  2.0100
 30
0.0
 0
VERTEX
 8
PARTS
 10
 13.1900
 20
  2.0100
 30
0.0
 0
SEQEND
 8
PARTS
 0
POLYLINE
 8
PARTS
 66
1
 10
0.0
 20
0.0
 30
0.0
 0
VERTEX
 8
PARTS
 10
 11.9000
 20
  4.1000
 30
0.0
 0
VERTEX
 8
PARTS
 10
 12.1000
 20
  4.1000
 30
0.0
 0
SEQEND
 8
PARTS
 0
POLYLINE
 8
PARTS
 66
1
 10
0.0
 20
0.0
 30
0.0
 0
VERTEX
 8
PARTS
 10
 11.9300
 20
  4.1300
 30
0.0
 0
VERTEX
 8
PARTS
 10
 12.0700
 20
  4.1300
 30
0.0
 0
SEQEND
 8
PARTS
 0
POLYLINE
 8
PARTS
 66
1
 10
0.0
 20
0.0
 30
0.0
 0
VERTEX
 8
PARTS
 10
 12.0400
 20
  4.1600
 30
0.0
 0
VERTEX
 8
PARTS
 10
 11.9600
 20
  4.1600
 30
0.0
 0
SEQEND
 8
PARTS
 0
POLYLINE
 8
PARTS
 66
1
 10
0.0
 20
0.0
 30
0.0
 0
VERTEX
 8
PARTS
 10
 11.9900
 20
  4.1900
 30
0.0
 0
VERTEX
 8
PARTS
 10
 12.0100
 20
  4.1900
 30
0.0
 0
SEQEND
 8
PARTS
 0
POLYLINE
 8
PARTS
 66
1
 10
0.0
 20
0.0
 30
0.0
 0
VERTEX
 8
PARTS
 10
  3.5000
 20
  4.6000
 30
0.0
 0
VERTEX
 8
PARTS
 10
  3.7000
 20
  4.6000
 30
0.0
 0
SEQEND
 8
PARTS
 0
POLYLINE
 8
PARTS
 66
1
 10
0.0
 20
0.0
 30
0.0
 0
VERTEX
 8
PARTS
 10
  3.5300
 20
  4.6300
 30
0.0
 0
VERTEX
 8
PARTS
 10
  3.6700
 20
  4.6300
 30
0.0
 0
SEQEND
 8
PARTS
 0
POLYLINE
 8
PARTS
 66
1
 10
0.0
 20
0.0
 30
0.0
 0
VERTEX
 8
PARTS
 10
  3.6400
 20
  4.6600
 30
0.0
 0
VERTEX
 8
PARTS
 10
  3.5600
 20
  4.6600
 30
0.0
 0
SEQEND
 8
PARTS
 0
POLYLINE
 8
PARTS
 66
1
 10
0.0
 20
0.0
 30
0.0
 0
VERTEX
 8
PARTS
 10
  3.5900
 20
  4.6900
 30
0.0
 0
VERTEX
 8
PARTS
 10
  3.6100
 20
  4.6900
 30
0.0
 0
SEQEND
 8
PARTS
 0
POLYLINE
 8
PARTS
 66
1
 10
0.0
 20
0.0
 30
0.0
 0
VERTEX
 8
PARTS
 10
  6.4000
 20
  4.6000
 30
0.0
 0
VERTEX
 8
PARTS
 10
  6.2000
 20
  4.6000
 30
0.0
 0
SEQEND
 8
PARTS
 0
POLYLINE
 8
PARTS
 66
1
 10
0.0
 20
0.0
 30
0.0
 0
VERTEX
 8
PARTS
 10
  6.3700
 20
  4.6300
 30
0.0
 0
VERTEX
 8
PARTS
 10
  6.2300
 20
  4.6300
 30
0.0
 0
SEQEND
 8
PARTS
 0
POLYLINE
 8
PARTS
 66
1
 10
0.0
 20
0.0
 30
0.0
 0
VERTEX
 8
PARTS
 10
  6.2600
 20
  4.6600
 30
0.0
 0
VERTEX
 8
PARTS
 10
  6.3400
 20
  4.6600
 30
0.0
 0
SEQEND
 8
PARTS
 0
POLYLINE
 8
PARTS
 66
1
 10
0.0
 20
0.0
 30
0.0
 0
VERTEX
 8
PARTS
 10
  6.3100
 20
  4.6900
 30
0.0
 0
VERTEX
 8
PARTS
 10
  6.2900
 20
  4.6900
 30
0.0
 0
SEQEND
 8
PARTS
 0
POLYLINE
 8
PARTS
 66
1
 10
0.0
 20
0.0
 30
0.0
 0
VERTEX
 8
PARTS
 10
  1.6000
 20
  4.2000
 30
0.0
 0
VERTEX
 8
PARTS
 10
  1.8000
 20
  4.2000
 30
0.0
 0
SEQEND
 8
PARTS
 0
POLYLINE
 8
PARTS
 66
1
 10
0.0
 20
0.0
 30
0.0
 0
VERTEX
 8
PARTS
 10
  1.6300
 20
  4.2300
 30
0.0
 0
VERTEX
 8
PARTS
 10
  1.7700
 20
  4.2300
 30
0.0
 0
SEQEND
 8
PARTS
 0
POLYLINE
 8
PARTS
 66
1
 10
0.0
 20
0.0
 30
0.0
 0
VERTEX
 8
PARTS
 10
  1.7400
 20
  4.2600
 30
0.0
 0
VERTEX
 8
PARTS
 10
  1.6600
 20
  4.2600
 30
0.0
 0
SEQEND
 8
PARTS
 0
POLYLINE
 8
PARTS
 66
1
 10
0.0
 20
0.0
 30
0.0
 0
VERTEX
 8
PARTS
 10
  1.6900
 20
  4.2900
 30
0.0
 0
VERTEX
 8
PARTS
 10
  1.7100
 20
  4.2900
 30
0.0
 0
SEQEND
 8
PARTS
 0
POLYLINE
 8
PARTS
 66
1
 10
0.0
 20
0.0
 30
0.0
 0
VERTEX
 8
PARTS
 10
  7.7000
 20
  4.1000
 30
0.0
 0
VERTEX
 8
PARTS
 10
  7.9000
 20
  4.1000
 30
0.0
 0
SEQEND
 8
PARTS
 0
POLYLINE
 8
PARTS
 66
1
 10
0.0
 20
0.0
 30
0.0
 0
VERTEX
 8
PARTS
 10
  7.7300
 20
  4.1300
 30
0.0
 0
VERTEX
 8
PARTS
 10
  7.8700
 20
  4.1300
 30
0.0
 0
SEQEND
 8
PARTS
 0
POLYLINE
 8
PARTS
 66
1
 10
0.0
 20
0.0
 30
0.0
 0
VERTEX
 8
PARTS
 10
  7.8400
 20
  4.1600
 30
0.0
 0
VERTEX
 8
PARTS
 10
  7.7600
 20
  4.1600
 30
0.0
 0
SEQEND
 8
PARTS
 0
POLYLINE
 8
PARTS
 66
1
 10
0.0
 20
0.0
 30
0.0
 0
VERTEX
 8
PARTS
 10
  7.7900
 20
  4.1900
 30
0.0
 0
VERTEX
 8
PARTS
 10
  7.8100
 20
  4.1900
 30
0.0
 0
SEQEND
 8
PARTS
 0
POLYLINE
 8
PARTS
 66
1
 10
0.0
 20
0.0
 30
0.0
 0
VERTEX
 8
PARTS
 10
  2.2000
 20
  3.4000
 30
0.0
 0
VERTEX
 8
PARTS
 10
  2.2000
 20
  3.6000
 30
0.0
 0
SEQEND
 8
PARTS
 0
POLYLINE
 8
PARTS
 66
1
 10
0.0
 20
0.0
 30
0.0
 0
VERTEX
 8
PARTS
 10
  2.1700
 20
  3.4300
 30
0.0
 0
VERTEX
 8
PARTS
 10
  2.1700
 20
  3.5700
 30
0.0
 0
SEQEND
 8
PARTS
 0
POLYLINE
 8
PARTS
 66
1
 10
0.0
 20
0.0
 30
0.0
 0
VERTEX
 8
PARTS
 10
  2.1400
 20
  3.5400
 30
0.0
 0
VERTEX
 8
PARTS
 10
  2.1400
 20
  3.4600
 30
0.0
 0
SEQEND
 8
PARTS
 0
POLYLINE
 8
PARTS
 66
1
 10
0.0
 20
0.0
 30
0.0
 0
VERTEX
 8
PARTS
 10
  2.1100
 20
  3.4900
 30
0.0
 0
VERTEX
 8
PARTS
 10
  2.1100
 20
  3.5100
 30
0.0
 0
SEQEND
 8
PARTS
 0
POLYLINE
 8
PARTS
 66
1
 10
0.0
 20
0.0
 30
0.0
 0
VERTEX
 8
PARTS
 10
  6.0000
 20
  3.2000
 30
0.0
 0
VERTEX
 8
PARTS
 10
  6.0000
 20
  3.4000
 30
0.0
 0
SEQEND
 8
PARTS
 0
POLYLINE
 8
PARTS
 66
1
 10
0.0
 20
0.0
 30
0.0
 0
VERTEX
 8
PARTS
 10
  6.0300
 20
  3.2300
 30
0.0
 0
VERTEX
 8
PARTS
 10
  6.0300
 20
  3.3700
 30
0.0
 0
SEQEND
 8
PARTS
 0
POLYLINE
 8
PARTS
 66
1
 10
0.0
 20
0.0
 30
0.0
 0
VERTEX
 8
PARTS
 10
  6.0600
 20
  3.3400
 30
0.0
 0
VERTEX
 8
PARTS
 10
  6.0600
 20
  3.2600
 30
0.0
 0
SEQEND
 8
PARTS
 0
POLYLINE
 8
PARTS
 66
1
 10
0.0
 20
0.0
 30
0.0
 0
VERTEX
 8
PARTS
 10
  6.0900
 20
  3.2900
 30
0.0
 0
VERTEX
 8
PARTS
 10
  6.0900
 20
  3.3100
 30
0.0
 0
SEQEND
 8
PARTS
 0
POLYLINE
 8
PARTS
 66
1
 10
0.0
 20
0.0
 30
0.0
 0
VERTEX
 8
PARTS
 10
  1.8000
 20
  2.6000
 30
0.0
 0
VERTEX
 8
PARTS
 10
  1.6000
 20
  2.6000
 30
0.0
 0
SEQEND
 8
PARTS
 0
POLYLINE
 8
PARTS
 66
1
 10
0.0
 20
0.0
 30
0.0
 0
VERTEX
 8
PARTS
 10
  1.7700
 20
  2.5700
 30
0.0
 0
VERTEX
 8
PARTS
 10
  1.6300
 20
  2.5700
 30
0.0
 0
SEQEND
 8
PARTS
 0
POLYLINE
 8
PARTS
 66
1
 10
0.0
 20
0.0
 30
0.0
 0
VERTEX
 8
PARTS
 10
  1.6600
 20
  2.5400
 30
0.0
 0
VERTEX
 8
PARTS
 10
  1.7400
 20
  2.5400
 30
0.0
 0
SEQEND
 8
PARTS
 0
POLYLINE
 8
PARTS
 66
1
 10
0.0
 20
0.0
 30
0.0
 0
VERTEX
 8
PARTS
 10
  1.7100
 20
  2.5100
 30
0.0
 0
VERTEX
 8
PARTS
 10
  1.6900
 20
  2.5100
 30
0.0
 0
SEQEND
 8
PARTS
 0
POLYLINE
 8
PARTS
 66
1
 10
0.0
 20
0.0
 30
0.0
 0
VERTEX
 8
PARTS
 10
  7.9000
 20
  2.5000
 30
0.0
 0
VERTEX
 8
PARTS
 10
  7.7000
 20
  2.5000
 30
0.0
 0
SEQEND
 8
PARTS
 0
POLYLINE
 8
PARTS
 66
1
 10
0.0
 20
0.0
 30
0.0
 0
VERTEX
 8
PARTS
 10
  7.8700
 20
  2.4700
 30
0.0
 0
VERTEX
 8
PARTS
 10
  7.7300
 20
  2.4700
 30
0.0
 0
SEQEND
 8
PARTS
 0
POLYLINE
 8
PARTS
 66
1
 10
0.0
 20
0.0
 30
0.0
 0
VERTEX
 8
PARTS
 10
  7.7600
 20
  2.4400
 30
0.0
 0
VERTEX
 8
PARTS
 10
  7.8400
 20
  2.4400
 30
0.0
 0
SEQEND
 8
PARTS
 0
POLYLINE
 8
PARTS
 66
1
 10
0.0
 20
0.0
 30
0.0
 0
VERTEX
 8
PARTS
 10
  7.8100
 20
  2.4100
 30
0.0
 0
VERTEX
 8
PARTS
 10
  7.7900
 20
  2.4100
 30
0.0
 0
SEQEND
 8
PARTS
 0
POLYLINE
 8
PARTS
 66
1
 10
0.0
 20
0.0
 30
0.0
 0
VERTEX
 8
PARTS
 10
  3.5000
 20
  2.0000
 30
0.0
 0
VERTEX
 8
PARTS
 10
  3.7000
 20
  2.0000
 30
0.0
 0
SEQEND
 8
PARTS
 0
POLYLINE
 8
PARTS
 66
1
 10
0.0
 20
0.0
 30
0.0
 0
VERTEX
 8
PARTS
 10
  3.5300
 20
  1.9700
 30
0.0
 0
VERTEX
 8
PARTS
 10
  3.6700
 20
  1.9700
 30
0.0
 0
SEQEND
 8
PARTS
 0
POLYLINE
 8
PARTS
 66
1
 10
0.0
 20
0.0
 30
0.0
 0
VERTEX
 8
PARTS
 10
  3.6400
 20
  1.9400
 30
0.0
 0
VERTEX
 8
PARTS
 10
  3.5600
 20
  1.9400
 30
0.0
 0
SEQEND
 8
PARTS
 0
POLYLINE
 8
PARTS
 66
1
 10
0.0
 20
0.0
 30
0.0
 0
VERTEX
 8
PARTS
 10
  3.5900
 20
  1.9100
 30
0.0
 0
VERTEX
 8
PARTS
 10
  3.6100
 20
  1.9100
 30
0.0
 0
SEQEND
 8
PARTS
 0
POLYLINE
 8
PARTS
 66
1
 10
0.0
 20
0.0
 30
0.0
 0
VERTEX
 8
PARTS
 10
  6.4000
 20
  2.0000
 30
0.0
 0
VERTEX
 8
PARTS
 10
  6.2000
 20
  2.0000
 30
0.0
 0
SEQEND
 8
PARTS
 0
POLYLINE
 8
PARTS
 66
1
 10
0.0
 20
0.0
 30
0.0
 0
VERTEX
 8
PARTS
 10
  6.3700
 20
  1.9700
 30
0.0
 0
VERTEX
 8
PARTS
 10
  6.2300
 20
  1.9700
 30
0.0
 0
SEQEND
 8
PARTS
 0
POLYLINE
 8
PARTS
 66
1
 10
0.0
 20
0.0
 30
0.0
 0
VERTEX
 8
PARTS
 10
  6.2600
 20
  1.9400
 30
0.0
 0
VERTEX
 8
PARTS
 10
  6.3400
 20
  1.9400
 30
0.0
 0
SEQEND
 8
PARTS
 0
POLYLINE
 8
PARTS
 66
1
 10
0.0
 20
0.0
 30
0.0
 0
VERTEX
 8
PARTS
 10
  6.3100
 20
  1.9100
 30
0.0
 0
VERTEX
 8
PARTS
 10
  6.2900
 20
  1.9100
 30
0.0
 0
SEQEND
 8
PARTS
 0
TEXT
 8
PARTTEXT
 10
 12.8200
 20
  7.6686
 30
0.0
 40
  0.0514
 1
TXD
 0
POLYLINE
 8
PARTS
 66
1
 10
0.0
 20
0.0
 30
0.0
 0
VERTEX
 8
PARTS
 10
 12.5000
 20
  7.7500
 30
0.0
 0
VERTEX
 8
PARTS
 10
 12.7000
 20
  7.7500
 30
0.0
 0
SEQEND
 8
PARTS
 0
POLYLINE
 8
PARTS
 66
1
 10
0.0
 20
0.0
 30
0.0
 0
VERTEX
 8
PARTS
 10
 12.7000
 20
  7.7500
 30
0.0
 0
VERTEX
 8
PARTS
 10
 12.8000
 20
  7.7000
 30
0.0
 0
SEQEND
 8
PARTS
 0
POLYLINE
 8
PARTS
 66
1
 10
0.0
 20
0.0
 30
0.0
 0
VERTEX
 8
PARTS
 10
 12.8000
 20
  7.7000
 30
0.0
 0
VERTEX
 8
PARTS
 10
 12.7000
 20
  7.6500
 30
0.0
 0
SEQEND
 8
PARTS
 0
POLYLINE
 8
PARTS
 66
1
 10
0.0
 20
0.0
 30
0.0
 0
VERTEX
 8
PARTS
 10
 12.7000
 20
  7.6500
 30
0.0
 0
VERTEX
 8
PARTS
 10
 12.5000
 20
  7.6500
 30
0.0
 0
SEQEND
 8
PARTS
 0
POLYLINE
 8
PARTS
 66
1
 10
0.0
 20
0.0
 30
0.0
 0
VERTEX
 8
PARTS
 10
 12.5000
 20
  7.6500
 30
0.0
 0
VERTEX
 8
PARTS
 10
 12.5000
 20
  7.7500
 30
0.0
 0
SEQEND
 8
PARTS
 0
TEXT
 8
PARTTEXT
 10
 12.8200
 20
  7.5686
 30
0.0
 40
  0.0514
 1
RXD
 0
POLYLINE
 8
PARTS
 66
1
 10
0.0
 20
0.0
 30
0.0
 0
VERTEX
 8
PARTS
 10
 12.5000
 20
  7.6500
 30
0.0
 0
VERTEX
 8
PARTS
 10
 12.7000
 20
  7.6500
 30
0.0
 0
SEQEND
 8
PARTS
 0
POLYLINE
 8
PARTS
 66
1
 10
0.0
 20
0.0
 30
0.0
 0
VERTEX
 8
PARTS
 10
 12.7000
 20
  7.6500
 30
0.0
 0
VERTEX
 8
PARTS
 10
 12.8000
 20
  7.6000
 30
0.0
 0
SEQEND
 8
PARTS
 0
POLYLINE
 8
PARTS
 66
1
 10
0.0
 20
0.0
 30
0.0
 0
VERTEX
 8
PARTS
 10
 12.8000
 20
  7.6000
 30
0.0
 0
VERTEX
 8
PARTS
 10
 12.7000
 20
  7.5500
 30
0.0
 0
SEQEND
 8
PARTS
 0
POLYLINE
 8
PARTS
 66
1
 10
0.0
 20
0.0
 30
0.0
 0
VERTEX
 8
PARTS
 10
 12.7000
 20
  7.5500
 30
0.0
 0
VERTEX
 8
PARTS
 10
 12.5000
 20
  7.5500
 30
0.0
 0
SEQEND
 8
PARTS
 0
POLYLINE
 8
PARTS
 66
1
 10
0.0
 20
0.0
 30
0.0
 0
VERTEX
 8
PARTS
 10
 12.5000
 20
  7.5500
 30
0.0
 0
VERTEX
 8
PARTS
 10
 12.5000
 20
  7.6500
 30
0.0
 0
SEQEND
 8
PARTS
 0
TEXT
 8
PARTTEXT
 10
 12.8200
 20
  7.7686
 30
0.0
 40
  0.0514
 1
RTS
 0
POLYLINE
 8
PARTS
 66
1
 10
0.0
 20
0.0
 30
0.0
 0
VERTEX
 8
PARTS
 10
 12.5000
 20
  7.8500
 30
0.0
 0
VERTEX
 8
PARTS
 10
 12.7000
 20
  7.8500
 30
0.0
 0
SEQEND
 8
PARTS
 0
POLYLINE
 8
PARTS
 66
1
 10
0.0
 20
0.0
 30
0.0
 0
VERTEX
 8
PARTS
 10
 12.7000
 20
  7.8500
 30
0.0
 0
VERTEX
 8
PARTS
 10
 12.8000
 20
  7.8000
 30
0.0
 0
SEQEND
 8
PARTS
 0
POLYLINE
 8
PARTS
 66
1
 10
0.0
 20
0.0
 30
0.0
 0
VERTEX
 8
PARTS
 10
 12.8000
 20
  7.8000
 30
0.0
 0
VERTEX
 8
PARTS
 10
 12.7000
 20
  7.7500
 30
0.0
 0
SEQEND
 8
PARTS
 0
POLYLINE
 8
PARTS
 66
1
 10
0.0
 20
0.0
 30
0.0
 0
VERTEX
 8
PARTS
 10
 12.7000
 20
  7.7500
 30
0.0
 0
VERTEX
 8
PARTS
 10
 12.5000
 20
  7.7500
 30
0.0
 0
SEQEND
 8
PARTS
 0
POLYLINE
 8
PARTS
 66
1
 10
0.0
 20
0.0
 30
0.0
 0
VERTEX
 8
PARTS
 10
 12.5000
 20
  7.7500
 30
0.0
 0
VERTEX
 8
PARTS
 10
 12.5000
 20
  7.8500
 30
0.0
 0
SEQEND
 8
PARTS
 0
TEXT
 8
PARTTEXT
 10
 12.8200
 20
  6.6686
 30
0.0
 40
  0.0514
 1
IO0
 0
POLYLINE
 8
PARTS
 66
1
 10
0.0
 20
0.0
 30
0.0
 0
VERTEX
 8
PARTS
 10
 12.5000
 20
  6.7500
 30
0.0
 0
VERTEX
 8
PARTS
 10
 12.7000
 20
  6.7500
 30
0.0
 0
SEQEND
 8
PARTS
 0
POLYLINE
 8
PARTS
 66
1
 10
0.0
 20
0.0
 30
0.0
 0
VERTEX
 8
PARTS
 10
 12.7000
 20
  6.7500
 30
0.0
 0
VERTEX
 8
PARTS
 10
 12.8000
 20
  6.7000
 30
0.0
 0
SEQEND
 8
PARTS
 0
POLYLINE
 8
PARTS
 66
1
 10
0.0
 20
0.0
 30
0.0
 0
VERTEX
 8
PARTS
 10
 12.8000
 20
  6.7000
 30
0.0
 0
VERTEX
 8
PARTS
 10
 12.7000
 20
  6.6500
 30
0.0
 0
SEQEND
 8
PARTS
 0
POLYLINE
 8
PARTS
 66
1
 10
0.0
 20
0.0
 30
0.0
 0
VERTEX
 8
PARTS
 10
 12.7000
 20
  6.6500
 30
0.0
 0
VERTEX
 8
PARTS
 10
 12.5000
 20
  6.6500
 30
0.0
 0
SEQEND
 8
PARTS
 0
POLYLINE
 8
PARTS
 66
1
 10
0.0
 20
0.0
 30
0.0
 0
VERTEX
 8
PARTS
 10
 12.5000
 20
  6.6500
 30
0.0
 0
VERTEX
 8
PARTS
 10
 12.5000
 20
  6.7500
 30
0.0
 0
SEQEND
 8
PARTS
 0
TEXT
 8
PARTTEXT
 10
 11.1500
 20
  3.2786
 30
0.0
 40
  0.0514
 1
VCC
 0
POLYLINE
 8
PARTS
 66
1
 10
0.0
 20
0.0
 30
0.0
 0
VERTEX
 8
PARTS
 10
 11.6000
 20
  3.2500
 30
0.0
 0
VERTEX
 8
PARTS
 10
 11.4000
 20
  3.2500
 30
0.0
 0
SEQEND
 8
PARTS
 0
POLYLINE
 8
PARTS
 66
1
 10
0.0
 20
0.0
 30
0.0
 0
VERTEX
 8
PARTS
 10
 11.4000
 20
  3.2500
 30
0.0
 0
VERTEX
 8
PARTS
 10
 11.3000
 20
  3.3000
 30
0.0
 0
SEQEND
 8
PARTS
 0
POLYLINE
 8
PARTS
 66
1
 10
0.0
 20
0.0
 30
0.0
 0
VERTEX
 8
PARTS
 10
 11.3000
 20
  3.3000
 30
0.0
 0
VERTEX
 8
PARTS
 10
 11.4000
 20
  3.3500
 30
0.0
 0
SEQEND
 8
PARTS
 0
POLYLINE
 8
PARTS
 66
1
 10
0.0
 20
0.0
 30
0.0
 0
VERTEX
 8
PARTS
 10
 11.4000
 20
  3.3500
 30
0.0
 0
VERTEX
 8
PARTS
 10
 11.6000
 20
  3.3500
 30
0.0
 0
SEQEND
 8
PARTS
 0
POLYLINE
 8
PARTS
 66
1
 10
0.0
 20
0.0
 30
0.0
 0
VERTEX
 8
PARTS
 10
 11.6000
 20
  3.3500
 30
0.0
 0
VERTEX
 8
PARTS
 10
 11.6000
 20
  3.2500
 30
0.0
 0
SEQEND
 8
PARTS
 0
TEXT
 8
COMMENTS
 10
 10.1000
 20
  1.6186
 30
0.0
 40
  0.0514
 1
C15,esp3215mm
 0
ENDSEC
 0
EOF
